<svg width="223" height="58" viewBox="0 0 223 58" fill="none" xmlns="http://www.w3.org/2000/svg">
<g clip-path="url(#clip0_4422_2690)">
<path d="M2.45312 17.6588V39.8617C2.45312 41.2747 3.20596 42.5835 4.43367 43.29L23.66 54.3857C24.8877 55.0922 26.3933 55.0922 27.621 54.3857L46.8473 43.29C48.075 42.5835 48.8279 41.2747 48.8279 39.8617V17.6588C48.8279 16.2458 48.075 14.937 46.8473 14.2305L27.621 3.13486C26.3933 2.42835 24.8877 2.42835 23.66 3.13486L4.43367 14.2305C3.21754 14.937 2.45312 16.2458 2.45312 17.6588Z" fill="white"/>
<path d="M29.8448 33.0613L27.0999 40.578C27.0188 40.7865 27.0188 41.0182 27.0999 41.2266L31.8138 54.1638L37.269 51.0135L30.7251 33.0613C30.5745 32.6443 29.9954 32.6443 29.8448 33.0613Z" fill="#0C2725"/>
<path d="M35.3423 20.4143C35.1917 19.9973 34.6126 19.9973 34.462 20.4143L31.7171 27.9311C31.636 28.1395 31.636 28.3712 31.7171 28.5797L39.4423 49.7633L44.8975 46.613L35.3423 20.4143Z" fill="#0C2725"/>
<path d="M25.6454 3.95664C25.7844 3.95664 25.9118 3.99139 26.0392 4.06088L46.8407 16.0715C47.0839 16.2105 47.2345 16.4653 47.2345 16.7433V40.7646C47.2345 41.0426 47.0839 41.2974 46.8407 41.4363L26.0392 53.4586C25.9234 53.5281 25.7844 53.5628 25.6454 53.5628C25.5065 53.5628 25.379 53.5281 25.2516 53.4586L4.46176 41.4479C4.21854 41.3089 4.06797 41.0541 4.06797 40.7762V16.7433C4.06797 16.4653 4.21854 16.2105 4.46176 16.0715L25.2632 4.06088C25.379 3.99139 25.518 3.95664 25.6454 3.95664ZM25.6454 0.447266C24.9042 0.447266 24.1629 0.644161 23.5027 1.02637L2.70128 13.037C1.38092 13.8014 0.558594 15.2145 0.558594 16.7433V40.7646C0.558594 42.2934 1.38092 43.718 2.70128 44.4824L23.5027 56.4931C24.1629 56.8753 24.9042 57.0722 25.6454 57.0722C26.3867 57.0722 27.1279 56.8753 27.7881 56.4931L48.5896 44.4824C49.9215 43.718 50.7323 42.305 50.7323 40.7646V16.7433C50.7323 15.2145 49.9099 13.7899 48.5896 13.0254L27.7997 1.02637C27.1279 0.644161 26.3867 0.447266 25.6454 0.447266Z" fill="#0C2725"/>
<path d="M11.8984 49.7874L13.8095 44.5522L17.6547 47.7489L14.0643 51.0382L11.8984 49.7874Z" fill="white"/>
<path d="M23.8878 15.0293H18.618C18.2242 15.0293 17.8651 15.2725 17.7377 15.6431L6.43359 46.6369L11.8888 49.7872L24.3395 15.6547C24.4438 15.3536 24.2237 15.0293 23.8878 15.0293Z" fill="#0C2725"/>
<path d="M33.1227 15.0293H27.8529C27.4591 15.0293 27.1 15.2725 26.9726 15.6431L14.0586 51.0381L19.5138 54.1884L33.5629 15.6663C33.6787 15.3536 33.447 15.0293 33.1227 15.0293Z" fill="#0C2725"/>
<path d="M73.1987 21.48C73.7199 21.48 74.1716 21.5842 74.5306 21.8043C74.8897 22.0243 75.2487 22.4413 75.5962 23.0667L82.476 35.5522C82.5455 35.6912 82.557 35.807 82.5223 35.8997C82.4875 35.9924 82.3833 36.0387 82.2211 36.0387H79.5804C79.3488 36.0387 79.1866 35.946 79.1056 35.7723L77.6346 33.0968H67.8709L66.4347 35.7723C66.3421 35.9576 66.1799 36.0387 65.9599 36.0387H63.2612C63.0759 36.0387 62.9717 35.9924 62.9369 35.8997C62.9022 35.807 62.9138 35.6912 62.9833 35.5522L69.8051 23.0667C70.1526 22.4413 70.4885 22.0243 70.8244 21.8043C71.1602 21.5842 71.5424 21.48 71.9826 21.48H73.1987ZM69.1565 30.6646H76.3143L73.0134 24.5724C72.9555 24.4797 72.886 24.4218 72.7817 24.4218H72.6543C72.5617 24.4218 72.4806 24.4682 72.4227 24.5724L69.1565 30.6646Z" fill="#0C2725"/>
<path d="M97.5914 21.48C99.1897 21.48 100.325 21.839 101.02 22.5571C101.715 23.2752 102.062 24.3408 102.062 25.7538V26.9352C102.062 28.1281 101.819 29.0663 101.332 29.7612C100.846 30.4561 100.058 30.8962 98.9581 31.0931L102.514 35.4943C102.583 35.5638 102.606 35.6681 102.572 35.807C102.549 35.946 102.433 36.0155 102.236 36.0155H99.5603C99.375 36.0155 99.2592 35.9924 99.1897 35.9576C99.1202 35.9113 99.0507 35.8418 98.9812 35.7491L95.6919 31.429H88.9743V35.5638C88.9743 35.865 88.8237 36.0155 88.5226 36.0155H86.2756C85.9513 36.0155 85.8008 35.865 85.8008 35.5638V22.1054C85.8008 21.6885 86.0093 21.48 86.4262 21.48H97.5914ZM88.9859 28.9041H96.9428C97.6493 28.9041 98.1473 28.7535 98.4369 28.4524C98.7264 28.1513 98.877 27.688 98.877 27.0626V26.1939C98.877 25.5685 98.7264 25.1052 98.4369 24.804C98.1473 24.5029 97.6493 24.3523 96.9428 24.3523H89.2522C89.0669 24.3523 88.9859 24.4334 88.9859 24.6071V28.9041Z" fill="#0C2725"/>
<path d="M119.453 21.48C120.877 21.48 121.897 21.7695 122.499 22.3371C123.101 22.9046 123.402 23.7617 123.402 24.9083V25.9043C123.402 27.0626 122.962 27.9428 122.07 28.5451C123.02 29.101 123.507 29.9928 123.507 31.2205V32.4251C123.507 32.981 123.449 33.479 123.321 33.9192C123.194 34.3593 122.997 34.7415 122.707 35.0542C122.418 35.3669 122.047 35.6101 121.572 35.7723C121.098 35.9344 120.518 36.0271 119.824 36.0271H107.477C107.06 36.0271 106.852 35.8186 106.852 35.4017V22.1054C106.852 21.6885 107.06 21.48 107.477 21.48H119.453ZM110.037 27.5258H118.561C119.256 27.5258 119.719 27.4216 119.974 27.2131C120.229 27.0046 120.345 26.7035 120.345 26.2981V25.5916C120.345 25.1631 120.229 24.8504 119.986 24.6419C119.742 24.445 119.349 24.3408 118.816 24.3408H110.315C110.129 24.3408 110.048 24.4334 110.048 24.6071V27.5258H110.037ZM110.037 29.7959V32.8884C110.037 33.0737 110.129 33.1547 110.303 33.1547H118.827C119.383 33.1547 119.777 33.0505 120.009 32.8536C120.24 32.6567 120.368 32.3324 120.368 31.8923V31.1047C120.368 30.6762 120.24 30.3519 119.986 30.1318C119.731 29.9118 119.256 29.7959 118.561 29.7959H110.037Z" fill="#0C2725"/>
<path d="M131.249 21.48C131.55 21.48 131.701 21.6305 131.701 21.9317V35.5638C131.701 35.865 131.55 36.0155 131.249 36.0155H129.002C128.678 36.0155 128.527 35.865 128.527 35.5638V21.9433C128.527 21.6421 128.689 21.4916 129.002 21.4916L131.249 21.48Z" fill="#0C2725"/>
<path d="M153.022 21.48C153.346 21.48 153.497 21.6305 153.497 21.9317V23.9701C153.497 24.2944 153.335 24.445 153.022 24.445H146.501V35.5638C146.501 35.865 146.351 36.0155 146.049 36.0155H143.779C143.478 36.0155 143.328 35.865 143.328 35.5638V24.445H136.807C136.483 24.445 136.332 24.2829 136.332 23.9701V21.9317C136.332 21.6305 136.494 21.48 136.807 21.48H153.022Z" fill="#0C2725"/>
<path d="M169.459 21.48C171.057 21.48 172.192 21.839 172.887 22.5571C173.582 23.2752 173.929 24.3408 173.929 25.7538V26.9352C173.929 28.1281 173.686 29.0663 173.2 29.7612C172.713 30.4561 171.926 30.8962 170.825 31.0931L174.381 35.4943C174.45 35.5638 174.474 35.6681 174.439 35.807C174.416 35.946 174.3 36.0155 174.103 36.0155H171.428C171.242 36.0155 171.126 35.9924 171.057 35.9576C170.987 35.9113 170.918 35.8418 170.848 35.7491L167.559 31.429H160.841V35.5638C160.841 35.865 160.691 36.0155 160.39 36.0155H158.143C157.819 36.0155 157.668 35.865 157.668 35.5638V22.1054C157.668 21.6885 157.876 21.48 158.293 21.48H169.459ZM160.865 28.9041H168.822C169.528 28.9041 170.026 28.7535 170.316 28.4524C170.605 28.1513 170.756 27.688 170.756 27.0626V26.1939C170.756 25.5685 170.605 25.1052 170.316 24.804C170.026 24.5029 169.528 24.3523 168.822 24.3523H161.131C160.946 24.3523 160.865 24.4334 160.865 24.6071V28.9041Z" fill="#0C2725"/>
<path d="M181.144 21.48C181.445 21.48 181.596 21.6305 181.596 21.9317V30.2245C181.596 30.7804 181.642 31.2437 181.735 31.6027C181.827 31.9734 181.978 32.2629 182.186 32.4714C182.395 32.6915 182.673 32.842 183.032 32.9231C183.391 33.0158 183.831 33.0621 184.375 33.0621H190.132C190.676 33.0621 191.116 33.0158 191.475 32.9231C191.834 32.8304 192.112 32.6799 192.321 32.4714C192.529 32.2513 192.68 31.9618 192.761 31.6027C192.842 31.2321 192.888 30.7804 192.888 30.2245V21.9317C192.888 21.6305 193.039 21.48 193.34 21.48H195.61C195.911 21.48 196.062 21.6305 196.062 21.9317V30.5372C196.062 31.5332 195.957 32.3787 195.749 33.0852C195.54 33.7802 195.205 34.3477 194.741 34.7878C194.278 35.2279 193.676 35.5407 192.935 35.7376C192.193 35.9344 191.301 36.0271 190.247 36.0271H184.26C183.206 36.0271 182.314 35.9344 181.584 35.7376C180.854 35.5407 180.252 35.2279 179.789 34.7878C179.326 34.3477 178.99 33.7802 178.77 33.0852C178.55 32.3903 178.445 31.5332 178.445 30.5372V21.9317C178.445 21.6305 178.607 21.48 178.92 21.48H181.144Z" fill="#0C2725"/>
<path d="M204.995 21.48C205.296 21.48 205.563 21.5031 205.783 21.5379C206.003 21.5842 206.2 21.6537 206.362 21.7811C206.524 21.8969 206.675 22.0591 206.814 22.256C206.941 22.4529 207.08 22.7193 207.219 23.0551L211.539 33.0273C211.597 33.1547 211.69 33.2127 211.829 33.2127H212.083C212.222 33.2127 212.315 33.1547 212.373 33.0273L216.693 23.0551C216.832 22.7193 216.971 22.4529 217.098 22.256C217.226 22.0591 217.376 21.8969 217.55 21.7811C217.712 21.6653 217.909 21.5842 218.118 21.5379C218.338 21.4916 218.593 21.48 218.894 21.48H221.117C221.836 21.48 222.322 21.6421 222.577 21.9664C222.832 22.2907 222.947 22.8467 222.947 23.6343V35.5638C222.947 35.865 222.785 36.0155 222.473 36.0155H220.353C220.052 36.0155 219.901 35.865 219.901 35.5638V24.7114C219.901 24.5724 219.843 24.5029 219.739 24.5029H219.554C219.415 24.5029 219.322 24.5608 219.287 24.6651L215.095 33.9771C214.933 34.3477 214.759 34.672 214.585 34.9268C214.411 35.1816 214.226 35.3901 214.029 35.5638C213.832 35.726 213.601 35.8534 213.346 35.9229C213.091 35.9924 212.79 36.0271 212.442 36.0271H211.446C211.099 36.0271 210.798 35.9924 210.543 35.9229C210.288 35.8534 210.057 35.7376 209.86 35.5638C209.663 35.4017 209.466 35.1816 209.304 34.9268C209.13 34.672 208.956 34.3593 208.794 33.9771L204.601 24.6651C204.555 24.5492 204.474 24.5029 204.335 24.5029H204.15C204.034 24.5029 203.988 24.5724 203.988 24.7114V35.5638C203.988 35.865 203.837 36.0155 203.536 36.0155H201.416C201.092 36.0155 200.941 35.865 200.941 35.5638V23.6343C200.941 22.8467 201.069 22.2907 201.312 21.9664C201.567 21.6421 202.053 21.48 202.783 21.48H204.995Z" fill="#0C2725"/>
</g>
<defs>
<clipPath id="clip0_4422_2690">
<rect width="222.376" height="56.6249" fill="white" transform="translate(0.566406 0.445801)"/>
</clipPath>
</defs>
</svg>
