<svg width="1253" height="227" viewBox="0 0 1253 227" fill="none" xmlns="http://www.w3.org/2000/svg">
<g clip-path="url(#clip0_8943_56726)">
<path d="M197.614 137.204C201.644 130.339 211.653 130.339 215.639 137.204L258.466 210.368C262.496 217.233 257.447 225.78 249.431 225.78H163.778C155.761 225.78 150.757 217.233 154.743 210.368L197.569 137.204H197.614Z" fill="black"/>
<path d="M171.746 88.4861C175.643 81.6657 175.643 73.2509 171.746 66.3863L136.625 5.1358C132.684 -1.72886 122.852 -1.72886 118.91 5.1358L1.36937 210.323C-2.57228 217.187 2.34371 225.779 10.227 225.779H80.4237C88.2627 225.779 95.4817 221.572 99.379 214.752L171.702 88.4861H171.746Z" fill="black"/>
<path d="M414.674 208.683V225.779H404.488C392.308 225.779 387.747 220.508 387.57 211.562C381.369 220.641 371.714 226.842 357.188 226.842C336.992 226.842 322.953 216.833 322.953 199.56C322.953 180.251 336.594 169.71 362.458 169.71H385.577V164.085C385.577 153.722 378.136 147.344 365.381 147.344C353.911 147.344 346.293 152.792 344.831 160.985H325.345C327.515 142.96 342.794 131.489 366.311 131.489C389.828 131.489 405.063 143.314 405.063 165.325V202.616C405.063 207.355 406.702 208.639 410.865 208.639H414.674V208.683ZM385.577 184.281H361.572C349.57 184.281 342.839 188.842 342.839 198.276C342.839 206.115 349.393 211.562 359.934 211.562C375.966 211.562 385.577 201.907 385.577 187.912V184.281Z" fill="black"/>
<path d="M457.45 225.779L422.152 132.597H443.278L469.851 204.653L496.246 132.597H516.973L481.498 225.779H457.494H457.45Z" fill="black"/>
<path d="M617.342 208.683V225.779H607.156C594.976 225.779 590.415 220.508 590.237 211.562C584.037 220.641 574.382 226.842 559.856 226.842C539.66 226.842 525.621 216.833 525.621 199.56C525.621 180.251 539.262 169.71 565.126 169.71H588.245V164.085C588.245 153.722 580.804 147.344 568.049 147.344C556.578 147.344 548.961 152.792 547.499 160.985H528.013C530.183 142.96 545.462 131.489 568.979 131.489C592.496 131.489 607.731 143.314 607.731 165.325V202.616C607.731 207.355 609.37 208.639 613.533 208.639H617.342V208.683ZM588.2 184.281H564.196C552.194 184.281 545.462 188.842 545.462 198.276C545.462 206.115 552.017 211.562 562.557 211.562C578.59 211.562 588.2 201.907 588.2 187.912V184.281Z" fill="black"/>
<path d="M707.325 208.509V225.781H631.637V208.509H659.76V116.921L631.637 126.221V108.86L655.685 99.6484H679.424V208.553H707.369L707.325 208.509Z" fill="black"/>
<path d="M812.162 208.683V225.779H801.976C789.797 225.779 785.235 220.508 785.058 211.562C778.857 220.641 769.203 226.842 754.676 226.842C734.481 226.842 720.441 216.833 720.441 199.56C720.441 180.251 734.082 169.71 759.946 169.71H783.065V164.085C783.065 153.722 775.624 147.344 762.869 147.344C751.399 147.344 743.781 152.792 742.32 160.985H722.833C725.003 142.96 740.283 131.489 763.8 131.489C787.317 131.489 802.552 143.314 802.552 165.325V202.616C802.552 207.355 804.19 208.639 808.353 208.639H812.162V208.683ZM783.065 184.281H759.061C747.059 184.281 740.327 188.842 740.327 198.276C740.327 206.115 746.881 211.562 757.422 211.562C773.454 211.562 783.065 201.907 783.065 187.912V184.281Z" fill="black"/>
<path d="M917.394 172.633V225.779H897.553V174.449C897.553 157.885 890.466 148.806 876.427 148.806C861.679 148.806 852.777 159.524 852.777 177.549V225.779H833.113V132.596H850.209L852.379 144.776C858.003 137.512 866.772 131.489 880.944 131.489C900.786 131.489 917.349 142.207 917.349 172.633H917.394Z" fill="black"/>
<path d="M941.529 179.365C941.529 150.622 959.908 131.489 987.943 131.489C1011.77 131.489 1026.69 144.776 1030.33 165.901H1009.78C1007.21 154.962 999.413 148.23 987.588 148.23C971.955 148.23 961.547 161.162 961.547 179.365C961.547 197.567 971.91 210.101 987.588 210.101C999.236 210.101 1007.25 203.192 1009.6 192.43H1030.33C1026.87 213.555 1011.02 226.842 987.367 226.842C959.332 226.842 941.484 208.462 941.484 179.365H941.529Z" fill="black"/>
<path d="M1139.13 172.634V225.78H1119.29V174.273C1119.29 158.24 1112.21 148.807 1097.64 148.807C1083.07 148.807 1073.63 159.746 1073.63 177.373V225.78H1053.97V98.4072H1073.63V144.467C1080.01 136.451 1089.66 131.535 1102.2 131.535C1124.03 131.535 1139.13 144.467 1139.13 172.678V172.634Z" fill="black"/>
<path d="M1182.94 183.753V184.683C1183.47 200.494 1193.3 210.901 1208.58 210.901C1220.23 210.901 1229.13 204.878 1231.7 194.515H1251.36C1248.08 212.894 1232.63 226.889 1209.69 226.889C1180.59 226.889 1162.39 207.978 1162.39 179.413C1162.39 150.847 1180.59 131.537 1207.69 131.537C1234.8 131.537 1252.47 148.632 1253 175.958C1253 177.951 1252.82 181.051 1252.47 183.797H1182.94V183.753ZM1183.65 169.005H1232.58C1230.94 155.187 1221.47 147.348 1207.83 147.348C1195.65 147.348 1185.06 155.718 1183.6 169.005H1183.65Z" fill="black"/>
</g>
<defs>
<clipPath id="clip0_8943_56726">
<rect width="1253" height="226.888" fill="white"/>
</clipPath>
</defs>
</svg>
