<svg width="1200" height="630" viewBox="0 0 1200 630" xmlns="http://www.w3.org/2000/svg">
  <!-- Background -->
  <rect width="1200" height="630" fill="#000000"/>

  <!-- 15+ rounds represented as separate constellation clusters -->

  <!-- Round cluster 1 (upper left) -->
  <g>
    <circle cx="750" cy="100" r="4" fill="#FFFFFF"/>
    <circle cx="780" cy="120" r="4" fill="#FFFFFF"/>
    <circle cx="810" cy="110" r="4" fill="#FFFFFF"/>
    <line x1="750" y1="100" x2="780" y2="120" stroke="#FFFFFF" stroke-width="1" opacity="0.5"/>
    <line x1="780" y1="120" x2="810" y2="110" stroke="#FFFFFF" stroke-width="1" opacity="0.5"/>
  </g>

  <!-- Round cluster 2 (upper center) -->
  <g>
    <circle cx="900" cy="90" r="4" fill="#FFFFFF"/>
    <circle cx="930" cy="110" r="4" fill="#FFFFFF"/>
    <circle cx="920" cy="140" r="4" fill="#FFFFFF"/>
    <line x1="900" y1="90" x2="930" y2="110" stroke="#FFFFFF" stroke-width="1" opacity="0.5"/>
    <line x1="930" y1="110" x2="920" y2="140" stroke="#FFFFFF" stroke-width="1" opacity="0.5"/>
  </g>

  <!-- Round cluster 3 (upper right) -->
  <g>
    <circle cx="1020" cy="120" r="4" fill="#FFFFFF"/>
    <circle cx="1050" cy="100" r="4" fill="#FFFFFF"/>
    <circle cx="1040" cy="150" r="4" fill="#FFFFFF"/>
    <line x1="1020" y1="120" x2="1050" y2="100" stroke="#FFFFFF" stroke-width="1" opacity="0.5"/>
    <line x1="1050" y1="100" x2="1040" y2="150" stroke="#FFFFFF" stroke-width="1" opacity="0.5"/>
  </g>

  <!-- Round cluster 4 (mid right) -->
  <g>
    <circle cx="1080" cy="250" r="4" fill="#FFFFFF"/>
    <circle cx="1110" cy="270" r="4" fill="#FFFFFF"/>
    <circle cx="1100" cy="300" r="4" fill="#FFFFFF"/>
    <line x1="1080" y1="250" x2="1110" y2="270" stroke="#FFFFFF" stroke-width="1" opacity="0.5"/>
    <line x1="1110" y1="270" x2="1100" y2="300" stroke="#FFFFFF" stroke-width="1" opacity="0.5"/>
  </g>

  <!-- Round cluster 5 (lower right) -->
  <g>
    <circle cx="950" cy="380" r="4" fill="#FFFFFF"/>
    <circle cx="980" cy="400" r="4" fill="#FFFFFF"/>
    <circle cx="1010" cy="390" r="4" fill="#FFFFFF"/>
    <line x1="950" y1="380" x2="980" y2="400" stroke="#FFFFFF" stroke-width="1" opacity="0.5"/>
    <line x1="980" y1="400" x2="1010" y2="390" stroke="#FFFFFF" stroke-width="1" opacity="0.5"/>
  </g>

  <!-- Additional scattered stars representing more rounds -->
  <circle cx="850" cy="200" r="3" fill="#FFFFFF"/>
  <circle cx="1000" cy="220" r="3" fill="#FFFFFF"/>
  <circle cx="800" cy="300" r="3" fill="#FFFFFF"/>

  <!-- Quadratic grid pattern (subtle, showing QF mechanism) -->
  <g opacity="0.15">
    <line x1="850" y1="450" x2="950" y2="450" stroke="#FFFFFF" stroke-width="1"/>
    <line x1="850" y1="480" x2="950" y2="480" stroke="#FFFFFF" stroke-width="1"/>
    <line x1="850" y1="510" x2="950" y2="510" stroke="#FFFFFF" stroke-width="1"/>
    <line x1="870" y1="430" x2="870" y2="530" stroke="#FFFFFF" stroke-width="1"/>
    <line x1="900" y1="430" x2="900" y2="530" stroke="#FFFFFF" stroke-width="1"/>
    <line x1="930" y1="430" x2="930" y2="530" stroke="#FFFFFF" stroke-width="1"/>
  </g>

  <!-- Horizon -->
  <line x1="0" y1="530" x2="700" y2="530" stroke="#FFFFFF" stroke-width="1" opacity="0.3"/>
  <path d="M 0 530 Q 120 510 240 530 T 480 530 L 480 630 L 0 630 Z"
        fill="#000000" stroke="#FFFFFF" stroke-width="2"/>
  <g opacity="0.5">
    <line x1="50" y1="530" x2="60" y2="630" stroke="#FFFFFF" stroke-width="1"/>
    <line x1="100" y1="520" x2="110" y2="630" stroke="#FFFFFF" stroke-width="1"/>
    <line x1="150" y1="515" x2="160" y2="630" stroke="#FFFFFF" stroke-width="1"/>
  </g>

  <!-- Title -->
  <text x="80" y="200" font-family="Arial, sans-serif" font-size="68" font-weight="bold" fill="#FFFFFF" letter-spacing="-0.02em">GG20</text>
  <text x="80" y="270" font-family="Arial, sans-serif" font-size="32" font-weight="500" fill="#FFFFFF" opacity="0.85">Community Rounds at Scale</text>

  <!-- Metrics -->
  <text x="80" y="350" font-family="Arial, sans-serif" font-size="28" fill="#FFFFFF" opacity="0.9">$2.5M+ • 15+ Rounds</text>
  <text x="80" y="395" font-family="Arial, sans-serif" font-size="22" fill="#FFFFFF" opacity="0.7">15K Unique Donors</text>

  <!-- Star accent -->
  <g transform="translate(60, 230)">
    <line x1="0" y1="-8" x2="0" y2="8" stroke="#FFFFFF" stroke-width="1.5"/>
    <line x1="-8" y1="0" x2="8" y2="0" stroke="#FFFFFF" stroke-width="1.5"/>
  </g>
</svg>
