<svg width="1200" height="630" viewBox="0 0 1200 630" xmlns="http://www.w3.org/2000/svg">
  <defs>
    <linearGradient id="octant-cs-bg" x1="0%" y1="0%" x2="100%" y2="100%">
      <stop offset="0%" style="stop-color:#40268C" />
      <stop offset="50%" style="stop-color:#5a3bb0" />
      <stop offset="100%" style="stop-color:#c9e8e3" />
    </linearGradient>
  </defs>
  <rect width="1200" height="630" fill="url(#octant-cs-bg)"/>
  <g opacity="0.15">
    <polygon points="950,180 1000,160 1050,180 1050,230 1000,250 950,230" fill="#c9e8e3"/>
    <polygon points="850,260 900,240 950,260 950,310 900,330 850,310" fill="#c9e8e3"/>
    <polygon points="1050,260 1100,240 1150,260 1150,310 1100,330 1050,310" fill="#c9e8e3"/>
  </g>
  <circle cx="200" cy="500" r="100" fill="white" opacity="0.1"/>
  <text x="100" y="280" font-family="Arial, sans-serif" font-size="72" font-weight="bold" fill="white">Octant</text>
  <text x="100" y="350" font-family="Arial, sans-serif" font-size="36" fill="#c9e8e3" font-weight="500">Case Study</text>
  <text x="100" y="420" font-family="Arial, sans-serif" font-size="30" fill="white" opacity="0.85">Staking-Powered Funding</text>
  <text x="100" y="465" font-family="Arial, sans-serif" font-size="26" fill="white" opacity="0.75">$15M+ • 9 Epochs • 100K ETH</text>
  <rect x="100" y="490" width="240" height="6" fill="#c9e8e3" rx="3"/>
</svg>
