<svg width="1200" height="630" viewBox="0 0 1200 630" xmlns="http://www.w3.org/2000/svg">
  <!-- Background -->
  <rect width="1200" height="630" fill="#000000"/>

  <!-- Bioregion landscape silhouette -->
  <path d="M 0 450 Q 100 380 200 400 Q 300 350 400 380 Q 500 330 600 360 Q 700 310 800 350 Q 900 300 1000 340 Q 1100 310 1200 350 L 1200 630 L 0 630 Z"
        fill="#000000" stroke="#FFFFFF" stroke-width="2"/>

  <!-- Hatching in landscape -->
  <g opacity="0.4">
    <line x1="50" y1="450" x2="70" y2="630" stroke="#FFFFFF" stroke-width="1"/>
    <line x1="150" y1="420" x2="170" y2="630" stroke="#FFFFFF" stroke-width="1"/>
    <line x1="250" y1="400" x2="270" y2="630" stroke="#FFFFFF" stroke-width="1"/>
    <line x1="350" y1="390" x2="370" y2="630" stroke="#FFFFFF" stroke-width="1"/>
    <line x1="450" y1="370" x2="470" y2="630" stroke="#FFFFFF" stroke-width="1"/>
    <line x1="550" y1="365" x2="570" y2="630" stroke="#FFFFFF" stroke-width="1"/>
    <line x1="650" y1="350" x2="670" y2="630" stroke="#FFFFFF" stroke-width="1"/>
    <line x1="750" y1="355" x2="770" y2="630" stroke="#FFFFFF" stroke-width="1"/>
    <line x1="850" y1="340" x2="870" y2="630" stroke="#FFFFFF" stroke-width="1"/>
    <line x1="950" y1="345" x2="970" y2="630" stroke="#FFFFFF" stroke-width="1"/>
    <line x1="1050" y1="335" x2="1070" y2="630" stroke="#FFFFFF" stroke-width="1"/>
    <line x1="1150" y1="345" x2="1170" y2="630" stroke="#FFFFFF" stroke-width="1"/>
  </g>

  <!-- Watershed/river flowing through landscape -->
  <path d="M 600 360 Q 580 400 590 440 Q 610 480 595 520 Q 575 560 590 600 L 590 630"
        fill="none" stroke="#FFFFFF" stroke-width="2" opacity="0.6"/>
  <path d="M 610 360 Q 630 400 620 440 Q 600 480 615 520 Q 635 560 620 600 L 620 630"
        fill="none" stroke="#FFFFFF" stroke-width="2" opacity="0.6"/>

  <!-- Swarm nodes (distributed AI agents) -->
  <!-- Node cluster 1 - upper right -->
  <circle cx="850" cy="120" r="8" fill="#000000" stroke="#FFFFFF" stroke-width="2"/>
  <circle cx="920" cy="90" r="6" fill="#000000" stroke="#FFFFFF" stroke-width="2"/>
  <circle cx="980" cy="130" r="7" fill="#000000" stroke="#FFFFFF" stroke-width="2"/>
  <circle cx="940" cy="170" r="5" fill="#000000" stroke="#FFFFFF" stroke-width="2"/>
  <circle cx="1050" cy="100" r="6" fill="#000000" stroke="#FFFFFF" stroke-width="2"/>
  <circle cx="1020" cy="180" r="8" fill="#000000" stroke="#FFFFFF" stroke-width="2"/>
  <circle cx="1100" cy="150" r="5" fill="#000000" stroke="#FFFFFF" stroke-width="2"/>

  <!-- Connections between swarm nodes -->
  <line x1="858" y1="120" x2="914" y2="93" stroke="#FFFFFF" stroke-width="1" opacity="0.5"/>
  <line x1="926" y1="90" x2="973" y2="127" stroke="#FFFFFF" stroke-width="1" opacity="0.5"/>
  <line x1="980" y1="137" x2="940" y2="165" stroke="#FFFFFF" stroke-width="1" opacity="0.5"/>
  <line x1="987" y1="130" x2="1044" y2="103" stroke="#FFFFFF" stroke-width="1" opacity="0.5"/>
  <line x1="985" y1="135" x2="1014" y2="175" stroke="#FFFFFF" stroke-width="1" opacity="0.5"/>
  <line x1="1056" y1="100" x2="1094" y2="147" stroke="#FFFFFF" stroke-width="1" opacity="0.5"/>
  <line x1="1028" y1="180" x2="1094" y2="153" stroke="#FFFFFF" stroke-width="1" opacity="0.5"/>
  <line x1="850" y1="128" x2="935" y2="167" stroke="#FFFFFF" stroke-width="1" opacity="0.3"/>
  <line x1="920" y1="96" x2="1050" y2="100" stroke="#FFFFFF" stroke-width="1" opacity="0.3"/>

  <!-- Node cluster 2 - middle right -->
  <circle cx="900" cy="260" r="6" fill="#000000" stroke="#FFFFFF" stroke-width="2"/>
  <circle cx="960" cy="280" r="7" fill="#000000" stroke="#FFFFFF" stroke-width="2"/>
  <circle cx="1040" cy="260" r="5" fill="#000000" stroke="#FFFFFF" stroke-width="2"/>
  <circle cx="1000" cy="310" r="6" fill="#000000" stroke="#FFFFFF" stroke-width="2"/>

  <line x1="906" y1="262" x2="953" y2="278" stroke="#FFFFFF" stroke-width="1" opacity="0.5"/>
  <line x1="967" y1="278" x2="1035" y2="262" stroke="#FFFFFF" stroke-width="1" opacity="0.5"/>
  <line x1="962" y1="287" x2="998" y2="305" stroke="#FFFFFF" stroke-width="1" opacity="0.5"/>
  <line x1="1038" y1="265" x2="1004" y2="305" stroke="#FFFFFF" stroke-width="1" opacity="0.5"/>

  <!-- Connecting lines between clusters (long-range swarm coordination) -->
  <line x1="940" y1="176" x2="905" y2="255" stroke="#FFFFFF" stroke-width="1" stroke-dasharray="4,4" opacity="0.3"/>
  <line x1="1020" y1="188" x2="1040" y2="255" stroke="#FFFFFF" stroke-width="1" stroke-dasharray="4,4" opacity="0.3"/>

  <!-- Capital flow arrows (down to bioregion) -->
  <path d="M 960 315 Q 950 340 940 360" fill="none" stroke="#FFFFFF" stroke-width="1.5" stroke-dasharray="6,3" opacity="0.5"/>
  <path d="M 900 268 Q 870 310 850 345" fill="none" stroke="#FFFFFF" stroke-width="1.5" stroke-dasharray="6,3" opacity="0.5"/>

  <!-- Decorative stars -->
  <circle cx="780" cy="80" r="2" fill="#FFFFFF"/>
  <circle cx="820" cy="200" r="2" fill="#FFFFFF"/>
  <circle cx="1130" cy="110" r="2" fill="#FFFFFF"/>
  <circle cx="1080" cy="230" r="2" fill="#FFFFFF"/>
  <circle cx="750" cy="280" r="2" fill="#FFFFFF"/>

  <!-- Four-pointed star accents -->
  <g transform="translate(60, 380)">
    <line x1="0" y1="-8" x2="0" y2="8" stroke="#FFFFFF" stroke-width="1.5"/>
    <line x1="-8" y1="0" x2="8" y2="0" stroke="#FFFFFF" stroke-width="1.5"/>
  </g>
  <g transform="translate(730, 160)">
    <line x1="0" y1="-6" x2="0" y2="6" stroke="#FFFFFF" stroke-width="1.5"/>
    <line x1="-6" y1="0" x2="6" y2="0" stroke="#FFFFFF" stroke-width="1.5"/>
  </g>

  <!-- Title -->
  <text x="80" y="180" font-family="Arial, sans-serif" font-size="56" font-weight="bold" fill="#FFFFFF" letter-spacing="-0.02em">Bioregional</text>
  <text x="80" y="250" font-family="Arial, sans-serif" font-size="56" font-weight="bold" fill="#FFFFFF" letter-spacing="-0.02em">Swarms</text>

  <!-- Subtitle -->
  <text x="80" y="310" font-family="Arial, sans-serif" font-size="24" fill="#FFFFFF" opacity="0.7">Capital • Coordination • Knowledge Commons</text>
</svg>
