<svg width="56" height="56" viewBox="0 0 56 56" fill="none" xmlns="http://www.w3.org/2000/svg">
<path d="M40.6737 23.0387C43.1201 27.0442 41.9826 32.087 38.1652 34.83C37.8409 35.0627 37.7342 35.4443 37.8284 35.7784C37.8849 35.978 38.0106 36.1529 38.1857 36.2708L38.2729 36.3435L38.5885 36.4202C43.2045 36.9817 46.7658 40.5955 47 45H32.3038C27.4356 45 23.4418 41.6214 22.7388 37.2625L22.7075 37.0544C22.6523 36.6486 22.3503 36.3938 22.0394 36.315C21.7488 36.2414 21.3993 36.3062 21.152 36.5678L21.1042 36.6229C18.2975 40.093 13.1953 41.2304 9 39.1976L16.3227 27.2072C18.7766 23.1894 23.9995 21.5845 28.4426 23.3424C28.8011 23.4843 29.1702 23.3858 29.4099 23.1592C29.6525 22.9297 29.7773 22.5488 29.6104 22.1716C27.8294 18.1465 29.3359 13.4051 33.3219 11L40.6737 23.0387ZM30.747 24.1883C30.3248 23.4965 29.3117 23.4748 28.8525 24.1234L28.8097 24.1883L22.3967 34.6901C21.9234 35.4662 22.5481 36.3439 23.3653 36.3439L36.1917 36.3435C36.9821 36.343 37.5955 35.521 37.201 34.7632L37.1599 34.6901L30.747 24.1883Z" fill="#EAE8E4"/>
</svg>
