<svg width="56" height="56" viewBox="0 0 56 56" fill="none" xmlns="http://www.w3.org/2000/svg">
<path d="M27.5 12C36.6127 12 44 19.3873 44 28.5C44 37.6127 36.6127 45 27.5 45C18.3873 45 11 37.6127 11 28.5C11 19.3873 18.3873 12 27.5 12ZM22.374 23.3936C18.5253 23.3936 16.5089 25.0098 16.0361 28.4736C15.5538 32.0142 17.2132 33.7079 21.1582 33.708C25.1034 33.708 27.0136 32.0915 27.4863 28.6279C27.9689 25.0872 26.3195 23.3936 22.374 23.3936ZM27.9502 33.4766H30.7764L31.1123 31.0908H34.3262C37.2296 31.0908 38.6768 29.9264 39.0049 27.4346C39.3426 24.8656 38.1266 23.624 35.2422 23.624H29.3389L27.9502 33.4766ZM22.21 25.7988C24.2452 25.7988 24.8629 26.5781 24.6123 28.4736C24.3518 30.4268 23.3679 31.3027 21.3135 31.3027C19.3844 31.3027 18.6606 30.5328 18.9111 28.6279C19.1717 26.6652 20.1748 25.7989 22.21 25.7988ZM34.7314 25.9336C35.8312 25.9336 36.2459 26.3092 36.1396 27.2617C36.0238 28.3197 35.4162 28.7812 34.2012 28.7812H31.4365L31.8379 25.9336H34.7314Z" fill="#EAE8E4"/>
</svg>
