<svg width="120" height="80" viewBox="0 0 120 80" fill="none" xmlns="http://www.w3.org/2000/svg">
<path d="M5.6032 75.1509C4.818 75.1509 4.33912 74.2874 4.75493 73.6213L42.8364 12.6213C43.0191 12.3287 43.3397 12.1509 43.6846 12.1509H75.6048C75.9501 12.1509 76.271 12.3291 76.4536 12.6222L114.448 73.6222C114.863 74.2883 114.384 75.1509 113.599 75.1509H86.0211C85.6565 75.1509 85.3208 74.9525 85.145 74.6331L80.3151 65.8587C80.1393 65.5393 79.8036 65.3409 79.439 65.3409H40.0171C39.66 65.3409 39.33 65.5313 39.1513 65.8405L34.0588 74.6513C33.8801 74.9605 33.5501 75.1509 33.193 75.1509H5.6032Z" stroke="white"/>
<path d="M59.3314 5.45326C59.3881 4.84891 60.2703 4.84891 60.327 5.45327L62.6875 30.5953C62.725 30.9952 63.1949 31.1899 63.5042 30.9337L82.9515 14.8246C83.4189 14.4374 84.0427 15.0612 83.6555 15.5286L67.5464 34.9758C67.2902 35.2852 67.4848 35.7551 67.8847 35.7926L93.0268 38.1531C93.6312 38.2098 93.6312 39.0919 93.0268 39.1487L67.8847 41.5091C67.4848 41.5467 67.2902 42.0166 67.5464 42.3259L83.6555 61.7731C84.0427 62.2406 83.4189 62.8644 82.9515 62.4771L63.5042 46.3681C63.1949 46.1119 62.725 46.3065 62.6875 46.7064L60.327 71.8485C60.2703 72.4528 59.3881 72.4528 59.3314 71.8485L56.971 46.7064C56.9334 46.3065 56.4635 46.1119 56.1542 46.3681L36.707 62.4771C36.2395 62.8644 35.6157 62.2406 36.003 61.7731L52.112 42.3259C52.3682 42.0166 52.1736 41.5467 51.7737 41.5091L26.6316 39.1487C26.0273 39.0919 26.0273 38.2098 26.6316 38.1531L51.7737 35.7926C52.1736 35.7551 52.3682 35.2852 52.112 34.9758L36.003 15.5286C35.6157 15.0612 36.2395 14.4374 36.707 14.8246L56.1542 30.9337C56.4635 31.1899 56.9334 30.9952 56.971 30.5953L59.3314 5.45326Z" fill="#111111" stroke="#D9D9D9"/>
</svg>
