<svg width="120" height="80" viewBox="0 0 120 80" fill="none" xmlns="http://www.w3.org/2000/svg">
<path d="M59.4576 71C48.8362 71 39.5706 69.7577 31.661 67.2732C23.8079 64.7887 17.7345 61.2878 13.4407 56.7705C9.14689 52.1967 7 46.776 7 40.5082V39.4918C7 33.224 9.14689 27.8315 13.4407 23.3142C17.7345 18.7404 23.8079 15.2113 31.661 12.7268C39.5706 10.2423 48.8362 9 59.4576 9C72.2825 9 83.1299 10.8352 92 14.5055C100.87 18.1193 107.537 23.2013 112 29.7514L85.6441 37.5437C83.3842 34.6075 80.0791 32.377 75.7288 30.8525C71.435 29.2714 66.0113 28.4809 59.4576 28.4809C54.4859 28.4809 50.1073 28.9326 46.322 29.8361C42.5932 30.7395 39.6836 32.01 37.5932 33.6475C35.5028 35.2851 34.4576 37.2331 34.4576 39.4918V40.5082C34.4576 42.7668 35.5028 44.7432 37.5932 46.4372C39.6836 48.0747 42.5932 49.3452 46.322 50.2486C50.1073 51.0956 54.4859 51.5191 59.4576 51.5191C66.0113 51.5191 71.435 50.7568 75.7288 49.2322C80.0791 47.6512 83.3842 45.3925 85.6441 42.4563L112 50.2486C107.537 56.7987 100.87 61.9089 92 65.5792C83.1299 69.1931 72.2825 71 59.4576 71Z" stroke="white"/>
<path d="M36.5027 3.79433C36.5922 2.55716 38.4081 2.55716 38.4975 3.79434L40.1108 26.1067C40.1792 27.0529 41.4036 27.3809 41.9359 26.5957L54.4892 8.0793C55.1853 7.0526 56.7579 7.96055 56.2168 9.0767L46.4578 29.2064C46.0439 30.06 46.9402 30.9563 47.7938 30.5424L67.9235 20.7834C69.0397 20.2423 69.9476 21.8149 68.9209 22.511L50.4045 35.0643C49.6193 35.5967 49.9474 36.821 50.8936 36.8894L73.2059 38.5027C74.4431 38.5922 74.4431 40.4081 73.2059 40.4975L50.8936 42.1108C49.9474 42.1792 49.6193 43.4036 50.4045 43.9359L68.9209 56.4892C69.9476 57.1853 69.0397 58.7579 67.9235 58.2168L47.7938 48.4578C46.9402 48.0439 46.0439 48.9402 46.4578 49.7938L56.2168 69.9235C56.7579 71.0397 55.1853 71.9476 54.4892 70.9209L41.9359 52.4045C41.4036 51.6193 40.1792 51.9474 40.1108 52.8936L38.4975 75.2059C38.4081 76.4431 36.5922 76.4431 36.5027 75.2059L34.8894 52.8936C34.821 51.9474 33.5967 51.6193 33.0643 52.4045L20.511 70.9209C19.8149 71.9476 18.2423 71.0397 18.7835 69.9235L28.5425 49.7938C28.9563 48.9402 28.06 48.0439 27.2064 48.4578L7.07669 58.2168C5.96054 58.7579 5.05261 57.1853 6.07931 56.4892L24.5957 43.9359C25.3809 43.4036 25.0529 42.1792 24.1066 42.1108L1.79433 40.4975C0.557157 40.4081 0.557164 38.5922 1.79434 38.5027L24.1067 36.8894C25.0529 36.821 25.3809 35.5967 24.5957 35.0643L6.0793 22.511C5.0526 21.8149 5.96055 20.2423 7.0767 20.7835L27.2064 30.5425C28.06 30.9563 28.9563 30.06 28.5424 29.2064L18.7834 9.07669C18.2423 7.96054 19.8149 7.05261 20.511 8.07931L33.0643 26.5957C33.5967 27.3809 34.821 27.0529 34.8894 26.1066L36.5027 3.79433Z" fill="#111111" stroke="#D9D9D9"/>
</svg>
