<svg width="120" height="80" viewBox="0 0 120 80" fill="none" xmlns="http://www.w3.org/2000/svg">
<path d="M71.8161 75C65.0602 75 58.2489 74.5556 51.3823 73.6667C44.5156 72.8333 37.9535 71.7222 31.696 70.3333C25.4384 68.8889 19.8731 67.3333 15 65.6667L22.725 52.0833C32.0282 55.5833 40.8884 57.8611 49.3056 58.9167C57.7782 59.9167 65.8909 60.4167 73.6435 60.4167C79.4027 60.4167 83.7497 60.1944 86.6847 59.75C89.6196 59.25 91.0871 58.4722 91.0871 57.4167C91.0871 56.4722 90.0073 55.8056 87.8476 55.4167C85.7433 55.0278 82.8914 54.8056 79.2919 54.75C75.6925 54.6389 71.6777 54.5278 67.2476 54.4167C62.8728 54.3056 58.332 54.1111 53.625 53.8333C48.9734 53.5556 44.4602 53.0556 40.0855 52.3333C35.7108 51.5556 31.779 50.4444 28.2903 49C24.8016 47.5556 22.0051 45.6389 19.9008 43.25C17.8519 40.8611 16.8274 37.8611 16.8274 34.25C16.8274 30.4722 17.9903 27.2778 20.3161 24.6667C22.6973 22.0556 25.9368 19.9722 30.0347 18.4167C34.1325 16.8611 38.8118 15.75 44.0726 15.0833C49.3887 14.3611 54.954 14 60.7685 14C65.9739 14 71.207 14.25 76.4677 14.75C81.7839 15.1944 86.9339 15.8333 91.9177 16.6667C96.9016 17.4444 101.526 18.3611 105.79 19.4167C110.053 20.4722 113.708 21.5833 116.754 22.75L109.029 36.3333C104.322 34.6667 99.1167 33.2778 93.4129 32.1667C87.7645 31 81.8946 30.1389 75.8032 29.5833C69.7118 28.9722 63.6758 28.6667 57.6952 28.6667C48.4473 28.6667 43.8234 29.6389 43.8234 31.5833C43.8234 32.4722 44.9032 33.1111 47.0629 33.5C49.2226 33.8889 52.1022 34.1389 55.7016 34.25C59.3565 34.3056 63.3712 34.3889 67.746 34.5C72.0653 34.6111 76.5508 34.8056 81.2024 35.0833C85.9094 35.3611 90.4226 35.8611 94.7419 36.5833C99.1167 37.3056 103.048 38.3889 106.537 39.8333C110.081 41.2222 112.878 43.0833 114.927 45.4167C116.976 47.75 118 50.6667 118 54.1667C118 58 116.726 61.25 114.179 63.9167C111.687 66.5833 108.281 68.75 103.962 70.4167C99.6427 72.0278 94.7142 73.1944 89.1766 73.9167C83.639 74.6389 77.8521 75 71.8161 75Z" stroke="white"/>
<path d="M32 6.5C32.3548 6.5 32.6518 6.70742 32.6904 7.11035L34.3965 24.9717C34.5257 26.3203 36.1219 26.9489 37.1592 26.1045L51.2168 14.6611C51.5451 14.394 51.91 14.4632 52.1553 14.7041C52.3985 14.9431 52.464 15.2882 52.1992 15.6025L40.5547 29.418C39.6742 30.4629 40.3557 32.0293 41.6982 32.1533L59.8721 33.8301C60.7091 33.9073 60.709 35.0927 59.8721 35.1699L41.6982 36.8467C40.3557 36.9707 39.6742 38.5371 40.5547 39.582L52.1992 53.3975C52.464 53.7118 52.3985 54.0569 52.1553 54.2959C51.91 54.5369 51.5451 54.606 51.2168 54.3389L37.1592 42.8955C36.1217 42.051 34.5253 42.6804 34.3965 44.0293L32.6904 61.8896C32.6518 62.2926 32.3548 62.5 32 62.5C31.6452 62.5 31.3482 62.2926 31.3096 61.8896L29.6035 44.0293C29.4747 42.6804 27.8783 42.051 26.8408 42.8955L12.7832 54.3389C12.4549 54.606 12.09 54.5368 11.8447 54.2959C11.6015 54.0569 11.536 53.7118 11.8008 53.3975L23.4453 39.582C24.3258 38.5371 23.6443 36.9707 22.3018 36.8467L4.12793 35.1699C3.29093 35.0927 3.291 33.9073 4.12793 33.8301L22.3018 32.1533C23.6443 32.0293 24.3258 30.4629 23.4453 29.418L11.8008 15.6025C11.536 15.2882 11.6015 14.9431 11.8447 14.7041C12.09 14.4631 12.4549 14.394 12.7832 14.6611L26.8408 26.1045C27.8781 26.9489 29.4743 26.3203 29.6035 24.9717L31.3096 7.11035C31.3482 6.70743 31.6452 6.5 32 6.5Z" fill="#111111" stroke="#D9D9D9"/>
</svg>
