<svg width="120" height="80" viewBox="0 0 120 80" fill="none" xmlns="http://www.w3.org/2000/svg">
<path d="M6 71C5.44771 71 5 70.5523 5 70V10C5 9.44771 5.44772 9 6 9H45.8993C46.2399 9 46.5572 9.17343 46.7411 9.4602L59.6582 29.6038C60.0517 30.2174 60.9483 30.2174 61.3418 29.6038L74.2589 9.4602C74.4428 9.17343 74.7601 9 75.1007 9H115C115.552 9 116 9.44772 116 10V70C116 70.5523 115.552 71 115 71H90.1452C89.5929 71 89.1452 70.5523 89.1452 70V33.1911C89.1452 33.1397 89.0732 33.1279 89.0568 33.1766C89.056 33.1789 89.0551 33.1811 89.054 33.1832L69.4641 70.4651C69.2913 70.794 68.9504 71 68.5789 71H52.4211C52.0496 71 51.7087 70.794 51.5359 70.4651L31.946 33.1832C31.9449 33.1811 31.944 33.1789 31.9432 33.1766C31.9268 33.1279 31.8548 33.1397 31.8548 33.1911V70C31.8548 70.5523 31.4071 71 30.8548 71H6Z" stroke="white"/>
<path d="M59.5997 5.79638C59.7284 4.73454 61.2716 4.73454 61.4003 5.79638L64.5265 31.5922C64.599 32.1909 65.2268 32.5526 65.7826 32.316L89.7299 22.1201C90.7156 21.7004 91.4872 23.0342 90.6302 23.6763L69.8091 39.2762C69.3258 39.6382 69.3258 40.3618 69.8091 40.7238L90.6302 56.3237C91.4872 56.9658 90.7156 58.2996 89.7299 57.8799L65.7826 47.684C65.2268 47.4474 64.599 47.8091 64.5265 48.4078L61.4003 74.2036C61.2716 75.2655 59.7284 75.2655 59.5997 74.2036L56.4735 48.4078C56.401 47.8091 55.7732 47.4474 55.2174 47.684L31.2701 57.8799C30.2844 58.2996 29.5128 56.9658 30.3698 56.3237L51.1909 40.7238C51.6741 40.3618 51.6742 39.6382 51.1909 39.2762L30.3698 23.6763C29.5128 23.0342 30.2844 21.7004 31.2701 22.1201L55.2174 32.316C55.7732 32.5526 56.401 32.1909 56.4735 31.5922L59.5997 5.79638Z" fill="#111111" stroke="#D9D9D9"/>
</svg>
