<svg width="120" height="80" viewBox="0 0 120 80" fill="none" xmlns="http://www.w3.org/2000/svg">
<path d="M6 76.1528C5.44771 76.1528 5 75.7051 5 75.1528V13.1528C5 12.6005 5.44772 12.1528 6 12.1528H95.0516C101.495 12.1528 106.432 13.6157 109.865 16.5414C113.297 19.4062 115.013 23.3681 115.013 28.4271C115.013 32.3281 113.839 35.4976 111.49 37.9357C109.272 40.2386 105.872 41.8618 101.29 42.8052C100.817 42.9026 100.471 43.315 100.471 43.7979V43.8779C100.471 44.3958 100.867 44.8264 101.382 44.8854C106.41 45.462 110.231 47.0159 112.845 49.5471C115.615 52.1681 117 55.5814 117 59.7871V75.1528C117 75.7051 116.552 76.1528 116 76.1528H88.7355C88.1832 76.1528 87.7355 75.7051 87.7355 75.1528V60.7014C87.7355 59.6043 87.4043 58.7205 86.7419 58.05C86.0796 57.3795 85.1763 57.0443 84.0323 57.0443H34C33.4477 57.0443 33 57.492 33 58.0443V75.1528C33 75.7051 32.5523 76.1528 32 76.1528H6Z" stroke="white"/>
<path d="M58.7562 6.61729C58.8948 5.79423 60.1052 5.79424 60.2438 6.6173L62.5284 20.1789C62.9486 22.6732 64.9479 24.6281 67.4988 25.0389L81.3687 27.2727C82.2104 27.4083 82.2104 28.5917 81.3687 28.7273L67.4988 30.9611C64.9479 31.3719 62.9486 33.3268 62.5284 35.8211L60.2438 49.3827C60.1052 50.2058 58.8948 50.2058 58.7562 49.3827L56.4716 35.8211C56.0514 33.3268 54.0521 31.3719 51.5012 30.9611L37.6313 28.7273C36.7896 28.5917 36.7896 27.4083 37.6313 27.2727L51.5012 25.0389C54.0521 24.6281 56.0514 22.6732 56.4716 20.1789L58.7562 6.61729Z" fill="#111111" stroke="#D9D9D9"/>
</svg>
