<svg preserveAspectRatio="none" width="100%" height="100%" overflow="visible" style="display: block;" viewBox="0 0 405 72" fill="none" xmlns="http://www.w3.org/2000/svg">
<g id="Frame 172">
<g id="wordmark">
<path d="M124.808 70.8019V17.0538H109.576V1.29143H157.122V17.0575H141.89V70.8056H124.812L124.808 70.8019Z" fill="var(--fill-0, #FBFAF9)"/>
<path d="M0 36.3247C0 14.7509 16.5252 0 37.3901 0C49.9456 0 61.3013 5.06874 68.594 15.949L53.5452 23.7835C49.4821 18.2519 44.2192 15.3033 37.5732 15.3033C25.8475 15.3033 17.6316 24.4292 17.6316 36.4143C17.6316 48.3994 26.5876 57.3425 37.02 57.3425C45.606 57.3425 51.7922 52.1804 52.8986 45.3574V45.2641H38.3133V32.1742H72.0104V35.1229C72.0104 57.8016 58.4381 72 36.8369 72C16.4318 72 0 57.3425 0 36.3247Z" fill="var(--fill-0, #FBFAF9)"/>
<path d="M83.7249 70.8019V1.29143H100.803V70.8019H83.7249Z" fill="var(--fill-0, #FBFAF9)"/>
<path d="M307.654 70.8019V1.29143H324.733V70.8019H307.654Z" fill="var(--fill-0, #FBFAF9)"/>
<path d="M388.288 1.29143H405V70.8019H391.151L356.254 27.0121L356.531 70.8019H339.729V1.29143H353.948L388.845 44.805L388.292 1.29143H388.288Z" fill="var(--fill-0, #FBFAF9)"/>
<path d="M198.5 56.2376C187.885 56.2376 178.929 47.9403 178.929 36.0485C178.929 24.8025 187.515 15.8594 198.687 15.8594C204.19 15.8594 208.993 17.9384 212.488 21.3798C214.173 16.005 216.797 10.9773 220.285 6.48336C214.177 2.4112 206.746 0.0933126 198.777 0.0933126C178.282 0.0933126 161.294 15.3966 161.294 35.9552C161.294 57.5291 178.372 72 198.5 72C206.537 72 214.024 69.753 220.165 65.7593C216.719 61.269 214.121 56.2115 212.458 50.7695C208.911 54.196 204.036 56.2376 198.5 56.2376Z" fill="var(--fill-0, #FBFAF9)"/>
<path d="M259.72 0.0933126C246.858 0.0933126 235.378 6.12131 228.609 15.6914C224.595 21.3723 222.236 28.2998 222.236 35.9552C222.236 43.6106 224.587 50.9785 228.572 56.6519C235.326 66.2706 246.783 72 259.443 72C280.031 72 297.02 57.2491 297.02 36.1381C297.02 15.0271 280.125 0.0933126 259.72 0.0933126ZM259.443 56.2376C248.827 56.2376 239.871 47.9403 239.871 36.0485C239.871 24.8025 248.457 15.8594 259.63 15.8594C270.802 15.8594 279.388 24.7092 279.388 36.1418C279.388 47.5745 270.802 56.2376 259.447 56.2376H259.443Z" fill="var(--fill-0, #FBFAF9)"/>
</g>
</g>
</svg>
