<svg width="118" height="21" viewBox="0 0 118 21" fill="none" xmlns="http://www.w3.org/2000/svg">
<path d="M36.3638 20.6505V4.97402H31.9259V0.376668H45.7788V4.97511H41.3408V20.6516H36.3649L36.3638 20.6505Z" fill="#FBFAF9"/>
<path d="M0 10.5947C0 4.30233 4.81475 0 10.8939 0C14.5521 0 17.8606 1.47838 19.9854 4.65179L15.6008 6.93686C14.417 5.32348 12.8836 4.46345 10.9473 4.46345C7.53087 4.46345 5.13711 7.12519 5.13711 10.6208C5.13711 14.1165 7.74651 16.7249 10.7861 16.7249C13.2877 16.7249 15.0901 15.2193 15.4124 13.2292V13.202H11.1629V9.38414H20.9808V10.2442C20.9808 16.8588 17.0264 21 10.7327 21C4.78752 21 0 16.7249 0 10.5947Z" fill="#FBFAF9"/>
<path d="M24.3939 20.6505V0.376668H29.3699V20.6505H24.3939Z" fill="#FBFAF9"/>
<path d="M89.6375 20.6505V0.376668H94.6135V20.6505H89.6375Z" fill="#FBFAF9"/>
<path d="M113.131 0.376668H118V20.6505H113.965L103.798 7.87853L103.878 20.6505H98.9828V0.376668H103.126L113.293 13.0681L113.132 0.376668H113.131Z" fill="#FBFAF9"/>
<path d="M57.8347 16.4026C54.7418 16.4026 52.1324 13.9826 52.1324 10.5142C52.1324 7.23406 54.634 4.62566 57.8892 4.62566C59.4923 4.62566 60.8917 5.23204 61.91 6.23577C62.4011 4.66812 63.1657 3.20171 64.1818 1.89098C62.4022 0.703266 60.2372 0.0272162 57.9153 0.0272162C51.944 0.0272162 46.9942 4.49067 46.9942 10.4869C46.9942 16.7793 51.9701 21 57.8347 21C60.1762 21 62.3576 20.3446 64.1469 19.1798C63.1428 17.8701 62.3859 16.395 61.9013 14.8078C60.8678 15.8072 59.4476 16.4026 57.8347 16.4026Z" fill="#FBFAF9"/>
<path d="M75.6714 0.0272162C71.9239 0.0272162 68.5794 1.78538 66.6071 4.57667C65.4375 6.23359 64.7503 8.25412 64.7503 10.4869C64.7503 12.7198 65.4353 14.8687 66.5962 16.5235C68.5642 19.3289 71.9022 21 75.5908 21C81.5894 21 86.5392 16.6977 86.5392 10.5403C86.5392 4.38289 81.6166 0.0272162 75.6714 0.0272162ZM75.5908 16.4026C72.4979 16.4026 69.8885 13.9826 69.8885 10.5142C69.8885 7.23406 72.3901 4.62566 75.6453 4.62566C78.9005 4.62566 81.402 7.20684 81.402 10.5414C81.402 13.8759 78.9005 16.4026 75.5919 16.4026H75.5908Z" fill="#FBFAF9"/>
</svg>
