<svg width="1200" height="630" viewBox="0 0 1200 630" xmlns="http://www.w3.org/2000/svg">
  <rect width="1200" height="630" fill="#000000"/>

  <!-- Quadratic grid pattern -->
  <g opacity="0.15">
    <line x1="850" y1="160" x2="1100" y2="160" stroke="#FFFFFF" stroke-width="1"/>
    <line x1="850" y1="210" x2="1100" y2="210" stroke="#FFFFFF" stroke-width="1"/>
    <line x1="850" y1="260" x2="1100" y2="260" stroke="#FFFFFF" stroke-width="1"/>
    <line x1="900" y1="110" x2="900" y2="310" stroke="#FFFFFF" stroke-width="1"/>
    <line x1="950" y1="110" x2="950" y2="310" stroke="#FFFFFF" stroke-width="1"/>
    <line x1="1000" y1="110" x2="1000" y2="310" stroke="#FFFFFF" stroke-width="1"/>
    <line x1="1050" y1="110" x2="1050" y2="310" stroke="#FFFFFF" stroke-width="1"/>
  </g>

  <!-- 300 projects constellation -->
  <g opacity="0.8">
    <circle cx="900" cy="380" r="4" fill="#FFFFFF"/>
    <circle cx="950" cy="400" r="4" fill="#FFFFFF"/>
    <circle cx="1000" cy="390" r="4" fill="#FFFFFF"/>
    <circle cx="1050" cy="410" r="4" fill="#FFFFFF"/>
    <circle cx="920" cy="440" r="3" fill="#FFFFFF"/>
    <circle cx="1080" cy="420" r="3" fill="#FFFFFF"/>
    <circle cx="870" cy="420" r="3" fill="#FFFFFF"/>
    <circle cx="1010" cy="450" r="3" fill="#FFFFFF"/>
  </g>

  <!-- Horizon -->
  <line x1="0" y1="530" x2="750" y2="530" stroke="#FFFFFF" stroke-width="1" opacity="0.3"/>
  <path d="M 0 530 Q 150 510 300 530 T 600 530 L 600 630 L 0 630 Z" fill="#000000" stroke="#FFFFFF" stroke-width="2"/>
  <g opacity="0.5">
    <line x1="60" y1="530" x2="70" y2="630" stroke="#FFFFFF" stroke-width="1"/>
    <line x1="120" y1="515" x2="130" y2="630" stroke="#FFFFFF" stroke-width="1"/>
    <line x1="180" y1="522" x2="190" y2="630" stroke="#FFFFFF" stroke-width="1"/>
  </g>

  <text x="80" y="250" font-family="Arial, sans-serif" font-size="88" font-weight="bold" fill="#FFFFFF">GG22</text>
  <text x="80" y="330" font-family="Arial, sans-serif" font-size="36" font-weight="500" fill="#FFFFFF" opacity="0.85">Gitcoin Grants Round</text>
  <text x="80" y="400" font-family="Arial, sans-serif" font-size="26" fill="#FFFFFF" opacity="0.8">$1.5M+ • 300 Projects • 10K Donors</text>

  <g transform="translate(60, 280)">
    <line x1="0" y1="-8" x2="0" y2="8" stroke="#FFFFFF" stroke-width="1.5"/>
    <line x1="-8" y1="0" x2="8" y2="0" stroke="#FFFFFF" stroke-width="1.5"/>
  </g>
</svg>
