<svg width="1200" height="630" viewBox="0 0 1200 630" xmlns="http://www.w3.org/2000/svg">
  <rect width="1200" height="630" fill="#000000"/>

  <!-- Crescent moon representing Epoch 9 -->
  <g transform="translate(950, 280)">
    <circle cx="0" cy="0" r="60" fill="#000000" stroke="#FFFFFF" stroke-width="3"/>
    <circle cx="20" cy="0" r="55" fill="#000000"/>
  </g>

  <!-- Hexagonal pattern (Octant theme) -->
  <g opacity="0.2">
    <polygon points="850,150 870,140 890,150 890,170 870,180 850,170" fill="none" stroke="#FFFFFF" stroke-width="1"/>
    <polygon points="1000,180 1020,170 1040,180 1040,200 1020,210 1000,200" fill="none" stroke="#FFFFFF" stroke-width="1"/>
    <polygon points="1050,100 1070,90 1090,100 1090,120 1070,130 1050,120" fill="none" stroke="#FFFFFF" stroke-width="1"/>
  </g>

  <!-- Stars representing funded projects -->
  <g opacity="0.8">
    <circle cx="800" cy="400" r="4" fill="#FFFFFF"/>
    <circle cx="850" cy="420" r="4" fill="#FFFFFF"/>
    <circle cx="1050" cy="390" r="4" fill="#FFFFFF"/>
    <circle cx="1100" cy="420" r="4" fill="#FFFFFF"/>
    <circle cx="920" cy="450" r="3" fill="#FFFFFF"/>
  </g>

  <!-- Horizon -->
  <line x1="0" y1="530" x2="700" y2="530" stroke="#FFFFFF" stroke-width="1" opacity="0.3"/>
  <path d="M 0 530 Q 120 510 240 530 T 480 530 L 480 630 L 0 630 Z" fill="#000000" stroke="#FFFFFF" stroke-width="2"/>
  <g opacity="0.5">
    <line x1="50" y1="530" x2="60" y2="630" stroke="#FFFFFF" stroke-width="1"/>
    <line x1="100" y1="515" x2="110" y2="630" stroke="#FFFFFF" stroke-width="1"/>
    <line x1="150" y1="522" x2="160" y2="630" stroke="#FFFFFF" stroke-width="1"/>
  </g>

  <text x="80" y="230" font-family="Arial, sans-serif" font-size="82" font-weight="bold" fill="#FFFFFF">Epoch 9</text>
  <text x="80" y="300" font-family="Arial, sans-serif" font-size="36" font-weight="500" fill="#FFFFFF" opacity="0.85">Octant</text>
  <text x="80" y="370" font-family="Arial, sans-serif" font-size="26" fill="#FFFFFF" opacity="0.8">$1.5M+ • 100K ETH Staked</text>

  <g transform="translate(60, 260)">
    <line x1="0" y1="-8" x2="0" y2="8" stroke="#FFFFFF" stroke-width="1.5"/>
    <line x1="-8" y1="0" x2="8" y2="0" stroke="#FFFFFF" stroke-width="1.5"/>
  </g>
</svg>
