<svg width="1200" height="630" viewBox="0 0 1200 630" xmlns="http://www.w3.org/2000/svg">
  <rect width="1200" height="630" fill="#000000"/>

  <!-- Streaming vessel pouring -->
  <g transform="translate(920, 200)">
    <path d="M 20 10 L 70 10 L 75 20 L 65 60 L 35 60 L 25 20 Z"
          fill="#000000" stroke="#FFFFFF" stroke-width="3" transform="rotate(-20, 50, 35)"/>
    <!-- Streaming stars -->
    <circle cx="35" cy="90" r="4" fill="#FFFFFF"/>
    <circle cx="25" cy="115" r="4" fill="#FFFFFF"/>
    <circle cx="40" cy="135" r="3" fill="#FFFFFF"/>
    <circle cx="15" cy="155" r="4" fill="#FFFFFF"/>
    <line x1="32" y1="90" x2="25" y2="115" stroke="#FFFFFF" stroke-width="1" opacity="0.4"/>
    <line x1="27" y1="118" x2="15" y2="155" stroke="#FFFFFF" stroke-width="1" opacity="0.4"/>
  </g>

  <!-- 187 contributors constellation -->
  <g opacity="0.8">
    <circle cx="950" cy="400" r="4" fill="#FFFFFF"/>
    <circle cx="1000" cy="420" r="4" fill="#FFFFFF"/>
    <circle cx="1050" cy="410" r="4" fill="#FFFFFF"/>
    <circle cx="920" cy="440" r="3" fill="#FFFFFF"/>
    <circle cx="1080" cy="430" r="3" fill="#FFFFFF"/>
    <line x1="950" y1="400" x2="1000" y2="420" stroke="#FFFFFF" stroke-width="1" opacity="0.5"/>
    <line x1="1000" y1="420" x2="1050" y2="410" stroke="#FFFFFF" stroke-width="1" opacity="0.5"/>
  </g>

  <!-- Horizon -->
  <line x1="0" y1="530" x2="750" y2="530" stroke="#FFFFFF" stroke-width="1" opacity="0.3"/>
  <path d="M 0 530 Q 120 510 240 530 T 480 530 L 480 630 L 0 630 Z" fill="#000000" stroke="#FFFFFF" stroke-width="2"/>
  <g opacity="0.5">
    <line x1="50" y1="530" x2="60" y2="630" stroke="#FFFFFF" stroke-width="1"/>
    <line x1="100" y1="515" x2="110" y2="630" stroke="#FFFFFF" stroke-width="1"/>
    <line x1="150" y1="522" x2="160" y2="630" stroke="#FFFFFF" stroke-width="1"/>
  </g>

  <text x="80" y="220" font-family="Arial, sans-serif" font-size="68" font-weight="bold" fill="#FFFFFF">Protocol Guild</text>
  <text x="80" y="290" font-family="Arial, sans-serif" font-size="34" font-weight="500" fill="#FFFFFF" opacity="0.85">Ethereum Core Dev Funding</text>
  <text x="80" y="360" font-family="Arial, sans-serif" font-size="26" fill="#FFFFFF" opacity="0.8">$92.9M+ • 187 Contributors</text>

  <g transform="translate(60, 250)">
    <line x1="0" y1="-8" x2="0" y2="8" stroke="#FFFFFF" stroke-width="1.5"/>
    <line x1="-8" y1="0" x2="8" y2="0" stroke="#FFFFFF" stroke-width="1.5"/>
  </g>
</svg>
