<svg width="1200" height="630" viewBox="0 0 1200 630" xmlns="http://www.w3.org/2000/svg">
  <rect width="1200" height="630" fill="#000000"/>

  <!-- Governance badge/seal -->
  <g transform="translate(950, 250)">
    <circle cx="0" cy="0" r="70" fill="#000000" stroke="#FFFFFF" stroke-width="3"/>
    <g>
      <line x1="0" y1="-50" x2="0" y2="50" stroke="#FFFFFF" stroke-width="2"/>
      <line x1="-50" y1="0" x2="50" y2="0" stroke="#FFFFFF" stroke-width="2"/>
      <line x1="-35" y1="-35" x2="35" y2="35" stroke="#FFFFFF" stroke-width="2"/>
      <line x1="35" y1="-35" x2="-35" y2="35" stroke="#FFFFFF" stroke-width="2"/>
    </g>
  </g>

  <!-- Governance contributors constellation -->
  <g opacity="0.8">
    <circle cx="850" cy="150" r="4" fill="#FFFFFF"/>
    <circle cx="900" cy="130" r="4" fill="#FFFFFF"/>
    <circle cx="1000" cy="140" r="4" fill="#FFFFFF"/>
    <circle cx="1050" cy="160" r="4" fill="#FFFFFF"/>
    <line x1="850" y1="150" x2="900" y2="130" stroke="#FFFFFF" stroke-width="1" opacity="0.5"/>
    <line x1="900" y1="130" x2="1000" y2="140" stroke="#FFFFFF" stroke-width="1" opacity="0.5"/>
    <line x1="1000" y1="140" x2="1050" y2="160" stroke="#FFFFFF" stroke-width="1" opacity="0.5"/>
  </g>

  <!-- Scattered governance stars -->
  <circle cx="820" cy="350" r="3" fill="#FFFFFF"/>
  <circle cx="1080" cy="320" r="3" fill="#FFFFFF"/>
  <circle cx="900" cy="400" r="3" fill="#FFFFFF"/>

  <!-- Horizon -->
  <line x1="0" y1="520" x2="700" y2="520" stroke="#FFFFFF" stroke-width="1" opacity="0.3"/>
  <path d="M 0 520 Q 120 495 240 520 T 480 520 L 480 630 L 0 630 Z" fill="#000000" stroke="#FFFFFF" stroke-width="2"/>
  <g opacity="0.5">
    <line x1="50" y1="520" x2="60" y2="630" stroke="#FFFFFF" stroke-width="1"/>
    <line x1="100" y1="500" x2="110" y2="630" stroke="#FFFFFF" stroke-width="1"/>
    <line x1="150" y1="510" x2="160" y2="630" stroke="#FFFFFF" stroke-width="1"/>
  </g>

  <text x="80" y="230" font-family="Arial, sans-serif" font-size="76" font-weight="bold" fill="#FFFFFF">RetroPGF 6</text>
  <text x="80" y="300" font-family="Arial, sans-serif" font-size="34" font-weight="500" fill="#FFFFFF" opacity="0.85">Optimism Governance</text>
  <text x="80" y="370" font-family="Arial, sans-serif" font-size="26" fill="#FFFFFF" opacity="0.8">2.4M OP • Active Round</text>

  <g transform="translate(60, 260)">
    <line x1="0" y1="-8" x2="0" y2="8" stroke="#FFFFFF" stroke-width="1.5"/>
    <line x1="-8" y1="0" x2="8" y2="0" stroke="#FFFFFF" stroke-width="1.5"/>
  </g>
</svg>
