<svg width="56" height="56" viewBox="0 0 56 56" fill="none" xmlns="http://www.w3.org/2000/svg">
<path fill-rule="evenodd" clip-rule="evenodd" d="M23.9517 43.2634C24.3494 43.0745 24.8143 43.0745 25.212 43.2634C27.2798 44.2455 29.72 44.2456 31.7879 43.2635C32.1855 43.0746 32.6505 43.0747 33.0482 43.2635C36.4376 44.8731 40.8276 43.8442 42.9377 40.1767L49.7997 28.2502C50.0668 27.786 50.0668 27.2142 49.7997 26.75L42.9377 14.8236C40.8276 11.156 36.4374 10.1271 33.048 11.7367C32.6503 11.9256 32.1854 11.9256 31.7877 11.7368C29.7201 10.7549 27.2801 10.7549 25.2126 11.7367C24.8148 11.9255 24.35 11.9255 23.9523 11.7366C20.5628 10.1268 16.1725 11.1557 14.0623 14.8233L7.20032 26.7497C6.93323 27.2139 6.93323 27.7857 7.20032 28.2499L14.0623 40.1764C16.1723 43.8438 20.5622 44.8728 23.9517 43.2634ZM31.1817 36.5213C30.6796 35.6485 31.0291 34.5911 31.5313 33.7182L35.0443 27.6125C35.0843 27.5429 35.0843 27.4571 35.0443 27.3875L31.5316 21.2823C31.0293 20.4093 30.6796 19.3516 31.1819 18.4786L32.3982 16.3646C32.4029 16.3564 32.4076 16.3482 32.4124 16.3401C32.4142 16.337 32.4161 16.3338 32.4179 16.3307C32.4245 16.342 32.431 16.3533 32.4376 16.3647L38.4129 26.7501C38.68 27.2143 38.68 27.7861 38.4129 28.2503L32.4376 38.6356C32.4336 38.6426 32.4296 38.6496 32.4256 38.6565L32.4179 38.6695C32.4113 38.6583 32.4047 38.6469 32.3982 38.6356L31.1817 36.5213ZM25.4685 33.718C25.9707 34.5909 26.3204 35.6484 25.8181 36.5213L24.6019 38.6353C24.5953 38.6467 24.5887 38.6581 24.582 38.6695C24.5755 38.6582 24.5689 38.6469 24.5624 38.6356L18.5871 28.2503C18.32 27.7861 18.32 27.2143 18.5871 26.7501L24.5624 16.3647C24.5689 16.3533 24.5756 16.3419 24.5822 16.3306C24.5888 16.3418 24.5954 16.3531 24.6019 16.3644L25.8182 18.4786C26.3205 19.3514 25.9709 20.4088 25.4687 21.2816L21.9557 27.3875C21.9156 27.4571 21.9156 27.5429 21.9557 27.6125L25.4685 33.718ZM22.1952 40.6539C20.2458 41.3434 17.8976 40.6705 16.7266 38.6353L10.7514 28.2499C10.4843 27.7857 10.4843 27.2139 10.7514 26.7497L16.7266 16.3644C17.8977 14.329 20.2461 13.6562 22.1956 14.3459C22.092 14.4998 21.9928 14.6591 21.8981 14.8236L15.0362 26.7501C14.7691 27.2143 14.7691 27.7861 15.0362 28.2503L21.8981 40.1767C21.9926 40.3411 22.0918 40.5002 22.1952 40.6539ZM40.2734 16.3646C39.1024 14.3293 36.754 13.6565 34.8046 14.3461C34.9081 14.5 35.0073 14.6592 35.102 14.8236L41.9639 26.7501C42.231 27.2143 42.231 27.7861 41.9639 28.2503L35.102 40.1767C35.0074 40.3412 34.9082 40.5003 34.8046 40.6541C36.7541 41.3437 39.1024 40.6708 40.2734 38.6355L46.2487 28.2502C46.5158 27.786 46.5158 27.2142 46.2487 26.75L40.2734 16.3646ZM29.1485 32.0558C28.8604 32.5565 28.1397 32.5565 27.8516 32.0558L25.4461 27.875C25.3126 27.643 25.3126 27.3571 25.4461 27.1249L27.8516 22.9441C28.1397 22.4434 28.8604 22.4434 29.1485 22.9441L31.5539 27.1249C31.6874 27.3571 31.6874 27.643 31.5539 27.875L29.1485 32.0558Z" fill="#EAE8E4"/>
</svg>
