<svg preserveAspectRatio="none" width="100%" height="100%" overflow="visible" style="display: block;" viewBox="0 0 192.793 43.739" fill="none" xmlns="http://www.w3.org/2000/svg">
<g id="Group">
<path id="Vector" d="M20.9595 20.356C20.9595 23.1447 20.0172 25.1856 18.1343 26.4793C16.2517 27.773 13.6372 28.4198 10.2927 28.4198H0.0202972V0.587439H9.68027C13.1821 0.587439 15.6924 1.10645 17.2073 2.14638C18.7221 3.18632 19.4787 4.83046 19.4787 7.08462C19.4787 8.81398 19.0673 10.2161 18.2443 11.2889C17.4216 12.3617 16.1342 13.0783 14.3822 13.4404C16.6745 13.7619 18.3431 14.4997 19.3896 15.6519C20.436 16.8062 20.9595 18.3748 20.9595 20.3579V20.356ZM13.8476 8.32982C13.8476 7.27053 13.4646 6.53657 12.7025 6.12796C11.9384 5.71934 10.7534 5.51406 9.14748 5.51406H5.59255V11.4864H8.99008C10.6358 11.4864 11.8568 11.2521 12.6551 10.7834C13.4513 10.3148 13.8496 9.49564 13.8496 8.32982H13.8476ZM15.2696 19.8544C15.2696 18.6071 14.8543 17.726 14.0259 17.2089C13.1954 16.6939 11.6426 16.4343 9.36365 16.4343H5.59065V23.3925H8.41565C10.5884 23.3925 12.0863 23.286 12.9091 23.0711C13.732 22.8559 14.3311 22.4938 14.7065 21.9846C15.0819 21.4752 15.2696 20.7645 15.2696 19.8525V19.8544Z" fill="var(--fill-0, #D6D3CD)"/>
<path id="Vector_2" d="M22.9844 28.4217L32.032 0.587402H39.2823L48.3487 28.4217H42.64L40.8216 22.7708H30.2935L28.5151 28.4217H22.9844ZM31.8727 17.8035H39.2405L35.5661 6.30027L31.8727 17.8035Z" fill="var(--fill-0, #D6D3CD)"/>
<path id="Vector_3" d="M67.3424 28.4217L57.3866 8.53123V28.4217H51.9338V0.587439H59.1633L68.4269 19.3527V0.587439H73.8988V28.4217H67.3405H67.3424Z" fill="var(--fill-0, #D6D3CD)"/>
<path id="Vector_4" d="M94.5541 28.4217L86.9891 16.7965L85.3302 18.7465V28.4198H79.7598V0.587439H85.3302V11.4477L94.2792 0.587439H100.779L90.5857 12.5748L101.508 28.4237H94.556L94.5541 28.4217Z" fill="var(--fill-0, #D6D3CD)"/>
<path id="Vector_5" d="M105.102 28.4217V0.587439H110.673V23.2336H122.17V28.4217H105.102Z" fill="var(--fill-0, #D6D3CD)"/>
<path id="Vector_6" d="M125.743 28.4217V0.587402H143.501V5.59537H131.314V11.5291H141.586V16.5563H131.314V23.2336H143.501V28.4217H125.743Z" fill="var(--fill-0, #D6D3CD)"/>
<path id="Vector_7" d="M168.307 20.3553C168.307 23.1439 167.409 25.2819 165.611 26.771C163.814 28.2604 161.164 29.004 157.661 29.004C155.239 29.004 153.134 28.5953 151.35 27.7781C149.566 26.9609 148.113 25.6402 146.995 23.8159L151.281 20.4772C151.913 21.3894 152.512 22.073 153.079 22.5281C153.646 22.9831 154.317 23.3394 155.094 23.5932C155.872 23.8488 156.767 23.9746 157.781 23.9746C159.296 23.9746 160.477 23.7094 161.326 23.1807C162.176 22.6519 162.6 21.8425 162.6 20.758C162.6 20.1423 162.453 19.6251 162.157 19.2088C161.861 18.7923 161.416 18.4341 160.825 18.1321C160.233 17.8299 159.205 17.4852 157.743 17.096C156.321 16.7068 154.981 16.3156 153.724 15.9186C152.466 15.5236 151.381 15.0103 150.464 14.3809C149.549 13.7516 148.828 12.9595 148.301 12.0067C147.774 11.0558 147.51 9.85517 147.51 8.40663C147.51 5.76515 148.387 3.70465 150.138 2.22318C151.89 0.7417 154.399 0 157.663 0C162.39 0 165.737 1.64995 167.699 4.94792L163.452 8.32724C162.701 7.14787 161.859 6.30353 160.923 5.79227C159.988 5.28296 158.875 5.02733 157.584 5.02733C156.293 5.02733 155.243 5.26552 154.433 5.74192C153.624 6.21832 153.217 6.96584 153.217 7.98447C153.217 8.88303 153.638 9.57052 154.482 10.0449C155.324 10.5214 156.793 10.9997 158.886 11.4819C160.045 11.7899 161.189 12.1229 162.324 12.4773C163.455 12.8336 164.467 13.3255 165.355 13.9549C166.245 14.5843 166.96 15.4092 167.5 16.4279C168.04 17.4465 168.309 18.7538 168.309 20.3494L168.307 20.3553Z" fill="var(--fill-0, #D6D3CD)"/>
<path id="Vector_8" d="M192.791 20.3553C192.791 23.1439 191.892 25.2819 190.096 26.771C188.298 28.2604 185.648 29.004 182.145 29.004C179.722 29.004 177.618 28.5953 175.833 27.7781C174.049 26.9609 172.596 25.6402 171.479 23.8159L175.764 20.4772C176.396 21.3894 176.996 22.073 177.562 22.5281C178.129 22.9831 178.801 23.3394 179.578 23.5932C180.354 23.8488 181.25 23.9746 182.265 23.9746C183.779 23.9746 184.96 23.7094 185.811 23.1807C186.659 22.6519 187.084 21.8425 187.084 20.758C187.084 20.1423 186.937 19.6251 186.64 19.2088C186.346 18.7923 185.899 18.4341 185.307 18.1321C184.716 17.8299 183.689 17.4852 182.227 17.096C180.805 16.7068 179.464 16.3156 178.208 15.9186C176.951 15.5236 175.865 15.0103 174.948 14.3809C174.032 13.7516 173.311 12.9595 172.785 12.0067C172.258 11.0558 171.994 9.85517 171.994 8.40663C171.994 5.76515 172.87 3.70465 174.623 2.22318C176.374 0.7417 178.882 0 182.147 0C186.874 0 190.221 1.64995 192.181 4.94792L187.936 8.32724C187.186 7.14787 186.342 6.30353 185.407 5.79227C184.472 5.28296 183.358 5.02733 182.067 5.02733C180.777 5.02733 179.726 5.26552 178.917 5.74192C178.106 6.21832 177.701 6.96584 177.701 7.98447C177.701 8.88303 178.122 9.57052 178.965 10.0449C179.807 10.5214 181.278 10.9997 183.37 11.4819C184.529 11.7899 185.674 12.1229 186.808 12.4773C187.939 12.8336 188.951 13.3255 189.84 13.9549C190.728 14.5843 191.442 15.4092 191.984 16.4279C192.523 17.4465 192.793 18.7538 192.793 20.3494L192.791 20.3553Z" fill="var(--fill-0, #D6D3CD)"/>
<path id="Vector_9" d="M192.767 38.3494H2.39483e-08V43.739H192.767V38.3494Z" fill="var(--fill-0, #D6D3CD)"/>
</g>
</svg>
