<svg preserveAspectRatio="none" width="100%" height="100%" overflow="visible" style="display: block;" viewBox="0 0 220.001 45.176" fill="none" xmlns="http://www.w3.org/2000/svg">
<g id="Group">
<path id="Vector" d="M40.3691 40.771C40.3704 40.9461 40.3022 41.1146 40.1794 41.2395C40.0566 41.3644 39.8892 41.4354 39.7141 41.437H3.92808C3.75294 41.4354 3.58559 41.3644 3.46278 41.2395C3.33997 41.1146 3.27174 40.9461 3.27308 40.771V24.899C3.27228 24.8122 3.28861 24.7262 3.32111 24.6457C3.35361 24.5653 3.40165 24.4921 3.46249 24.4302C3.52332 24.3683 3.59576 24.3191 3.67565 24.2852C3.75554 24.2514 3.84132 24.2337 3.92808 24.233H39.7141C39.8892 24.2346 40.0566 24.3056 40.1794 24.4305C40.3022 24.5554 40.3704 24.7239 40.3691 24.899V40.771ZM3.27308 4.366C3.27228 4.27924 3.28861 4.19318 3.32111 4.11274C3.35361 4.0323 3.40165 3.95905 3.46249 3.89719C3.52332 3.83534 3.59576 3.78608 3.67565 3.75224C3.75554 3.71841 3.84132 3.70065 3.92808 3.7H30.4401C30.5268 3.70065 30.6126 3.71841 30.6925 3.75224C30.7724 3.78608 30.8448 3.83534 30.9057 3.89719C30.9665 3.95905 31.0145 4.0323 31.047 4.11274C31.0795 4.19318 31.0959 4.27924 31.0951 4.366V20.236C31.0964 20.4111 31.0282 20.5796 30.9054 20.7045C30.7826 20.8294 30.6152 20.9004 30.4401 20.902H3.92808C3.75294 20.9004 3.58559 20.8294 3.46278 20.7045C3.33997 20.5796 3.27174 20.4111 3.27308 20.236V4.366ZM42.9871 0.366H0.655076C0.567977 0.36665 0.481869 0.384533 0.401714 0.41862C0.32156 0.452706 0.248945 0.502321 0.188056 0.564604C0.127168 0.626887 0.0792096 0.700606 0.0469465 0.781512C0.0146835 0.862417 -0.00124609 0.948909 7.60462e-05 1.036V44.101C-0.000715148 44.1878 0.0156068 44.2738 0.0481081 44.3543C0.0806095 44.4347 0.128652 44.5079 0.189488 44.5698C0.250324 44.6317 0.322759 44.6809 0.40265 44.7148C0.48254 44.7486 0.568318 44.7663 0.655076 44.767H42.9871C43.0738 44.7663 43.1596 44.7486 43.2395 44.7148C43.3194 44.6809 43.3918 44.6317 43.4527 44.5698C43.5135 44.5079 43.5615 44.4347 43.594 44.3543C43.6265 44.2738 43.6429 44.1878 43.6421 44.101V1.036C43.6434 0.860862 43.5752 0.692355 43.4524 0.567483C43.3296 0.442612 43.1622 0.371585 42.9871 0.37" fill="var(--fill-0, #D6D3CD)"/>
<path id="Vector_2" d="M128.204 8.993L135.204 0.408H139.348L132.08 8.993L139.727 18.824H135.665L128.204 8.993ZM128.149 18.824H124.623V0.408H128.144L128.149 18.824Z" fill="var(--fill-0, #D6D3CD)"/>
<path id="Vector_3" d="M65.3958 12.378C65.3958 11.295 64.8538 10.807 63.7698 10.807H58.4028V15.845H63.6628C64.8268 15.845 65.3958 15.357 65.3958 14.192V12.378ZM58.4028 3.38696V7.82796H63.4718C64.6088 7.82796 64.9888 7.28696 64.9888 6.20296V4.79496C64.9888 3.81996 64.5008 3.38696 63.4718 3.38696H58.4028ZM69.0528 13.462C69.0528 17.389 66.6958 18.825 63.1528 18.825H54.8828V0.407959H63.0128C66.3438 0.407959 68.6448 1.70796 68.6448 5.06596C68.6968 5.96979 68.4528 6.86595 67.9497 7.61862C67.4466 8.37128 66.7119 8.93943 65.8568 9.23696C66.7991 9.45773 67.6346 10.0008 68.2189 10.7723C68.8032 11.5437 69.0996 12.4951 69.0568 13.462" fill="var(--fill-0, #D6D3CD)"/>
<path id="Vector_4" d="M72.9591 0.408H76.4781V15.846H84.6601V18.824H72.9601L72.9591 0.408Z" fill="var(--fill-0, #D6D3CD)"/>
<path id="Vector_5" d="M98.6425 12.46V6.772C98.6425 4.334 96.6645 2.981 94.2275 2.981C91.7905 2.981 89.8135 4.334 89.8135 6.772V12.46C89.8135 14.897 91.7905 16.251 94.2275 16.251C96.6645 16.251 98.6425 14.897 98.6425 12.46ZM94.2275 19.231C89.0275 19.231 86.0225 15.9 86.0225 9.617C86.0225 3.334 89.0275 0 94.2265 0C99.4255 0 102.433 3.331 102.433 9.614C102.433 15.897 99.4255 19.228 94.2265 19.228" fill="var(--fill-0, #D6D3CD)"/>
<path id="Vector_6" d="M105.695 9.67C105.695 3.821 108.268 0.001 113.603 0.001C117.395 0.001 120.156 2.276 120.403 5.901H116.882C116.692 3.951 115.447 2.977 113.361 2.977C112.851 2.9449 112.34 3.02031 111.861 3.19836C111.382 3.37641 110.946 3.65311 110.581 4.01053C110.216 4.36796 109.93 4.79813 109.741 5.27315C109.553 5.74818 109.467 6.25747 109.488 6.768V12.401C109.487 12.9178 109.591 13.4294 109.792 13.9053C109.994 14.3812 110.289 14.8116 110.661 15.1707C111.032 15.5297 111.473 15.8101 111.955 15.9951C112.438 16.18 112.953 16.2657 113.469 16.247C115.663 16.247 116.827 15.353 117.18 13.187H120.7C120.132 17.412 117.261 19.226 113.415 19.226C108.107 19.226 105.696 15.218 105.696 9.666" fill="var(--fill-0, #D6D3CD)"/>
<path id="Vector_7" d="M140.861 9.66998C140.861 3.82098 143.435 0.000976562 148.769 0.000976562C152.561 0.000976562 155.323 2.27598 155.569 5.90098H152.048C151.858 3.95098 150.613 2.97698 148.527 2.97698C148.017 2.94486 147.506 3.02028 147.028 3.19833C146.549 3.37639 146.113 3.65311 145.747 4.01055C145.382 4.36799 145.096 4.79817 144.908 5.2732C144.72 5.74823 144.634 6.25749 144.655 6.76798V12.401C144.654 12.9179 144.758 13.4296 144.959 13.9056C145.161 14.3815 145.456 14.8119 145.828 15.171C146.2 15.5301 146.64 15.8105 147.123 15.9953C147.606 16.1802 148.121 16.2658 148.637 16.247C150.83 16.247 151.995 15.353 152.348 13.187H155.868C155.3 17.412 152.429 19.226 148.583 19.226C143.275 19.226 140.864 15.218 140.864 9.66598" fill="var(--fill-0, #D6D3CD)"/>
<path id="Vector_8" d="M170.908 10.943H163.234V18.824H159.713V0.408H163.234V7.963H170.908V0.408H174.429V18.824H170.908V10.943Z" fill="var(--fill-0, #D6D3CD)"/>
<path id="Vector_9" d="M186.364 4.66L184.144 11.915H188.613L186.474 4.657L186.364 4.66ZM189.505 14.897H183.222L182.03 18.824H178.238L184.521 0.408H188.258L194.515 18.824H190.723L189.505 14.897Z" fill="var(--fill-0, #D6D3CD)"/>
<path id="Vector_10" d="M197.511 0.407959H201.032V18.824H197.511V0.407959Z" fill="var(--fill-0, #D6D3CD)"/>
<path id="Vector_11" d="M216.506 14.437V0.409H220V18.825H214.719L209.219 4.769H209.112V18.825H205.618V0.409H210.899L216.399 14.437H216.506Z" fill="var(--fill-0, #D6D3CD)"/>
<path id="Vector_12" d="M61.6641 30.602H61.7731L63.9131 37.86H59.4431L61.6641 30.602ZM59.8221 26.35L53.5391 44.766H57.3311L58.5221 40.838H64.8051L66.0241 44.766H69.8131L63.5571 26.35H59.8221Z" fill="var(--fill-0, #D6D3CD)"/>
<path id="Vector_13" d="M117.667 38.402V32.714C117.667 30.277 115.69 28.923 113.252 28.923C110.814 28.923 108.838 30.277 108.838 32.714V38.402C108.838 40.839 110.816 42.193 113.252 42.193C115.688 42.193 117.667 40.839 117.667 38.402ZM113.252 45.173C108.052 45.173 105.047 41.842 105.047 35.559C105.047 29.276 108.053 25.945 113.252 25.945C118.451 25.945 121.459 29.276 121.459 35.559C121.459 41.842 118.451 45.173 113.252 45.173Z" fill="var(--fill-0, #D6D3CD)"/>
<path id="Vector_14" d="M124.121 35.613C124.121 29.764 126.694 25.944 132.029 25.944C135.821 25.944 138.582 28.219 138.829 31.844H135.308C135.118 29.894 133.873 28.92 131.787 28.92C131.277 28.8879 130.766 28.9633 130.287 29.1414C129.808 29.3194 129.372 29.5961 129.007 29.9536C128.642 30.311 128.356 30.7412 128.168 31.2162C127.98 31.6913 127.894 32.2005 127.915 32.711V38.351C127.914 38.8679 128.018 39.3796 128.219 39.8556C128.421 40.3315 128.716 40.762 129.088 41.121C129.46 41.4801 129.9 41.7605 130.383 41.9454C130.866 42.1303 131.381 42.2158 131.897 42.197C134.09 42.197 135.255 41.303 135.607 39.137H139.126C138.558 43.362 135.688 45.176 131.841 45.176C126.533 45.176 124.122 41.168 124.122 35.616" fill="var(--fill-0, #D6D3CD)"/>
<path id="Vector_15" d="M142.04 26.35H145.561V44.766H142.04V26.35Z" fill="var(--fill-0, #D6D3CD)"/>
<path id="Vector_16" d="M156.236 30.6021H156.344L158.484 37.8601H154.015L156.236 30.6021ZM154.394 26.3501L148.111 44.7661H151.902L153.095 40.8381H159.377L160.596 44.7661H164.388L158.132 26.3501H154.394Z" fill="var(--fill-0, #D6D3CD)"/>
<path id="Vector_17" d="M163.188 26.3501V29.3291H168.359V44.7661H171.88V29.3291H177.051V26.3501H163.188Z" fill="var(--fill-0, #D6D3CD)"/>
<path id="Vector_18" d="M180.156 26.35H183.677V44.766H180.156V26.35Z" fill="var(--fill-0, #D6D3CD)"/>
<path id="Vector_19" d="M199.064 38.4021V32.7141C199.064 30.2771 197.086 28.9231 194.649 28.9231C192.212 28.9231 190.235 30.2771 190.235 32.7141V38.4021C190.235 40.8391 192.212 42.1931 194.649 42.1931C197.086 42.1931 199.064 40.8391 199.064 38.4021ZM194.649 45.1731C189.449 45.1731 186.443 41.8421 186.443 35.5591C186.443 29.2761 189.45 25.9451 194.649 25.9451C199.848 25.9451 202.856 29.2761 202.856 35.5591C202.856 41.8421 199.848 45.1731 194.649 45.1731Z" fill="var(--fill-0, #D6D3CD)"/>
<path id="Vector_20" d="M216.506 26.35V40.378H216.398L210.898 26.35H205.617V44.766H209.112V30.71H209.22L214.72 44.766H220.001V26.35H216.506Z" fill="var(--fill-0, #D6D3CD)"/>
<path id="Vector_21" d="M92.1685 31.008C92.1685 32.417 93.0265 33.066 94.7685 33.527L97.8785 34.339C100.989 35.152 102.598 36.723 102.598 39.756C102.598 43.141 99.7295 45.172 95.5465 45.172C91.4975 45.172 88.4675 43.547 88.1465 39.272H91.6325C91.9275 41.439 93.3485 42.278 95.4945 42.278C97.5325 42.278 99.1145 41.384 99.1145 39.786C99.1145 38.486 98.3145 37.756 96.6745 37.323L93.1075 36.375C90.1315 35.59 88.6835 33.748 88.6835 31.04C88.6835 28.061 91.2585 25.948 95.3335 25.948C99.0875 25.948 101.769 27.654 102.144 31.5H98.6585C98.4435 29.442 96.9425 28.845 95.2795 28.845C93.3485 28.845 92.1685 29.685 92.1685 31.012" fill="var(--fill-0, #D6D3CD)"/>
<path id="Vector_22" d="M75.3181 31.008C75.3181 32.417 76.1761 33.066 77.9181 33.527L81.0281 34.339C84.1391 35.152 85.7481 36.723 85.7481 39.756C85.7481 43.141 82.8791 45.172 78.6961 45.172C74.6471 45.172 71.6171 43.547 71.2961 39.272H74.7781C75.0731 41.439 76.4941 42.278 78.6401 42.278C80.6781 42.278 82.2601 41.384 82.2601 39.786C82.2601 38.486 81.4601 37.756 79.8201 37.323L76.2531 36.375C73.2771 35.59 71.8291 33.748 71.8291 31.04C71.8291 28.061 74.4041 25.948 78.4791 25.948C82.2331 25.948 84.9141 27.654 85.2901 31.5H81.8081C81.5931 29.442 80.0921 28.845 78.4291 28.845C76.4981 28.845 75.3181 29.685 75.3181 31.012" fill="var(--fill-0, #D6D3CD)"/>
</g>
</svg>
