<svg width="281" height="101" viewBox="0 0 281 101" fill="none" xmlns="http://www.w3.org/2000/svg">
<path d="M69.596 47.74C72.74 47.74 74.204 49.18 74.204 52.012V59.5H72.092V57.412C71.468 58.636 70.364 59.788 68.54 59.788C66.452 59.788 64.916 58.564 64.916 56.284C64.916 54.316 66.524 53.044 68.876 52.924L72.092 52.756V52.156C72.092 50.404 71.3 49.66 69.644 49.66C68.42 49.66 67.436 50.308 67.244 51.364H64.988C65.3 49.156 67.22 47.74 69.596 47.74ZM68.876 57.868C70.916 57.868 72.044 56.308 72.092 54.388L69.116 54.556C67.676 54.628 66.956 55.348 66.956 56.332C66.956 57.34 67.7 57.868 68.876 57.868ZM79.3824 59.5H77.2704V48.028H79.3824V50.356C79.7664 49.036 81.0384 47.74 83.1024 47.74C85.7424 47.74 86.8704 49.732 86.8704 52.06V59.5H84.7584V52.108C84.7584 50.572 83.9424 49.66 82.4544 49.66C80.4624 49.66 79.3824 51.34 79.3824 53.02V59.5ZM94.3661 59.788C91.2701 59.788 89.3741 57.268 89.3741 53.764C89.3741 50.26 91.2701 47.74 94.3661 47.74C95.9501 47.74 97.2701 48.652 97.8701 49.78V42.7H100.03V59.5H97.8701V57.748C97.2701 58.876 95.9501 59.788 94.3661 59.788ZM94.7501 57.868C96.8141 57.868 98.0141 56.236 98.0141 53.764C98.0141 51.292 96.8141 49.66 94.7501 49.66C92.6861 49.66 91.4861 51.292 91.4861 53.764C91.4861 56.236 92.6861 57.868 94.7501 57.868ZM110.484 59.5H108.372V48.028H110.484V50.164C110.82 48.772 111.78 47.74 113.772 47.74C115.644 47.74 116.676 48.724 117.06 50.236C117.492 48.748 118.74 47.74 120.468 47.74C123.06 47.74 124.02 49.492 124.02 51.94V59.5H121.908V51.988C121.908 50.5 121.188 49.66 119.844 49.66C118.044 49.66 117.252 51.196 117.252 53.02V59.5H115.14V51.988C115.14 50.5 114.42 49.66 113.076 49.66C111.276 49.66 110.484 51.196 110.484 53.02V59.5ZM131.237 47.74C134.381 47.74 135.845 49.18 135.845 52.012V59.5H133.733V57.412C133.109 58.636 132.005 59.788 130.181 59.788C128.093 59.788 126.557 58.564 126.557 56.284C126.557 54.316 128.165 53.044 130.517 52.924L133.733 52.756V52.156C133.733 50.404 132.941 49.66 131.285 49.66C130.061 49.66 129.077 50.308 128.885 51.364H126.629C126.941 49.156 128.861 47.74 131.237 47.74ZM130.517 57.868C132.557 57.868 133.685 56.308 133.733 54.388L130.757 54.556C129.317 54.628 128.597 55.348 128.597 56.332C128.597 57.34 129.341 57.868 130.517 57.868ZM141.023 59.5H138.911V48.028H141.023V50.356C141.407 49.036 142.679 47.74 144.743 47.74C147.383 47.74 148.511 49.732 148.511 52.06V59.5H146.399V52.108C146.399 50.572 145.583 49.66 144.095 49.66C142.103 49.66 141.023 51.34 141.023 53.02V59.5ZM155.708 56.308L158.876 48.028H161.108L155.828 61.396C154.82 63.964 153.764 65.116 151.7 65.116C150.956 65.116 150.212 64.996 149.852 64.732V62.5C150.332 62.788 150.884 62.956 151.652 62.956C152.708 62.956 153.404 62.332 154.124 60.436L154.676 58.972L149.852 48.028H152.156L155.708 56.308ZM170.367 59.5H168.255V48.028H170.367V50.164C170.703 48.772 171.663 47.74 173.655 47.74C175.527 47.74 176.559 48.724 176.943 50.236C177.375 48.748 178.623 47.74 180.351 47.74C182.943 47.74 183.903 49.492 183.903 51.94V59.5H181.791V51.988C181.791 50.5 181.071 49.66 179.727 49.66C177.927 49.66 177.135 51.196 177.135 53.02V59.5H175.023V51.988C175.023 50.5 174.303 49.66 172.959 49.66C171.159 49.66 170.367 51.196 170.367 53.02V59.5ZM191.781 59.788C188.445 59.788 186.405 57.1 186.405 53.764C186.405 50.428 188.445 47.74 191.781 47.74C195.117 47.74 197.157 50.428 197.157 53.764C197.157 57.1 195.117 59.788 191.781 59.788ZM191.781 57.868C193.845 57.868 195.045 56.236 195.045 53.764C195.045 51.292 193.845 49.66 191.781 49.66C189.717 49.66 188.517 51.292 188.517 53.764C188.517 56.236 189.717 57.868 191.781 57.868ZM201.773 59.5H199.661V48.028H201.773V49.996C202.085 48.58 203.189 47.74 204.773 47.74C205.205 47.74 205.589 47.812 205.925 47.884V49.972C205.541 49.804 204.941 49.66 204.341 49.66C203.045 49.66 201.773 50.62 201.773 52.54V59.5ZM217.519 53.38V54.268H209.119C209.263 56.452 210.367 57.868 212.311 57.868C213.967 57.868 214.879 57.076 215.167 55.9H217.303C216.943 58.084 215.239 59.788 212.311 59.788C208.903 59.788 206.983 57.1 206.983 53.764C206.983 50.428 209.023 47.74 212.287 47.74C216.007 47.74 217.519 50.284 217.519 53.38ZM209.215 52.42H215.287C215.119 50.596 214.063 49.66 212.239 49.66C210.631 49.66 209.575 50.716 209.215 52.42Z" fill="#D6D3CD"/>
</svg>
