<svg preserveAspectRatio="none" width="100%" height="100%" overflow="visible" style="display: block;" viewBox="0 0 137.292 39.2262" fill="none" xmlns="http://www.w3.org/2000/svg">
<path id="Vector" d="M90.7405 11.441C96.3055 11.441 102.627 13.6075 103.005 20.5402H95.2249C95.0628 18.5362 93.2258 17.6155 90.7945 17.6155C88.5253 17.6155 87.4988 18.4821 87.4988 19.5111C87.4988 20.3777 88.1471 21.1902 90.2002 21.5693L95.1168 22.3817C100.033 23.3025 103.275 25.6856 103.275 30.3436C103.275 36.4097 97.8183 39.2262 91.0107 39.2262C84.149 39.2262 78.584 36.3556 78.0438 29.3687L85.8239 29.4228C86.2021 31.6976 88.0931 32.7267 90.8486 32.7267C93.1718 32.7267 94.5766 32.0226 94.5766 30.8852C94.5766 30.0186 93.7661 29.3145 92.0372 29.0437L86.7424 28.1229C82.204 27.3647 79.0703 24.819 79.0703 20.2152C79.0703 14.6907 83.7708 11.441 90.7405 11.441ZM57.9449 11.5431C60.8034 11.5431 63.1765 12.3006 65.1182 13.545V12.1383H73.8555V38.3787H65.1182V36.9179C63.1765 38.1623 60.8034 38.9197 57.9449 38.9197C50.8795 38.9197 44.9467 33.0224 44.9467 25.2314C44.9467 17.3863 50.8795 11.5431 57.9449 11.5431ZM6.76719 1.53227L19.8685 21.2179L32.9156 1.53227H39.7369V38.409H30.5877V19.9164L22.4129 32.5521V32.6063H17.324V32.5521L9.0951 19.8079L9.14924 38.409H0V1.53227H6.76719ZM116.841 0V22.0175L125.984 12.1719H136.426L126.471 22.8831L137.292 38.409H126.796L120.52 29.3206L116.841 33.2697V38.409H108.076V0H116.841ZM59.6708 18.6848C56.1111 18.6848 53.5222 21.6065 53.5222 25.2314C53.5222 28.8564 56.1111 31.7239 59.6708 31.7239C61.6124 31.7239 63.5001 31.1829 65.1182 29.2892V21.1736C63.5001 19.28 61.6124 18.6848 59.6708 18.6848Z" fill="var(--fill-0, #D6D3CD)"/>
</svg>
