<svg preserveAspectRatio="none" width="100%" height="100%" overflow="visible" style="display: block;" viewBox="0 0 36.7745 36.7745" fill="none" xmlns="http://www.w3.org/2000/svg">
<path id="Vector" fill-rule="evenodd" clip-rule="evenodd" d="M36.7745 11.2367V21.4518H6.12909V21.4519L4.81058 21.4519C6.2061 27.6501 11.7444 32.2799 18.364 32.2799C23.8367 32.2799 28.5703 29.1155 30.8349 24.5166L36.7745 24.5165V33.0971C36.7745 35.1281 35.1281 36.7745 33.0971 36.7745H3.67745C1.64645 36.7745 0 35.1281 0 33.0971V11.2367H36.7745ZM27.3078 24.5165C25.3576 27.3679 22.0793 29.239 18.364 29.239C14.6488 29.239 11.3705 27.3679 9.42027 24.5165H27.3078ZM10.5216 13.6883C7.63972 13.6883 5.25557 15.8194 4.85905 18.5916L7.99375 18.5916C8.33841 17.5246 9.33988 16.7528 10.5216 16.7528C11.7033 16.7528 12.7048 17.5246 13.0495 18.5916L16.1842 18.5916C15.7876 15.8194 13.4035 13.6883 10.5216 13.6883ZM26.2529 13.6883C23.3711 13.6883 20.9869 15.8194 20.5904 18.5916L23.7251 18.5916C24.0697 17.5246 25.0712 16.7528 26.2529 16.7528C27.4347 16.7528 28.4361 17.5246 28.7808 18.5916L31.9155 18.5916C31.519 15.8194 29.1348 13.6883 26.2529 13.6883ZM33.0971 0C35.1281 0 36.7745 1.64645 36.7745 3.67745V8.17212H0V3.67745C0 1.64645 1.64645 0 3.67745 0H33.0971Z" fill="var(--fill-0, #D6D3CD)"/>
</svg>
