<svg width="281" height="101" viewBox="0 0 281 101" fill="none" xmlns="http://www.w3.org/2000/svg">
<path d="M193.531 41.9414C199.096 41.9414 205.418 44.1074 205.796 51.04H198.016C197.853 49.0363 196.017 48.1153 193.586 48.1152C191.317 48.1152 190.29 48.9818 190.29 50.0107C190.29 50.8773 190.938 51.6902 192.991 52.0693L197.908 52.8818C202.825 53.8026 206.066 56.1859 206.066 60.8438C206.066 66.9098 200.609 69.7265 193.802 69.7266C186.94 69.7266 181.375 66.8557 180.835 59.8691L188.615 59.9229C188.993 62.1976 190.884 63.2266 193.64 63.2266C195.963 63.2266 197.367 62.5222 197.367 61.3848C197.367 60.5184 196.557 59.8147 194.828 59.5439L189.533 58.623C184.995 57.8647 181.861 55.3186 181.861 50.7148C181.862 45.1906 186.562 41.9415 193.531 41.9414ZM160.736 42.043C163.595 42.043 165.968 42.8006 167.909 44.0449V42.6387H176.646V68.8789H167.909V67.418C165.968 68.6623 163.595 69.4198 160.736 69.4199C153.671 69.4199 147.737 63.5224 147.737 55.7314C147.737 47.8864 153.671 42.043 160.736 42.043ZM122.659 51.7178L135.707 32.0322H142.528V68.9092H133.379V50.416L125.204 63.0518V63.1064H120.115V63.0518L111.886 50.3076L111.94 68.9092H102.791V32.0322H109.559L122.659 51.7178ZM219.632 52.5176L228.775 42.6719H239.217L229.262 53.3828L240.083 68.9092H229.587L223.311 59.8203L219.632 63.7695V68.9092H210.867V30.5H219.632V52.5176ZM78.2744 53.4844H46.3105C47.7061 59.6824 53.2447 64.3125 59.8643 64.3125C65.3368 64.3124 70.0704 61.1477 72.335 56.5488H78.2744V65.1289C78.2744 67.1599 76.6277 68.8066 74.5967 68.8066H45.1777C43.1467 68.8066 41.5 67.1599 41.5 65.1289V43.2686H78.2744V53.4844ZM162.462 49.1846C158.902 49.1846 156.313 52.1065 156.313 55.7314C156.313 59.3564 158.902 62.2236 162.462 62.2236C164.404 62.2236 166.291 61.6827 167.909 59.7891V51.6738C166.291 49.7802 164.404 49.1846 162.462 49.1846ZM68.8076 56.5488C66.8574 59.4 63.5794 61.2714 59.8643 61.2715C56.149 61.2715 52.8702 59.4001 50.9199 56.5488H68.8076ZM52.0215 45.7207C49.1397 45.7208 46.7559 47.8518 46.3594 50.624H49.4941C49.8388 49.5571 50.8398 48.7852 52.0215 48.7852C53.2032 48.7852 54.2051 49.557 54.5498 50.624H57.6846C57.288 47.8518 54.9034 45.7207 52.0215 45.7207ZM67.7529 45.7207C64.871 45.7207 62.4873 47.8518 62.0908 50.624H65.2246C65.5693 49.557 66.5712 48.7852 67.7529 48.7852C68.9347 48.7852 69.9366 49.557 70.2812 50.624H73.415C73.0185 47.8518 70.6348 45.7207 67.7529 45.7207ZM74.5967 32.0322C76.6277 32.0322 78.2744 33.679 78.2744 35.71V40.2041H41.5V35.71C41.5 33.679 43.1467 32.0322 45.1777 32.0322H74.5967Z" fill="#D6D3CD"/>
</svg>
