<svg width="281" height="101" viewBox="0 0 281 101" fill="none" xmlns="http://www.w3.org/2000/svg">
<path d="M47.9018 64.4333C44.8454 64.4333 42.3413 63.7212 40.3894 62.2969C38.4631 60.8474 37.5 58.7874 37.5 56.1169C37.5 55.5574 37.5642 54.8708 37.6926 54.0569C38.0265 52.2258 38.5017 50.026 39.1181 47.4573C40.8645 40.4635 45.372 36.9666 52.6404 36.9666C54.618 36.9666 56.3901 37.2972 57.9568 37.9584C59.5235 38.5942 60.7562 39.5606 61.6552 40.8577C62.5541 42.1293 63.0036 43.6552 63.0036 45.4355C63.0036 45.9695 62.9394 46.6435 62.811 47.4573C62.4257 49.7208 61.9634 51.9207 61.4241 54.0569C60.5251 57.5412 58.9713 60.1479 56.7626 61.8774C54.5537 63.5813 51.6002 64.4333 47.9018 64.4333ZM48.4411 58.94C49.8794 58.94 51.0993 58.5203 52.101 57.681C53.1283 56.8418 53.8603 55.5574 54.2969 53.8281C54.8877 51.4374 55.337 49.352 55.6454 47.5718C55.7481 47.0377 55.7994 46.4909 55.7994 45.9314C55.7994 43.6171 54.5794 42.4599 52.1395 42.4599C50.7012 42.4599 49.4684 42.8795 48.4411 43.7188C47.4395 44.5581 46.7203 45.8424 46.2837 47.5718C45.8214 49.2757 45.3591 51.3612 44.8968 53.8281C44.7941 54.3367 44.7427 54.8708 44.7427 55.4303C44.7427 57.77 45.9755 58.94 48.4411 58.94Z" fill="#D6D3CD"/>
<path d="M66.9127 64.052C66.6301 64.052 66.4118 63.963 66.2578 63.785C66.1293 63.5815 66.0908 63.3527 66.1421 63.0984L71.4586 38.302C71.5099 38.0222 71.6513 37.7933 71.8824 37.6153C72.1135 37.4373 72.3576 37.3483 72.6144 37.3483H82.8619C85.7129 37.3483 87.9986 37.9332 89.7194 39.1031C91.4659 40.273 92.3392 41.9642 92.3392 44.1768C92.3392 44.8126 92.2622 45.4738 92.1081 46.1605C91.4659 49.0852 90.1689 51.2469 88.217 52.6458C86.2908 54.0445 83.6453 54.7438 80.2808 54.7438H75.0799L73.3078 63.0984C73.2564 63.3781 73.1151 63.6069 72.884 63.785C72.6528 63.963 72.4089 64.052 72.152 64.052H66.9127ZM80.5505 49.4794C81.6292 49.4794 82.5667 49.1869 83.3628 48.602C84.1847 48.0171 84.7241 47.1778 84.9809 46.0842C85.0579 45.6519 85.0965 45.2704 85.0965 44.9398C85.0965 44.2022 84.8781 43.6427 84.4416 43.2612C84.005 42.8543 83.2601 42.6509 82.2071 42.6509H77.5841L76.1201 49.4794H80.5505Z" fill="#D6D3CD"/>
<path d="M101.019 64.052C100.736 64.052 100.518 63.963 100.364 63.785C100.21 63.5815 100.158 63.3527 100.21 63.0984L104.486 43.3375H97.6284C97.3459 43.3375 97.1275 43.2485 96.9735 43.0705C96.8451 42.8671 96.8066 42.6382 96.858 42.3838L97.744 38.302C97.7954 38.0222 97.9366 37.7933 98.1677 37.6153C98.3988 37.4373 98.6429 37.3483 98.8997 37.3483H119.626C119.909 37.3483 120.127 37.4373 120.281 37.6153C120.384 37.7679 120.435 37.9205 120.435 38.0731C120.435 38.1494 120.422 38.2257 120.397 38.302L119.511 42.3838C119.459 42.6636 119.318 42.8925 119.087 43.0705C118.881 43.2485 118.637 43.3375 118.355 43.3375H111.536L107.26 63.0984C107.208 63.3781 107.067 63.6069 106.836 63.785C106.605 63.963 106.361 64.052 106.104 64.052H101.019Z" fill="#D6D3CD"/>
<path d="M121.418 64.052C121.136 64.052 120.917 63.963 120.763 63.785C120.609 63.5815 120.558 63.3527 120.609 63.0984L125.964 38.302C126.016 38.0222 126.157 37.7933 126.388 37.6153C126.619 37.4373 126.863 37.3483 127.12 37.3483H132.321C132.603 37.3483 132.822 37.4373 132.976 37.6153C133.078 37.7679 133.13 37.9205 133.13 38.0731C133.13 38.1494 133.117 38.2257 133.091 38.302L127.775 63.0984C127.723 63.3781 127.582 63.6069 127.351 63.785C127.12 63.963 126.876 64.052 126.619 64.052H121.418Z" fill="#D6D3CD"/>
<path d="M136.088 64.052C135.806 64.052 135.587 63.963 135.433 63.785C135.279 63.6069 135.228 63.3781 135.279 63.0984L140.595 38.302C140.647 38.0222 140.788 37.7933 141.019 37.6153C141.25 37.4373 141.507 37.3483 141.79 37.3483H145.95C146.567 37.3483 146.965 37.628 147.145 38.1875L151.344 50.2042L160.706 38.1875C160.834 37.9841 161.014 37.7933 161.245 37.6153C161.502 37.4373 161.81 37.3483 162.17 37.3483H166.369C166.651 37.3483 166.87 37.4373 167.024 37.6153C167.126 37.7679 167.178 37.9205 167.178 38.0731C167.178 38.1494 167.165 38.2257 167.139 38.302L161.823 63.0984C161.771 63.3781 161.63 63.6069 161.399 63.785C161.168 63.963 160.924 64.052 160.667 64.052H156.005C155.723 64.052 155.505 63.963 155.35 63.785C155.222 63.5815 155.184 63.3527 155.235 63.0984L158.24 49.0216L152.346 56.7658C152.089 57.0455 151.845 57.2617 151.614 57.4143C151.383 57.5668 151.113 57.6432 150.805 57.6432H148.801C148.262 57.6432 147.89 57.3507 147.684 56.7658L144.949 48.6783L141.867 63.0984C141.815 63.3781 141.674 63.6069 141.443 63.785C141.212 63.963 140.968 64.052 140.711 64.052H136.088Z" fill="#D6D3CD"/>
<path d="M170.093 64.052C169.81 64.052 169.592 63.963 169.438 63.785C169.284 63.5815 169.233 63.3527 169.284 63.0984L174.639 38.302C174.69 38.0222 174.832 37.7933 175.063 37.6153C175.293 37.4373 175.538 37.3483 175.794 37.3483H180.995C181.278 37.3483 181.497 37.4373 181.65 37.6153C181.753 37.7679 181.804 37.9205 181.804 38.0731C181.804 38.1494 181.792 38.2257 181.766 38.302L176.45 63.0984C176.399 63.3781 176.257 63.6069 176.025 63.785C175.794 63.963 175.55 64.052 175.293 64.052H170.093Z" fill="#D6D3CD"/>
<path d="M194.278 64.4333C192.018 64.4333 190.079 64.1281 188.461 63.5177C186.868 62.9074 185.661 62.0935 184.839 61.0763C184.043 60.0589 183.645 58.9272 183.645 57.681C183.645 57.4776 183.671 57.1725 183.721 56.7655C183.774 56.5366 183.877 56.3459 184.03 56.1933C184.21 56.0407 184.415 55.9643 184.647 55.9643H189.577C189.886 55.9643 190.117 56.0153 190.271 56.1169C190.451 56.2187 190.631 56.3967 190.811 56.651C190.991 57.3123 191.401 57.8591 192.044 58.2915C192.711 58.7238 193.623 58.94 194.778 58.94C196.242 58.94 197.425 58.711 198.323 58.2533C199.222 57.7956 199.762 57.1725 199.941 56.384C199.967 56.2823 199.979 56.1297 199.979 55.9263C199.979 55.2904 199.582 54.7945 198.786 54.4384C197.989 54.0569 196.525 53.612 194.394 53.1033C191.902 52.5692 190.014 51.7681 188.73 50.6999C187.446 49.6063 186.805 48.1821 186.805 46.4273C186.805 45.8169 186.881 45.1939 187.035 44.5581C187.549 42.1929 188.821 40.3363 190.849 38.9884C192.904 37.6405 195.549 36.9666 198.786 36.9666C200.737 36.9666 202.472 37.3099 203.986 37.9966C205.501 38.6832 206.67 39.5606 207.493 40.6288C208.34 41.6715 208.763 42.7142 208.763 43.757C208.763 44.0621 208.751 44.2783 208.724 44.4055C208.674 44.6343 208.558 44.8251 208.378 44.9777C208.225 45.1303 208.031 45.2066 207.8 45.2066H202.638C202.073 45.2066 201.687 44.9904 201.483 44.5581C201.457 43.9731 201.148 43.4772 200.557 43.0703C199.967 42.6634 199.196 42.4599 198.246 42.4599C197.116 42.4599 196.179 42.6634 195.433 43.0703C194.715 43.4772 194.265 44.0749 194.086 44.8632C194.06 44.9904 194.046 45.1557 194.046 45.3592C194.046 45.9695 194.406 46.4782 195.126 46.8851C195.87 47.2666 197.168 47.6608 199.016 48.0677C201.893 48.6272 203.986 49.4283 205.297 50.471C206.631 51.5138 207.299 52.8999 207.299 54.6292C207.299 55.2141 207.222 55.8499 207.068 56.5366C206.504 59.1307 205.129 61.1017 202.945 62.4497C200.789 63.772 197.9 64.4333 194.278 64.4333Z" fill="#D6D3CD"/>
<path d="M212.411 64.052C212.128 64.052 211.909 63.963 211.755 63.785C211.602 63.6069 211.549 63.3781 211.602 63.0984L216.918 38.302C216.969 38.0222 217.11 37.7933 217.342 37.6153C217.573 37.4373 217.83 37.3483 218.113 37.3483H222.272C222.889 37.3483 223.287 37.628 223.467 38.1875L227.667 50.2042L237.028 38.1875C237.157 37.9841 237.337 37.7933 237.567 37.6153C237.824 37.4373 238.132 37.3483 238.492 37.3483H242.691C242.974 37.3483 243.193 37.4373 243.346 37.6153C243.449 37.7679 243.5 37.9205 243.5 38.0731C243.5 38.1494 243.488 38.2257 243.462 38.302L238.146 63.0984C238.093 63.3781 237.952 63.6069 237.721 63.785C237.49 63.963 237.246 64.052 236.989 64.052H232.328C232.045 64.052 231.827 63.963 231.673 63.785C231.544 63.5815 231.505 63.3527 231.558 63.0984L234.562 49.0216L228.668 56.7658C228.411 57.0455 228.167 57.2617 227.936 57.4143C227.705 57.5668 227.435 57.6432 227.127 57.6432H225.124C224.584 57.6432 224.212 57.3507 224.007 56.7658L221.271 48.6783L218.19 63.0984C218.137 63.3781 217.996 63.6069 217.765 63.785C217.534 63.963 217.29 64.052 217.033 64.052H212.411Z" fill="#D6D3CD"/>
</svg>
