<svg width="281" height="101" viewBox="0 0 281 101" fill="none" xmlns="http://www.w3.org/2000/svg">
<path d="M101.938 69.965C100.744 71.3968 99.3518 72.6134 97.7602 73.6114C97.2742 73.9147 96.7719 74.2017 96.2501 74.4659C95.5032 74.841 94.7172 75.1802 93.8953 75.4737C90.6142 76.6478 87.0168 77.2838 83.0997 77.3817H82.6594C76.9322 77.3817 72.3139 76.0347 68.8143 73.3439C65.3147 70.6532 63.2698 67.6167 62.6827 64.2346C62.2424 61.9841 62.5979 59.8772 63.7492 57.9203C64.8973 55.9601 66.4302 54.7371 68.3382 54.2478C68.9252 54.0032 69.5612 53.8793 70.2461 53.8793C72.0563 53.8793 73.7588 54.3685 75.3504 55.347C76.942 56.3287 77.7606 57.405 77.8128 58.5791C77.9107 59.2151 77.5421 60.2588 76.7104 61.7004C75.8787 63.1452 75.3634 64.2835 75.1677 65.1152C74.6785 67.6135 75.1417 69.6943 76.5637 71.3577C77.9824 73.0243 79.9882 73.9538 82.5844 74.1495H83.1715C85.6176 74.1495 87.5158 73.4026 88.8628 71.9089C90.2098 70.4184 90.9795 68.4941 91.1752 66.1458C91.273 64.7238 91.1002 63.4159 90.6599 62.2157C90.2196 61.0155 89.5347 59.9522 88.6051 59.0194C87.6756 58.0899 86.9646 57.4408 86.4754 57.0723C85.9862 56.7038 85.2751 56.2276 84.3456 55.6405C81.8962 54.075 79.3979 52.5323 76.8539 51.0124C76.805 50.9635 76.4136 50.7319 75.6798 50.3145C74.946 49.9003 74.4078 49.5806 74.0621 49.3621C73.7196 49.1403 73.1554 48.762 72.3726 48.2206C71.5899 47.6824 70.9767 47.1932 70.5364 46.7529C70.0961 46.3126 69.5319 45.7614 68.8469 45.1026C68.162 44.4405 67.6369 43.7784 67.2684 43.1196C66.8998 42.4575 66.5215 41.7237 66.1301 40.9148C65.7387 40.106 65.4811 39.2645 65.3604 38.3839C65.2365 37.5 65.2234 36.5738 65.3245 35.592C65.667 32.0207 67.5293 29.1767 70.905 27.073C74.2839 24.9661 78.5662 23.9126 83.7585 23.9126H85.2262C89.9032 24.1376 93.7029 25.24 96.6219 27.2198C96.8828 27.3959 97.134 27.5753 97.3786 27.7677C97.5123 27.8721 97.6428 27.9732 97.77 28.0775C99.6682 29.6104 100.911 31.1466 101.498 32.6926C101.765 33.3873 101.896 34.0852 101.896 34.7832C101.896 34.8452 101.896 34.9071 101.893 34.9691C101.866 36.0813 101.586 37.063 101.051 37.9175C100.921 38.1295 100.774 38.3317 100.607 38.5274C99.7497 39.5548 98.4418 40.2168 96.6806 40.5104C96.4327 40.5593 96.0185 40.5821 95.4315 40.5821C93.7681 40.5821 92.2613 40.1549 90.9143 39.2971C89.5673 38.4393 88.8465 37.3989 88.7486 36.1759C88.6508 35.5399 89.0161 34.793 89.851 33.9352C90.6827 33.0807 91.1002 32.3077 91.1002 31.6228C91.1491 30.5465 90.6729 29.493 89.6684 28.4624C88.6638 27.435 87.0853 26.9197 84.9294 26.9197C83.0214 26.9197 81.4298 27.5687 80.1546 28.8668C78.8826 30.1649 78.2466 31.7174 78.2466 33.5308C78.2466 36.0291 79.7632 38.2078 82.7997 40.0668C82.9464 40.1647 83.902 40.7648 85.6633 41.8672C87.4277 42.9696 89.202 44.0817 90.986 45.2102C92.7733 46.3354 94.1562 47.2193 95.1347 47.8553C96.6513 48.9316 97.7047 49.6915 98.2918 50.1318C98.8691 50.5623 99.7856 51.3842 101.048 52.5975C101.071 52.6203 101.097 52.6432 101.12 52.666C101.622 53.152 102.072 53.6445 102.467 54.15C103.093 54.9491 103.585 55.7775 103.947 56.632C104.534 58.0279 104.854 59.5576 104.903 61.2209C104.997 64.5509 104.009 67.4635 101.928 69.9585L101.938 69.965Z" fill="#D6D3CD"/>
<path d="M142.354 71.4C141.128 69.9552 140.345 68.7419 140.006 67.7635C139.66 65.8033 138.78 61.0806 137.361 53.589C137.299 53.2693 137.234 52.9562 137.165 52.6496C136.999 51.9256 136.81 51.2407 136.591 50.5916C135.717 47.9694 134.419 45.9473 132.7 44.5155C130.375 42.5814 127.72 41.6127 124.732 41.6127C123.656 41.6127 122.7 41.7138 121.869 41.9062C118.539 42.4933 116.093 44.3556 114.527 47.4867V31.7695C114.527 28.7852 114.234 26.7403 113.643 25.6379C113.056 24.5355 112.052 23.9875 110.633 23.9875C109.018 23.9875 106.885 24.4018 104.24 25.2367C102.117 25.9053 100.388 26.5902 99.0513 27.2947C101.889 29.6984 103.321 32.2131 103.321 34.7864C103.321 36.0877 103.037 37.2651 102.476 38.3023V52.0104C103.725 53.2856 104.661 54.6555 105.264 56.084C105.917 57.6332 106.276 59.3488 106.331 61.185C106.439 64.8542 105.326 68.1157 103.027 70.8749C101.563 72.6361 99.8047 74.0973 97.7793 75.2519C97.8054 75.8389 98.1968 76.1357 98.9502 76.1357H118.046C118.389 76.1357 118.669 76.0248 118.891 75.8063C119.113 75.5845 119.22 75.3562 119.22 75.1083V74.4463C119.22 74.006 118.438 72.9525 116.872 71.2891C115.303 69.6258 114.524 68.1809 114.524 66.9579V57.1897L114.671 57.2614C114.622 56.5276 114.645 55.66 114.746 54.6555C114.843 53.6509 115.049 52.5257 115.369 51.2766C115.685 50.0274 116.275 48.987 117.133 48.1553C117.988 47.3236 119.054 46.9061 120.329 46.9061C121.846 46.8572 122.984 47.3725 123.744 48.4488C124.504 49.5251 125.078 51.0189 125.469 52.9269C126.79 60.6632 127.452 65.2912 127.452 66.8078C127.501 67.8841 126.803 69.2442 125.362 70.8847C123.917 72.5253 123.17 73.4189 123.121 73.5657C122.925 73.957 122.899 74.4952 123.049 75.1801C123.049 75.8161 123.441 76.1325 124.224 76.1325H143.098C143.157 76.1325 143.212 76.1292 143.267 76.1194C143.493 76.0868 143.691 75.9824 143.871 75.8031C144.093 75.5813 144.2 75.353 144.2 75.1051V74.443C144.2 73.8559 143.587 72.8383 142.364 71.3968L142.354 71.4Z" fill="#D6D3CD"/>
<path d="M171.082 63.3572C171.033 62.232 170.54 61.596 169.611 61.4492C168.629 61.4492 168.094 61.8896 167.996 62.7702C167.987 62.9789 167.97 63.1811 167.944 63.3801C167.784 64.7108 167.312 65.8718 166.522 66.8633C166.225 67.2352 165.886 67.5841 165.498 67.9103C163.933 69.2345 162.096 69.8933 159.993 69.8933C157.889 69.8933 155.975 69.1855 154.266 67.7635C152.55 66.3415 151.203 64.3618 150.225 61.8145C158.744 58.827 163.346 57.2354 164.03 57.0397C164.983 56.694 165.811 56.3385 166.522 55.9699C167.067 55.6894 167.537 55.3992 167.944 55.1056C168.212 54.9099 168.45 54.711 168.659 54.5088C169.588 53.6021 169.807 52.441 169.321 51.019C168.998 50.1481 168.538 49.3001 167.948 48.4815C167.54 47.914 167.064 47.3628 166.526 46.8214C165.828 46.1202 165.022 45.4385 164.105 44.7764C161.46 42.8652 158.277 41.9128 154.556 41.9128C153.134 41.9128 151.862 42.0368 150.737 42.2814C146.037 43.1131 142.263 45.3146 139.426 48.8925C138.946 49.4958 138.516 50.1188 138.131 50.7646C138.379 51.5734 138.584 52.4279 138.757 53.3281C140.14 60.6273 141.024 65.3598 141.383 67.3982C141.604 67.969 142.139 68.9507 143.437 70.4836C144.96 72.284 145.609 73.4712 145.609 74.4496V75.1117C145.609 75.2845 145.59 75.4868 145.528 75.7118C146.451 76.1488 147.39 76.5109 148.346 76.8011C150.28 77.3882 152.227 77.6817 154.184 77.6817C154.331 77.6817 154.553 77.6687 154.846 77.6459C155.14 77.6198 155.358 77.61 155.508 77.61C157.856 77.4632 159.973 76.987 161.862 76.1782C161.897 76.1651 161.93 76.1488 161.966 76.1325C162.416 75.9368 162.843 75.7346 163.248 75.5226C164.5 74.8736 165.544 74.1495 166.379 73.3505C167.504 72.2742 168.433 71.1 169.167 69.8248C169.901 68.5528 170.416 67.3754 170.71 66.2991C171.004 65.2228 171.124 64.2444 171.079 63.3605L171.082 63.3572ZM148.829 49.9916C149.367 47.1052 150.616 45.4646 152.573 45.07C152.72 45.0211 152.964 44.9982 153.307 44.9982C154.628 44.9982 155.851 45.6831 156.979 47.053C158.104 48.4228 158.962 50.0144 159.549 51.8278C159.745 52.8095 159.598 53.7358 159.109 54.6197C158.62 55.5003 157.909 56.1134 156.979 56.4559C152.964 57.8779 150.443 58.8042 149.416 59.2445C148.486 55.9634 148.29 52.8813 148.829 49.9916Z" fill="#D6D3CD"/>
<path d="M203.09 38.6938C202.76 38.4589 202.444 38.198 202.141 37.9045C200.604 36.4335 199.828 34.643 199.828 32.5817C199.828 30.6574 200.503 28.9843 201.841 27.5949C201.717 27.3176 201.531 27.0698 201.289 26.8512C200.849 26.4599 200.334 26.2642 199.747 26.2642L164.2 26.4109C163.515 26.4109 163.172 26.7306 163.172 27.3665L163.1 27.6601C163.051 27.8069 163.025 28.0058 163.025 28.2472C163.025 28.4885 163.074 28.6875 163.172 28.8342C163.27 29.0788 164.092 30.0084 165.635 31.6261C167.177 33.2405 167.947 34.6136 167.947 35.7388V46.2474C169.193 47.5944 170.1 49.0262 170.654 50.52L170.664 50.5526C171.512 53.0183 170.582 54.6132 169.653 55.5198C169.193 55.9667 168.629 56.3907 167.947 56.7984V60.4284C168.41 60.1642 168.974 60.0207 169.614 60.0207C169.689 60.0207 169.764 60.0272 169.835 60.037C170.602 60.1577 172.389 60.7154 172.503 63.2855C172.559 64.3031 172.419 65.4446 172.089 66.6611C171.763 67.8516 171.199 69.1497 170.406 70.5228C169.61 71.9089 168.586 73.2005 167.366 74.3648C166.708 74.9943 165.931 75.5846 165.044 76.1293H183.521C183.814 76.1293 184.085 76.0314 184.33 75.8358C184.574 75.6401 184.698 75.4215 184.698 75.1737V74.5116C184.698 74.0224 183.902 72.9461 182.311 71.2827C180.719 69.6193 179.923 68.1745 179.923 66.9514V56.6679C179.923 56.1297 180.132 55.6536 180.546 55.2361C180.96 54.8219 181.466 54.6132 182.053 54.6132H183.596C185.018 54.6132 186.303 55.1383 187.454 56.1917C188.602 57.2452 189.597 58.3117 190.429 59.388C191.26 60.4643 191.945 61.0057 192.483 61.0057H194.026C194.271 61.0057 194.492 60.8818 194.688 60.6371C194.884 60.3925 194.982 60.1218 194.982 59.8283V45.2852C194.982 45.0406 194.884 44.8058 194.688 44.5873C194.492 44.3655 194.274 44.2579 194.026 44.2579H192.483C191.945 44.2579 191.257 44.7862 190.429 45.8364C189.597 46.8899 188.602 47.9434 187.454 48.9968C186.303 50.0503 185.018 50.5754 183.596 50.5754H182.053C181.466 50.5754 180.964 50.3667 180.546 49.9492C180.132 49.535 179.923 49.0588 179.923 48.5174V35.8856C179.923 34.3201 180.474 32.9861 181.574 31.8837C182.676 30.7813 184.036 30.2334 185.65 30.2334H190.132C191.502 30.2334 192.924 31.1271 194.391 32.9144C195.859 34.7017 197.157 36.4759 198.282 38.2404C199.407 40.0016 200.239 40.8855 200.781 40.8855H202.176C202.861 40.8855 203.204 40.5169 203.204 39.7831V39.7113L203.099 38.697L203.09 38.6938ZM203.435 28.1884C203.432 28.146 203.426 28.1037 203.422 28.0613C203.321 28.1428 203.223 28.2308 203.126 28.3222C202.737 28.6875 202.408 29.0723 202.141 29.4865C201.544 30.403 201.247 31.4336 201.247 32.5817C201.247 34.1342 201.792 35.4812 202.878 36.6292C202.956 36.714 203.041 36.7956 203.126 36.8771C203.537 37.2685 203.974 37.5979 204.433 37.8621L203.435 28.1884Z" fill="#D6D3CD"/>
<path d="M216.191 71.2861C214.648 69.6228 213.878 68.1779 213.878 66.9548V49.4014C213.878 46.4172 213.585 44.3689 212.994 43.2698C212.407 42.1674 211.403 41.6162 209.984 41.6162C208.415 41.6162 206.299 42.0207 203.631 42.8295C200.963 43.6384 198.918 44.457 197.499 45.2887C196.958 45.6311 196.703 46.1204 196.729 46.7564C196.755 47.3956 196.984 47.8848 197.427 48.224C197.574 48.3708 198.089 48.6285 198.97 48.997C199.851 49.3656 200.536 49.8907 201.025 50.5756C201.514 51.2605 201.759 52.265 201.759 53.5859V66.8048C201.808 67.6365 201.501 68.4943 200.839 69.3749C200.177 70.2588 199.417 71.1002 198.562 71.9091C197.705 72.7179 197.202 73.2691 197.056 73.5626C196.909 73.954 196.909 74.4922 197.056 75.1771C197.056 75.8131 197.447 76.1295 198.23 76.1295H217.398C218.131 76.1295 218.5 75.787 218.5 75.1021V74.44C218.5 73.9997 217.73 72.9462 216.187 71.2829L216.191 71.2861ZM212.12 28.3223C210.888 27.1482 209.387 26.5579 207.61 26.5579C206.008 26.5579 204.612 27.0601 203.425 28.0614C203.324 28.1429 203.226 28.231 203.128 28.3223C202.74 28.6876 202.411 29.0725 202.143 29.4867C201.547 30.4032 201.25 31.4338 201.25 32.5819C201.25 34.1343 201.794 35.4813 202.881 36.6294C202.959 36.7142 203.044 36.7957 203.128 36.8773C203.539 37.2686 203.976 37.5981 204.436 37.8622C205.385 38.4069 206.442 38.6776 207.606 38.6776C209.342 38.6776 210.835 38.0808 212.088 36.8773C213.34 35.677 213.966 34.2452 213.966 32.5786C213.966 30.912 213.35 29.4932 212.12 28.3191V28.3223Z" fill="#D6D3CD"/>
</svg>
