<svg width="281" height="101" viewBox="0 0 281 101" fill="none" xmlns="http://www.w3.org/2000/svg">
<path d="M97.1229 45.8382C96.6702 46.291 96.0562 46.5453 95.4158 46.5453H81.2749C91.2276 52.2022 96.7555 63.9897 97.5368 76.2183C97.6202 77.5227 96.6503 78.6565 95.3488 78.7762L95.1276 76.3722C95.076 75.566 95.0035 74.764 94.9099 73.9679C93.4108 61.2104 86.5408 49.9719 75.1366 46.5453C74.018 46.2092 72.8558 45.9482 71.6509 45.7684C70.9704 45.6668 70.2763 45.5912 69.5687 45.5423C69.4569 45.5347 69.3446 45.5277 69.2321 45.5212C69.3363 45.0483 69.4487 44.5843 69.5687 44.1311H95.4158C95.4158 43.4497 95.3985 42.7765 95.3294 42.1134C95.3156 41.9809 95.3004 41.8488 95.2839 41.7171C94.0959 32.2433 85.9945 24.9141 76.1989 24.9141H66.8785C66.8465 24.914 66.8144 24.9141 66.7825 24.9141C54.1526 24.9141 43.9141 35.1526 43.9141 47.7825C43.9141 56.3971 48.6776 63.8993 55.7143 67.7986C56.451 68.2069 57.2127 68.5755 57.9962 68.902L59.2385 60.1294C59.2385 60.1294 59.3884 64.2474 60.6077 67.6788C60.9201 68.5578 61.3025 69.3918 61.7708 70.0998C63.3836 70.4605 65.0607 70.6507 66.7825 70.6507C68.1387 70.6507 69.4674 70.5327 70.7589 70.3063C71.4738 70.181 72.1772 70.0224 72.8675 69.8323C73.0404 69.7847 73.2127 69.735 73.384 69.6834C72.805 69.0425 72.2824 68.3497 71.813 67.614C69.4066 63.842 68.3983 58.9399 68.3489 54.0885C69.4825 60.5274 71.8888 65.1191 74.8154 68.3905C75.1318 68.7444 75.4545 69.0827 75.7823 69.4063C81.5701 75.1207 88.9593 76.2257 92.7095 76.3906C93.6657 76.4327 94.3851 76.4137 94.7814 76.3943C95.0069 76.3833 95.1276 76.3722 95.1276 76.3722C95.3488 78.7762 95.3474 78.7763 95.346 78.7765L95.3426 78.7768L95.3343 78.7775C95.3281 78.778 95.3206 78.7787 95.3116 78.7794C95.2937 78.781 95.2705 78.7828 95.2418 78.7849C95.1846 78.7892 95.1062 78.7945 95.0079 78.8C94.8111 78.8108 94.5343 78.8224 94.1876 78.8275C93.4946 78.8375 92.5179 78.8214 91.3394 78.7203C88.991 78.5189 85.792 77.976 82.4276 76.5952C79.8161 75.5236 77.1393 73.9582 74.6989 71.7082C74.5097 71.8311 74.3017 71.9283 74.0799 71.9952C71.7664 72.6914 69.3159 73.0649 66.7825 73.0649C64.8824 73.0649 63.0286 72.8548 61.2439 72.4558C60.6345 72.3195 60.1013 71.9522 59.7568 71.4312C59.6347 71.2464 59.5179 71.0563 59.406 70.8617C59.3373 70.9113 59.2656 70.9573 59.1911 70.9997C58.5418 71.3695 57.758 71.4178 57.0681 71.1305C47.9308 67.3249 41.5 58.3074 41.5 47.7825C41.5 33.8193 52.8193 22.5 66.7825 22.5C66.807 22.5 66.8315 22.5 66.856 22.5001C66.8634 22.5 66.871 22.5 66.8785 22.5H76.1989C87.377 22.5 96.5947 30.9784 97.7304 41.8629C97.8123 42.6468 97.83 43.4149 97.83 44.1311C97.83 44.7715 97.5757 45.3855 97.1229 45.8382ZM68.3487 54.0779L68.3473 54.0803C68.3479 54.0831 68.3483 54.0858 68.3489 54.0885C68.3487 54.0861 68.3487 54.0835 68.3487 54.081C68.3487 54.0807 68.3487 54.0814 68.3487 54.081C68.3487 54.0803 68.3487 54.0786 68.3487 54.0779Z" fill="#D6D3CD"/>
<path d="M65.2451 43.5545H76.4323H94.5512C94.5512 33.578 86.439 25.4905 76.4323 25.4905H67.9177L65.2451 43.5545Z" fill="#D6D3CD"/>
<path d="M65.9189 35.9636C65.9189 35.9636 73.368 35.9636 79.8033 35.9636C90.1325 35.9636 93.1111 42.3053 93.1111 42.3053H65.9189V35.9636Z" fill="#D6D3CD"/>
<path d="M49.1504 42.0169C49.1504 34.7252 54.9054 27.0708 62.1812 26.591C63.2699 26.5192 64.2684 26.6737 65.0525 27.1237C66.2926 27.8353 66.7821 33.2731 66.2146 37.5009L65.9942 38.6932C64.5054 46.7503 60.8877 58.1486 53.3548 54.9254C49.5337 53.2905 49.1504 46.629 49.1504 42.0169Z" fill="#D6D3CD"/>
<path d="M60.4868 35.7719C61.7869 35.7719 62.841 34.7179 62.841 33.4178C62.841 32.9734 62.7178 32.5577 62.5037 32.203C62.3932 32.492 62.1134 32.6972 61.7855 32.6972C61.3609 32.6972 61.0169 32.353 61.0169 31.9285C61.0169 31.6379 61.1782 31.3849 61.4161 31.2542C61.131 31.1316 60.8169 31.0637 60.4868 31.0637C59.1867 31.0637 58.1328 32.1177 58.1328 33.4178C58.1328 34.7179 59.1867 35.7719 60.4868 35.7719Z" fill="#2D0B3D"/>
<path d="M65.2921 43.3627L67.6847 24.9318C67.385 24.9202 67.0839 24.9143 66.7814 24.9143C54.1516 24.9143 43.9131 35.1528 43.9131 47.7827C43.9131 57.2992 49.7262 65.4582 57.9952 68.9022L59.2374 60.1296C59.2374 60.1296 59.4742 66.6277 61.7697 70.1C63.3826 70.4607 65.0598 70.6509 66.7814 70.6509C69.0766 70.6509 71.2927 70.3128 73.383 69.6836C67.5133 63.1861 67.4447 51.3703 69.7814 43.3627H65.2921ZM62.3499 27.391C64.5277 26.8923 66.1787 28.8609 65.8572 31.0717L63.482 47.401C62.7013 52.7688 57.5253 57.3824 53.5622 53.6787C51.0797 51.3586 49.3901 47.2163 50.8648 39.8335C52.5983 31.1546 58.3416 28.309 62.3499 27.391Z" fill="#1C1A17"/>
<path d="M66.3802 42.1136H84.5572H93.3009C92.9825 39.3888 92.0211 36.8584 90.5817 34.6755C87.5057 30.0105 82.2038 26.9321 76.1977 26.9321H68.6195L66.3802 42.1136ZM64.043 44.1313L66.8775 24.9143H76.1977C86.1295 24.9143 94.3199 32.4487 95.3284 42.1136C95.3975 42.7767 95.4148 43.4499 95.4148 44.1313H64.043Z" fill="#1C1A17"/>
<path d="M93.7338 43.5547C92.1046 43.3274 84.1287 44.3132 84.5577 42.1135C85.2117 38.7591 87.5181 35.9907 90.5822 34.6755C93.6648 33.3523 94.6336 43.6803 93.7338 43.5547Z" fill="#1C1A17"/>
<path d="M95.1269 76.3724C95.1269 76.3724 67.6465 78.9008 67.6465 45.4766C84.3571 45.4766 94.0823 60.0232 95.1269 76.3724Z" fill="#1C1A17"/>
<path d="M138.269 45.0102V39.9141H115.434V45.0102H124.148V67.4956H129.555V45.0102H138.269ZM145.404 63.372C142.876 63.372 140.541 61.5046 140.541 57.9257C140.541 54.3078 142.876 52.4795 145.404 52.4795C147.933 52.4795 150.267 54.3078 150.267 57.9257C150.267 61.5435 147.933 63.372 145.404 63.372ZM145.404 47.7722C139.686 47.7722 135.368 52.0126 135.368 57.9257C135.368 63.7998 139.686 68.0791 145.404 68.0791C151.123 68.0791 155.441 63.7998 155.441 57.9257C155.441 52.0126 151.123 47.7722 145.404 47.7722ZM170.808 67.4956H175.749C175.671 66.8342 175.554 65.5115 175.554 64.0333V48.3558H170.38V59.4817C170.38 61.6991 169.058 63.2552 166.762 63.2552C164.351 63.2552 163.261 61.5435 163.261 59.404V48.3558H158.087V60.4544C158.087 64.6169 160.733 68.0013 165.362 68.0013C167.385 68.0013 169.602 67.2233 170.653 65.4338C170.653 66.2119 170.731 67.1065 170.808 67.4956ZM188.43 52.5572C190.997 52.5572 192.204 54.191 192.67 55.786L197.299 54.2301C196.483 51.0012 193.527 47.7722 188.313 47.7722C182.751 47.7722 178.394 52.0126 178.394 57.9257C178.394 63.7998 182.828 68.0791 188.47 68.0791C193.565 68.0791 196.561 64.8114 197.416 61.6214L192.865 60.1041C192.437 61.5825 191.114 63.3331 188.47 63.3331C185.824 63.3331 183.568 61.3879 183.568 57.9257C183.568 54.4634 185.786 52.5572 188.43 52.5572ZM203.638 57.8478C203.638 54.3467 205.66 52.285 208.423 52.285C211.145 52.285 213.13 54.3467 213.13 57.8478C213.13 61.349 211.107 63.5665 208.423 63.5665C205.622 63.5665 203.638 61.3102 203.638 57.8478ZM213.169 65.1226C213.169 66.0563 213.286 67.0677 213.363 67.4956H218.303C218.265 67.0677 218.149 65.745 218.149 64.0333V48.3558H213.13V50.7289C212.663 49.6396 211.068 47.8112 207.644 47.8112C202.082 47.8112 198.425 52.246 198.425 57.8478C198.425 63.6443 202.159 68.0402 207.801 68.0402C210.368 68.0402 212.352 66.7176 213.169 64.8891V65.1226ZM227.691 56.4863C227.691 54.2689 229.013 52.5183 231.271 52.5183C233.759 52.5183 234.81 54.191 234.81 56.3307V67.4956H239.983V55.4359C239.983 51.2346 237.805 47.8501 233.059 47.8501C230.997 47.8501 228.702 48.7448 227.536 50.7289V48.3558H222.517V67.4956H227.691V56.4863Z" fill="#D6D3CD"/>
</svg>
