<svg preserveAspectRatio="none" width="100%" height="100%" overflow="visible" style="display: block;" viewBox="0 0 155.106 20.272" fill="none" xmlns="http://www.w3.org/2000/svg">
<g id="UkraineDAO">
<path d="M7.336 20.272C2.52 20.272 0 17.5 0 12.208V0.335999H2.688V12.432C2.688 15.96 4.396 17.752 7.336 17.752C10.276 17.752 11.984 15.96 11.984 12.432V0.335999H14.672V12.208C14.672 17.5 12.152 20.272 7.336 20.272Z" fill="var(--fill-0, #D6D3CD)"/>
<path d="M27.447 6.552H30.583L24.983 13.244L30.583 19.936H27.391L22.239 13.524V19.936H19.719V0.335999H22.239V12.964L27.447 6.552Z" fill="var(--fill-0, #D6D3CD)"/>
<path d="M36.8447 19.936H34.3807V6.552H36.8447V8.848C37.2087 7.196 38.4967 6.216 40.3447 6.216C40.8487 6.216 41.2967 6.3 41.6887 6.384V8.82C41.2407 8.624 40.5407 8.456 39.8407 8.456C38.3287 8.456 36.8447 9.576 36.8447 11.816V19.936Z" fill="var(--fill-0, #D6D3CD)"/>
<path d="M49.6046 6.216C53.2726 6.216 54.9806 7.896 54.9806 11.2V19.936H52.5166V17.5C51.7886 18.928 50.5006 20.272 48.3726 20.272C45.9366 20.272 44.1446 18.844 44.1446 16.184C44.1446 13.888 46.0206 12.404 48.7646 12.264L52.5166 12.068V11.368C52.5166 9.324 51.5926 8.456 49.6606 8.456C48.2326 8.456 47.0846 9.212 46.8606 10.444H44.2286C44.5926 7.868 46.8326 6.216 49.6046 6.216ZM48.7646 18.032C51.1446 18.032 52.4606 16.212 52.5166 13.972L49.0446 14.168C47.3646 14.252 46.5246 15.092 46.5246 16.24C46.5246 17.416 47.3926 18.032 48.7646 18.032Z" fill="var(--fill-0, #D6D3CD)"/>
<path d="M61.1901 4.312C60.2381 4.312 59.4541 3.528 59.4541 2.576C59.4541 1.624 60.2381 0.839999 61.1901 0.839999C62.1421 0.839999 62.9261 1.624 62.9261 2.576C62.9261 3.528 62.1421 4.312 61.1901 4.312ZM62.4221 19.936H59.9581V6.552H62.4221V19.936Z" fill="var(--fill-0, #D6D3CD)"/>
<path d="M69.865 19.936H67.401V6.552H69.865V9.268C70.313 7.728 71.797 6.216 74.205 6.216C77.285 6.216 78.601 8.54 78.601 11.256V19.936H76.137V11.312C76.137 9.52 75.185 8.456 73.449 8.456C71.125 8.456 69.865 10.416 69.865 12.376V19.936Z" fill="var(--fill-0, #D6D3CD)"/>
<path d="M95.214 12.796V13.832H85.414C85.582 16.38 86.87 18.032 89.138 18.032C91.07 18.032 92.134 17.108 92.47 15.736H94.962C94.542 18.284 92.554 20.272 89.138 20.272C85.162 20.272 82.922 17.136 82.922 13.244C82.922 9.352 85.302 6.216 89.11 6.216C93.45 6.216 95.214 9.184 95.214 12.796ZM85.526 11.676H92.61C92.414 9.548 91.182 8.456 89.054 8.456C87.178 8.456 85.946 9.688 85.526 11.676Z" fill="var(--fill-0, #D6D3CD)"/>
<path d="M105.031 19.936H99.5148V0.335999H105.031C110.463 0.335999 114.355 3.78 114.355 10.136C114.355 16.492 110.463 19.936 105.031 19.936ZM102.203 2.856V17.416H105.031C109.091 17.416 111.611 14.98 111.611 10.136C111.611 5.292 109.091 2.856 105.031 2.856H102.203Z" fill="var(--fill-0, #D6D3CD)"/>
<path d="M135.142 19.936H132.286L130.326 14.952H121.142L119.238 19.936H116.382L123.998 0.335999H127.246L135.142 19.936ZM125.65 3.08L122.094 12.432H129.318L125.65 3.08Z" fill="var(--fill-0, #D6D3CD)"/>
<path d="M146.146 20.272C140.826 20.272 137.186 16.492 137.186 10.136C137.186 3.78 140.826 0 146.146 0C151.466 0 155.106 3.78 155.106 10.136C155.106 16.492 151.466 20.272 146.146 20.272ZM146.146 17.752C150.038 17.752 152.362 14.98 152.362 10.136C152.362 5.292 150.038 2.52 146.146 2.52C142.254 2.52 139.93 5.292 139.93 10.136C139.93 14.98 142.254 17.752 146.146 17.752Z" fill="var(--fill-0, #D6D3CD)"/>
</g>
</svg>
