<svg width="281" height="101" viewBox="0 0 281 101" fill="none" xmlns="http://www.w3.org/2000/svg">
<path fill-rule="evenodd" clip-rule="evenodd" d="M28.3757 22.6085C34.021 29.5311 40.2193 38.2281 41.2218 39.6348C41.2753 39.7098 41.314 39.7641 41.337 39.7963C41.8715 40.5426 42.3126 41.0974 42.6477 41.5187C43.3915 42.454 43.6122 42.7316 43.1684 42.9866C42.8104 43.1921 42.4411 43.2599 42.0726 43.2599C41.6558 43.2599 41.1862 43.0571 40.8443 42.7294C40.6026 42.4979 38.9489 40.0712 36.6971 36.541C34.9741 33.8397 33.5322 31.5989 33.4928 31.5614C33.4019 31.4746 33.4034 31.4776 36.5214 37.1142C38.4792 40.6536 39.8184 43.2692 39.8184 43.4365C39.8184 43.7769 39.7265 43.9558 39.3109 44.4242C38.6181 45.2052 38.3084 46.0826 38.0848 47.8984C37.8342 49.9339 37.1295 51.372 35.1764 53.8328C34.0332 55.2735 33.8461 55.5375 33.5576 56.1182C33.1943 56.8494 33.0943 57.2589 33.0538 58.1822C33.011 59.1585 33.0944 59.7892 33.3896 60.7224C33.648 61.5395 33.9178 62.0792 34.6074 63.1585C35.2025 64.0896 35.5452 64.7817 35.5452 65.0525C35.5452 65.2679 35.5859 65.2682 36.5081 65.0579C38.715 64.5542 40.507 63.6688 41.5149 62.5834C42.1387 61.9116 42.2851 61.5407 42.2899 60.6202C42.293 60.0181 42.272 59.8921 42.1109 59.5457C41.8487 58.9817 41.3713 58.5131 40.3192 57.7864C38.9406 56.8341 38.3517 56.0676 38.1891 55.0133C38.0557 54.1484 38.2105 53.538 38.9731 51.9231C39.7625 50.2514 39.9581 49.539 40.0905 47.8539C40.1759 46.7653 40.2943 46.336 40.6038 45.9915C40.9267 45.6321 41.2174 45.5104 42.0164 45.3999C43.319 45.2203 44.1485 44.8797 44.8303 44.2449C45.4218 43.6943 45.6693 43.1636 45.7073 42.3648L45.7361 41.7594L45.4056 41.37C44.2086 39.9599 27.5741 21.5 27.5005 21.5C27.4847 21.5 27.8786 21.9988 28.3757 22.6085ZM36.2171 59.2869C36.4878 58.8025 36.344 58.1801 35.8913 57.8759C35.4635 57.5886 34.7991 57.724 34.7991 58.0984C34.7991 58.2126 34.8616 58.2957 35.0026 58.3692C35.2399 58.4926 35.2571 58.6313 35.0704 58.9148C34.8813 59.2021 34.8965 59.4545 35.1135 59.626C35.4631 59.9027 35.9579 59.7505 36.2171 59.2869ZM44.3629 32.8796C43.8289 32.7959 43.8064 32.7861 44.0577 32.7471C44.5393 32.6723 45.6764 32.7742 46.46 32.9625C48.2894 33.4019 49.9541 34.5274 51.731 36.5263L52.203 37.0573L52.8784 36.9477C55.7234 36.4857 58.6176 36.8528 61.0384 37.9827C61.7044 38.2936 62.7544 38.9123 62.8855 39.0713C62.9272 39.122 63.0041 39.4482 63.0559 39.7963C63.2358 41.0005 63.1459 41.9236 62.7812 42.613C62.583 42.9882 62.5719 43.1071 62.7052 43.4282C62.8116 43.6844 63.1084 43.874 63.4025 43.8736C64.0039 43.8728 64.6513 42.8902 64.9515 41.5231L65.0706 40.9801L65.3067 41.2502C66.6015 42.7326 67.6188 44.7541 67.7935 46.193L67.8389 46.5682L67.6214 46.2272C67.2466 45.6404 66.8704 45.2408 66.3882 44.9185C65.5196 44.3377 64.6007 44.14 62.1679 44.0105C59.9706 43.8935 58.7271 43.7039 57.494 43.2976C55.3957 42.6065 54.3382 41.686 51.8458 38.3823C50.7389 36.9149 50.0548 36.103 49.3742 35.4492C47.8277 33.9636 46.3081 33.1845 44.3629 32.8796ZM63.381 36.156C63.4364 35.1727 63.5684 34.5241 63.8337 33.9318C63.9387 33.6974 64.0371 33.5055 64.0522 33.5055C64.0675 33.5055 64.0218 33.6785 63.9507 33.89C63.7579 34.4648 63.7262 35.251 63.8592 36.1658C64.0277 37.3264 64.1238 37.4939 65.3378 38.7476C65.9073 39.3357 66.5698 40.0774 66.8099 40.3958L67.2466 40.9748L66.8099 40.561C66.276 40.055 65.048 39.0682 64.7768 38.9271C64.5948 38.8325 64.5678 38.8341 64.4557 38.947C64.3524 39.0509 64.3305 39.2071 64.3161 39.9456C64.2937 41.0966 64.1386 41.8353 63.7638 42.574C63.5611 42.9735 63.5291 42.8882 63.7125 42.4373C63.8495 42.1006 63.8634 41.9526 63.8625 40.8384C63.8603 38.5997 63.5971 38.0615 62.0545 37.1395C61.6639 36.906 61.0198 36.5691 60.6236 36.3909C60.2276 36.2128 59.9129 36.0576 59.9242 36.046C59.968 36.0021 61.4725 36.4457 62.078 36.6811C62.9787 37.0311 63.1273 37.0765 63.2367 37.0343C63.3099 37.006 63.3455 36.7902 63.381 36.156ZM43.7906 34.4373C43.6454 36.1657 44.3161 38.4777 45.4002 39.9857C46.2406 41.1547 47.5433 42.0631 48.5051 42.1508C49.1348 42.2082 49.324 42.009 49.0391 41.5887C48.6436 41.0051 48.1572 40.1065 48.0284 39.7217C47.9485 39.4827 47.7747 38.7767 47.6422 38.1528C47.19 36.0229 46.7455 35.1934 45.7188 34.5634C45.3446 34.3338 44.5456 34.0333 44.0822 33.9479L43.8355 33.9024L43.7906 34.4373ZM62.0662 51.2088C56.9998 49.1479 55.2154 47.3589 55.2154 44.3404C55.2154 43.8962 55.2307 43.5328 55.249 43.5328C55.2676 43.5328 55.4635 43.6794 55.6846 43.8586C56.7119 44.6911 57.8624 45.0467 61.0473 45.516C62.9213 45.7925 63.9759 46.0155 64.9489 46.3416C68.0411 47.3778 69.9543 49.4804 70.4106 52.3446C70.5431 53.1768 70.4654 54.7373 70.2505 55.5599C70.0808 56.2096 69.5628 57.3804 69.4256 57.4254C69.3875 57.4379 69.35 57.2904 69.3404 57.0898C69.2883 56.0144 68.7504 54.9674 67.8471 54.183C66.82 53.2912 65.44 52.5815 62.0662 51.2088ZM58.2647 50.9821C58.3358 51.1961 58.446 51.6833 58.5093 52.0651C58.9152 54.5051 57.6475 56.4766 55.1815 57.2405C54.9204 57.3213 53.8921 57.5248 52.8963 57.6922C50.8805 58.0313 49.9808 58.2715 49.077 58.7114C48.436 59.0234 47.66 59.4906 47.7061 59.537C47.721 59.552 47.8673 59.5167 48.0312 59.4585C49.1709 59.0542 50.4394 58.8449 52.3666 58.7436C53.1315 58.7036 54.0013 58.6395 54.2998 58.6016C56.0167 58.3831 57.2068 57.8561 58.1322 56.9045C58.647 56.3749 58.954 55.8815 59.2014 55.1859C59.3582 54.7446 59.3794 54.5807 59.3806 53.7989C59.382 53.0023 59.3629 52.8565 59.193 52.3665C58.9705 51.7241 58.708 51.2421 58.3756 50.865L58.1355 50.5928L58.2647 50.9821ZM60.8319 56.2324C60.1586 54.7703 60.0042 53.3588 60.3729 52.0425C60.4124 51.9016 60.4758 51.7865 60.5141 51.7865C60.5523 51.7865 60.7109 51.8734 60.867 51.9794C61.1771 52.1903 61.7993 52.5457 63.4566 53.4587C65.525 54.5979 66.7042 55.48 67.506 56.4882C68.2083 57.3708 68.6428 58.376 68.8519 59.602C68.9705 60.2964 68.9011 61.9674 68.7248 62.6665C68.1687 64.8714 66.8763 66.6031 65.033 67.6138C64.7629 67.7617 64.5205 67.8832 64.4941 67.8839C64.468 67.8844 64.5664 67.6317 64.7128 67.3221C65.3329 66.0123 65.4035 64.7383 64.9348 63.3205C64.6476 62.4522 64.0623 61.3928 62.8805 59.6022C61.5066 57.5205 61.1698 56.9664 60.8319 56.2324ZM48.1525 61.0278C46.0217 61.3775 43.6824 62.5168 41.8023 64.1207L41.2426 64.5982L41.7345 64.6759C44.3015 65.0807 44.9927 65.4398 46.7733 67.2931C47.798 68.3594 48.144 68.5967 48.9939 68.816C50.2422 69.1379 51.4727 68.5463 51.8948 67.4212C52.0834 66.9184 52.0582 66.086 51.8418 65.668C51.3272 64.6726 49.8279 64.351 49.1029 65.08C48.499 65.6873 48.675 66.6022 49.426 66.7595C49.598 66.7957 49.5931 66.788 49.3822 66.6917C49.0535 66.5414 48.9107 66.3333 48.9089 66.0019C48.9047 65.2251 49.7846 64.789 50.6031 65.162C51.2025 65.4354 51.4405 65.7923 51.4405 66.4183C51.4405 67.3821 50.6286 68.1083 49.6837 67.9896C49.1787 67.9261 48.561 67.5997 48.2298 67.2215C47.3965 66.2694 47.7211 64.7671 48.8846 64.1906C49.7704 63.7519 50.9478 63.86 51.8609 64.464C52.9099 65.1582 53.356 65.7926 54.2596 67.8747C54.5538 68.5527 54.9324 69.3159 55.1007 69.5707C55.9567 70.8651 56.9822 71.5 58.2174 71.5C58.8987 71.5 59.4112 71.3743 60.056 71.049C60.5351 70.8072 61.2143 70.3478 61.1653 70.2986C61.1514 70.2847 60.9527 70.3471 60.7236 70.4373C59.3749 70.9688 58.0039 70.9323 57.2077 70.3433C56.7063 69.9727 56.3018 69.2342 56.0939 68.3106C56.0579 68.1507 55.9393 67.4447 55.83 66.7416C55.5532 64.9594 55.2874 64.1583 54.6676 63.239C54.0333 62.2985 52.8141 61.5091 51.4511 61.1566C50.6006 60.9367 49.0708 60.8769 48.1525 61.0278ZM45.1682 47.249C45.3522 46.5623 45.9466 45.9074 46.5582 45.7176C46.947 45.597 47.7508 45.674 48.1288 45.8681C48.8612 46.2444 49.3929 47.1013 49.2775 47.7199C49.1368 48.4742 47.9261 49.0777 46.5334 49.0876C45.8221 49.0926 45.5594 48.996 45.2877 48.6296C45.1196 48.4026 45.0559 47.6679 45.1682 47.249ZM47.9417 46.137C48.307 46.3624 48.4009 46.6956 48.1862 47.0038C48.0383 47.2162 47.5803 47.418 47.2456 47.418C46.7428 47.418 46.1943 47.0573 46.1943 46.7269C46.1943 46.0631 47.2462 45.7077 47.9417 46.137ZM157.104 48.0378C155.968 44.2577 157.842 41.1222 161.84 40.1147C162.986 39.8255 168.178 39.956 169.067 40.2964C169.394 40.4211 169.536 40.8999 169.539 41.8837C169.542 42.6586 169.626 43.5997 169.727 43.975C169.88 44.5438 169.79 44.6558 169.19 44.6467C168.647 44.6382 168.319 44.32 167.861 43.3573C167.129 41.8197 166.243 41.3307 164.177 41.3249C161.541 41.3173 159.611 43.0931 159.925 45.2386C160.13 46.6348 161.525 48.0086 164.654 49.8972C167.632 51.6937 169.37 53.1711 170.063 54.4948C171.914 58.0336 170.333 61.8207 166.207 63.7288C164.09 64.7082 160.54 64.8094 158.045 63.9617L156.447 63.4187V60.8646C156.447 58.5515 156.502 58.3101 157.029 58.3101C157.47 58.3101 157.66 58.6016 157.815 59.5148C158.2 61.7856 159.925 63.1641 162.382 63.1641C164.789 63.1641 166.472 61.8487 167.116 59.4635C167.391 58.4474 167.343 58.0727 166.799 56.9518C166.146 55.6079 165.023 54.7161 161.206 52.5139C159.089 51.2917 157.591 49.6577 157.104 48.0378ZM82.2937 41.6237C81.773 41.6237 81.5698 41.4535 81.5698 41.017C81.5698 40.439 81.773 40.4102 85.8535 40.4102C89.6408 40.4102 90.1256 40.4672 90.0387 40.902C89.9843 41.1726 89.461 41.5479 88.875 41.7363L87.8095 42.0788L87.7187 49.8153C87.6577 54.9775 87.7434 57.9555 87.9757 58.765C88.6667 61.1729 90.7744 62.5575 93.7481 62.5575C95.8184 62.5575 97.0277 62.0734 98.5471 60.6355C100.181 59.0898 100.442 57.6211 100.437 49.9876C100.432 42.4581 100.301 41.8367 98.6841 41.6805C97.9485 41.6092 97.702 41.4377 97.702 40.9978C97.702 40.4493 97.9447 40.4102 101.354 40.4102C104.804 40.4102 105.007 40.4439 105.007 41.017C105.007 41.3907 104.802 41.6255 104.474 41.6283C103.065 41.6407 103.039 41.7749 102.849 50.0312C102.652 58.6052 102.468 59.6203 100.731 61.7206C100.23 62.3265 99.0354 63.2063 98.0763 63.6758C96.5134 64.4409 96.0162 64.5287 93.2884 64.5238C90.7739 64.5186 89.9801 64.3971 88.7227 63.8246C86.8874 62.9889 85.6938 61.9073 84.8139 60.282C84.1996 59.1475 84.1471 58.5336 84.005 50.8467C83.842 42.0479 83.7632 41.6237 82.2937 41.6237ZM110.776 41.6237C110.08 41.6237 109.877 41.4866 109.877 41.017C109.877 40.4481 110.071 40.4117 112.997 40.4351L116.117 40.4599L117.61 42.1795C118.43 43.1252 121.105 46.0835 123.554 48.7532C126.003 51.4231 128.814 54.5289 129.801 55.6553C130.788 56.7818 131.718 57.7033 131.866 57.7033C132.019 57.7033 132.095 54.5214 132.04 50.3953L131.944 43.0873L131.09 42.3555C130.621 41.9529 129.902 41.6237 129.492 41.6237C128.948 41.6237 128.749 41.4587 128.749 41.0085C128.749 40.4159 128.904 40.3962 132.934 40.4775C136.36 40.5467 137.119 40.6423 137.119 41.0045C137.119 41.2627 136.695 41.5337 136.101 41.6547C135.542 41.7688 134.925 42.02 134.732 42.2129C134.482 42.462 134.354 45.6825 134.292 53.319L134.205 64.0743H133.323C132.563 64.0743 131.659 63.2195 126.826 57.9307C123.738 54.5515 120.134 50.5356 118.817 49.0064C117.499 47.4769 116.318 46.214 116.193 46.2001C115.839 46.1606 115.925 59.8247 116.286 61.1218C116.568 62.1325 116.762 62.3065 117.959 62.6258C118.923 62.8827 119.313 63.1434 119.313 63.5305C119.313 64.0276 118.945 64.0743 115.051 64.0743C111.088 64.0743 110.79 64.0347 110.79 63.5056C110.79 63.1182 111.077 62.8797 111.689 62.7574C113.548 62.387 113.671 61.799 113.776 52.8106C113.834 47.7764 113.748 44.2541 113.549 43.5166C113.199 42.2196 112.326 41.6237 110.776 41.6237ZM142.692 41.6237C142.04 41.6237 141.837 41.4796 141.837 41.017C141.837 40.4372 142.04 40.4102 146.402 40.4102C150.765 40.4102 150.968 40.4372 150.968 41.017C150.968 41.462 150.765 41.6237 150.207 41.6237C149.789 41.6237 149.167 41.9023 148.825 42.2427C148.222 42.8437 148.207 43.1425 148.293 52.431C148.376 61.4983 148.412 62.023 148.972 62.4306C149.297 62.6672 149.879 62.8608 150.265 62.8608C150.765 62.8608 150.968 63.0358 150.968 63.4677C150.968 64.0474 150.765 64.0743 146.402 64.0743C142.143 64.0743 141.837 64.0361 141.837 63.5065C141.837 63.0793 142.135 62.8907 143.043 62.7461C144.844 62.4591 144.936 61.8713 144.823 51.3831C144.734 42.9839 144.695 42.4602 144.137 42.0539C143.812 41.8173 143.162 41.6237 142.692 41.6237ZM174.54 41.6237C174.123 41.6237 173.807 41.3929 173.708 41.017C173.554 40.4302 173.699 40.4102 178.086 40.4102C182.42 40.4102 182.623 40.4372 182.623 41.017C182.623 41.4833 182.42 41.6237 181.747 41.6237C179.831 41.6237 179.874 41.9708 182.774 49.905C184.25 53.9438 185.684 57.7803 185.959 58.4304L186.46 59.6128L188.785 53.4245C191.521 46.1403 191.877 44.7932 191.412 43.4647C191.088 42.5387 189.829 41.6237 188.878 41.6237C188.61 41.6237 188.406 41.3628 188.406 41.017C188.406 40.4363 188.61 40.4102 193.124 40.4102C197.639 40.4102 197.842 40.4363 197.842 41.017C197.842 41.4487 197.639 41.6237 197.139 41.6237C195.86 41.6237 195.295 42.3039 195.479 43.6255C195.669 44.9859 200.904 59.6069 201.123 59.3881C201.48 59.0323 207.278 43.2927 207.278 42.6792C207.278 41.9441 206.762 41.6237 205.579 41.6237C205.046 41.6237 204.843 41.4566 204.843 41.017C204.843 40.4439 205.046 40.4102 208.495 40.4102C211.594 40.4102 212.148 40.4818 212.148 40.8811C212.148 41.1402 211.768 41.4839 211.304 41.645C210.261 42.0075 209.999 42.4213 208.69 45.7734C208.116 47.2454 206.317 51.8524 204.693 56.0106C203.069 60.1692 201.67 63.7531 201.585 63.9747C201.499 64.1965 200.996 64.3778 200.466 64.3778H199.503L197.316 58.6892C196.113 55.5608 194.693 51.8543 194.159 50.4527C193.244 48.051 193.168 47.9467 192.824 48.6322C192.623 49.0327 191.178 52.7458 189.613 56.8838L186.768 64.4075L185.706 64.3168L184.644 64.2261L180.593 53.6313C178.331 47.7119 176.25 42.7244 175.878 42.33C175.511 41.9414 174.91 41.6237 174.54 41.6237ZM235.401 41.7524C235.35 41.6371 235.35 41.223 235.35 41.223C235.35 41.223 235.338 41.0736 235.401 40.9939C235.463 40.9145 235.486 40.9124 235.709 40.8911L235.712 40.8909C236.533 40.8127 238.182 40.6811 239.558 40.621C239.684 40.6155 239.824 40.6092 239.977 40.6023L239.98 40.6021L239.982 40.602L239.983 40.602C241.497 40.5332 244.207 40.4413 246.07 40.5344C249.643 40.713 252.185 42.4409 253.051 45.2963C253.917 48.1516 253.459 50.8318 252.279 52.5379C251.098 54.244 249.113 55.7129 245.813 55.6173C243.088 55.5385 242.359 55.0282 241.777 54.6205C241.654 54.5343 241.537 54.4526 241.41 54.3808V58.0221C241.439 60.5055 241.459 61.6982 241.652 62.1398C241.911 62.7341 242.496 63.1003 243.637 63.381C243.637 63.381 244.153 63.502 244.286 63.6311C244.419 63.7601 244.419 64.0467 244.419 64.0467C244.419 64.0467 244.446 64.3147 244.34 64.4513C244.232 64.5878 244.026 64.5605 244.026 64.5605L238.974 64.5198L235.928 64.5118C235.928 64.5118 235.608 64.573 235.488 64.4444C235.369 64.3156 235.38 64.0474 235.38 64.0474C235.38 64.0474 235.406 63.7585 235.546 63.6292C235.686 63.4997 236.206 63.3551 236.206 63.3551C237.38 63.0252 237.89 62.6762 238.156 62.0187C238.371 61.4886 238.372 60.5057 238.37 52.4845C238.368 44.8776 238.357 43.4587 238.182 43.0506C237.924 42.4465 237.278 42.2864 236.358 42.0585L236.358 42.0585C236.175 42.0133 235.982 41.9654 235.779 41.9109C235.779 41.9109 235.452 41.8676 235.401 41.7524ZM250.111 47.9594C250.111 49.2068 250.089 51.1596 248.761 52.4079C247.434 53.6562 244.82 53.9979 243.046 53.6503C242.486 53.5408 242.167 53.372 241.92 53.2418L241.895 53.2288L241.441 52.9896L241.415 48.607C241.398 45.861 241.427 44.072 241.492 43.8162C241.551 42.3683 243.686 42.1882 244.729 42.2418C249.193 42.2418 249.981 46.0035 250.111 47.9594ZM221.385 40.5801C221.385 40.5801 221.167 40.6638 220.836 40.7891L219.645 41.4048L218.786 43.5479C218.315 44.7266 217.451 46.8903 216.868 48.3562C215.806 51.0261 215.104 52.7802 214.366 54.6111C214.149 55.1497 213.493 56.7896 212.909 58.2555C212.325 59.7211 211.741 61.1161 211.612 61.3554C211.59 61.3952 211.567 61.438 211.543 61.4832C211.217 62.0974 210.649 63.1641 209.647 63.3254C209.647 63.3254 209.096 63.3796 208.892 63.5812C208.688 63.783 208.708 63.9478 208.708 63.9478V64.2019C208.708 64.2019 208.726 64.3251 208.842 64.3863C208.957 64.4477 209.114 64.4513 209.114 64.4513L212.78 64.4096H216.568C216.568 64.4096 216.836 64.4409 216.94 64.3552C217.043 64.2695 217.071 64.1423 217.071 64.1423V63.8748C217.071 63.8748 217.019 63.5847 216.869 63.4714C216.719 63.3584 216.156 63.2809 216.156 63.2809C214.64 63.0815 214.379 61.934 214.566 60.9021C214.658 60.3951 215.267 58.5197 215.954 56.6316L216.191 55.979L220.161 55.9487C222.345 55.9319 224.23 55.9432 224.35 55.9739C224.523 56.0174 224.764 56.5075 225.472 58.2529C226.546 60.8974 226.631 61.2195 226.394 61.7142C226.379 61.7444 226.364 61.7776 226.347 61.8134C226.124 62.2919 225.691 63.2216 224.6 63.3162C224.6 63.3162 224.022 63.3363 223.878 63.5093C223.734 63.6827 223.765 63.8819 223.765 63.8819V64.1466C223.765 64.1466 223.803 64.3017 223.878 64.3632C223.952 64.4247 224.078 64.4091 224.078 64.4091L227.681 64.3832L232.747 64.383C232.747 64.383 232.945 64.4042 233 64.3279C233.053 64.2513 233.065 64.1614 233.065 64.1614V63.8098C233.065 63.8098 233.043 63.6228 232.945 63.5197C232.848 63.4168 232.191 63.308 232.191 63.308C231.352 63.1726 230.934 62.4798 230.623 61.9639C230.543 61.8322 230.471 61.7121 230.4 61.6158C230.256 61.4192 229.741 60.3416 229.337 59.3052C228.934 58.2689 228.024 55.9277 227.315 54.1029C226.606 52.2782 225.617 49.7326 225.116 48.4464C224.616 47.1599 223.665 44.7123 223.004 43.0072C222.895 42.7273 222.798 42.4759 222.711 42.2509L222.71 42.2499C222.267 41.1047 222.088 40.6427 222.039 40.5801C221.879 40.377 221.385 40.5801 221.385 40.5801ZM221.149 47.5483C220.989 47.1595 220.708 46.462 220.524 45.9983C220.19 45.1555 220.063 44.9614 219.959 45.1355C219.929 45.1864 219.718 45.7623 219.492 46.4156C218.023 50.6449 217.357 52.5492 217.224 52.9081C217.14 53.1337 217.071 53.3661 217.071 53.4247C217.071 53.4921 218.266 53.5314 220.314 53.5314C222.097 53.5314 223.556 53.5093 223.556 53.4822C223.556 53.4551 223.397 53.0515 223.202 52.5848C223.008 52.118 222.532 50.9531 222.144 49.9959C221.757 49.0386 221.309 47.9373 221.149 47.5483Z" fill="#D6D3CD"/>
</svg>
