<svg preserveAspectRatio="none" width="100%" height="100%" overflow="visible" style="display: block;" viewBox="0 0 242 57" fill="none" xmlns="http://www.w3.org/2000/svg">
<g id="643f125b44c66318f53fbea2_unicef.svg" clip-path="url(#clip0_1818_2612)">
<path id="Vector" d="M197.715 6.00231C197.279 5.47656 196.669 5.21368 196.015 5.21368C194.446 5.21368 193.399 6.48424 193.399 8.1053C193.399 9.72636 194.402 10.8655 196.015 10.8655C196.756 10.8655 197.453 10.515 197.845 9.90161L198.63 10.515C197.976 11.3036 197.017 11.7855 195.971 11.7417C193.966 11.7417 192.353 10.1207 192.353 8.1053V8.06149C192.353 5.87087 193.835 4.29362 196.015 4.29362C196.974 4.24981 197.889 4.64412 198.499 5.38893L197.715 6.00231Z" fill="var(--fill-0, #D6D3CD)"/>
<path id="Vector_2" d="M200.461 9.5073C200.504 10.3397 201.202 10.9531 202.03 10.9093H202.073C202.597 10.9093 203.076 10.6464 203.381 10.2083L204.079 10.734C203.599 11.3912 202.814 11.7417 201.986 11.6979C200.679 11.7417 199.589 10.734 199.545 9.41968C199.545 9.33205 199.545 9.28824 199.545 9.20061C199.502 7.88624 200.548 6.74712 201.856 6.7033C201.899 6.7033 201.943 6.7033 201.986 6.7033C203.643 6.7033 204.296 7.97387 204.296 9.20061V9.5073H200.461ZM203.294 8.8063C203.338 8.1053 202.814 7.49193 202.117 7.44812C202.073 7.44812 201.986 7.44812 201.943 7.44812C201.158 7.4043 200.504 8.01768 200.461 8.8063H203.294Z" fill="var(--fill-0, #D6D3CD)"/>
<path id="Vector_3" d="M205.604 6.79097H206.52V7.53578C206.825 6.96622 207.435 6.65954 208.089 6.70335C209.004 6.70335 209.789 7.27291 209.789 8.49966V11.5665H208.917V8.71872C208.917 7.84247 208.394 7.49197 207.827 7.49197C207.261 7.49197 206.52 7.97391 206.52 9.06922V11.5227H205.604V6.79097Z" fill="var(--fill-0, #D6D3CD)"/>
<path id="Vector_4" d="M213.929 7.57956H212.665V9.72637C212.665 10.2521 212.665 10.8217 213.362 10.8217C213.58 10.8217 213.798 10.7779 213.973 10.6902V11.5227C213.711 11.6541 213.45 11.6979 213.188 11.6979C211.793 11.6979 211.793 10.8655 211.793 10.0769V7.57956H210.747V6.79094H211.793V5.47656H212.709V6.79094H213.973L213.929 7.57956Z" fill="var(--fill-0, #D6D3CD)"/>
<path id="Vector_5" d="M215.193 6.79093H216.065V7.53574C216.327 7.00999 216.893 6.7033 217.46 6.7033H217.852V7.66718L217.416 7.57955C216.545 7.57955 216.065 8.06149 216.065 9.11299V11.4789H215.193V6.79093Z" fill="var(--fill-0, #D6D3CD)"/>
<path id="Vector_6" d="M219.072 7.36042C219.595 6.87849 220.249 6.65942 220.947 6.65942C222.342 6.65942 222.908 7.40424 222.908 8.23667V10.6464C222.908 10.9969 222.908 11.2597 222.952 11.5226H222.167C222.167 11.3035 222.124 11.0407 222.124 10.8216C221.775 11.3912 221.121 11.6979 220.467 11.654C219.595 11.654 218.854 11.1721 218.854 10.252C218.854 9.33198 220.031 8.63098 221.47 8.63098H222.124V8.45573C222.124 7.88617 221.688 7.44805 221.121 7.44805C221.077 7.44805 221.034 7.44805 220.99 7.44805C220.511 7.44805 219.988 7.6233 219.639 7.9738L219.072 7.36042ZM221.601 9.24436C220.772 9.24436 219.726 9.3758 219.726 10.1644C219.726 10.953 220.119 10.953 220.729 10.953C221.426 10.9969 222.036 10.4711 222.08 9.77011C222.08 9.68248 222.08 9.59486 222.08 9.55105V9.24436H221.601Z" fill="var(--fill-0, #D6D3CD)"/>
<path id="Vector_7" d="M224.521 3.98682H225.437V11.5226H224.521V3.98682Z" fill="var(--fill-0, #D6D3CD)"/>
<path id="Vector_8" d="M192.789 17.7879H197.322V18.7079H193.705V20.8109H197.061V21.6872H193.705V23.9654H197.497V24.8417H192.789V17.7879Z" fill="var(--fill-0, #D6D3CD)"/>
<path id="Vector_9" d="M198.543 20.1537H199.371V20.8985C199.676 20.329 200.243 19.9785 200.897 20.0223C201.507 19.9785 202.117 20.329 202.379 20.8985C202.684 20.3728 203.25 20.0223 203.861 20.0223C205.299 20.0223 205.648 21.0738 205.648 22.1253V24.8855H204.776V22.2567C204.776 21.5557 204.645 20.8547 203.773 20.8547C202.902 20.8547 202.553 21.4243 202.553 22.3005V24.8855H201.681V22.3882C201.681 21.4681 201.55 20.8547 200.679 20.8547C199.807 20.8547 199.458 21.3367 199.458 22.432V24.8855H198.586L198.543 20.1537Z" fill="var(--fill-0, #D6D3CD)"/>
<path id="Vector_10" d="M207.653 22.8262C207.697 23.6586 208.394 24.272 209.222 24.2282H209.266C209.789 24.2282 210.268 23.9653 210.573 23.5272L211.271 24.053C210.791 24.7101 210.007 25.0606 209.179 25.0168C207.871 25.0606 206.781 24.053 206.738 22.7386C206.738 22.651 206.738 22.6072 206.738 22.5195C206.694 21.2052 207.74 20.066 209.048 20.0222C209.091 20.0222 209.135 20.0222 209.179 20.0222C210.835 20.0222 211.489 21.2928 211.489 22.5195V22.8262H207.653ZM210.486 22.1252C210.573 21.4242 210.05 20.8108 209.353 20.7232C209.266 20.7232 209.222 20.7232 209.135 20.7232C208.35 20.6794 207.697 21.3366 207.653 22.1252H210.486Z" fill="var(--fill-0, #D6D3CD)"/>
<path id="Vector_11" d="M212.447 20.1537H213.363V20.8985C213.624 20.3728 214.191 20.0661 214.758 20.0661H215.15V21.03L214.714 20.9424C213.842 20.9424 213.363 21.4243 213.363 22.4758V24.8417H212.447V20.1537Z" fill="var(--fill-0, #D6D3CD)"/>
<path id="Vector_12" d="M220.642 24.8417C220.642 26.2875 219.596 27.2952 218.07 27.2952C217.242 27.339 216.37 27.0323 215.76 26.4627L216.37 25.7179C216.806 26.1998 217.416 26.5065 218.07 26.5065C219.421 26.5065 219.77 25.6741 219.77 24.8855V24.0968H219.727C219.378 24.6226 218.768 24.9293 218.114 24.9293C216.763 24.9293 215.673 23.834 215.673 22.4758C215.673 21.1176 216.763 20.0223 218.114 20.0223C218.768 20.0223 219.378 20.2852 219.77 20.8109H219.814V20.1537H220.729L220.642 24.8417ZM216.632 22.5196C216.501 23.3958 217.068 24.1845 217.939 24.3159C218.811 24.4473 219.596 23.8778 219.727 23.0015C219.77 22.8263 219.77 22.651 219.727 22.4758C219.857 21.5995 219.291 20.8109 218.419 20.6795C217.547 20.548 216.763 21.1176 216.632 21.9938C216.588 22.1691 216.588 22.3443 216.632 22.5196Z" fill="var(--fill-0, #D6D3CD)"/>
<path id="Vector_13" d="M222.603 22.8263C222.647 23.6587 223.344 24.2721 224.173 24.2283C224.696 24.2283 225.175 23.9654 225.48 23.5273L226.134 24.053C225.655 24.7102 224.87 25.0607 224.042 25.0169C222.734 25.0607 221.644 24.053 221.601 22.7387C221.601 22.651 221.601 22.6072 221.601 22.5196C221.557 21.2052 222.603 20.0661 223.911 20.0223C223.955 20.0223 223.998 20.0223 224.042 20.0223C225.698 20.0223 226.352 21.2929 226.352 22.5196V22.8263H222.603ZM225.437 22.1253C225.524 21.4243 225.001 20.8109 224.303 20.7233C224.216 20.7233 224.173 20.7233 224.085 20.7233C223.301 20.7233 222.691 21.3367 222.647 22.1253H225.437Z" fill="var(--fill-0, #D6D3CD)"/>
<path id="Vector_14" d="M227.442 20.1538H228.314V20.8986C228.619 20.329 229.229 20.0223 229.883 20.0661C230.798 20.0661 231.583 20.6357 231.583 21.8625V24.9293H230.668V22.0815C230.668 21.2053 230.144 20.8548 229.578 20.8548C229.011 20.8548 228.27 21.3367 228.27 22.432V24.8855H227.398L227.442 20.1538Z" fill="var(--fill-0, #D6D3CD)"/>
<path id="Vector_15" d="M236.246 21.4242C235.941 21.0737 235.505 20.8985 235.069 20.8985C234.11 20.8985 233.587 21.6871 233.587 22.5634C233.544 23.3958 234.197 24.1406 235.026 24.1844C235.069 24.1844 235.069 24.1844 235.113 24.1844C235.549 24.1844 235.985 24.0092 236.246 23.6587L236.9 24.3159C236.42 24.7978 235.767 25.1045 235.113 25.0607C233.805 25.1483 232.716 24.1406 232.628 22.8262C232.628 22.7386 232.628 22.6948 232.628 22.6072C232.541 21.2928 233.544 20.1975 234.851 20.1099C234.938 20.1099 235.026 20.1099 235.113 20.1099C235.81 20.0661 236.464 20.3727 236.944 20.8547L236.246 21.4242Z" fill="var(--fill-0, #D6D3CD)"/>
<path id="Vector_16" d="M237.249 20.1537H238.295L239.69 23.8778L241.041 20.1537H242L239.777 25.937C239.472 26.7694 239.167 27.339 238.164 27.339C237.903 27.339 237.641 27.2952 237.38 27.2075L237.467 26.3751L237.99 26.4627C238.557 26.4627 238.731 26.156 238.905 25.6741L239.21 24.9293L237.249 20.1537Z" fill="var(--fill-0, #D6D3CD)"/>
<path id="Vector_17" d="M192.789 31.1507H195.274C197.061 31.1507 197.54 32.246 197.54 33.1222C197.54 34.1299 196.799 34.9185 195.797 35.0061L197.802 38.2483H196.625L194.838 35.0938H193.792V38.2045H192.833L192.789 31.1507ZM193.748 34.2613H195.012C195.753 34.2613 196.538 34.0861 196.538 33.1222C196.538 32.1583 195.797 31.9831 195.012 31.9831H193.748V34.2613Z" fill="var(--fill-0, #D6D3CD)"/>
<path id="Vector_18" d="M199.24 36.1891C199.327 36.9777 200.025 37.5911 200.809 37.5473C201.332 37.5473 201.812 37.2844 202.117 36.8463L202.771 37.372C202.291 38.0292 201.507 38.3797 200.679 38.3359C199.371 38.3797 198.281 37.372 198.238 36.0576C198.238 35.97 198.238 35.9262 198.238 35.8386C198.194 34.5242 199.24 33.3851 200.548 33.3413C200.591 33.3413 200.635 33.3413 200.679 33.3413C202.335 33.3413 202.989 34.6118 202.989 35.8386V36.1453L199.24 36.1891ZM202.073 35.4443C202.117 34.7433 201.594 34.1299 200.897 34.0861C200.853 34.0861 200.766 34.0861 200.722 34.0861C199.938 34.0423 199.284 34.6556 199.24 35.4443H202.073Z" fill="var(--fill-0, #D6D3CD)"/>
<path id="Vector_19" d="M206.563 34.6557C206.345 34.349 205.997 34.1737 205.604 34.1737C205.169 34.1737 204.82 34.349 204.82 34.6995C204.82 35.05 205.604 35.3567 206.04 35.4443C206.476 35.5319 207.435 35.9262 207.435 36.8463C207.435 37.7664 206.476 38.3359 205.517 38.3359C204.82 38.4235 204.122 38.073 203.687 37.5035L204.384 36.9339C204.645 37.2844 205.081 37.5035 205.517 37.5035C205.997 37.5035 206.476 37.3282 206.476 36.8901C206.476 36.452 205.735 36.2329 205.343 36.1453C204.951 36.0577 203.904 35.7072 203.904 34.7871C203.904 33.867 204.82 33.3413 205.692 33.3413C206.345 33.2975 206.956 33.6042 207.304 34.1299L206.563 34.6557Z" fill="var(--fill-0, #D6D3CD)"/>
<path id="Vector_20" d="M208.48 33.4726H209.352V34.1736C209.745 33.6479 210.355 33.385 211.009 33.385C212.36 33.385 213.493 34.5241 213.493 35.8823C213.493 37.2405 212.36 38.3796 211.009 38.3796C210.355 38.4234 209.745 38.1168 209.352 37.591V41.096H208.48V33.4726ZM209.352 35.8385C209.396 36.7148 210.137 37.3719 211.009 37.3281C211.88 37.2843 212.534 36.5395 212.491 35.6633C212.447 34.8308 211.75 34.1736 210.921 34.1736C210.093 34.1298 209.396 34.8308 209.352 35.6633C209.352 35.7071 209.352 35.7947 209.352 35.8385Z" fill="var(--fill-0, #D6D3CD)"/>
<path id="Vector_21" d="M216.806 33.3851C218.157 33.4289 219.291 34.568 219.247 35.9262C219.204 37.2844 218.07 38.4235 216.719 38.3797C215.368 38.3359 214.278 37.2406 214.278 35.8824C214.278 34.5242 215.411 33.3851 216.763 33.3851H216.806ZM216.806 37.5473C217.722 37.5911 218.506 36.8901 218.55 35.97C218.593 35.05 217.896 34.2613 216.981 34.2175C216.065 34.1737 215.281 34.8747 215.237 35.7948C215.237 35.8386 215.237 35.8386 215.237 35.8824C215.193 36.7148 215.847 37.4596 216.675 37.5035C216.719 37.5035 216.763 37.5035 216.806 37.5473Z" fill="var(--fill-0, #D6D3CD)"/>
<path id="Vector_22" d="M220.424 33.4727H221.296V34.2175H221.339C221.644 33.648 222.255 33.3413 222.908 33.3851C223.824 33.3851 224.608 33.9546 224.608 35.1814V38.2483H223.693V35.4443C223.693 34.568 223.17 34.2175 222.603 34.2175C222.037 34.2175 221.296 34.6995 221.296 35.7948V38.2483H220.424V33.4727Z" fill="var(--fill-0, #D6D3CD)"/>
<path id="Vector_23" d="M228.444 34.6556C228.226 34.349 227.878 34.1737 227.485 34.1737C227.049 34.1737 226.701 34.349 226.701 34.6995C226.701 35.05 227.485 35.3566 227.921 35.4443C228.357 35.5319 229.316 35.9262 229.316 36.8463C229.316 37.7663 228.357 38.3359 227.398 38.3359C226.701 38.3797 226.003 38.073 225.567 37.5035L226.265 36.9339C226.526 37.2844 226.962 37.5035 227.398 37.5035C227.878 37.5035 228.357 37.3282 228.357 36.8901C228.357 36.452 227.616 36.2329 227.224 36.1453C226.831 36.0576 225.785 35.7071 225.785 34.7871C225.785 33.867 226.701 33.3413 227.572 33.3413C228.226 33.2975 228.836 33.6041 229.185 34.1299L228.444 34.6556Z" fill="var(--fill-0, #D6D3CD)"/>
<path id="Vector_24" d="M230.972 36.1891C231.059 37.0215 231.757 37.6349 232.585 37.5473C233.108 37.5473 233.588 37.2844 233.893 36.8463L234.59 37.372C234.111 38.0292 233.326 38.3797 232.498 38.3359C231.19 38.3797 230.101 37.372 230.057 36.0576C230.057 35.97 230.057 35.9262 230.057 35.8386C230.013 34.5242 231.059 33.3851 232.367 33.3413C232.411 33.3413 232.454 33.3413 232.498 33.3413C234.154 33.3413 234.808 34.6118 234.808 35.8386V36.1453L230.972 36.1891ZM233.805 35.4443C233.849 34.7433 233.326 34.1299 232.629 34.0861C232.585 34.0861 232.498 34.0861 232.454 34.0861C231.67 34.0423 231.016 34.6556 230.972 35.4443H233.805Z" fill="var(--fill-0, #D6D3CD)"/>
<path id="Vector_25" d="M192.789 44.4696H197.235V45.3459H193.748V47.5803H196.974V48.5004H193.748V51.5672H192.789V44.4696Z" fill="var(--fill-0, #D6D3CD)"/>
<path id="Vector_26" d="M202.466 51.5673H201.594V50.8225C201.289 51.3921 200.679 51.6987 200.025 51.6549C199.11 51.6549 198.325 51.0854 198.325 49.8586V46.7917H199.197V49.5957C199.197 50.472 199.72 50.8225 200.287 50.8225C200.853 50.8225 201.594 50.3406 201.594 49.2452V46.7917H202.466V51.5673Z" fill="var(--fill-0, #D6D3CD)"/>
<path id="Vector_27" d="M204.078 46.8354H204.993V47.5802C205.299 47.0107 205.909 46.704 206.563 46.7478C207.478 46.7478 208.263 47.3173 208.263 48.5441V51.611H207.391V48.807C207.391 47.9307 206.868 47.5802 206.301 47.5802C205.734 47.5802 204.993 48.0622 204.993 49.1575V51.611H204.078V46.8354Z" fill="var(--fill-0, #D6D3CD)"/>
<path id="Vector_28" d="M214.583 51.5672H213.668V50.8663H213.624C213.232 51.392 212.622 51.6549 211.968 51.6549C210.617 51.6549 209.483 50.5158 209.483 49.1576C209.483 47.7994 210.617 46.6603 211.968 46.6603C212.622 46.6164 213.232 46.9231 213.624 47.4489H213.668V43.9439H214.583V51.5672ZM213.668 49.2014C213.624 48.3251 212.883 47.6679 212.012 47.7118C211.14 47.7556 210.486 48.5004 210.53 49.3766C210.573 50.2091 211.271 50.8663 212.099 50.8663C212.927 50.9101 213.624 50.2091 213.668 49.3766C213.668 49.3328 213.668 49.2452 213.668 49.2014Z" fill="var(--fill-0, #D6D3CD)"/>
<path id="Vector_29" d="M79.112 4.46887V10.2521C79.112 11.435 79.6787 12.9247 81.4658 12.9247C83.2529 12.9247 83.8195 11.3912 83.8195 10.2521V4.46887H85.0836V10.4712C85.3015 12.4865 83.8631 14.3267 81.8581 14.5457C79.853 14.7648 78.0223 13.319 77.8044 11.3036C77.7608 11.0407 77.7608 10.7779 77.8044 10.515V4.46887H79.112Z" fill="var(--fill-0, #D6D3CD)"/>
<path id="Vector_30" d="M87.3937 7.57955H88.5706V8.54343H88.6142C89.0501 7.79862 89.8347 7.4043 90.6628 7.44812C91.8833 7.44812 92.9294 8.19293 92.9294 9.8578V13.9324H91.7525V10.1645C91.7525 8.98155 91.0551 8.54343 90.3141 8.54343C89.5731 8.54343 88.5706 9.20061 88.5706 10.6464V13.8885H87.3937V7.57955Z" fill="var(--fill-0, #D6D3CD)"/>
<path id="Vector_31" d="M95.7626 4.42506C96.2421 4.42506 96.6344 4.81937 96.6344 5.30131C96.6344 5.78324 96.2421 6.17756 95.7626 6.17756C95.2831 6.17756 94.8908 5.78324 94.8908 5.30131C94.8908 4.81937 95.2831 4.42506 95.7626 4.42506ZM95.1524 7.57955H96.3292V13.9324H95.1524V7.57955Z" fill="var(--fill-0, #D6D3CD)"/>
<path id="Vector_32" d="M102.039 8.63105H100.339V11.4789C100.339 12.1799 100.339 12.9247 101.255 12.9247C101.56 12.9247 101.865 12.8809 102.126 12.7494V13.8447C101.778 13.9762 101.429 14.0638 101.037 14.0638C99.2061 14.0638 99.1625 12.9247 99.1625 11.917V8.63105H97.7677V7.57955H99.1625V5.82706H100.339V7.62337H102.039V8.63105Z" fill="var(--fill-0, #D6D3CD)"/>
<path id="Vector_33" d="M104.524 11.1722C104.524 12.2675 105.57 13.0123 106.66 13.0123C107.357 12.9685 107.967 12.618 108.36 12.0484L109.275 12.7494C108.621 13.6257 107.575 14.1076 106.485 14.0638C104.48 14.0638 103.26 12.618 103.26 10.734C103.173 8.98155 104.567 7.49193 106.311 7.4043C106.398 7.4043 106.442 7.4043 106.529 7.4043C108.752 7.4043 109.624 9.11299 109.624 10.734V11.1722H104.524ZM108.272 10.2083C108.229 9.1568 107.662 8.36818 106.442 8.36818C105.396 8.36818 104.567 9.1568 104.48 10.2083H108.272Z" fill="var(--fill-0, #D6D3CD)"/>
<path id="Vector_34" d="M117.687 13.9324H116.466V13.0124C115.943 13.7134 115.159 14.1077 114.287 14.1077C112.326 14.1077 111.062 12.6619 111.062 10.7779C111.062 8.89401 112.326 7.4482 114.287 7.4482C115.159 7.40439 115.943 7.7987 116.466 8.4997V3.81177H117.687V13.9324ZM116.466 10.7779C116.466 9.50739 115.682 8.58732 114.418 8.58732C113.154 8.58732 112.369 9.50739 112.369 10.7779C112.369 12.0485 113.154 12.9686 114.418 12.9686C115.682 12.9686 116.466 12.0485 116.466 10.7779Z" fill="var(--fill-0, #D6D3CD)"/>
<path id="Vector_35" d="M126.405 4.46875H128.062L133.249 12.2236H133.292V4.46875H134.556V13.9322H132.943L127.713 6.13362H127.669V13.9322H126.405V4.46875Z" fill="var(--fill-0, #D6D3CD)"/>
<path id="Vector_36" d="M136.909 8.36806C137.607 7.75469 138.478 7.448 139.394 7.448C141.268 7.448 142.009 8.45568 142.009 9.551V12.7931C142.009 13.1874 142.009 13.5379 142.053 13.9322H141.007C140.963 13.6256 140.963 13.2751 140.963 12.9684H140.919C140.483 13.7132 139.612 14.1513 138.74 14.1075C137.563 14.1075 136.561 13.4503 136.561 12.2236C136.561 10.9968 138.13 10.0329 140.004 10.0329H140.876V9.77006C140.876 9.02525 140.222 8.41187 139.481 8.45568C139.437 8.45568 139.437 8.45568 139.394 8.45568C138.74 8.45568 138.086 8.71856 137.607 9.15668L136.909 8.36806ZM140.266 10.8654C139.132 10.8654 137.781 11.0844 137.781 12.0921C137.781 13.0998 138.304 13.0998 139.132 13.0998C140.091 13.1436 140.876 12.4426 140.919 11.4787C140.919 11.3911 140.919 11.3473 140.919 11.2597V10.8654H140.266Z" fill="var(--fill-0, #D6D3CD)"/>
<path id="Vector_37" d="M147.589 8.63115H145.889V11.479C145.889 12.18 145.889 12.9248 146.804 12.9248C147.11 12.9248 147.415 12.881 147.676 12.7495V13.8448C147.327 13.9763 146.979 14.0639 146.586 14.0639C144.756 14.0639 144.712 12.9248 144.712 11.9171V8.63115H143.317V7.57965H144.712V5.82715H145.889V7.62346H147.589V8.63115Z" fill="var(--fill-0, #D6D3CD)"/>
<path id="Vector_38" d="M149.899 4.42505C150.379 4.42505 150.771 4.81936 150.771 5.3013C150.771 5.78323 150.379 6.17755 149.899 6.17755C149.42 6.17755 149.027 5.78323 149.027 5.3013C149.027 4.81936 149.42 4.42505 149.899 4.42505ZM149.289 7.57954H150.466V13.9324H149.289V7.57954Z" fill="var(--fill-0, #D6D3CD)"/>
<path id="Vector_39" d="M155.696 7.44812C157.527 7.49193 159.009 8.98155 158.965 10.8217C158.921 12.6618 157.439 14.1514 155.609 14.1076C153.778 14.0638 152.34 12.618 152.34 10.7779C152.34 8.93774 153.822 7.44812 155.652 7.44812H155.696ZM155.696 12.9685C156.96 12.9685 157.788 12.0484 157.788 10.7779C157.788 9.5073 157.004 8.58724 155.696 8.58724C154.388 8.58724 153.647 9.5073 153.647 10.7779C153.647 12.0484 154.432 12.9685 155.696 12.9685Z" fill="var(--fill-0, #D6D3CD)"/>
<path id="Vector_40" d="M160.883 7.57955H162.103V8.54343H162.147C162.539 7.79862 163.367 7.36049 164.196 7.4043C165.416 7.4043 166.462 8.14911 166.462 9.81399V13.8885H165.285V10.1645C165.285 8.98155 164.588 8.54343 163.847 8.54343C163.106 8.54343 162.103 9.20061 162.103 10.6464V13.8885H160.883V7.57955Z" fill="var(--fill-0, #D6D3CD)"/>
<path id="Vector_41" d="M171.955 9.15681C171.649 8.7625 171.17 8.54344 170.647 8.54344C170.08 8.54344 169.601 8.80631 169.601 9.24444C169.601 9.68256 170.69 10.1207 171.214 10.2083C171.737 10.2959 173.044 10.8655 173.044 12.0484C173.044 13.2314 171.737 14.02 170.516 14.02C169.557 14.1076 168.642 13.6695 168.075 12.8809L168.991 12.1361C169.383 12.5742 169.906 12.8809 170.516 12.8809C171.126 12.8809 171.78 12.618 171.78 12.0922C171.78 11.5665 170.778 11.2598 170.255 11.1284C169.732 10.9969 168.337 10.5588 168.337 9.33206C168.337 8.10531 169.557 7.44813 170.734 7.44813C171.562 7.40431 172.39 7.79863 172.87 8.49963L171.955 9.15681Z" fill="var(--fill-0, #D6D3CD)"/>
<path id="Vector_42" d="M97.5065 29.3543C95.8502 27.2951 93.3657 26.1122 90.7068 26.1122C84.3866 26.1122 80.2021 31.1944 80.2021 37.6348C80.2021 44.0753 84.125 48.6756 90.7068 48.6756C93.6272 48.7632 96.4168 47.3174 98.0732 44.8639L101.299 47.3174C100.47 48.4565 97.0706 52.2682 90.6196 52.2682C81.6405 52.2682 76.1484 44.7324 76.1484 37.6348C76.1484 28.8285 82.1636 22.5195 90.8376 22.5195C94.5425 22.5195 98.4654 23.9215 100.732 26.9446L97.5065 29.3543Z" fill="var(--fill-0, #D6D3CD)"/>
<path id="Vector_43" d="M106.05 23.2207H124.226V26.8133H109.842V35.2691H123.223V38.8617H109.842V47.9309H124.923V51.5235H106.05V23.2207Z" fill="var(--fill-0, #D6D3CD)"/>
<path id="Vector_44" d="M130.502 23.2206H140.44C147.632 23.2206 149.463 27.6018 149.463 31.1506C149.463 34.6995 146.804 38.1606 142.532 38.6426L150.509 51.5672H145.714L138.61 39.0807H134.338V51.5672H130.502V23.2206ZM134.338 35.7071H139.351C142.358 35.7071 145.409 35.0061 145.409 31.1506C145.409 27.2952 142.402 26.5942 139.351 26.5942H134.338V35.7071Z" fill="var(--fill-0, #D6D3CD)"/>
<path id="Vector_45" d="M155.479 23.2207H173.175V26.8133H159.314V35.7073H172.26V39.2999H159.314V51.5674H155.479V23.2207Z" fill="var(--fill-0, #D6D3CD)"/>
<path id="Vector_46" d="M183.462 4.5127H182.503V51.6111H183.462V4.5127Z" fill="var(--fill-0, #D6D3CD)"/>
<path id="Vector_47" d="M38.2698 29.661C38.0954 29.5734 37.9211 29.6172 37.7903 29.7487L37.398 30.0553C37.398 30.0553 37.2673 30.1868 37.3545 30.2744C37.4416 30.362 37.6596 30.143 37.6596 30.143L38.0519 29.9239L38.2698 29.7925C38.2698 29.7925 38.5313 29.7048 38.2262 29.5734M48.3822 24.535C48.3386 25.1922 48.295 25.8493 48.1643 26.5065C48.2514 26.7256 48.6873 27.0323 48.7309 27.2513C48.7745 27.4704 48.3386 27.8209 48.2078 27.6018L47.9899 27.4266C47.3797 29.7925 46.2028 31.9393 44.5465 33.7356L45.7233 34.9185C45.7669 34.7871 45.7669 34.6995 45.7669 34.568C45.7233 34.1737 45.8541 34.0423 45.9413 34.0423C46.29 34.0423 46.5951 34.2175 46.7259 34.568C46.7694 34.7433 46.813 34.568 46.9002 34.8747C46.8566 35.05 46.9002 35.2252 46.9438 35.4005L47.0746 35.7071C47.0746 35.8386 47.0746 35.9262 47.031 36.0576C49.9514 32.947 51.6513 28.8724 51.8256 24.5788L48.3822 24.535ZM44.0234 38.555C44.7208 38.073 45.3746 37.5911 45.9849 37.0215L45.8977 36.9339C45.8105 36.9777 45.6797 36.9339 45.5926 36.8901C45.5054 36.7586 45.4618 36.6272 45.4182 36.4958L43.6311 34.6995C43.5003 34.8309 43.3696 34.9623 43.2388 35.0938V35.5319C44.3721 36.0576 44.6336 36.5396 44.59 36.7586C44.5465 36.9777 43.8055 37.6787 43.8055 37.854C43.8055 38.0292 44.1106 38.2483 44.067 38.4235L44.0234 38.555ZM34.4777 38.6426V41.7094C35.393 41.6656 36.3083 41.578 37.1801 41.4028C36.9186 41.1837 36.657 41.0085 36.3519 40.9208C36.0904 40.658 35.9161 40.3513 35.8289 40.0008C35.6545 39.5188 36.1776 39.475 36.0468 39.1245C35.9161 38.774 34.8264 38.9055 34.8264 38.9055C34.8264 38.9055 34.9571 39.1245 34.4777 38.6426ZM33.17 38.3797C29.9009 38.2483 26.719 37.0215 24.2345 34.8747L24.6268 35.269C25.3242 35.8824 25.4114 36.2329 25.3678 36.5396C25.3242 36.8463 23.8422 36.8025 23.8422 36.8025H23.7986C23.2756 37.0653 22.7525 37.153 22.1859 37.153C22.0551 37.1091 21.8808 37.0215 21.7936 36.9339L21.6628 37.0653C24.8447 39.9131 28.8984 41.578 33.17 41.7094V38.3797ZM19.3091 25.8055C19.2655 25.4112 19.2219 24.9731 19.1783 24.5788H15.7784C15.8656 26.1998 16.1271 27.8209 16.6502 29.3543H16.6938C16.8246 29.2667 16.6938 29.2229 16.781 29.0038C16.8681 28.7848 16.9989 29.0038 17.0425 28.8724C17.0861 28.741 16.9989 28.6972 16.9989 28.5657C16.9989 28.4343 17.1733 28.3905 17.1733 28.3028C17.1733 28.2152 17.0861 28.3905 17.0425 28.0838C17.0425 27.8647 17.0861 27.6457 17.1733 27.4266L17.4348 26.857C17.5655 26.5503 18.1758 26.3751 18.3501 26.156C18.5245 25.937 18.5245 25.7617 18.8732 25.6741C19.0475 25.6741 19.1783 25.7179 19.3091 25.8055ZM19.1783 23.2644C19.3527 19.8032 20.7475 16.5173 23.1012 14.02L20.7475 11.6103C17.6963 14.721 15.9528 18.8832 15.7784 23.2644H19.1783ZM24.0166 13.0999C26.5447 10.8217 29.7702 9.5073 33.17 9.37586V6.04612C28.8984 6.17756 24.8447 7.84243 21.6628 10.734L24.0166 13.0999ZM34.4777 9.37586C37.1365 9.5073 39.6646 10.3397 41.8876 11.7855L41.6697 11.3474C41.6261 11.2598 41.844 11.1722 41.844 11.1722C41.844 11.1722 41.3645 10.4274 41.4953 10.2959C41.6261 10.1645 42.0184 10.515 42.2363 10.8655C42.4542 11.216 42.7158 11.5227 42.8901 11.5665C43.0645 11.6103 43.4132 11.5665 43.5003 11.917C43.6311 12.1799 43.7183 12.4427 43.8055 12.7494V12.9247L44.808 11.9608C44.7208 11.6979 44.5029 11.4789 44.2413 11.3474L43.5439 11.5665C43.5439 11.5665 43.2824 11.6979 43.1952 11.5227C43.1516 11.3474 43.1516 11.1284 43.1516 10.9531C43.1516 10.9531 42.8901 10.7779 42.8901 10.6464C42.8901 10.515 43.0209 10.0331 42.9337 9.8578C42.8465 9.72636 42.7158 9.63874 42.585 9.55111C42.5414 9.28824 42.4542 8.98155 42.3671 8.71868C42.1491 8.4558 41.9312 8.19293 41.6697 7.97387V7.84243C39.4031 6.74712 36.9622 6.13374 34.4777 6.04612V9.37586ZM44.59 14.1076L44.8516 14.4143L45.5926 15.3344L45.9413 15.8163L46.29 15.5972C46.5079 15.4658 46.6387 15.5972 46.6823 15.8601C46.7259 16.123 46.2464 16.123 46.4207 16.3859C46.5951 16.6487 46.9002 16.342 46.9438 16.3859C47.031 16.5173 46.9874 16.6925 46.9002 16.7802C46.813 16.9116 46.6823 16.9554 46.6823 17.043L46.813 17.3059C46.9874 17.3935 47.3361 17.2183 47.3361 17.525C47.3361 17.8317 47.5976 18.1384 47.6412 18.445C47.6412 18.6203 47.5976 18.7955 47.5104 18.927C47.6412 19.2775 47.772 19.6718 47.8591 20.0223C47.9463 19.9347 48.0335 19.9347 48.1643 19.9347V19.9785C48.1643 20.1537 48.1643 20.2852 48.1643 20.4604C48.1643 20.6357 48.1207 20.8547 48.0771 21.03L48.1643 21.5557C48.2078 21.7748 48.2514 22.0377 48.295 22.2567H48.2514C48.295 22.5634 48.295 22.8263 48.295 23.133H51.6949C51.6077 20.9423 51.1282 18.7517 50.2565 16.7364H50.0821C49.9514 16.8678 49.777 16.9116 49.6027 16.9554C49.3847 16.9554 49.2539 16.6925 49.2539 16.6925C49.2539 16.6925 48.295 15.422 48.1643 15.3344C48.0335 15.2029 47.8156 15.1153 47.6412 15.1153C47.2489 15.0715 47.3361 14.8962 47.3361 14.8962L46.5515 14.5895L46.29 14.02C46.29 14.02 46.3336 13.8009 46.29 13.7571C46.072 13.7133 45.8105 13.6695 45.5926 13.6695L45.1567 13.3628L44.59 13.9324C44.6336 13.9762 44.6336 14.0638 44.59 14.1076ZM57.8408 23.8778C57.8408 37.0653 47.0746 47.7556 33.7367 47.7556C20.3988 47.7556 9.71973 37.0653 9.71973 23.8778C9.71973 10.6902 20.4859 0 33.7802 0C47.0746 0 57.8844 10.6902 57.8844 23.8778H57.8408ZM33.8674 19.847L32.9521 19.9347C33.0393 19.9785 33.0828 20.0223 33.0393 20.1099C32.9957 20.1975 33.17 20.8547 33.17 20.8547L31.688 21.6433C31.688 21.6433 31.6009 22.0377 31.2957 22.2129C31.0778 22.3005 30.947 22.4758 30.8163 22.651C30.6855 22.8263 30.7291 23.0015 30.6419 23.2644C30.5547 23.5273 30.7291 23.6149 30.6855 23.7463C30.6419 24.0092 30.5547 24.2283 30.4676 24.4912C30.3804 24.6226 30.1625 24.4473 30.0317 24.4035C29.9009 24.3597 29.8137 23.7025 29.7266 23.6149H29.683C29.683 23.7025 29.683 23.7902 29.683 23.8778C29.683 24.1407 29.7266 24.4473 29.7702 24.7102C29.9445 24.6664 29.9009 24.5788 29.9445 24.5788C29.9881 24.5788 30.1189 24.8417 30.2932 24.8417C30.4676 24.8417 30.5983 24.754 30.5983 24.4035C30.5983 24.1845 30.7727 24.0092 30.9906 24.0092C31.0342 24.0092 31.0342 24.0092 31.0778 24.0092C31.2086 24.0092 31.0778 24.2721 31.165 24.3597C31.2521 24.4473 31.3393 24.3597 31.3393 24.5788C31.3393 24.7978 30.9034 25.0607 30.8599 25.4112C30.8163 25.7617 30.7291 25.8493 30.5547 25.8493C30.3804 25.8493 30.3804 25.455 30.2932 25.6741C30.206 25.8932 30.5547 26.2437 30.5547 26.2437C30.7291 26.1122 30.8599 25.937 30.947 25.7179C31.0342 25.5427 31.2086 25.5865 31.3829 25.455C31.5573 25.3236 31.6009 24.7978 31.5573 24.6664C31.5137 24.535 31.7752 24.5788 32.647 24.535C33.5187 24.4912 33.4751 24.754 33.4315 25.0169C33.388 25.2798 33.5623 24.9731 33.5623 25.236C33.5623 25.4988 33.2136 25.7617 33.1264 26.0246C33.0393 26.2875 33.2572 26.2875 33.1264 26.3751C33.0393 26.4189 32.9957 26.5065 32.9521 26.5942C32.4726 27.1637 32.429 26.8132 32.1239 26.9447C31.906 27.0323 31.688 27.0761 31.4701 27.0323H31.3829C32.0803 27.558 32.9521 27.8209 33.8238 27.8209H34.4341C34.5212 27.339 34.6956 26.5942 35.0443 26.4189C35.393 26.2437 35.8725 26.5503 36.0468 26.4189C36.1776 26.3313 36.3083 26.1998 36.3519 26.0246C36.4391 25.8055 36.4827 25.5427 36.4391 25.2798C36.3519 25.0169 36.1776 25.1483 36.0904 24.9293C36.0032 24.7102 36.4391 24.754 36.2212 24.4912C36.0032 24.2283 35.9596 23.834 35.8725 23.7463C35.7853 23.6587 35.6981 23.7463 35.5674 23.6149C35.4366 23.4835 35.6109 23.3082 35.6545 23.133C35.6981 22.9577 35.9596 22.9139 35.9161 22.7387C35.8725 22.5634 35.6981 22.7387 35.6545 22.5196C35.6545 22.3443 35.6981 22.1691 35.7853 22.0377C35.7853 22.0377 35.3058 22.0377 35.2622 21.8624C35.0443 21.2052 34.3469 20.8547 33.6931 21.0738C33.6059 20.8109 33.2136 20.548 33.2136 20.548C33.2136 20.548 33.1264 20.1537 33.2572 19.9785C33.388 19.8032 33.7802 19.9785 33.8238 19.9347C33.8674 19.8909 33.8674 19.8909 33.8674 19.847ZM47.8591 10.734C48.6001 11.5227 49.2975 12.3989 49.9078 13.319C50.1257 13.4942 50.3001 13.7133 50.4308 13.9762V14.1952L50.6052 14.4581L50.6924 14.5457C50.9103 14.7648 51.0411 15.0277 51.1718 15.3344C51.259 15.4658 51.3026 15.641 51.3026 15.8163C52.3923 18.1384 53.0025 20.6795 53.0897 23.2644H56.5767C56.4024 17.6564 54.1794 12.3551 50.3001 8.32437L47.8591 10.734ZM35.0007 4.77556C37.7467 4.95081 40.4492 5.69562 42.8901 6.96618L43.5439 6.7033H43.6311L44.2413 6.83474C44.6336 6.96618 44.6336 6.83474 44.808 6.92237C44.9823 7.00999 44.9823 7.22905 45.2003 7.4043C45.4182 7.57955 45.3746 7.4043 45.5926 7.53574C45.8541 7.71099 46.072 7.97387 46.2464 8.23674C46.3336 8.41199 46.4643 8.14912 46.6387 9.02536L47.1181 9.55111L49.2975 7.36049C45.2439 3.63643 39.9697 1.48962 34.4777 1.31437V4.11837H34.652C34.9135 4.24981 35.0007 4.24981 35.0007 4.51268C35.0007 4.60031 35.0007 4.68793 35.0007 4.77556ZM20.7039 9.77018C24.1473 6.65949 28.5497 4.86318 33.17 4.73174V1.31437C27.6344 1.44581 22.3602 3.59262 18.3065 7.36049L20.7039 9.77018ZM14.4708 23.2644C14.6452 18.5765 16.5194 14.0638 19.7885 10.6902L17.3476 8.23674C13.4247 12.2675 11.1581 17.6126 11.0274 23.2644H14.4708ZM19.7885 37.0653L18.6117 35.7071C18.263 35.5757 18.3065 35.4881 17.9578 35.1814C17.6091 34.8747 17.7835 34.568 17.6091 34.4804C17.4348 34.3928 17.522 34.6118 17.4784 34.6556C17.4348 34.6995 17.2604 34.7433 17.0425 34.6556C16.8681 34.568 16.6938 34.4366 16.6066 34.2613C16.2143 33.9985 16.2579 33.6041 16.2143 33.5165C16.1707 33.4289 15.9092 33.5165 15.7784 33.4727C15.6477 33.4289 15.6477 33.2098 15.5169 33.166C15.4297 33.1222 15.299 33.0784 15.1682 33.1222L14.6887 32.4212C14.6887 32.4212 14.6887 32.7717 14.3836 32.7717C14.0785 32.7717 13.6862 32.1145 13.5555 32.0707C13.4247 32.0269 13.3375 32.2021 13.1632 32.0707C12.9888 31.8078 12.8145 31.5011 12.7709 31.1945C12.7273 31.0192 12.6401 30.8878 12.5529 30.7125C12.5094 30.2744 12.5529 29.8801 12.6401 29.442C12.7273 29.2229 12.8145 29.442 12.9016 29.0915C12.9888 28.741 13.2068 28.741 13.3811 28.741C13.5119 28.6972 13.6426 28.7848 13.6862 28.9162C13.7734 29.0477 13.9913 28.9162 14.1221 28.8724C14.2529 28.8286 14.1221 28.6533 14.1221 28.5657C14.1221 28.4781 14.3836 28.5219 14.558 28.4343C14.7323 28.3467 14.9939 28.3028 15.0375 28.4343C14.7323 27.1637 14.5144 25.8493 14.4708 24.535H10.9838C11.1581 30.143 13.4247 35.4881 17.3476 39.5188L19.7885 37.0653ZM33.17 43.0238C28.5497 42.8924 24.1473 41.0961 20.7475 37.9854L18.3065 40.4389C22.3602 44.1629 27.6779 46.3098 33.17 46.4412V43.0238ZM46.9002 37.9416C45.8105 38.9493 44.6336 39.7817 43.3696 40.5265V40.6141C43.1081 41.1399 42.8029 41.6218 42.4542 42.0599C42.3235 42.279 42.2363 42.1476 41.9748 42.3666C41.7132 42.5857 41.844 42.7609 41.5389 42.8924L41.0158 43.1114C40.5364 43.6372 39.7518 43.6372 39.2287 43.1553C39.1851 43.1114 39.1851 43.1114 39.1416 43.0676C38.9672 42.9362 38.6621 42.8924 38.4877 42.6733L38.357 42.5419C37.0929 42.8486 35.8289 43.0238 34.5648 43.0676V46.4412C40.0569 46.2659 45.331 44.1191 49.3847 40.3951L46.9002 37.9416ZM53.0897 24.535C52.9153 29.2229 51.0411 33.648 47.8155 37.0215L50.2565 39.475C54.1358 35.4881 56.4024 30.143 56.5767 24.535H53.0897ZM45.1131 23.2206H47.0746C47.031 22.6948 46.9874 22.1253 46.9002 21.5995C46.813 21.7748 46.7259 21.9062 46.5951 22.0377C46.3772 22.2567 46.1592 22.1253 45.9413 22.2567C45.7233 22.3882 45.8977 22.5634 45.8541 22.7387C45.8105 22.9139 46.072 22.8263 45.9413 23.0453C45.8105 23.2644 45.6362 23.133 45.5054 23.133C45.3746 23.133 45.2875 23.0453 45.1131 23.2206ZM41.1902 17.3497L41.7132 17.9631C41.7568 17.9193 41.8876 17.8755 42.1055 17.9193L43.4132 18.1384C43.8055 18.1822 43.8926 18.8832 44.1106 18.9708C44.3285 19.0584 44.2849 19.146 44.2849 19.3651C44.2849 19.5842 44.1106 19.4965 44.1542 19.6718C44.1978 19.847 44.3285 19.9785 44.4593 19.8032C44.6772 19.5404 44.9823 19.4527 45.2875 19.4965C45.9413 19.628 45.7233 19.9785 45.9849 20.0661C46.2464 20.1537 46.1592 20.1975 46.2464 20.329C46.3336 20.4604 46.2028 20.5918 46.072 20.6357C45.9413 20.6795 45.9413 20.8109 45.9413 20.8985C45.9413 20.9862 45.8105 21.1614 45.7669 21.249C45.7233 21.3367 45.6362 21.6433 45.7669 21.6433C45.8977 21.6433 46.0284 21.7748 46.1156 21.6433C46.2028 21.5119 46.7259 20.9862 46.7259 20.7233V20.6357C46.5951 20.1099 46.4207 19.5842 46.2028 19.0584L45.9849 18.7955C45.7233 18.6203 44.8952 18.1822 44.7644 17.9631C44.6336 17.744 44.808 17.7002 44.9388 17.525C45.1131 17.3497 45.1567 17.1307 45.1131 16.9116L44.8516 16.5611L44.067 15.4658L43.5875 14.94L41.1902 17.3497ZM34.4777 14.1076C36.6135 14.239 38.6621 15.1153 40.2748 16.5173L42.7158 14.0638C40.4492 12.0484 37.5724 10.8655 34.5212 10.6902L34.4777 14.1076ZM27.3292 16.4297C28.9856 15.0277 31.0342 14.1952 33.17 14.0638V10.6902C30.1189 10.8217 27.2421 12.0046 24.9319 14.02L27.3292 16.4297ZM25.7165 18.226L26.4139 17.3497L24.0166 14.94C21.9243 17.1745 20.6603 20.1099 20.5295 23.2206H22.0115C21.9243 23.0892 21.8808 22.9577 21.8808 22.7825C21.9243 22.6072 21.7936 21.9938 21.8372 21.9062C21.8808 21.8186 22.0115 21.6872 22.0987 21.5995C22.1859 21.5119 22.0987 21.3367 22.1423 21.249L22.4474 20.8547C22.5782 20.7233 22.5346 20.3728 22.8397 20.2414C23.1448 20.1099 23.232 20.2852 23.4499 20.2414C23.6679 20.1975 23.6679 19.9347 23.6679 19.9347C23.6679 19.9347 23.5807 19.847 23.7114 19.628C23.8422 19.4089 24.6268 19.2337 24.6268 19.2337C24.6268 19.2337 24.6268 19.0146 25.1063 18.6203C25.2806 18.445 25.4985 18.3136 25.7165 18.226ZM23.9294 23.2644C23.9294 23.133 23.9294 22.9577 23.973 22.8263L23.5807 22.7387C23.232 22.7387 22.8833 22.9577 22.9269 23.2644H23.9294ZM21.6192 24.5788H20.4859C20.5295 25.4112 20.6603 26.1998 20.8346 26.9885C21.009 26.9008 21.009 26.8132 21.009 26.6818C21.009 26.5503 21.1833 26.5942 21.2705 26.4627C21.3577 26.3313 21.3141 26.3313 21.2705 26.2875C21.1398 26.1998 21.0526 26.0684 21.009 25.8932C20.9654 25.6741 21.1398 25.5427 21.1833 25.2798C21.2269 25.0169 21.1833 24.9731 21.2705 24.7978C21.3577 24.6226 21.2705 24.7978 21.6192 24.5788ZM26.4139 30.4497C25.2806 29.1791 24.4524 27.6018 24.1037 25.937H24.0166C23.973 25.7617 23.7986 25.7179 23.6243 25.7617L23.5371 26.5065C23.5371 26.5503 23.4935 26.9008 23.3192 26.9008C23.232 26.857 23.1448 26.7694 23.1012 26.6818C23.1012 26.6818 22.8397 26.7256 22.7961 26.638C22.7525 26.5503 22.5346 26.3313 22.7525 26.1122C22.9704 25.8932 22.9704 26.3313 23.1448 26.1122C23.3192 25.8932 22.9269 24.9293 23.232 24.9293C23.5371 24.9293 23.7114 25.3674 23.755 25.3674L23.973 25.2798C23.9294 25.0607 23.9294 24.8417 23.9294 24.6226H22.4474C22.3602 24.7978 22.4038 25.3236 22.273 25.4112C22.1423 25.4988 21.5756 25.3236 21.532 25.6741C21.4885 26.0246 21.7064 25.937 21.7064 26.2875C21.7064 26.638 21.532 26.4189 21.6628 26.7694C21.7936 27.1199 22.3166 27.2075 22.4038 27.6018C22.4474 27.8209 22.5346 28.04 22.6653 28.259C22.7089 28.3467 22.4474 28.5657 22.6217 28.8286C22.7961 29.0915 22.9269 29.3982 22.9269 29.7048C22.8833 30.143 22.9269 30.5811 23.0576 31.0192C23.232 31.7202 23.232 31.2821 23.4935 31.7202C23.5807 31.9393 23.6243 32.1583 23.6243 32.4212L24.0166 32.8593L26.4139 30.4497ZM31.5573 33.4727C29.9881 33.1222 28.5497 32.4212 27.3292 31.3697L24.9755 33.7356C26.8498 35.4005 29.1599 36.4958 31.6444 36.8901L30.947 36.4958C30.8163 36.2329 30.6419 35.97 30.424 35.751C30.206 35.5757 30.1189 35.269 30.1189 35.0061C30.2496 34.9623 30.3804 34.8747 30.424 34.7433C30.5112 34.3928 30.6855 34.0423 30.947 33.7794L31.5573 33.4727ZM39.2287 32.0707L38.7929 32.3336H38.8364C39.098 32.4212 40.1441 32.5526 40.4492 32.8155C40.7107 32.9908 40.9722 33.1222 41.2774 33.166L42.0619 33.0784L41.6261 32.6403L41.0594 32.4212C40.6235 32.2021 40.7107 32.5088 40.3184 32.2898C39.9697 32.1583 39.621 32.0707 39.2287 32.0707ZM46.7694 26.857C46.9438 26.1122 47.0746 25.3236 47.1181 24.535H45.1131L45.5054 24.8417C45.7233 25.0607 45.6362 25.2798 45.6797 25.4988C45.7233 25.7179 45.8977 25.6741 46.2028 25.9808C46.5079 26.2875 46.5079 26.5942 46.6387 26.7694L46.7694 26.857ZM41.6261 29.8801L41.4081 30.143H41.4517C41.6261 30.0115 41.7568 30.2306 41.8876 30.0115C42.0184 29.7925 42.0184 29.6172 42.1491 29.4858C42.2799 29.3543 42.6286 29.2667 42.8465 29.3105C43.0645 29.3543 43.0645 29.2229 43.1952 29.6172C43.2824 29.8363 43.326 30.0992 43.2824 30.362C43.3696 30.4497 43.1081 30.7563 43.0645 31.3697C43.0209 31.9831 42.8901 31.5012 42.8901 31.9393V31.9831L43.1081 32.2021L43.1952 32.0269C43.326 31.6764 43.5439 31.5012 43.6747 31.6764C43.7619 31.9393 43.849 32.2021 43.8926 32.5088C45.1131 31.1068 46.0284 29.4858 46.5951 27.7333H46.5079L45.5054 27.9085H44.7208C44.7208 27.9085 44.5029 27.6895 44.4157 27.8209C44.3285 27.9523 44.2413 28.3467 43.8926 28.259C43.5439 28.1714 43.7183 27.8209 43.6311 27.7771C43.5439 27.7333 43.6311 27.9085 43.5003 28.1276L42.9773 28.96C42.9337 29.0915 42.2363 29.0915 42.1491 29.2667C42.0184 29.5296 41.844 29.7487 41.6261 29.8801ZM38.7493 27.9085L39.7082 28.8724C39.7082 28.6972 39.6646 28.4781 39.5774 28.3028L39.1416 28.0838L38.9672 27.9523L39.0544 27.7333H38.9236L38.7493 27.9085ZM38.1826 31.1945L38.6185 30.9316C38.4877 30.9316 38.357 30.9754 38.2698 31.1068L38.1826 31.1945ZM28.2882 30.4058C29.5086 31.4135 31.0342 32.0707 32.6034 32.2898C32.6034 32.3336 32.6034 32.3774 32.6034 32.465L32.8649 32.5527C33.1264 32.5965 33.3444 32.5088 33.5187 32.3336C33.7367 32.1145 33.6931 32.2898 33.8674 32.246L34.1725 31.764C34.3469 31.6764 34.3905 31.4573 34.4777 31.4573V32.3774C35.6109 32.2898 36.7006 31.9831 37.7032 31.4573C37.5288 31.4573 37.2673 31.1506 37.2237 31.1506C37.1801 31.1506 37.3109 31.5011 37.3109 31.5888C37.3109 31.6764 36.8314 31.8516 36.7442 31.764C36.657 31.6764 36.3083 31.4573 36.3083 31.5012C36.3083 31.545 36.0468 31.8516 36.0468 31.8516C36.0468 31.8516 35.4366 31.6326 35.2186 31.3697C35.0007 31.1068 34.8699 31.2383 34.8699 31.2383C34.8699 31.2383 34.5648 31.4135 34.4341 31.4573C34.3033 31.5012 34.2597 31.7202 34.129 31.764L33.8238 32.246C33.6495 32.2898 33.6931 32.1145 33.4751 32.3336C33.3008 32.5088 33.0828 32.5965 32.8213 32.5527L32.5598 32.465C32.5598 32.4212 32.5598 32.3336 32.5598 32.2898C32.5162 32.1583 32.5162 32.0707 32.5162 31.9393C32.5162 31.6326 32.5598 31.3697 32.6905 31.1068C32.7777 30.9754 32.9957 31.063 33.17 31.063V30.1868C33.17 30.143 33.17 30.0992 33.17 30.0553V29.1791C32.2111 29.0915 31.2957 28.6972 30.5112 28.1276L28.2882 30.4058ZM28.5061 24.9293V24.6664C28.4189 24.754 28.1138 24.7102 28.1574 24.8855C28.201 25.0607 28.2882 24.9293 28.5061 24.9293ZM25.455 26.0246C25.8037 27.2952 26.4575 28.4781 27.3292 29.4858L29.5958 27.2075L29.3343 26.857C29.1163 26.9447 29.2907 27.2513 29.1599 27.339C29.0292 27.4266 28.942 27.558 28.8984 27.6895C28.8548 27.8209 28.4625 28.1714 28.2882 27.9962C28.1138 27.8209 28.2446 26.9447 27.9831 26.9447C27.7215 26.9447 27.9395 27.0323 27.9831 27.339C28.0266 27.6457 27.8087 27.5142 27.7215 27.4704L27.2421 27.1199C26.9805 26.9008 27.1549 26.7256 27.1549 26.7256C27.1549 26.7256 26.9369 26.5503 26.8498 26.5503C26.7626 26.5503 26.8062 26.7256 26.6318 26.638C26.4575 26.5503 26.4575 26.2437 26.4575 26.2437C26.2395 26.2437 26.0216 26.1998 25.8037 26.1122L25.455 26.0246ZM33.17 15.422C31.3829 15.5534 29.6394 16.2106 28.2446 17.3935L29.5522 18.7079C29.7702 18.7517 29.7266 18.927 29.9881 19.0146C30.2496 19.1022 30.206 18.9708 30.424 18.927C30.6419 18.8832 30.5112 19.0584 30.5547 19.146C30.5983 19.2337 30.7727 19.0584 30.7727 19.0584C30.7727 19.0584 30.9034 19.146 31.165 19.0584C31.4265 18.9708 31.2957 18.7955 31.3829 18.6203C31.4701 18.445 31.4701 18.3574 31.4701 18.1822C31.4701 18.0069 31.7316 17.7879 31.8188 17.6564C31.906 17.525 32.0367 17.5688 32.1239 17.7002C32.2111 17.8317 32.0367 17.9193 32.0803 18.0507C32.1239 18.1822 32.5162 18.0069 33.1264 17.9193L33.17 15.422ZM39.1416 17.2621C37.7903 16.2106 36.1776 15.5534 34.4777 15.422V17.9193C34.7828 17.9631 35.0879 18.0507 35.3494 18.1822H35.4366C35.6109 17.8755 35.8725 17.7002 36.2212 17.6564C36.3519 17.5688 36.3083 17.4812 36.4391 17.3059C36.5699 17.1307 36.8314 17.3497 36.875 17.4812C36.9186 17.8755 36.8314 18.2698 36.6135 18.6203C36.4391 18.8394 36.2212 18.9708 35.9596 19.0584C36.3519 19.2337 36.7006 19.4527 37.0493 19.7156L37.3109 19.4965V19.3651L37.5724 19.1899L38.6621 18.0945H38.5749C38.4442 17.9631 38.0955 17.9631 38.7493 17.525L39.1416 17.2621ZM40.5364 18.5765L40.3184 18.3136L40.0569 18.5327C40.1877 18.7079 40.4056 18.927 40.362 18.8394C40.3184 18.7517 40.4492 18.7955 40.5364 18.5765ZM44.59 6.00231C44.7644 5.87087 44.808 6.04612 44.9823 6.08993C45.1567 6.13374 45.1567 5.95849 45.4182 6.08993C45.6362 6.17755 45.7669 6.3528 45.7669 6.57187C45.8105 6.7033 45.8541 6.87855 45.9413 7.00999C45.9849 7.14143 45.6797 7.31668 45.4618 7.18524C45.2875 7.0538 45.1567 6.92237 45.0695 6.74712L44.5465 6.3528C44.5029 6.22137 44.5029 6.08993 44.59 6.00231ZM34.8264 3.8555C34.8264 3.8555 34.9571 3.68025 35.0879 3.72406H35.5238L36.2648 3.46118L36.875 3.19831L37.0929 3.06687C37.7032 2.97925 38.3134 3.19831 38.7929 3.59262L39.0108 3.76787L38.9236 3.98693C38.7057 4.11837 38.4442 4.24981 38.1826 4.33743C38.0083 4.33743 37.8339 4.33743 37.6596 4.29362L37.1801 4.206L36.2212 4.46887C36.0032 4.51268 35.7417 4.46887 35.5238 4.42506L35.3058 4.33743L34.8699 3.98693L34.8264 3.8555ZM44.8952 14.4143L45.5926 15.2467V15.3782L44.8952 14.4143Z" fill="var(--fill-0, #D6D3CD)"/>
<path id="Vector_48" d="M46.2033 49.1138C46.334 49.1138 48.0775 48.7633 50.78 48.4566C53.4824 48.1499 54.6157 48.2813 56.5772 47.7994C58.0592 47.4489 59.4104 46.6603 60.4129 45.4773C60.4129 45.4773 60.5437 45.4335 60.5001 45.5649C59.454 47.4489 57.8848 48.9385 55.967 49.8586C53.7004 50.9101 51.1723 51.2606 48.6878 50.8663C47.8596 50.691 46.6827 50.3405 45.4623 49.99C44.329 49.6395 43.1085 49.4643 41.9317 49.3766C41.9317 49.3766 41.8445 49.2452 42.106 49.2014C43.1085 49.0261 44.0675 48.7633 45.0264 48.3689C46.7263 47.5803 48.1647 45.8716 49.298 44.8201C50.4313 43.7686 52.3056 41.8409 53.3953 41.359C53.3953 41.359 53.4824 41.359 53.3953 41.4904C52.8722 42.1914 52.4363 42.98 52.0876 43.7686C51.6953 44.9078 51.0851 45.9593 50.3005 46.8793C49.4724 47.7994 48.3827 48.588 46.2033 49.0699C46.2033 49.0699 46.0725 49.1576 46.2033 49.1138ZM65.5999 37.1968C65.164 39.5626 63.9435 41.7095 62.1129 43.2867C59.7591 45.4335 57.7976 46.2221 56.6644 46.485C55.5311 46.7479 54.3978 46.8793 53.3953 47.0984C52.4363 47.2736 51.521 47.5365 50.6056 47.8432C50.6056 47.8432 50.5185 47.887 50.5621 47.7994C51.1723 47.3174 51.6953 46.7479 52.1312 46.0907C53.2209 44.6449 54.1799 41.2713 54.1799 41.2713C54.485 40.3075 54.8773 39.2998 55.3131 38.3797C55.8798 37.1968 57.7105 34.6118 58.0592 34.349C58.4079 34.0861 58.2335 34.2613 58.1899 34.349C57.9284 34.9623 57.7105 35.6195 57.5361 36.2767C57.1438 38.1606 57.0567 40.0884 56.7951 40.8332C56.49 42.0161 55.967 43.1114 55.2696 44.0753C54.7029 44.7763 54.0927 45.3897 53.3953 45.9593C53.2209 46.0469 53.4389 46.0469 53.4389 46.0469C53.9183 45.7402 54.3978 45.4335 54.8773 45.083C55.6618 44.4258 56.4464 43.8563 57.3182 43.3305C58.4951 42.6295 59.7155 42.3228 61.9821 41.0085C63.5513 40.176 64.7717 38.8178 65.5127 37.1968C65.5127 37.1968 65.5563 36.9777 65.5563 37.153L65.5999 37.1968ZM60.2386 27.4704C60.1514 28.04 60.1514 28.6533 60.195 29.2229C60.2822 29.9677 61.1103 33.0346 61.0667 34.6556C61.0667 36.2767 60.5437 37.8978 59.6283 39.2121H59.7155C59.7155 39.2121 61.459 36.7586 62.2872 35.7071C63.1154 34.6556 64.8589 33.0346 65.6871 32.0707C66.6896 30.8878 67.3434 29.442 67.5613 27.9085H67.6049C67.8229 29.7487 67.6049 31.6326 66.9075 33.3413C66.2101 35.05 65.1204 36.5396 63.7256 37.7225C62.3308 38.8616 60.8052 39.9131 59.236 40.8332C58.4951 41.2713 57.7541 41.7533 57.1002 42.3228C57.1002 42.3228 57.0131 42.279 57.0131 42.2352C57.4925 41.3151 57.8848 40.3513 58.1899 39.3436C58.4515 37.9416 58.6258 36.5396 58.713 35.1376C58.8002 33.7794 59.1925 28.9162 60.1078 27.3828L60.2386 27.4704ZM59.8027 19.847C59.7591 19.7594 59.6283 19.628 59.6283 19.847C59.6283 21.5557 59.8463 23.3082 60.2822 24.9731C60.718 26.7256 61.8513 30.4497 61.9821 30.9754C62.2 32.1583 62.2 33.4289 61.9821 34.6118C61.9821 34.6118 61.9821 34.8309 62.1129 34.6995C62.6795 33.7794 63.2897 32.9031 63.9435 32.0707C64.5538 31.3697 66.0358 29.5296 66.428 28.5657C67.2998 26.6818 67.7357 24.5788 67.6485 22.4758C67.6049 20.9862 67.2998 19.4965 66.7332 18.1384C66.7332 18.1384 66.6024 18.0507 66.646 18.1822C66.7768 19.0146 66.7768 19.8032 66.6896 20.6357C66.5152 21.7748 66.1665 22.8263 65.6435 23.834C65.0332 25.1922 64.423 26.7694 64.2487 27.2952C64.0307 28.1714 63.8564 29.0477 63.7256 29.9677C63.6384 30.4935 63.4641 31.0192 63.2025 31.5012L63.1154 31.4135C63.4205 30.6687 63.5513 29.9239 63.5513 29.1353C63.5948 27.6895 63.2025 26.2875 62.5051 25.0607C61.7641 23.834 59.8899 21.0738 59.8027 19.847ZM63.0282 9.46349C62.8974 9.33205 62.941 9.5073 62.941 9.5073C63.5948 10.6026 63.9 11.8294 63.8564 13.0999C63.8128 15.3782 63.4641 15.5096 63.4205 17.525C63.4205 19.0146 63.5077 20.548 63.682 22.0377H63.5513C63.4641 21.0738 63.2461 20.1537 62.8538 19.2775C62.0693 17.5688 58.8873 14.9839 58.8873 14.9839C58.8873 14.9839 57.7976 13.9324 57.7105 13.3628C57.6233 12.7932 57.5361 13.3628 57.5361 13.3628C57.7976 14.6334 58.1899 15.8601 58.713 17.043C59.6283 19.0584 61.677 21.0738 62.2872 22.3005C62.8974 23.5273 63.2461 23.6149 63.7256 25.8932H63.8128C63.9 24.8417 64.1615 23.7902 64.5538 22.8263C65.2512 20.7233 65.4255 20.9423 65.8178 18.9708C66.0793 17.5688 66.0793 16.0792 65.7742 14.6772C65.6435 14.2829 64.9461 11.5227 63.0282 9.46349ZM62.6359 17.7002C62.3308 17.0869 61.9385 16.5173 61.459 15.9915C60.8924 15.3344 60.2386 14.721 59.5848 14.1514C58.713 13.4504 57.7541 12.837 57.1438 12.2675C56.5336 11.6979 54.5721 9.02536 54.6157 7.14143C55.008 7.84243 55.4439 8.49961 56.0105 9.06918C56.7951 9.8578 58.8002 10.9531 59.5848 11.6979C60.5001 12.4865 61.2411 13.4942 61.6334 14.6334H61.7641C61.7641 14.6334 60.8924 12.3113 60.6744 11.435C60.4565 10.2083 60.1514 8.98155 59.7591 7.7548C59.454 6.7033 58.7566 5.78324 57.7977 5.16987L57.8848 5.08224C57.8848 5.08224 61.2847 5.60799 62.5923 10.1207C62.9846 11.435 62.5487 14.4581 62.6359 15.641C62.7231 16.824 62.7667 17.6126 62.7667 17.6126L62.6359 17.7002ZM51.2159 2.05919L53.4389 2.84781C54.7465 3.28593 55.9234 4.03075 56.8823 4.99462C58.4515 6.74712 58.8873 8.28055 59.236 9.59493C59.3232 9.98924 59.4976 10.3835 59.7155 10.734C59.7591 10.734 59.6719 10.8217 59.6719 10.8217C59.6719 10.8217 56.708 8.4558 55.7926 7.44812C54.8773 6.44043 53.8747 4.64412 53.0902 3.89931L51.2159 2.05919ZM12.9457 51.392C12.9457 51.392 15.8661 54.7656 20.2249 54.8094C22.3171 54.8094 24.3657 54.1522 26.0657 52.9254C27.2861 52.0492 28.5502 51.2168 29.8578 50.4719C30.9475 49.9462 32.5603 50.3843 32.5603 50.3843C31.2962 50.8663 30.1193 51.5234 29.0296 52.3121C27.5477 53.3198 26.1964 54.5027 24.9324 55.7732L26.4144 57.0438C27.3297 55.8171 28.3758 54.7217 29.5527 53.7579C31.6013 52.0054 32.7782 51.3482 34.0422 50.8224C36.9626 52.3121 39.5343 54.3712 41.583 56.9562L43.0649 55.6856C43.0649 55.6856 39.6651 52.1806 35.4806 50.3405C35.4806 50.3405 35.8729 50.0776 37.66 50.2967C38.4446 50.3843 39.1856 50.9977 40.0574 51.6111C41.2343 52.4873 42.4547 53.2321 43.7623 53.8893C45.0264 54.4151 46.334 54.6779 47.6853 54.7217C50.5185 54.6779 53.2209 53.4074 55.0516 51.2168C55.0516 51.2168 55.0516 51.1291 54.9644 51.1729C53.3953 51.9616 52.5235 52.5749 49.9082 52.5311C48.5134 52.4873 46.7263 52.093 44.5033 51.0415C42.2804 49.99 40.7548 49.3328 38.0959 49.289C35.4371 49.2452 34.2166 49.7271 33.9551 49.8148C33.6935 49.9024 32.7346 49.2452 30.3809 49.2452C28.3758 49.2452 26.3708 49.7271 24.5401 50.6034C23.1889 51.2606 20.6608 52.7064 17.6968 52.6626C16.0404 52.6626 14.4713 52.1806 13.0765 51.3044C12.9893 51.3044 12.9457 51.392 12.9457 51.392ZM21.794 49.2452C21.6633 49.2452 19.8762 48.8947 17.1737 48.588C14.4713 48.2813 13.2508 48.4566 11.2894 47.9746C9.80738 47.6241 8.49974 46.8355 7.49722 45.6964C7.49722 45.6964 7.36646 45.6088 7.41004 45.7402C8.45615 47.6241 10.0253 49.1138 11.9432 50.0338C15.0815 51.6111 18.5685 51.1291 19.3967 50.9539C20.2249 50.7786 21.4018 50.4281 22.6222 50.0776C23.7991 49.7271 24.976 49.5081 26.1964 49.4643C26.1964 49.4643 26.2836 49.289 26.0221 49.289C25.0196 49.2014 24.017 48.9385 23.1017 48.4566C20.7044 47.2298 19.8762 46.0469 18.7429 44.9954C17.6096 43.9439 15.6917 42.06 14.602 41.578C14.602 41.578 14.5149 41.578 14.602 41.7095C15.1251 42.4104 15.561 43.1991 15.9097 43.9877C16.3456 45.1268 16.9122 46.1345 17.6968 47.0546C18.525 47.9746 19.7018 48.7633 21.8812 49.2452C21.794 49.1576 21.9248 49.2452 21.794 49.2452ZM2.22308 37.4158C2.70255 39.7817 3.92301 41.9285 5.7537 43.5058C8.10745 45.6526 10.2433 46.485 11.3765 46.7041L14.6456 47.2736C15.561 47.4489 16.4763 47.6679 17.3481 47.9746C17.3481 47.9746 17.4353 48.0184 17.3917 47.9308C16.825 47.4051 16.302 46.8355 15.8661 46.1783C14.7764 44.7325 13.7739 41.359 13.7739 41.359C13.4688 40.5265 13.1636 39.6941 12.7714 38.8616C12.2047 37.6787 10.1997 34.7871 9.85097 34.5242C9.50226 34.2613 9.67661 34.4366 9.7202 34.5242C9.98173 35.1376 10.2433 35.751 10.374 36.4081C10.592 37.5473 10.9407 40.2198 11.2022 40.9646C11.5073 42.1476 12.0304 43.2867 12.7714 44.2944C13.2944 44.9954 13.9482 45.6526 14.6456 46.1783C14.82 46.2659 14.602 46.2659 14.602 46.2659C14.079 45.9593 13.5559 45.6088 13.0765 45.2583C12.4662 44.6887 11.7688 44.2068 11.0714 43.7686C9.85097 43.0676 8.2818 42.5419 6.01523 41.1837C3.74866 39.8255 2.83332 38.3797 2.35385 37.372C2.35385 37.4158 2.22308 37.1968 2.22308 37.4158ZM7.41004 27.7333C7.49722 28.3467 7.54081 28.9162 7.49722 29.5296C7.41004 30.2744 6.66905 33.2975 6.71264 34.9185C6.71264 36.5396 7.23569 38.1606 8.19463 39.475H8.10745C8.10745 39.475 6.36393 37.0215 5.57935 35.97C4.79477 34.9185 2.96408 33.3413 2.1795 32.3336C1.17698 31.1945 0.435981 29.7925 0.130866 28.3028H0.0872779C-0.130662 30.0992 0.130866 31.9393 0.828272 33.648C1.52568 35.3566 2.61538 36.8463 4.05378 38.0292C5.44859 39.1683 6.97417 40.2198 8.54333 41.1399C9.28432 41.578 10.0253 42.06 10.6791 42.6295C10.6791 42.6295 10.7663 42.6295 10.7663 42.5857C10.2868 41.6656 9.89455 40.7018 9.58944 39.6941C9.32791 38.2921 9.15356 36.8901 9.06638 35.4881C8.97921 34.1299 8.45615 29.2229 7.5844 27.6895L7.41004 27.7333ZM7.80233 19.9785C7.84592 19.8909 7.97669 19.7594 7.97669 19.9785C7.88951 21.6872 7.71516 23.3958 7.41004 25.1045C7.01775 26.9008 5.84088 30.5811 5.71012 31.1068C5.53576 32.3336 5.53576 33.5165 5.71012 34.7433C5.71012 34.7433 5.71012 34.9623 5.57935 34.8309C5.44859 34.6995 4.35889 32.947 3.74866 32.2898C3.13843 31.6326 1.61285 29.7487 1.22056 28.7848C0.305217 26.6818 -0.0870737 24.4035 0.04369 22.1253C0.261629 19.146 0.915448 18.4012 0.915448 18.4012C0.915448 18.4012 1.04621 18.3136 1.00262 18.445C0.87186 19.2337 0.87186 20.0223 0.959036 20.8109C1.13339 22.0377 1.56927 23.2206 2.1795 24.3159C2.70255 25.3236 3.13843 26.4189 3.48713 27.5142C3.74866 28.3467 3.92301 29.1791 4.05378 30.0553C4.14095 30.5811 4.3153 31.1068 4.57683 31.5888H4.62042C4.3153 30.844 4.18454 30.0553 4.18454 29.2667C4.14095 27.8209 4.48966 26.4189 5.23065 25.1922C5.88447 23.9216 7.75875 21.2052 7.80233 19.9785ZM4.40248 9.72636C4.48966 9.59493 4.57683 9.72636 4.57683 9.72636C4.57683 9.72636 3.66149 10.8655 3.70507 13.1437C3.74866 15.422 4.14095 15.8163 4.18454 17.8755C4.18454 19.3651 4.09736 20.8109 3.92301 22.3005H4.05378C4.09736 21.249 4.35889 20.2413 4.83836 19.3213C5.66653 17.6564 8.80486 15.0715 8.80486 15.0715C8.80486 15.0715 9.76379 14.1076 9.89455 13.4942C10.0253 12.8809 10.0253 13.538 10.0253 13.538C9.85097 14.7648 9.50226 15.9477 8.97921 17.043C8.06386 19.0584 6.18958 21.03 5.53576 22.2567C4.88195 23.4835 4.40248 23.8778 3.9666 26.156H3.83584C3.70507 25.0607 3.44355 24.0092 3.05125 23.0015C2.35385 20.8985 2.1795 21.2052 1.78721 19.2775C1.52568 17.7879 1.52568 16.2106 1.83079 14.721C2.26667 12.8809 3.13843 11.1722 4.40248 9.72636ZM4.92553 17.9631C5.23065 17.3059 5.66653 16.7364 6.146 16.2106C6.75623 15.5534 7.36646 14.94 8.06386 14.3705C8.89203 13.6695 9.89455 13.0123 10.5048 12.4427C11.115 11.8732 12.9021 9.20061 12.8585 7.31668C12.5534 8.01768 12.1175 8.67487 11.5945 9.24443C10.8099 10.0331 8.80486 11.216 7.97669 11.9608C7.01775 12.7494 6.32035 13.8009 5.88447 14.94H5.84088C5.84088 14.94 6.66905 12.5742 6.88699 11.6979C7.10493 10.4712 7.41004 9.24443 7.80233 8.01768C8.10745 6.96618 8.80486 6.04612 9.7202 5.47656C9.76379 5.47656 9.7202 5.38893 9.7202 5.38893C9.7202 5.38893 6.23317 5.91468 4.96912 10.4274C4.57683 11.7417 5.09989 14.8086 5.01271 15.9915C4.92553 17.1745 4.92553 17.9193 4.92553 17.9631L5.01271 17.9193V17.8317M16.084 2.27825L14.1226 2.97925C12.8149 3.41737 11.5945 4.16218 10.592 5.16987C9.0228 6.92237 8.58692 8.54343 8.23821 9.8578C7.88951 11.1722 7.84592 11.0845 7.84592 11.0845C7.84592 11.0845 10.8535 8.71868 11.7252 7.71099C12.597 6.7033 13.6431 4.81937 14.3841 4.07456L16.084 2.27825Z" fill="var(--fill-0, #D6D3CD)"/>
</g>
<defs>
<clipPath id="clip0_1818_2612">
<rect width="242" height="57" fill="white"/>
</clipPath>
</defs>
</svg>
