<svg preserveAspectRatio="none" width="100%" height="100%" overflow="visible" style="display: block;" viewBox="0 0 226 50" fill="none" xmlns="http://www.w3.org/2000/svg">
<path id="Vector" fill-rule="evenodd" clip-rule="evenodd" d="M0.875719 1.10846C6.52096 8.03115 12.7193 16.7281 13.7218 18.1348C13.7753 18.2098 13.814 18.2641 13.837 18.2963C14.3715 19.0426 14.8126 19.5974 15.1477 20.0187C15.8915 20.954 16.1122 21.2316 15.6684 21.4866C15.3104 21.6921 14.9411 21.7599 14.5726 21.7599C14.1558 21.7599 13.6862 21.5571 13.3443 21.2294C13.1026 20.9979 11.4489 18.5712 9.19706 15.041C7.47409 12.3397 6.03216 10.0989 5.99283 10.0614C5.90188 9.97464 5.90344 9.97758 9.02139 15.6142C10.9792 19.1536 12.3184 21.7692 12.3184 21.9365C12.3184 22.2769 12.2265 22.4558 11.8109 22.9242C11.1181 23.7052 10.8084 24.5826 10.5848 26.3984C10.3342 28.4339 9.62947 29.872 7.67641 32.3328C6.53315 33.7735 6.34609 34.0375 6.05761 34.6182C5.69427 35.3494 5.59434 35.7589 5.55384 36.6822C5.51105 37.6585 5.59441 38.2892 5.8896 39.2224C6.14804 40.0395 6.41778 40.5792 7.10738 41.6585C7.70252 42.5896 8.04519 43.2817 8.04519 43.5525C8.04519 43.7679 8.08589 43.7682 9.00809 43.5579C11.215 43.0542 13.007 42.1688 14.0149 41.0834C14.6387 40.4116 14.7851 40.0407 14.7899 39.1202C14.793 38.5181 14.772 38.3921 14.6109 38.0457C14.3487 37.4817 13.8713 37.0131 12.8192 36.2864C11.4406 35.3341 10.8517 34.5676 10.6891 33.5133C10.5557 32.6484 10.7105 32.038 11.4731 30.4231C12.2625 28.7514 12.4581 28.039 12.5905 26.3539C12.6759 25.2653 12.7943 24.836 13.1038 24.4915C13.4267 24.1321 13.7174 24.0104 14.5164 23.8999C15.819 23.7203 16.6485 23.3797 17.3303 22.7449C17.9218 22.1943 18.1693 21.6636 18.2073 20.8648L18.2361 20.2594L17.9056 19.87C16.7086 18.4599 0.0741173 0 0.000455595 0C-0.0152807 0 0.378604 0.498841 0.875719 1.10846ZM8.71712 37.7869C8.98775 37.3025 8.84396 36.6801 8.39125 36.3759C7.96352 36.0886 7.29908 36.224 7.29908 36.5984C7.29908 36.7126 7.36161 36.7957 7.50258 36.8692C7.7399 36.9926 7.75713 37.1313 7.5704 37.4148C7.38129 37.7021 7.39654 37.9545 7.61346 38.126C7.96305 38.4027 8.45792 38.2505 8.71712 37.7869ZM16.8629 11.3796C16.3289 11.2959 16.3064 11.2861 16.5577 11.2471C17.0393 11.1723 18.1764 11.2742 18.96 11.4625C20.7894 11.9019 22.4541 13.0274 24.231 15.0263L24.703 15.5573L25.3784 15.4477C28.2234 14.9857 31.1176 15.3528 33.5384 16.4827C34.2044 16.7936 35.2544 17.4123 35.3855 17.5713C35.4272 17.622 35.5041 17.9482 35.5559 18.2963C35.7358 19.5005 35.6459 20.4236 35.2812 21.113C35.083 21.4882 35.0719 21.6071 35.2052 21.9282C35.3116 22.1844 35.6084 22.374 35.9025 22.3736C36.5039 22.3728 37.1513 21.3902 37.4515 20.0231L37.5706 19.4801L37.8067 19.7502C39.1015 21.2326 40.1188 23.2541 40.2935 24.693L40.3389 25.0682L40.1214 24.7272C39.7466 24.1404 39.3704 23.7408 38.8882 23.4185C38.0196 22.8377 37.1007 22.64 34.6679 22.5105C32.4706 22.3935 31.2271 22.2039 29.994 21.7976C27.8957 21.1065 26.8382 20.186 24.3458 16.8823C23.2389 15.4149 22.5548 14.603 21.8742 13.9492C20.3277 12.4636 18.8081 11.6845 16.8629 11.3796ZM35.881 14.656C35.9364 13.6727 36.0684 13.0241 36.3337 12.4318C36.4387 12.1974 36.5371 12.0055 36.5522 12.0055C36.5675 12.0055 36.5218 12.1785 36.4507 12.39C36.2579 12.9648 36.2262 13.751 36.3592 14.6658C36.5277 15.8264 36.6238 15.9939 37.8378 17.2476C38.4073 17.8357 39.0698 18.5774 39.3099 18.8958L39.7466 19.4748L39.3099 19.061C38.776 18.555 37.548 17.5682 37.2768 17.4271C37.0948 17.3325 37.0678 17.3341 36.9557 17.447C36.8524 17.5509 36.8305 17.7071 36.8161 18.4456C36.7937 19.5966 36.6386 20.3353 36.2638 21.074C36.0611 21.4735 36.0291 21.3882 36.2125 20.9373C36.3495 20.6006 36.3634 20.4526 36.3625 19.3384C36.3603 17.0997 36.0971 16.5615 34.5545 15.6395C34.1639 15.406 33.5198 15.0691 33.1236 14.8909C32.7276 14.7128 32.4129 14.5576 32.4242 14.546C32.468 14.5021 33.9725 14.9457 34.578 15.1811C35.4787 15.5311 35.6273 15.5765 35.7367 15.5343C35.8099 15.506 35.8455 15.2902 35.881 14.656ZM16.2906 12.9373C16.1454 14.6657 16.8161 16.9777 17.9002 18.4857C18.7406 19.6547 20.0433 20.5631 21.0051 20.6508C21.6348 20.7082 21.824 20.509 21.5391 20.0887C21.1436 19.5051 20.6572 18.6065 20.5284 18.2217C20.4485 17.9827 20.2747 17.2767 20.1422 16.6528C19.69 14.5229 19.2455 13.6934 18.2188 13.0634C17.8446 12.8338 17.0456 12.5333 16.5822 12.4479L16.3355 12.4024L16.2906 12.9373ZM34.5662 29.7088C29.4998 27.6479 27.7154 25.8589 27.7154 22.8404C27.7154 22.3962 27.7307 22.0328 27.749 22.0328C27.7676 22.0328 27.9635 22.1794 28.1846 22.3586C29.2119 23.1911 30.3624 23.5467 33.5473 24.016C35.4213 24.2925 36.4759 24.5155 37.4489 24.8416C40.5411 25.8778 42.4543 27.9804 42.9106 30.8446C43.0431 31.6768 42.9654 33.2373 42.7505 34.0599C42.5808 34.7096 42.0628 35.8804 41.9256 35.9254C41.8875 35.9379 41.85 35.7904 41.8404 35.5898C41.7883 34.5144 41.2504 33.4674 40.3471 32.683C39.32 31.7912 37.94 31.0815 34.5662 29.7088ZM30.7647 29.4821C30.8358 29.6961 30.946 30.1833 31.0093 30.5651C31.4152 33.0051 30.1475 34.9766 27.6815 35.7405C27.4204 35.8213 26.3921 36.0248 25.3963 36.1922C23.3805 36.5313 22.4808 36.7715 21.577 37.2114C20.936 37.5234 20.16 37.9906 20.2061 38.037C20.221 38.052 20.3673 38.0167 20.5312 37.9585C21.6709 37.5542 22.9394 37.3449 24.8666 37.2436C25.6315 37.2036 26.5013 37.1395 26.7998 37.1016C28.5167 36.8831 29.7068 36.3561 30.6322 35.4045C31.147 34.8749 31.454 34.3816 31.7014 33.6859C31.8582 33.2446 31.8794 33.0807 31.8806 32.2989C31.882 31.5023 31.8629 31.3565 31.693 30.8665C31.4705 30.2241 31.208 29.7421 30.8756 29.365L30.6355 29.0928L30.7647 29.4821ZM33.3319 34.7324C32.6587 33.2703 32.5042 31.8588 32.8729 30.5425C32.9124 30.4016 32.9758 30.2865 33.0141 30.2865C33.0523 30.2865 33.2109 30.3734 33.367 30.4794C33.6771 30.6903 34.2993 31.0457 35.9566 31.9587C38.025 33.0979 39.2042 33.9801 40.006 34.9882C40.7083 35.8707 41.1428 36.876 41.3519 38.102C41.4705 38.7964 41.4011 40.4674 41.2248 41.1665C40.6687 43.3714 39.3763 45.1031 37.533 46.1138C37.2629 46.2617 37.0205 46.3832 36.9941 46.3839C36.968 46.3844 37.0664 46.1317 37.2128 45.8221C37.8329 44.5123 37.9035 43.2383 37.4348 41.8205C37.1476 40.9522 36.5623 39.8928 35.3805 38.1022C34.0066 36.0205 33.6698 35.4664 33.3319 34.7324ZM20.6525 39.5278C18.5217 39.8775 16.1824 41.0168 14.3023 42.6207L13.7426 43.0982L14.2345 43.1759C16.8015 43.5807 17.4927 43.9398 19.2733 45.7931C20.2979 46.8594 20.644 47.0967 21.4939 47.316C22.7422 47.6379 23.9727 47.0463 24.3948 45.9212C24.5834 45.4184 24.5582 44.586 24.3418 44.168C23.8272 43.1726 22.3279 42.851 21.6029 43.58C20.999 44.1873 21.175 45.1022 21.926 45.2595C22.098 45.2957 22.0931 45.288 21.8822 45.1917C21.5535 45.0414 21.4107 44.8333 21.4089 44.5019C21.4047 43.7251 22.2846 43.289 23.1031 43.662C23.7025 43.9354 23.9405 44.2923 23.9405 44.9183C23.9405 45.8821 23.1286 46.6083 22.1837 46.4896C21.6787 46.4261 21.061 46.0997 20.7298 45.7215C19.8965 44.7694 20.2211 43.2671 21.3846 42.6906C22.2704 42.2519 23.4478 42.36 24.3609 42.964C25.4099 43.6582 25.856 44.2926 26.7596 46.3747C27.0538 47.0527 27.4324 47.8159 27.6007 48.0707C28.4567 49.3651 29.4822 50 30.7174 50C31.3987 50 31.9112 49.8743 32.556 49.5491C33.0351 49.3072 33.7143 48.8478 33.6653 48.7986C33.6514 48.7847 33.4527 48.8471 33.2236 48.9373C31.8749 49.4687 30.5039 49.4323 29.7077 48.8433C29.2063 48.4727 28.8018 47.7342 28.5939 46.8106C28.5579 46.6507 28.4393 45.9447 28.33 45.2416C28.0532 43.4594 27.7874 42.6583 27.1676 41.739C26.5333 40.7985 25.3141 40.0091 23.9511 39.6566C23.1006 39.4367 21.5708 39.3769 20.6525 39.5278ZM17.6682 25.749C17.8522 25.0623 18.4466 24.4074 19.0582 24.2176C19.447 24.097 20.2508 24.174 20.6288 24.3681C21.3612 24.7444 21.8929 25.6013 21.7775 26.2199C21.6368 26.9742 20.4261 27.5777 19.0334 27.5876C18.3221 27.5926 18.0594 27.496 17.7877 27.1296C17.6196 26.9026 17.5559 26.1679 17.6682 25.749ZM20.4417 24.637C20.807 24.8624 20.9009 25.1956 20.6862 25.5038C20.5383 25.7162 20.0803 25.918 19.7456 25.918C19.2428 25.918 18.6943 25.5573 18.6943 25.2269C18.6943 24.5631 19.7462 24.2077 20.4417 24.637ZM129.604 26.5378C128.468 22.7577 130.342 19.6222 134.34 18.6147C135.486 18.3255 140.678 18.456 141.567 18.7964C141.894 18.9211 142.036 19.3999 142.039 20.3837C142.042 21.1586 142.126 22.0997 142.227 22.475C142.38 23.0438 142.29 23.1558 141.69 23.1466C141.147 23.1382 140.819 22.82 140.361 21.8573C139.629 20.3197 138.743 19.8307 136.677 19.8249C134.041 19.8173 132.111 21.5931 132.425 23.7386C132.63 25.1348 134.025 26.5086 137.154 28.3972C140.132 30.1937 141.87 31.6711 142.563 32.9948C144.414 36.5336 142.833 40.3207 138.707 42.2288C136.59 43.2082 133.04 43.3094 130.545 42.4617L128.947 41.9187V39.3646C128.947 37.0515 129.002 36.8101 129.529 36.8101C129.97 36.8101 130.16 37.1016 130.315 38.0148C130.7 40.2856 132.425 41.6641 134.882 41.6641C137.289 41.6641 138.972 40.3487 139.616 37.9635C139.891 36.9474 139.843 36.5727 139.299 35.4518C138.646 34.1079 137.523 33.2161 133.706 31.0139C131.589 29.7917 130.091 28.1577 129.604 26.5378ZM54.7937 20.1237C54.273 20.1237 54.0698 19.9535 54.0698 19.517C54.0698 18.939 54.273 18.9102 58.3535 18.9102C62.1408 18.9102 62.6256 18.9672 62.5387 19.402C62.4843 19.6726 61.961 20.0479 61.375 20.2363L60.3095 20.5788L60.2187 28.3153C60.1577 33.4775 60.2434 36.4555 60.4757 37.265C61.1667 39.6729 63.2744 41.0575 66.2481 41.0575C68.3184 41.0575 69.5277 40.5734 71.0471 39.1355C72.6814 37.5898 72.942 36.1211 72.9368 28.4876C72.9319 20.9581 72.8007 20.3367 71.1841 20.1805C70.4485 20.1092 70.202 19.9377 70.202 19.4978C70.202 18.9493 70.4447 18.9102 73.8545 18.9102C77.304 18.9102 77.507 18.9439 77.507 19.517C77.507 19.8907 77.3024 20.1255 76.9742 20.1283C75.5645 20.1407 75.5386 20.2749 75.3489 28.5312C75.1521 37.1052 74.9682 38.1203 73.2311 40.2206C72.7301 40.8265 71.5354 41.7063 70.5763 42.1758C69.0134 42.9409 68.5162 43.0287 65.7884 43.0238C63.2739 43.0186 62.4801 42.8971 61.2227 42.3246C59.3874 41.4889 58.1938 40.4073 57.3139 38.782C56.6996 37.6475 56.6471 37.0336 56.505 29.3467C56.342 20.5479 56.2632 20.1237 54.7937 20.1237ZM83.2758 20.1237C82.58 20.1237 82.377 19.9866 82.377 19.517C82.377 18.9481 82.5715 18.9117 85.4968 18.9351L88.6167 18.9599L90.1095 20.6795C90.93 21.6252 93.6052 24.5835 96.0538 27.2532C98.5026 29.9231 101.314 33.0289 102.301 34.1553C103.288 35.2818 104.218 36.2033 104.366 36.2033C104.519 36.2033 104.595 33.0214 104.54 28.8953L104.444 21.5873L103.59 20.8555C103.121 20.4529 102.402 20.1237 101.992 20.1237C101.448 20.1237 101.249 19.9587 101.249 19.5085C101.249 18.9159 101.404 18.8962 105.434 18.9775C108.86 19.0467 109.619 19.1423 109.619 19.5045C109.619 19.7627 109.195 20.0337 108.601 20.1547C108.042 20.2688 107.425 20.52 107.232 20.7129C106.982 20.962 106.854 24.1825 106.792 31.819L106.705 42.5743H105.823C105.063 42.5743 104.159 41.7195 99.3263 36.4307C96.2384 33.0515 92.6339 29.0356 91.3165 27.5064C89.9989 25.9769 88.8183 24.714 88.6928 24.7001C88.3394 24.6606 88.4249 38.3247 88.7862 39.6218C89.068 40.6325 89.2618 40.8065 90.4589 41.1258C91.4229 41.3827 91.8128 41.6434 91.8128 42.0305C91.8128 42.5276 91.4453 42.5743 87.5515 42.5743C83.5878 42.5743 83.2902 42.5347 83.2902 42.0056C83.2902 41.6182 83.5769 41.3797 84.1895 41.2574C86.0481 40.887 86.1715 40.299 86.2758 31.3106C86.3341 26.2764 86.2485 22.7541 86.0491 22.0166C85.6988 20.7196 84.8258 20.1237 83.2758 20.1237ZM115.192 20.1237C114.54 20.1237 114.337 19.9796 114.337 19.517C114.337 18.9372 114.54 18.9102 118.902 18.9102C123.265 18.9102 123.468 18.9372 123.468 19.517C123.468 19.962 123.265 20.1237 122.707 20.1237C122.289 20.1237 121.667 20.4023 121.325 20.7427C120.722 21.3437 120.707 21.6425 120.793 30.931C120.876 39.9983 120.912 40.523 121.472 40.9306C121.797 41.1672 122.379 41.3608 122.765 41.3608C123.265 41.3608 123.468 41.5358 123.468 41.9677C123.468 42.5474 123.265 42.5743 118.902 42.5743C114.643 42.5743 114.337 42.5361 114.337 42.0065C114.337 41.5793 114.635 41.3907 115.543 41.2461C117.344 40.9591 117.436 40.3713 117.323 29.8831C117.234 21.4839 117.195 20.9602 116.637 20.5539C116.312 20.3173 115.662 20.1237 115.192 20.1237ZM147.04 20.1237C146.623 20.1237 146.307 19.8929 146.208 19.517C146.054 18.9302 146.199 18.9102 150.586 18.9102C154.92 18.9102 155.123 18.9372 155.123 19.517C155.123 19.9833 154.92 20.1237 154.247 20.1237C152.331 20.1237 152.374 20.4708 155.274 28.405C156.75 32.4438 158.184 36.2803 158.459 36.9304L158.96 38.1128L161.284 31.9245C164.021 24.6403 164.377 23.2932 163.912 21.9647C163.588 21.0387 162.329 20.1237 161.378 20.1237C161.11 20.1237 160.906 19.8628 160.906 19.517C160.906 18.9363 161.11 18.9102 165.624 18.9102C170.139 18.9102 170.342 18.9363 170.342 19.517C170.342 19.9487 170.139 20.1237 169.639 20.1237C168.36 20.1237 167.795 20.8039 167.979 22.1255C168.169 23.4859 173.404 38.1069 173.623 37.8881C173.98 37.5323 179.778 21.7927 179.778 21.1792C179.778 20.4441 179.262 20.1237 178.079 20.1237C177.546 20.1237 177.343 19.9566 177.343 19.517C177.343 18.9439 177.546 18.9102 180.995 18.9102C184.094 18.9102 184.648 18.9818 184.648 19.3811C184.648 19.6402 184.268 19.9839 183.804 20.145C182.761 20.5075 182.499 20.9213 181.19 24.2734C180.616 25.7454 178.817 30.3524 177.193 34.5106C175.569 38.6692 174.17 42.2531 174.085 42.4746C173.999 42.6965 173.496 42.8778 172.966 42.8778H172.003L169.816 37.1892C168.613 34.0608 167.193 30.3543 166.659 28.9527C165.744 26.551 165.668 26.4467 165.324 27.1322C165.123 27.5327 163.678 31.2458 162.113 35.3838L159.268 42.9075L158.206 42.8168L157.144 42.7261L153.093 32.1313C150.831 26.2119 148.75 21.2244 148.378 20.83C148.011 20.4414 147.41 20.1237 147.04 20.1237ZM207.901 20.2524C207.85 20.1371 207.85 19.723 207.85 19.723C207.85 19.723 207.838 19.5736 207.901 19.4939C207.963 19.4145 207.986 19.4124 208.209 19.3911L208.212 19.3909C209.033 19.3127 210.682 19.1811 212.058 19.121C212.184 19.1155 212.324 19.1092 212.477 19.1023L212.48 19.1021L212.482 19.102L212.483 19.102C213.997 19.0332 216.707 18.9413 218.57 19.0344C222.143 19.213 224.685 20.9409 225.551 23.7963C226.417 26.6516 225.959 29.3318 224.779 31.0379C223.598 32.744 221.613 34.2129 218.313 34.1173C215.588 34.0385 214.859 33.5282 214.277 33.1205C214.154 33.0343 214.037 32.9526 213.91 32.8808V36.5221C213.939 39.0055 213.959 40.1982 214.152 40.6398C214.411 41.2341 214.996 41.6003 216.137 41.881C216.137 41.881 216.653 42.002 216.786 42.1311C216.919 42.2601 216.919 42.5467 216.919 42.5467C216.919 42.5467 216.946 42.8147 216.84 42.9513C216.732 43.0878 216.526 43.0605 216.526 43.0605L211.474 43.0198L208.428 43.0118C208.428 43.0118 208.108 43.073 207.988 42.9444C207.869 42.8156 207.88 42.5474 207.88 42.5474C207.88 42.5474 207.906 42.2585 208.046 42.1292C208.186 41.9997 208.706 41.8551 208.706 41.8551C209.88 41.5252 210.39 41.1762 210.656 40.5187C210.871 39.9886 210.872 39.0057 210.87 30.9845C210.868 23.3776 210.857 21.9587 210.682 21.5506C210.424 20.9465 209.778 20.7864 208.858 20.5585L208.858 20.5584C208.675 20.5133 208.482 20.4654 208.279 20.4109C208.279 20.4109 207.952 20.3676 207.901 20.2524ZM222.611 26.4594C222.611 27.7068 222.589 29.6596 221.261 30.9079C219.934 32.1562 217.32 32.4979 215.546 32.1503C214.986 32.0408 214.667 31.872 214.42 31.7418L214.395 31.7288L213.941 31.4896L213.915 27.107C213.898 24.361 213.927 22.572 213.992 22.3162C214.051 20.8683 216.186 20.6882 217.229 20.7418C221.693 20.7418 222.481 24.5035 222.611 26.4594ZM193.885 19.0801C193.885 19.0801 193.667 19.1638 193.336 19.2891L192.145 19.9048L191.286 22.0479C190.815 23.2266 189.951 25.3903 189.368 26.8562C188.306 29.5261 187.604 31.2802 186.866 33.1111C186.649 33.6497 185.993 35.2896 185.409 36.7555C184.825 38.2211 184.241 39.6161 184.112 39.8554C184.09 39.8952 184.067 39.938 184.043 39.9832C183.717 40.5974 183.149 41.6641 182.147 41.8254C182.147 41.8254 181.596 41.8796 181.392 42.0812C181.188 42.283 181.208 42.4478 181.208 42.4478V42.7019C181.208 42.7019 181.226 42.825 181.342 42.8863C181.457 42.9477 181.614 42.9513 181.614 42.9513L185.28 42.9096H189.068C189.068 42.9096 189.336 42.9409 189.44 42.8552C189.543 42.7695 189.571 42.6423 189.571 42.6423V42.3748C189.571 42.3748 189.519 42.0847 189.369 41.9714C189.219 41.8584 188.656 41.7809 188.656 41.7809C187.14 41.5815 186.879 40.434 187.066 39.4021C187.158 38.8951 187.767 37.0197 188.454 35.1316L188.691 34.479L192.661 34.4487C194.845 34.4319 196.73 34.4432 196.85 34.4739C197.023 34.5174 197.264 35.0075 197.972 36.7529C199.046 39.3974 199.131 39.7195 198.894 40.2142C198.879 40.2444 198.864 40.2776 198.847 40.3134C198.624 40.7919 198.191 41.7216 197.1 41.8162C197.1 41.8162 196.522 41.8363 196.378 42.0093C196.234 42.1827 196.265 42.3819 196.265 42.3819V42.6466C196.265 42.6466 196.303 42.8017 196.378 42.8632C196.452 42.9247 196.578 42.9091 196.578 42.9091L200.181 42.8832L205.247 42.883C205.247 42.883 205.445 42.9042 205.5 42.8279C205.553 42.7513 205.565 42.6614 205.565 42.6614V42.3098C205.565 42.3098 205.543 42.1228 205.445 42.0197C205.348 41.9168 204.691 41.808 204.691 41.808C203.852 41.6726 203.434 40.9798 203.123 40.4639C203.043 40.3322 202.971 40.2121 202.9 40.1158C202.756 39.9192 202.241 38.8416 201.837 37.8052C201.434 36.7689 200.524 34.4277 199.815 32.6029C199.106 30.7782 198.117 28.2326 197.616 26.9464C197.116 25.6599 196.165 23.2123 195.504 21.5072C195.395 21.2273 195.298 20.9759 195.211 20.7509L195.21 20.7499C194.767 19.6047 194.588 19.1427 194.539 19.0801C194.379 18.877 193.885 19.0801 193.885 19.0801ZM193.649 26.0483C193.489 25.6595 193.208 24.962 193.024 24.4983C192.69 23.6555 192.563 23.4614 192.459 23.6355C192.429 23.6864 192.218 24.2623 191.992 24.9156C190.523 29.1449 189.857 31.0492 189.724 31.4081C189.64 31.6337 189.571 31.8661 189.571 31.9247C189.571 31.9921 190.766 32.0314 192.814 32.0314C194.597 32.0314 196.056 32.0093 196.056 31.9822C196.056 31.9551 195.897 31.5515 195.702 31.0848C195.508 30.6181 195.032 29.4531 194.644 28.4959C194.257 27.5386 193.809 26.4373 193.649 26.0483Z" fill="var(--fill-0, #D6D3CD)"/>
</svg>
