<svg width="281" height="101" viewBox="0 0 281 101" fill="none" xmlns="http://www.w3.org/2000/svg">
<path d="M24.3266 42.1661C32.1544 34.6113 44.8456 34.6113 52.6734 42.1661L53.6155 43.0753C54.0069 43.4531 54.0069 44.0655 53.6155 44.4433L50.3928 47.5535C50.1972 47.7424 49.8799 47.7424 49.6841 47.5535L48.3877 46.3024C42.927 41.0319 34.0731 41.0319 28.6123 46.3024L27.2239 47.6423C27.0283 47.8312 26.7109 47.8312 26.5152 47.6423L23.2925 44.532C22.9012 44.1542 22.9012 43.5418 23.2925 43.164L24.3266 42.1661ZM59.3383 48.5986L62.2064 51.3667C62.5979 51.7444 62.5979 52.3568 62.2064 52.7346L49.2736 65.2168C48.8822 65.5944 48.2476 65.5944 47.8562 65.2168L38.6772 56.3579C38.5794 56.2633 38.4208 56.2633 38.323 56.3579L29.1441 65.2168C28.7528 65.5944 28.1182 65.5944 27.7268 65.2168L14.7935 52.7345C14.4022 52.3567 14.4022 51.7443 14.7935 51.3665L17.6617 48.5984C18.0531 48.2206 18.6877 48.2206 19.0791 48.5984L28.2582 57.4573C28.3561 57.5518 28.5146 57.5518 28.6125 57.4573L37.7912 48.5984C38.1825 48.2206 38.8171 48.2206 39.2085 48.5983L48.3876 57.4573C48.4855 57.5518 48.6441 57.5518 48.7419 57.4573L57.9209 48.5986C58.3122 48.2208 58.9468 48.2208 59.3383 48.5986Z" fill="#D6D3CD"/>
<path d="M79.811 61.5958L83.2653 47.779C83.47 47.0179 83.6457 46.1983 83.8799 44.9104C84.0555 46.1983 84.2604 47.0179 84.4068 47.779L87.3927 61.5958H93.5692L98.7797 41.1049H94.0375L91.1689 53.6922C90.8761 54.9215 90.7005 55.8875 90.4956 57.3219C90.2614 55.9461 90.0272 54.9215 89.7637 53.7214L86.9829 41.1049H80.777L77.762 53.7214C77.4985 54.9215 77.2936 55.8875 77.0594 57.3219C76.8252 55.8875 76.6203 54.9215 76.3568 53.7214L73.5467 41.1049H68.5996L73.7809 61.5958H79.811Z" fill="#D6D3CD"/>
<path d="M102.315 62.1225C104.657 62.1225 106.15 61.1566 106.911 59.7515C106.823 60.1906 106.794 60.6297 106.794 61.0688V61.5957H110.717V53.1359C110.717 49.0963 108.872 46.7544 104.364 46.7544C100.471 46.7544 97.9244 48.9206 97.6902 51.9064H101.993C102.14 50.5891 103.076 49.7987 104.511 49.7987C105.857 49.7987 106.589 50.5598 106.589 51.438C106.589 52.082 106.209 52.4626 105.067 52.609L103.018 52.8432C99.9735 53.2237 97.3682 54.336 97.3682 57.5561C97.3682 60.4833 99.7979 62.1225 102.315 62.1225ZM103.633 59.1074C102.491 59.1074 101.642 58.4634 101.642 57.3512C101.642 56.268 102.608 55.7411 104.072 55.4777L105.067 55.302C105.916 55.1264 106.384 54.98 106.677 54.7165V56.0631C106.677 57.878 105.36 59.1074 103.633 59.1074Z" fill="#D6D3CD"/>
<path d="M112.756 41.1047V61.5956H117V41.1047H112.756Z" fill="#D6D3CD"/>
<path d="M119.456 41.1047V61.5956H123.701V41.1047H119.456Z" fill="#D6D3CD"/>
<path d="M132.966 62.1225C137.006 62.1225 139.612 59.8393 139.905 56.8535H135.631C135.425 58.1707 134.313 58.9025 132.966 58.9025C131.151 58.9025 129.834 57.439 129.805 55.4191H139.992V54.5994C139.992 49.8573 137.387 46.7544 132.879 46.7544C128.546 46.7544 125.502 49.7987 125.502 54.3945C125.502 59.3709 128.634 62.1225 132.966 62.1225ZM129.776 52.6382C129.951 50.9989 131.151 49.7987 132.849 49.7987C134.488 49.7987 135.631 50.9404 135.659 52.6382H129.776Z" fill="#D6D3CD"/>
<path d="M148.975 61.8884C149.912 61.8884 150.82 61.742 151.23 61.6249V58.4048C150.907 58.4634 150.527 58.4926 150.204 58.4926C148.654 58.4926 148.097 57.6146 148.097 56.1802V50.5598H151.551V47.252H148.097V42.1586H143.881V47.252H140.778V50.5598H143.881V56.7656C143.881 60.1612 145.579 61.8884 148.975 61.8884Z" fill="#D6D3CD"/>
<path d="M163.303 62.1226C169.099 62.1226 172.612 58.7269 173.05 53.8383H168.455C168.104 56.5022 166.23 58.317 163.478 58.317C160.23 58.317 157.946 55.6826 157.946 51.2331C157.946 46.8715 160.317 44.3834 163.567 44.3834C166.347 44.3834 167.928 46.0811 168.249 48.5693H172.963C172.495 43.4759 168.748 40.5779 163.596 40.5779C157.712 40.5779 153.204 44.559 153.204 51.2331C153.204 58.1414 157.155 62.1226 163.303 62.1226Z" fill="#D6D3CD"/>
<path d="M182.252 62.1225C186.673 62.1225 189.805 59.3416 189.805 54.4824C189.805 49.7109 186.673 46.7544 182.252 46.7544C177.862 46.7544 174.729 49.7109 174.729 54.4824C174.729 59.3416 177.832 62.1225 182.252 62.1225ZM182.252 58.844C180.291 58.844 179.032 57.2341 179.032 54.4824C179.032 51.6722 180.35 50.0914 182.252 50.0914C184.184 50.0914 185.502 51.6722 185.502 54.4824C185.502 57.2341 184.214 58.844 182.252 58.844Z" fill="#D6D3CD"/>
<path d="M195.723 61.5957V53.1944C195.723 51.4088 196.834 50.0914 198.415 50.0914C199.908 50.0914 200.787 51.2331 200.787 53.1359V61.5957H205.031V52.5212C205.031 49.067 203.216 46.7544 199.967 46.7544C197.712 46.7544 196.337 47.8375 195.606 49.1255C195.693 48.5986 195.723 48.1888 195.723 47.8082V47.252H191.478V61.5957H195.723Z" fill="#D6D3CD"/>
<path d="M211.814 61.5957V53.1944C211.814 51.4088 212.927 50.0914 214.508 50.0914C216 50.0914 216.878 51.2331 216.878 53.1359V61.5957H221.123V52.5212C221.123 49.067 219.308 46.7544 216.058 46.7544C213.805 46.7544 212.428 47.8375 211.697 49.1255C211.784 48.5986 211.814 48.1888 211.814 47.8082V47.252H207.57V61.5957H211.814Z" fill="#D6D3CD"/>
<path d="M230.256 62.1225C234.296 62.1225 236.901 59.8393 237.193 56.8535H232.921C232.715 58.1707 231.603 58.9025 230.256 58.9025C228.441 58.9025 227.124 57.439 227.095 55.4191H237.282V54.5994C237.282 49.8573 234.676 46.7544 230.169 46.7544C225.836 46.7544 222.792 49.7987 222.792 54.3945C222.792 59.3709 225.924 62.1225 230.256 62.1225ZM227.066 52.6382C227.242 50.9989 228.441 49.7987 230.139 49.7987C231.778 49.7987 232.921 50.9404 232.949 52.6382H227.066Z" fill="#D6D3CD"/>
<path d="M246.395 62.1225C250.844 62.1225 253.275 59.6929 253.743 55.9168H249.498C249.352 57.4975 248.444 58.844 246.542 58.844C244.61 58.844 243.293 57.0584 243.293 54.4238C243.293 51.5551 244.815 50.0914 246.629 50.0914C248.415 50.0914 249.294 51.3795 249.411 52.8724H253.655C253.333 49.389 250.962 46.7544 246.6 46.7544C242.356 46.7544 238.989 49.5645 238.989 54.4238C238.989 59.2245 241.829 62.1225 246.395 62.1225Z" fill="#D6D3CD"/>
<path d="M262.924 61.8884C263.861 61.8884 264.769 61.742 265.179 61.6249V58.4048C264.856 58.4634 264.476 58.4926 264.154 58.4926C262.603 58.4926 262.046 57.6146 262.046 56.1802V50.5598H265.5V47.252H262.046V42.1586H257.831V47.252H254.728V50.5598H257.831V56.7656C257.831 60.1612 259.528 61.8884 262.924 61.8884Z" fill="#D6D3CD"/>
</svg>
