<svg preserveAspectRatio="none" width="100%" height="100%" overflow="visible" style="display: block;" viewBox="0 0 35.7906 26.4488" fill="none" xmlns="http://www.w3.org/2000/svg">
<path id="Vector" d="M33.6103 0L28.1763 5.434C28.4782 6.42353 28.6292 7.48014 28.6292 8.53675C28.6292 11.4047 27.5055 14.1049 25.4929 16.1343C23.4635 18.1637 20.7633 19.2706 17.8953 19.2706C15.0274 19.2706 12.3271 18.1469 10.2978 16.1343C8.26841 14.1049 7.16148 11.4047 7.16148 8.53675C7.16148 7.46337 7.31243 6.42353 7.61431 5.434L2.16354 0C0.788266 2.53251 0 5.45078 0 8.55353C0 18.432 8.01683 26.4488 17.8953 26.4488C27.7738 26.4488 35.7906 18.432 35.7906 8.55353C35.7906 5.45078 35.0024 2.53251 33.6103 0Z" fill="var(--fill-0, #D6D3CD)"/>
</svg>
