<svg preserveAspectRatio="none" width="100%" height="100%" overflow="visible" style="display: block;" viewBox="0 0 105.343 30.1051" fill="none" xmlns="http://www.w3.org/2000/svg">
<path id="Vector" d="M96.7052 0C95.1454 0 93.8372 0.251575 92.7806 0.771495C91.724 1.29142 90.8183 2.01259 90.0636 2.91826L89.5269 0.234803H84.378V21.736H90.2816V10.7338C90.2816 8.87219 90.7009 7.41306 91.5395 6.38999C92.3781 5.36692 93.5689 4.847 95.0951 4.847C97.9966 4.847 99.4389 6.70865 99.4389 10.4152V21.7528H105.343V10.0797C105.343 6.49062 104.537 3.90779 102.911 2.34803C101.284 0.788266 99.2041 0 96.7052 0ZM81.074 0.251574C79.4807 0.251574 78.2228 0.51992 77.2669 1.07338C76.3109 1.61008 75.5226 2.41511 74.8853 3.47173L74.3486 0.251574H68.9984V21.7528H74.902V11.2202C74.902 9.49274 75.2878 8.11746 76.0761 7.12794C76.8643 6.12164 78.0887 5.61849 79.749 5.61849H82.0971V0.251574H81.074ZM55.447 17.7444C54.4742 17.7444 53.7027 17.5263 53.1325 17.0735C52.5623 16.6207 52.2771 16.0337 52.2771 15.2789C52.2771 14.39 52.6126 13.7024 53.3002 13.216C53.9878 12.7297 54.9438 12.4781 56.1681 12.4781H60.4785V12.8974C60.4449 14.3733 59.9921 15.5473 59.1032 16.4362C58.1975 17.3083 56.99 17.7444 55.447 17.7444ZM56.7552 0C53.8537 0 51.5224 0.603779 49.7782 1.81134C48.0171 3.01889 47.0444 4.7296 46.8431 6.92668H52.5287C52.6629 6.12164 53.0989 5.48432 53.8034 4.99794C54.5078 4.52834 55.4302 4.29353 56.5371 4.29353C57.7279 4.29353 58.6839 4.57865 59.4051 5.13212C60.1095 5.68558 60.4785 6.45707 60.4785 7.42983V8.53675H56.252C53.0151 8.53675 50.5497 9.1573 48.8725 10.3816C47.1786 11.606 46.34 13.367 46.34 15.6479C46.34 17.6605 47.0444 19.2203 48.4532 20.3272C49.862 21.4509 51.7572 22.0044 54.122 22.0044C55.5644 22.0044 56.8222 21.7528 57.8621 21.2496C58.9019 20.7465 59.8411 20.0085 60.6462 19.0358L61.099 21.7528H66.2814V7.78203C66.2814 5.24952 65.4596 3.32078 63.7992 1.99582C62.1388 0.670865 59.7908 0 56.7552 0ZM28.8136 8.50321C28.9814 7.24534 29.5013 6.25581 30.3902 5.51786C31.2623 4.77991 32.3525 4.41094 33.6271 4.41094C34.9688 4.41094 36.0758 4.76314 36.9479 5.48432C37.82 6.18873 38.3567 7.2118 38.5579 8.51998H28.8136V8.50321ZM22.5411 11.0525C22.5411 13.2496 23.0107 15.1783 23.9499 16.8387C24.8891 18.4991 26.214 19.7737 27.9583 20.6626C29.7025 21.5515 31.7654 22.0044 34.1638 22.0044C36.0087 22.0044 37.6355 21.6689 39.0611 21.0148C40.4867 20.3607 41.6272 19.4551 42.4825 18.3146C43.3546 17.1741 43.8913 15.8827 44.1094 14.4739H38.2896C38.038 15.4802 37.5181 16.2349 36.7131 16.7548C35.9248 17.2748 34.9185 17.5263 33.7277 17.5263C32.2183 17.5263 31.0443 17.0735 30.1721 16.1846C29.3 15.2957 28.8136 14.0714 28.6627 12.5116V12.3439H44.2603C44.3777 11.7569 44.428 11.086 44.428 10.3313C44.3945 8.23486 43.9249 6.42353 42.9857 4.88054C42.0464 3.33755 40.755 2.13 39.0946 1.29141C37.4342 0.436062 35.5223 0.016772 33.342 0.016772C31.1952 0.016772 29.3 0.469605 27.6732 1.37527C26.0463 2.28094 24.7717 3.57235 23.866 5.21597C22.9939 6.87636 22.5411 8.82187 22.5411 11.0525ZM0 0.251574L8.28518 21.8702L7.74848 23.2958C7.4466 24.017 7.12794 24.5033 6.79251 24.7549C6.45707 25.0065 5.92038 25.1239 5.16566 25.1239H1.89519V30.1051H7.63109C8.72124 30.1051 9.61014 29.9206 10.281 29.5348C10.9686 29.1658 11.5221 28.5956 11.9749 27.8577C12.4278 27.1197 12.8974 26.0966 13.4005 24.7885L22.9436 0.234803H16.6207L11.5221 15.6647L6.28936 0.234803H0V0.251574Z" fill="var(--fill-0, #D6D3CD)"/>
</svg>
