<svg width="281" height="101" viewBox="0 0 281 101" fill="none" xmlns="http://www.w3.org/2000/svg">
<path d="M36.5 35.5C36.5 26.6634 43.6634 19.5 52.5 19.5H82.9022C91.7388 19.5 98.9022 26.6634 98.9022 35.5V65.9022C98.9022 74.7388 91.7388 81.9022 82.9022 81.9022H52.5C43.6634 81.9022 36.5 74.7388 36.5 65.9022V35.5Z" fill="#D6D3CD"/>
<path d="M74.9972 42.8558C75.8534 42.8187 76.887 42.8403 77.7575 42.8422C76.0183 45.4897 74.2227 48.1204 72.5021 50.7766C74.3424 50.8074 76.3912 50.7626 78.2429 50.7467L84.9216 50.7196C83.1903 53.2849 81.4154 56.0028 79.6454 58.5281L60.3111 58.6494L57.5278 58.6585C58.0797 57.7761 58.784 56.7913 59.3739 55.9223L62.8632 50.7803L50.4805 50.776C51.6678 48.9386 52.9594 47.142 54.1632 45.3124C54.6818 44.5242 55.2263 43.7133 55.7691 42.9418C56.4844 42.9673 57.4051 42.9368 58.1379 42.9344L62.9647 42.9108L74.9972 42.8558Z" fill="#1C1A17"/>
<path d="M230.618 61.7759V39.8824H236.505V43.7024H236.733C237.132 42.3435 237.802 41.3173 238.743 40.6236C239.683 39.9204 240.767 39.5688 241.993 39.5688C242.297 39.5688 242.624 39.5879 242.976 39.6259C243.328 39.6639 243.636 39.7161 243.903 39.7827V45.1705C243.617 45.085 243.223 45.009 242.719 44.9425C242.216 44.8759 241.755 44.8427 241.337 44.8427C240.444 44.8427 239.645 45.0375 238.942 45.4271C238.249 45.8072 237.697 46.3393 237.289 47.0235C236.89 47.7076 236.69 48.4963 236.69 49.3896V61.7759H230.618Z" fill="#D6D3CD"/>
<path d="M217.811 62.2036C215.559 62.2036 213.621 61.7475 211.996 60.8353C210.381 59.9135 209.136 58.6117 208.262 56.9298C207.387 55.2383 206.95 53.2381 206.95 50.929C206.95 48.6769 207.387 46.7004 208.262 44.9995C209.136 43.2986 210.366 41.973 211.953 41.0228C213.55 40.0725 215.422 39.5974 217.569 39.5974C219.013 39.5974 220.358 39.8302 221.603 40.2958C222.857 40.752 223.95 41.4409 224.881 42.3626C225.822 43.2843 226.554 44.4436 227.076 45.8405C227.599 47.2278 227.86 48.8527 227.86 50.7152V52.3829H209.373V48.6199H222.145C222.145 47.7457 221.954 46.9713 221.574 46.2966C221.194 45.6219 220.667 45.0945 219.992 44.7144C219.327 44.3249 218.553 44.1301 217.669 44.1301C216.747 44.1301 215.93 44.3439 215.217 44.7715C214.514 45.1896 213.963 45.755 213.564 46.4676C213.165 47.1708 212.96 47.9548 212.951 48.8195V52.3971C212.951 53.4804 213.151 54.4164 213.55 55.2051C213.958 55.9938 214.533 56.6019 215.274 57.0295C216.015 57.4572 216.894 57.671 217.911 57.671C218.586 57.671 219.204 57.5759 219.764 57.3859C220.325 57.1958 220.805 56.9108 221.204 56.5307C221.603 56.1506 221.907 55.685 222.116 55.1338L227.732 55.5044C227.447 56.8538 226.862 58.0321 225.979 59.0393C225.105 60.0371 223.974 60.8163 222.586 61.3769C221.209 61.928 219.617 62.2036 217.811 62.2036Z" fill="#D6D3CD"/>
<path d="M183.637 69.9861V39.8825H189.623V43.5599H189.894C190.16 42.9708 190.545 42.3721 191.049 41.764C191.562 41.1463 192.227 40.6332 193.044 40.2246C193.871 39.8065 194.897 39.5974 196.123 39.5974C197.719 39.5974 199.192 40.0155 200.541 40.8517C201.891 41.6784 202.969 42.928 203.777 44.6004C204.585 46.2633 204.989 48.3491 204.989 50.8577C204.989 53.2999 204.594 55.3619 203.806 57.0438C203.026 58.7162 201.962 59.9848 200.613 60.8495C199.273 61.7047 197.772 62.1323 196.109 62.1323C194.93 62.1323 193.928 61.9375 193.101 61.5479C192.284 61.1583 191.614 60.669 191.091 60.0798C190.569 59.4812 190.17 58.8778 189.894 58.2696H189.709V69.9861H183.637ZM189.58 50.8292C189.58 52.1311 189.761 53.2666 190.122 54.2358C190.483 55.2051 191.006 55.9605 191.69 56.5022C192.374 57.0343 193.206 57.3004 194.184 57.3004C195.173 57.3004 196.009 57.0296 196.693 56.4879C197.377 55.9368 197.895 55.1766 198.247 54.2073C198.608 53.2286 198.788 52.1026 198.788 50.8292C198.788 49.5654 198.612 48.4536 198.261 47.4939C197.909 46.5342 197.391 45.7835 196.707 45.2418C196.023 44.7002 195.182 44.4294 194.184 44.4294C193.196 44.4294 192.36 44.6907 191.676 45.2133C191.001 45.736 190.483 46.4771 190.122 47.4369C189.761 48.3966 189.58 49.5274 189.58 50.8292Z" fill="#D6D3CD"/>
<path d="M159.442 69.9861V39.8825H165.429V43.5599H165.7C165.966 42.9708 166.351 42.3721 166.854 41.764C167.367 41.1463 168.033 40.6332 168.85 40.2246C169.676 39.8065 170.703 39.5974 171.929 39.5974C173.525 39.5974 174.998 40.0155 176.347 40.8517C177.696 41.6784 178.775 42.928 179.583 44.6004C180.39 46.2633 180.794 48.3491 180.794 50.8577C180.794 53.2999 180.4 55.3619 179.611 57.0438C178.832 58.7162 177.768 59.9848 176.418 60.8495C175.079 61.7047 173.577 62.1323 171.914 62.1323C170.736 62.1323 169.733 61.9375 168.907 61.5479C168.09 61.1583 167.42 60.669 166.897 60.0798C166.374 59.4812 165.975 58.8778 165.7 58.2696H165.514V69.9861H159.442ZM165.386 50.8292C165.386 52.1311 165.567 53.2666 165.928 54.2358C166.289 55.2051 166.811 55.9605 167.496 56.5022C168.18 57.0343 169.011 57.3004 169.99 57.3004C170.978 57.3004 171.814 57.0296 172.499 56.4879C173.183 55.9368 173.701 55.1766 174.052 54.2073C174.413 53.2286 174.594 52.1026 174.594 50.8292C174.594 49.5654 174.418 48.4536 174.067 47.4939C173.715 46.5342 173.197 45.7835 172.513 45.2418C171.829 44.7002 170.988 44.4294 169.99 44.4294C169.002 44.4294 168.166 44.6907 167.481 45.2133C166.807 45.736 166.289 46.4771 165.928 47.4369C165.567 48.3966 165.386 49.5274 165.386 50.8292Z" fill="#D6D3CD"/>
<path d="M143.606 62.1894C142.209 62.1894 140.965 61.947 139.872 61.4624C138.779 60.9683 137.914 60.2414 137.278 59.2816C136.65 58.3124 136.337 57.1056 136.337 55.6612C136.337 54.4449 136.56 53.4234 137.007 52.5967C137.453 51.77 138.062 51.1048 138.831 50.6012C139.601 50.0976 140.475 49.7175 141.454 49.4609C142.442 49.2043 143.478 49.0238 144.561 48.9193C145.835 48.7862 146.861 48.6627 147.64 48.5487C148.419 48.4251 148.985 48.2446 149.336 48.007C149.688 47.7695 149.864 47.4179 149.864 46.9523V46.8667C149.864 45.964 149.578 45.2656 149.008 44.7715C148.448 44.2773 147.65 44.0303 146.614 44.0303C145.521 44.0303 144.652 44.2726 144.005 44.7572C143.359 45.2323 142.932 45.831 142.723 46.5532L137.107 46.097C137.392 44.7667 137.952 43.6169 138.789 42.6477C139.625 41.6689 140.703 40.9182 142.024 40.3956C143.354 39.8635 144.894 39.5974 146.642 39.5974C147.859 39.5974 149.023 39.7399 150.134 40.025C151.256 40.3101 152.249 40.752 153.113 41.3506C153.988 41.9493 154.677 42.7189 155.18 43.6597C155.684 44.5909 155.936 45.7074 155.936 47.0093V61.776H150.177V58.74H150.006C149.655 59.4242 149.184 60.0276 148.595 60.5502C148.006 61.0633 147.298 61.4672 146.471 61.7617C145.645 62.0468 144.69 62.1894 143.606 62.1894ZM145.345 57.9988C146.238 57.9988 147.027 57.823 147.711 57.4714C148.395 57.1103 148.932 56.6257 149.322 56.0175C149.712 55.4094 149.906 54.7205 149.906 53.9508V51.6274C149.716 51.751 149.455 51.865 149.122 51.9695C148.799 52.0646 148.433 52.1548 148.025 52.2403C147.616 52.3164 147.208 52.3876 146.799 52.4541C146.39 52.5112 146.02 52.5634 145.687 52.6109C144.975 52.7155 144.352 52.8818 143.82 53.1098C143.288 53.3379 142.875 53.6467 142.58 54.0363C142.285 54.4164 142.138 54.8915 142.138 55.4617C142.138 56.2884 142.437 56.9203 143.036 57.3574C143.644 57.785 144.414 57.9988 145.345 57.9988Z" fill="#D6D3CD"/>
<path d="M115.522 61.7761V58.1557L126.241 44.8856V44.7288H115.893V39.8826H133.553V43.8308L123.49 56.7731V56.9299H133.924V61.7761H115.522Z" fill="#D6D3CD"/>
</svg>
