<svg width="1200" height="630" viewBox="0 0 1200 630" xmlns="http://www.w3.org/2000/svg">
  <rect width="1200" height="630" fill="#000000"/>

  <!-- Short-term spike graph -->
  <g transform="translate(850, 380)">
    <path d="M 0 100 Q 40 70 80 30 Q 100 50 120 80" fill="none" stroke="#FFFFFF" stroke-width="3"/>
    <circle cx="0" cy="100" r="4" fill="#FFFFFF"/>
    <circle cx="40" cy="70" r="5" fill="#FFFFFF"/>
    <circle cx="80" cy="30" r="6" fill="#FFFFFF"/>
    <circle cx="100" cy="50" r="5" fill="#FFFFFF" opacity="0.7"/>
    <circle cx="120" cy="80" r="4" fill="#FFFFFF" opacity="0.5"/>
    <line x1="-10" y1="110" x2="130" y2="110" stroke="#FFFFFF" stroke-width="1" opacity="0.4"/>
    <line x1="-10" y1="0" x2="-10" y2="110" stroke="#FFFFFF" stroke-width="1" opacity="0.4"/>
  </g>

  <!-- 56 protocols -->
  <g opacity="0.8">
    <circle cx="900" cy="200" r="4" fill="#FFFFFF"/>
    <circle cx="950" cy="180" r="4" fill="#FFFFFF"/>
    <circle cx="1000" cy="190" r="4" fill="#FFFFFF"/>
    <circle cx="1050" cy="210" r="4" fill="#FFFFFF"/>
    <circle cx="920" cy="240" r="3" fill="#FFFFFF"/>
    <circle cx="1020" cy="250" r="3" fill="#FFFFFF"/>
  </g>

  <!-- Horizon -->
  <line x1="0" y1="530" x2="700" y2="530" stroke="#FFFFFF" stroke-width="1" opacity="0.3"/>
  <path d="M 0 530 Q 120 510 240 530 T 480 530 L 480 630 L 0 630 Z" fill="#000000" stroke="#FFFFFF" stroke-width="2"/>
  <g opacity="0.5">
    <line x1="50" y1="530" x2="60" y2="630" stroke="#FFFFFF" stroke-width="1"/>
    <line x1="100" y1="515" x2="110" y2="630" stroke="#FFFFFF" stroke-width="1"/>
    <line x1="150" y1="522" x2="160" y2="630" stroke="#FFFFFF" stroke-width="1"/>
  </g>

  <text x="80" y="240" font-family="Arial, sans-serif" font-size="80" font-weight="bold" fill="#FFFFFF">STIP</text>
  <text x="80" y="310" font-family="Arial, sans-serif" font-size="34" font-weight="500" fill="#FFFFFF" opacity="0.85">Arbitrum DAO</text>
  <text x="80" y="380" font-family="Arial, sans-serif" font-size="26" fill="#FFFFFF" opacity="0.8">71.4M ARB • 56 Protocols</text>

  <g transform="translate(60, 270)">
    <line x1="0" y1="-8" x2="0" y2="8" stroke="#FFFFFF" stroke-width="1.5"/>
    <line x1="-8" y1="0" x2="8" y2="0" stroke="#FFFFFF" stroke-width="1.5"/>
  </g>
</svg>
