<svg width="281" height="101" viewBox="0 0 281 101" fill="none" xmlns="http://www.w3.org/2000/svg">
<rect x="0.5" y="0.5" width="280" height="100" stroke="#D6D3CD"/>
<path d="M129.743 35.735H135.864V60.2172H141.984V29.6145H135.864C132.497 29.6145 129.743 32.3687 129.743 35.735Z" fill="#D6D3CD"/>
<path d="M148.104 60.2171H154.225V47.976C154.225 44.6097 151.471 41.8555 148.104 41.8555V60.2171Z" fill="#D6D3CD"/>
<path d="M160.346 41.8555V60.2171H166.466V47.976H172.587V54.0965C172.587 57.4628 175.341 60.2171 178.707 60.2171V47.976C178.707 44.6097 175.953 41.8555 172.587 41.8555H160.346Z" fill="#D6D3CD"/>
<path d="M215.43 41.8556H209.309V35.735C209.309 32.3687 206.555 29.6145 203.189 29.6145V54.0966H190.948V47.9761H197.068V41.8556H190.948C187.581 41.8556 184.827 44.6098 184.827 47.9761V54.0966C184.827 57.4629 187.581 60.2172 190.948 60.2172H209.309V47.9761H215.43V54.0966C215.43 57.4629 218.184 60.2172 221.55 60.2172V47.9761C221.55 44.6098 218.796 41.8556 215.43 41.8556Z" fill="#D6D3CD"/>
<path d="M148.104 35.735H154.225C154.225 32.3687 151.471 29.6145 148.104 29.6145V35.735Z" fill="#D6D3CD"/>
<path fill-rule="evenodd" clip-rule="evenodd" d="M139.285 66.3376V70.3431H138.724L136.521 67.5679V70.3431H135.863V66.3376H136.424L138.627 69.1243V66.3376H139.285ZM151.735 70.3431H149.361V66.3376H151.678V66.9958H150.064V67.9913H151.506V68.6494H150.064V69.6851H151.735V70.3431ZM161.811 66.9958H163.11V70.3431H163.813V66.9958H165.112V66.3376H161.811V66.9958ZM180.092 66.3376H180.767L179.622 70.3431H178.965L177.997 67.4478L177.048 70.3431H176.384L175.188 66.3376H175.978L176.784 69.193L177.677 66.3376H178.375L179.291 69.1987L180.092 66.3376ZM191.426 66.9327C191.037 67.3295 190.842 67.8197 190.842 68.4033C190.842 69.0175 191.039 69.5153 191.432 69.8967C191.825 70.2782 192.323 70.469 192.925 70.469C193.524 70.469 194.022 70.2745 194.419 69.8854C194.815 69.4963 195.014 69.0022 195.014 68.4033C195.014 67.793 194.815 67.2952 194.419 66.9099C194.026 66.5285 193.528 66.3376 192.925 66.3376C192.323 66.3376 191.823 66.536 191.426 66.9327ZM191.97 69.4105C191.714 69.1435 191.586 68.8077 191.586 68.4033C191.586 67.9913 191.712 67.6537 191.964 67.3905C192.22 67.1274 192.54 66.9958 192.925 66.9958C193.303 66.9958 193.622 67.1274 193.881 67.3905C194.14 67.6575 194.27 67.9951 194.27 68.4033C194.27 68.8077 194.148 69.1435 193.904 69.4105C193.663 69.6775 193.337 69.8109 192.925 69.8109C192.544 69.8109 192.225 69.6775 191.97 69.4105ZM205.793 68.8553V70.3546H205.089V66.3491C205.288 66.3491 205.503 66.3471 205.736 66.3433C205.969 66.3395 206.159 66.3376 206.308 66.3376C207.277 66.3376 207.762 66.7497 207.762 67.5737C207.762 67.8788 207.683 68.1305 207.527 68.329C207.371 68.5196 207.191 68.6494 206.989 68.7181L208.242 70.3546H207.39L206.285 68.8553H205.793ZM206.274 66.9958C206.255 66.9958 206.224 66.9976 206.182 67.0014C206.14 67.0014 206.081 67.0033 206.005 67.0071H205.793V68.1974H206.251C206.476 68.1974 206.659 68.142 206.8 68.0314C206.945 67.9207 207.018 67.77 207.018 67.5793C207.018 67.1902 206.77 66.9958 206.274 66.9958ZM218.318 70.3431H219.021V68.2774L220.659 70.3431H221.551L219.8 68.203L221.448 66.3376H220.601L219.021 68.2375V66.3376H218.318V70.3431Z" fill="#D6D3CD"/>
<path fill-rule="evenodd" clip-rule="evenodd" d="M105.088 27.4925C105.088 27.4925 107.598 27.5929 110.209 27.8942C104.335 23.2751 98.762 21.9195 94.2433 21.9195C88.0619 21.9195 83.8605 24.4437 83.5551 24.6271L83.5491 24.6307L85.5072 21.5178C85.5072 21.5178 77.6748 20.7647 74.9133 29.0489C74.2105 27.2917 73.5578 24.7311 73.5578 24.7311C73.5578 24.7311 69.491 28.2958 71.3989 34.2203C66.7296 32.5133 60.052 30.1535 59.8009 30.1033C59.4495 30.0531 59.3491 30.2037 59.3491 30.2037C59.3491 30.2037 59.2487 30.3543 59.5499 30.6054C60.1022 31.0572 70.6458 38.8395 72.9553 40.3456C72.4532 42.1531 72.4532 43.0066 72.9553 43.8601C73.6582 45.0149 73.7083 45.6173 73.608 46.471C73.5076 47.3245 72.6038 54.705 72.403 55.6087C72.322 55.9734 71.9301 56.7145 71.4981 57.5314C70.8598 58.7384 70.134 60.1108 70.1939 60.6797C70.2943 61.6336 71.5997 65.7004 72.7545 66.1524C73.608 66.4535 75.7168 67.1062 77.1225 67.1062C77.6246 67.1062 78.0764 67.0059 78.2773 66.805C79.1308 66.0518 79.3819 65.9013 79.9843 65.9013H80.1351C80.25 65.9013 80.3753 65.9118 80.5113 65.9231H80.5115C80.6726 65.9368 80.8483 65.9514 81.0388 65.9514C81.8421 65.9514 82.8963 65.8009 83.6495 65.0979C84.1702 64.5772 84.8693 63.9673 85.5262 63.3944C86.2626 62.7519 86.946 62.1558 87.2644 61.7843C88.0175 60.8302 88.4192 59.5249 88.2184 58.2195C88.0677 57.0145 88.7205 55.9601 89.4736 54.9059C90.4275 53.6505 92.1847 51.3913 92.1847 51.3913C95.6491 54.002 97.8079 57.9684 97.8079 62.3867C97.8079 70.2191 90.9799 76.5452 82.545 76.5452C81.2395 76.5452 79.9843 76.3946 78.7292 76.0933C82.5952 77.449 85.8587 77.9009 88.5196 77.9009C94.193 77.9009 97.2055 75.8424 97.2055 75.8424C97.2055 75.8424 96.1511 77.1979 94.4441 78.7544H94.4943C103.883 77.449 108.452 69.7169 108.452 69.7169C108.452 69.7169 108.101 72.2274 107.649 73.9345C119.832 64.7846 118.14 53.3936 117.999 52.4479L117.995 52.4209C117.993 52.4099 117.992 52.4015 117.991 52.3954C118.054 52.4886 118.558 53.1008 119.088 53.7443L119.088 53.7445L119.088 53.7447L119.088 53.7448L119.09 53.7471C119.416 54.1428 119.751 54.5501 120 54.8555C122.008 34.1701 105.088 27.4925 105.088 27.4925ZM85.8587 60.5291C85.704 60.7224 85.1622 61.2135 84.6459 61.6815C84.492 61.821 84.3402 61.9586 84.2018 62.0854C83.9925 62.2774 83.7771 62.4693 83.5641 62.6591L83.5639 62.6592C83.164 63.0156 82.7721 63.3646 82.4445 63.6921C82.2437 63.893 81.8421 63.9933 81.2395 63.9933H80.6873H80.386H80.1852H79.7332C80.4864 62.9893 82.6956 60.6797 83.4487 60.1776C84.3524 59.5751 84.8043 58.9727 84.252 57.9182C83.6997 56.8638 82.2437 57.1149 82.2437 57.1149C82.2437 57.1149 83.0972 56.7635 83.8504 56.7635C82.8963 56.5125 81.6914 56.7635 81.1391 57.3158C80.7375 57.684 80.6483 58.6769 80.5589 59.6699C80.5144 60.1665 80.4697 60.663 80.386 61.0813C80.1612 62.2504 79.4532 62.8959 78.3702 63.8835L78.3693 63.8844L78.3687 63.8848L78.3655 63.8878L78.3647 63.8885C78.24 64.0022 78.1104 64.1203 77.976 64.2444C77.2731 64.897 76.7711 65.0979 76.3694 65.0979C75.5159 64.9474 74.5117 64.6963 73.8089 64.4452C73.3067 63.7926 72.5536 61.6336 72.3528 60.7299C72.4612 60.3686 72.8036 59.7212 73.0994 59.1621L73.0995 59.1619L73.0997 59.1615C73.2147 58.9439 73.3227 58.7398 73.4072 58.571L73.4909 58.4106C74.0424 57.3547 74.3658 56.735 74.4615 56.161C74.6624 55.3075 75.3151 50.0356 75.5661 47.8266C76.2188 48.6801 77.1225 50.086 76.9218 50.9896C78.3777 48.9312 77.3234 46.9229 76.8212 46.1195C76.3694 45.3162 75.767 43.7096 76.269 42.0024C76.7711 40.2954 78.5786 35.5758 78.5786 35.5758C78.5786 35.5758 79.181 36.6303 80.0345 36.4295C80.888 36.2286 87.7664 25.8859 87.7664 25.8859C87.7664 25.8859 89.6242 29.9527 87.6661 32.9149C85.6578 35.8771 83.6997 36.4295 83.6997 36.4295C83.6997 36.4295 86.4611 36.9315 89.0218 35.0738C90.076 37.534 91.0803 40.0946 91.1304 40.4461C91.105 40.5053 91.0267 40.692 90.913 40.9628L90.9124 40.9642L90.9121 40.9648L90.9119 40.9653L90.9118 40.9657C90.3513 42.3009 88.9375 45.6685 88.7707 45.9186C88.6703 46.019 87.9674 46.2199 87.4653 46.3203C86.6118 46.5714 86.1096 46.722 85.9089 46.8727C85.5574 47.1738 83.9507 51.5921 83.1976 53.7511C82.2939 54.002 81.3902 54.5042 80.7375 55.5083C81.0889 55.2572 82.1935 55.1066 82.9969 55.0062C83.6997 54.9561 85.8587 56.1109 86.4109 58.2697V58.3701C86.5113 59.1734 86.2603 59.9265 85.8587 60.5291ZM81.1391 61.1315C81.4947 60.6179 81.5394 59.8245 81.5668 59.3384C81.5741 59.2068 81.5803 59.0977 81.591 59.0228C81.6412 58.6714 81.7417 58.0186 82.1434 57.9182C82.545 57.8179 83.4989 57.9684 83.4989 58.6714C83.4989 59.1208 83.1656 59.3322 82.7941 59.5679C82.6261 59.6744 82.4503 59.7859 82.2939 59.9265C82.0649 60.1556 81.6868 60.555 81.4233 60.8335L81.4231 60.8336C81.2822 60.9823 81.1742 61.0965 81.1391 61.1315ZM101.172 51.5419C101.674 48.9813 101.724 46.7721 101.574 44.9647C103.532 47.5755 104.737 50.7386 105.088 54.002C105.138 54.4037 105.54 54.8053 105.942 55.207C106.293 55.5083 106.695 55.9099 106.695 56.161C106.695 57.3158 106.594 58.4705 106.394 59.6253C106.346 59.768 105.937 60.0011 105.596 60.196L105.54 60.2278C105.038 60.4788 104.586 60.7299 104.486 61.1315C103.381 64.9976 101.021 68.4116 97.8583 70.8216C102.527 65.9514 104.787 57.9182 101.172 51.5419ZM98.0089 71.2734C101.272 68.7631 103.783 65.2485 104.887 61.2821C104.926 61.1656 105.205 60.9892 105.469 60.8223L105.469 60.8221L105.47 60.8214L105.471 60.8212L105.472 60.8204C105.548 60.7721 105.623 60.7247 105.691 60.6797C106.193 60.4286 106.695 60.1274 106.795 59.7258C106.996 58.571 107.096 57.366 107.096 56.161C107.096 55.7092 106.645 55.2572 106.193 54.8053C106.129 54.7293 106.056 54.6502 105.983 54.5702V54.57C105.764 54.3331 105.54 54.0894 105.54 53.9016C105.138 50.2365 103.682 46.7721 101.423 43.9103C100.435 37.9827 96.5312 36.0889 96.3096 35.9815C96.3061 35.9797 96.3034 35.9784 96.3018 35.9775L96.308 35.9868C96.4795 36.2412 98.986 39.96 97.2055 44.312C95.5452 48.3058 91.5587 48.1685 90.4437 48.1301C90.3111 48.1257 90.2191 48.1225 90.1766 48.1278C89.7749 48.1278 88.2184 50.1361 86.2603 53.8515C86.0092 53.7511 84.9548 53.5 83.7498 53.7009C84.6537 51.1904 86.0092 47.6256 86.2603 47.3245C86.3404 47.2445 86.8347 47.1007 87.2863 46.9694C87.4015 46.9359 87.5138 46.9033 87.6159 46.8727C88.5698 46.6216 89.0218 46.471 89.1723 46.2701C89.2727 46.1195 89.7747 44.9647 90.2769 43.7598C90.7288 43.7598 91.8836 43.6594 91.9839 43.609C92.0843 43.5087 93.0384 41.0485 93.0384 40.7472C93.0384 40.4963 91.0803 35.6262 90.3271 33.7685C90.6786 33.3668 91.0301 32.8647 91.3814 32.3124C101.674 33.417 109.707 42.1531 109.707 52.7469C109.707 60.8804 104.937 67.9597 98.0089 71.2734ZM87.2644 28.8983C87.2644 28.8983 87.7164 30.9066 86.5616 32.2622C85.1055 33.919 83.8504 33.8688 83.9006 33.8688L87.2644 28.8983ZM75.6665 57.4162L75.2648 59.4245C75.2648 59.4245 76.0681 59.3241 76.0681 60.2278C76.0681 60.9308 75.2648 61.8847 74.6122 61.9348C73.9594 61.9852 73.7085 61.1819 73.8591 60.7299C74.0096 60.3282 75.6665 57.4162 75.6665 57.4162ZM83.3483 40.6469C85.1055 40.9983 85.6076 43.0568 84.6537 44.1614C83.6997 45.2157 81.2897 46.722 79.884 47.0734C79.5827 48.2282 77.0222 47.7262 77.976 44.0609C77.976 44.0609 78.4279 45.8183 78.8797 45.6675C79.3317 45.517 84.4528 37.4838 84.4528 37.4838C84.4528 37.4838 83.8002 39.5924 83.3483 40.6469ZM82.8963 41.6511L80.2856 46.1195C80.2856 46.1195 82.6956 45.0149 83.6495 43.6092C84.4026 42.4042 82.8963 41.6511 82.8963 41.6511ZM82.545 23.2751C78.0262 25.9863 78.9301 32.4631 78.9301 32.4631C74.808 26.1842 81.5302 23.6574 82.4543 23.31L82.4544 23.31C82.4982 23.2935 82.5291 23.2819 82.545 23.2751ZM104.435 25.9362C96.9544 24.5304 92.1345 25.2333 88.6703 26.5387C88.5699 26.137 88.2184 25.3337 87.9172 24.681C86.9018 25.8898 85.8399 27.3313 85.1349 28.2883L85.0554 28.3964C83.1474 29.7017 82.3441 30.9569 82.3441 30.9569C83.4487 27.1914 86.662 24.3798 90.5782 23.6768C91.6827 23.476 92.8876 23.3756 94.1932 23.3756C97.6574 23.4258 101.122 24.2793 104.435 25.9362ZM106.042 34.8731C113.121 39.5423 116.335 44.7137 118.594 50.7887C118.494 44.3622 116.335 38.8393 112.167 34.4211L112.067 34.3207C108.402 30.4547 103.03 28.6473 97.7076 29.4004C95.6993 29.6514 93.691 30.0531 92.1345 30.5551C91.8836 30.6054 91.6325 30.6556 91.3815 30.756H91.4819C91.8836 30.7058 99.2138 30.3543 106.042 34.8731ZM109.958 69.8677C110.962 68.8634 111.816 67.8092 112.569 66.805C116.887 60.7801 116.284 52.4959 111.314 46.973C110.912 46.5212 110.46 46.019 110.008 45.5672C110.26 46.019 116.435 57.4162 109.958 69.8677ZM72.9429 28.1933C72.7523 28.9206 71.0597 35.3808 76.7711 35.576C73.357 33.5175 72.9553 28.1955 72.9553 28.1453C72.9525 28.1565 72.9483 28.1725 72.9429 28.1933ZM75.3653 38.7389C75.7166 38.0863 75.4155 37.6345 75.1142 37.3834L75.0139 37.283C74.4113 36.9817 70.6458 35.5758 66.9304 34.2705C70.1939 36.4295 73.8089 38.5382 74.4113 38.8395C74.8631 39.0402 75.1644 39.0904 75.3653 38.7389Z" fill="#D6D3CD"/>
</svg>
