<svg width="281" height="101" viewBox="0 0 281 101" fill="none" xmlns="http://www.w3.org/2000/svg">
<rect x="0.5" y="0.5" width="280" height="100" stroke="#D6D3CD"/>
<mask id="mask0_1228_1820" style="mask-type:luminance" maskUnits="userSpaceOnUse" x="43" y="28" width="195" height="45">
<path d="M237.5 28.5366H43.5V72.4624H237.5V28.5366Z" fill="white"/>
</mask>
<g mask="url(#mask0_1228_1820)">
<path d="M65.2614 48.8926C65.2614 51.6812 64.3191 53.7222 62.4363 55.0159C60.5537 56.3095 57.9392 56.9564 54.5946 56.9564H44.3223V29.124H53.9822C57.4841 29.124 59.9943 29.643 61.5093 30.683C63.024 31.7229 63.7806 33.367 63.7806 35.6212C63.7806 37.3506 63.3692 38.7527 62.5463 39.8254C61.7235 40.8983 60.4361 41.6149 58.6842 41.977C60.9765 42.2985 62.645 43.0363 63.6916 44.1885C64.738 45.3428 65.2614 46.9114 65.2614 48.8945V48.8926ZM58.1496 36.8664C58.1496 35.8071 57.7666 35.0732 57.0044 34.6645C56.2404 34.2559 55.0554 34.0506 53.4494 34.0506H49.8945V40.023H53.292C54.9378 40.023 56.1588 39.7886 56.957 39.32C57.7533 38.8514 58.1515 38.0322 58.1515 36.8664H58.1496ZM59.5715 48.391C59.5715 47.1437 59.1563 46.2626 58.3278 45.7455C57.4974 45.2304 55.9446 44.9709 53.6656 44.9709H49.8926V51.9291H52.7176C54.8904 51.9291 56.3882 51.8226 57.211 51.6076C58.034 51.3925 58.6331 51.0303 59.0085 50.5212C59.3838 50.0118 59.5715 49.3011 59.5715 48.3891V48.391Z" fill="#D6D3CD"/>
<path d="M67.2861 56.9583L76.3338 29.124H83.584L92.6504 56.9583H86.9418L85.1234 51.3074H74.5953L72.8169 56.9583H67.2861ZM76.1745 46.3401H83.5423L79.8679 34.8369L76.1745 46.3401Z" fill="#D6D3CD"/>
<path d="M111.644 56.9583L101.688 37.0678V56.9583H96.2354V29.124H103.465L112.728 47.8892V29.124H118.2V56.9583H111.642H111.644Z" fill="#D6D3CD"/>
<path d="M138.856 56.9583L131.291 45.3331L129.632 47.2831V56.9564H124.062V29.124H129.632V39.9843L138.581 29.124H145.081L134.887 41.1114L145.81 56.9603H138.858L138.856 56.9583Z" fill="#D6D3CD"/>
<path d="M149.404 56.9583V29.124H154.975V51.7702H166.472V56.9583H149.404Z" fill="#D6D3CD"/>
<path d="M170.045 56.9583V29.124H187.803V34.132H175.615V40.0657H185.888V45.0929H175.615V51.7702H187.803V56.9583H170.045Z" fill="#D6D3CD"/>
<path d="M212.609 48.8919C212.609 51.6806 211.711 53.8185 209.913 55.3077C208.116 56.797 205.465 57.5406 201.963 57.5406C199.54 57.5406 197.436 57.1319 195.652 56.3147C193.868 55.4975 192.415 54.1768 191.297 52.3525L195.583 49.0138C196.215 49.926 196.814 50.6097 197.381 51.0647C197.947 51.5197 198.619 51.8761 199.396 52.1298C200.174 52.3854 201.068 52.5112 202.082 52.5112C203.598 52.5112 204.778 52.246 205.628 51.7174C206.478 51.1885 206.902 50.3791 206.902 49.2946C206.902 48.6789 206.755 48.1617 206.458 47.7454C206.163 47.329 205.718 46.9707 205.126 46.6687C204.535 46.3665 203.506 46.0219 202.045 45.6326C200.623 45.2434 199.282 44.8522 198.026 44.4552C196.768 44.0602 195.682 43.5469 194.766 42.9175C193.85 42.2882 193.13 41.4961 192.603 40.5434C192.076 39.5924 191.812 38.3918 191.812 36.9432C191.812 34.3018 192.688 32.2413 194.44 30.7598C196.192 29.2783 198.7 28.5366 201.965 28.5366C206.692 28.5366 210.038 30.1866 212 33.4845L207.753 36.8639C207.003 35.6845 206.161 34.8401 205.225 34.3289C204.29 33.8196 203.177 33.5639 201.886 33.5639C200.594 33.5639 199.544 33.8021 198.735 34.2785C197.925 34.7549 197.519 35.5025 197.519 36.5211C197.519 37.4196 197.94 38.1071 198.784 38.5816C199.625 39.058 201.095 39.5363 203.188 40.0185C204.346 40.3265 205.491 40.6595 206.626 41.0139C207.757 41.3703 208.768 41.8621 209.657 42.4915C210.547 43.1209 211.262 43.9459 211.802 44.9646C212.342 45.9831 212.611 47.2904 212.611 48.8861L212.609 48.8919Z" fill="#D6D3CD"/>
<path d="M237.093 48.8919C237.093 51.6806 236.194 53.8185 234.398 55.3077C232.6 56.797 229.949 57.5406 226.447 57.5406C224.024 57.5406 221.919 57.1319 220.135 56.3147C218.351 55.4975 216.898 54.1768 215.78 52.3525L220.066 49.0138C220.698 49.926 221.297 50.6097 221.864 51.0647C222.43 51.5197 223.102 51.8761 223.88 52.1298C224.656 52.3854 225.551 52.5112 226.567 52.5112C228.08 52.5112 229.262 52.246 230.112 51.7174C230.961 51.1885 231.385 50.3791 231.385 49.2946C231.385 48.6789 231.238 48.1617 230.942 47.7454C230.647 47.329 230.201 46.9707 229.608 46.6687C229.017 46.3665 227.99 46.0219 226.528 45.6326C225.106 45.2434 223.766 44.8522 222.51 44.4552C221.252 44.0602 220.166 43.5469 219.25 42.9175C218.334 42.2882 217.613 41.4961 217.086 40.5434C216.559 39.5924 216.295 38.3918 216.295 36.9432C216.295 34.3018 217.171 32.2413 218.924 30.7598C220.675 29.2783 223.184 28.5366 226.449 28.5366C231.176 28.5366 234.522 30.1866 236.483 33.4845L232.238 36.8639C231.488 35.6845 230.644 34.8401 229.709 34.3289C228.773 33.8196 227.659 33.5639 226.369 33.5639C225.079 33.5639 224.027 33.8021 223.218 34.2785C222.408 34.7549 222.002 35.5025 222.002 36.5211C222.002 37.4196 222.423 38.1071 223.267 38.5816C224.109 39.058 225.579 39.5363 227.672 40.0185C228.83 40.3265 229.975 40.6595 231.11 41.0139C232.241 41.3703 233.253 41.8621 234.141 42.4915C235.03 43.1209 235.743 43.9459 236.286 44.9646C236.824 45.9831 237.094 47.2904 237.094 48.8861L237.093 48.8919Z" fill="#D6D3CD"/>
<path d="M237.069 66.886H44.3018V72.2756H237.069V66.886Z" fill="#D6D3CD"/>
</g>
</svg>
