<svg width="281" height="101" viewBox="0 0 281 101" fill="none" xmlns="http://www.w3.org/2000/svg">
<rect x="0.5" y="0.5" width="280" height="100" stroke="#D6D3CD"/>
<g clip-path="url(#clip0_1228_1876)">
<path d="M70.8691 68.27C70.8704 68.4451 70.8022 68.6136 70.6794 68.7385C70.5566 68.8634 70.3892 68.9344 70.2141 68.936H34.4281C34.2529 68.9344 34.0856 68.8634 33.9628 68.7385C33.84 68.6136 33.7717 68.4451 33.7731 68.27V52.398C33.7723 52.3112 33.7886 52.2252 33.8211 52.1447C33.8536 52.0643 33.9017 51.991 33.9625 51.9292C34.0233 51.8673 34.0958 51.8181 34.1756 51.7842C34.2555 51.7504 34.3413 51.7326 34.4281 51.732H70.2141C70.3892 51.7336 70.5566 51.8046 70.6794 51.9295C70.8022 52.0543 70.8704 52.2229 70.8691 52.398V68.27ZM33.7731 31.865C33.7723 31.7782 33.7886 31.6922 33.8211 31.6117C33.8536 31.5313 33.9017 31.458 33.9625 31.3962C34.0233 31.3343 34.0958 31.2851 34.1756 31.2512C34.2555 31.2174 34.3413 31.1996 34.4281 31.199H60.9401C61.0268 31.1996 61.1126 31.2174 61.1925 31.2512C61.2724 31.2851 61.3448 31.3343 61.4057 31.3962C61.4665 31.458 61.5145 31.5313 61.547 31.6117C61.5795 31.6922 61.5959 31.7782 61.5951 31.865V47.735C61.5964 47.9101 61.5282 48.0786 61.4054 48.2035C61.2826 48.3284 61.1152 48.3994 60.9401 48.401H34.4281C34.2529 48.3994 34.0856 48.3284 33.9628 48.2035C33.84 48.0786 33.7717 47.9101 33.7731 47.735V31.865ZM73.4871 27.865H31.1551C31.068 27.8656 30.9819 27.8835 30.9017 27.9176C30.8216 27.9517 30.7489 28.0013 30.6881 28.0636C30.6272 28.1259 30.5792 28.1996 30.5469 28.2805C30.5147 28.3614 30.4988 28.4479 30.5001 28.535V71.6C30.4993 71.6867 30.5156 71.7728 30.5481 71.8532C30.5806 71.9337 30.6287 72.0069 30.6895 72.0688C30.7503 72.1307 30.8228 72.1799 30.9026 72.2137C30.9825 72.2476 31.0683 72.2653 31.1551 72.266H73.4871C73.5738 72.2653 73.6596 72.2476 73.7395 72.2137C73.8194 72.1799 73.8918 72.1307 73.9527 72.0688C74.0135 72.0069 74.0615 71.9337 74.094 71.8532C74.1265 71.7728 74.1429 71.6867 74.1421 71.6V28.535C74.1434 28.3599 74.0752 28.1913 73.9524 28.0665C73.8296 27.9416 73.6622 27.8706 73.4871 27.869" fill="#D6D3CD"/>
<path d="M158.704 36.492L165.704 27.907H169.848L162.58 36.492L170.227 46.323H166.165L158.704 36.492ZM158.649 46.323H155.123V27.907H158.644L158.649 46.323Z" fill="#D6D3CD"/>
<path d="M95.8958 39.877C95.8958 38.794 95.3538 38.306 94.2698 38.306H88.9028V43.344H94.1628C95.3268 43.344 95.8958 42.856 95.8958 41.691V39.877ZM88.9028 30.886V35.327H93.9718C95.1088 35.327 95.4888 34.786 95.4888 33.702V32.294C95.4888 31.319 95.0008 30.886 93.9718 30.886H88.9028ZM99.5528 40.961C99.5528 44.888 97.1958 46.324 93.6528 46.324H85.3828V27.907H93.5128C96.8438 27.907 99.1448 29.207 99.1448 32.565C99.1968 33.4688 98.9528 34.365 98.4497 35.1176C97.9466 35.8703 97.2119 36.4385 96.3568 36.736C97.2991 36.9568 98.1346 37.4998 98.7189 38.2713C99.3032 39.0428 99.5996 39.9942 99.5568 40.961" fill="#D6D3CD"/>
<path d="M103.459 27.907H106.978V43.345H115.16V46.323H103.46L103.459 27.907Z" fill="#D6D3CD"/>
<path d="M129.142 39.959V34.271C129.142 31.833 127.164 30.48 124.727 30.48C122.29 30.48 120.313 31.833 120.313 34.271V39.959C120.313 42.396 122.29 43.75 124.727 43.75C127.164 43.75 129.142 42.396 129.142 39.959ZM124.727 46.73C119.527 46.73 116.522 43.399 116.522 37.116C116.522 30.833 119.527 27.499 124.726 27.499C129.925 27.499 132.933 30.83 132.933 37.113C132.933 43.396 129.925 46.727 124.726 46.727" fill="#D6D3CD"/>
<path d="M136.195 37.169C136.195 31.32 138.768 27.5 144.103 27.5C147.895 27.5 150.656 29.775 150.903 33.4H147.382C147.192 31.45 145.947 30.476 143.861 30.476C143.351 30.4439 142.84 30.5193 142.361 30.6974C141.882 30.8754 141.446 31.1521 141.081 31.5095C140.716 31.867 140.43 32.2971 140.242 32.7722C140.053 33.2472 139.967 33.7565 139.988 34.267V39.9C139.987 40.4168 140.091 40.9284 140.292 41.4043C140.494 41.8802 140.789 42.3106 141.161 42.6697C141.533 43.0287 141.973 43.3091 142.455 43.4941C142.938 43.679 143.453 43.7647 143.969 43.746C146.163 43.746 147.327 42.852 147.68 40.686H151.2C150.632 44.911 147.761 46.725 143.915 46.725C138.607 46.725 136.196 42.717 136.196 37.165" fill="#D6D3CD"/>
<path d="M171.361 37.169C171.361 31.32 173.935 27.5 179.269 27.5C183.061 27.5 185.823 29.775 186.069 33.4H182.548C182.358 31.45 181.113 30.476 179.027 30.476C178.517 30.4439 178.006 30.5193 177.528 30.6974C177.049 30.8754 176.613 31.1521 176.247 31.5096C175.882 31.867 175.596 32.2972 175.408 32.7722C175.22 33.2473 175.134 33.7565 175.155 34.267V39.9C175.154 40.4169 175.258 40.9286 175.459 41.4046C175.661 41.8805 175.956 42.311 176.328 42.67C176.7 43.0291 177.14 43.3095 177.623 43.4944C178.106 43.6793 178.621 43.7648 179.137 43.746C181.33 43.746 182.495 42.852 182.848 40.686H186.368C185.8 44.911 182.929 46.725 179.083 46.725C173.775 46.725 171.364 42.717 171.364 37.165" fill="#D6D3CD"/>
<path d="M201.408 38.442H193.734V46.323H190.213V27.907H193.734V35.462H201.408V27.907H204.929V46.323H201.408V38.442Z" fill="#D6D3CD"/>
<path d="M216.864 32.159L214.644 39.414H219.113L216.974 32.156L216.864 32.159ZM220.005 42.396H213.722L212.53 46.323H208.738L215.021 27.907H218.758L225.015 46.323H221.223L220.005 42.396Z" fill="#D6D3CD"/>
<path d="M228.011 27.907H231.532V46.323H228.011V27.907Z" fill="#D6D3CD"/>
<path d="M247.006 41.936V27.908H250.5V46.324H245.219L239.719 32.268H239.612V46.324H236.118V27.908H241.399L246.899 41.936H247.006Z" fill="#D6D3CD"/>
<path d="M92.1641 58.1011H92.2731L94.4131 65.3591H89.9431L92.1641 58.1011ZM90.3221 53.8491L84.0391 72.2651H87.8311L89.0221 68.3371H95.3051L96.5241 72.2651H100.313L94.0571 53.8491H90.3221Z" fill="#D6D3CD"/>
<path d="M148.167 65.9011V60.2131C148.167 57.7761 146.19 56.4221 143.752 56.4221C141.314 56.4221 139.338 57.7761 139.338 60.2131V65.9011C139.338 68.3381 141.316 69.6921 143.752 69.6921C146.188 69.6921 148.167 68.3381 148.167 65.9011ZM143.752 72.6721C138.552 72.6721 135.547 69.3411 135.547 63.0581C135.547 56.7751 138.553 53.4441 143.752 53.4441C148.951 53.4441 151.959 56.7751 151.959 63.0581C151.959 69.3411 148.951 72.6721 143.752 72.6721Z" fill="#D6D3CD"/>
<path d="M154.621 63.1121C154.621 57.2631 157.194 53.4431 162.529 53.4431C166.321 53.4431 169.082 55.7181 169.329 59.3431H165.808C165.618 57.3931 164.373 56.4191 162.287 56.4191C161.777 56.387 161.266 56.4624 160.787 56.6405C160.308 56.8185 159.872 57.0952 159.507 57.4527C159.142 57.8101 158.856 58.2403 158.668 58.7153C158.48 59.1904 158.394 59.6996 158.415 60.2101V65.8501C158.414 66.367 158.518 66.8787 158.719 67.3547C158.921 67.8307 159.216 68.2611 159.588 68.6202C159.96 68.9792 160.4 69.2596 160.883 69.4445C161.366 69.6294 161.881 69.7149 162.397 69.6961C164.59 69.6961 165.755 68.8021 166.107 66.6361H169.626C169.058 70.8611 166.188 72.6751 162.341 72.6751C157.033 72.6751 154.622 68.6671 154.622 63.1151" fill="#D6D3CD"/>
<path d="M172.54 53.8491H176.061V72.2651H172.54V53.8491Z" fill="#D6D3CD"/>
<path d="M186.736 58.1011H186.844L188.984 65.3591H184.515L186.736 58.1011ZM184.894 53.8491L178.611 72.2651H182.402L183.595 68.3371H189.877L191.096 72.2651H194.888L188.632 53.8491H184.894Z" fill="#D6D3CD"/>
<path d="M193.688 53.8491V56.8281H198.859V72.2651H202.38V56.8281H207.551V53.8491H193.688Z" fill="#D6D3CD"/>
<path d="M210.656 53.8491H214.177V72.2651H210.656V53.8491Z" fill="#D6D3CD"/>
<path d="M229.564 65.9011V60.2131C229.564 57.7761 227.586 56.4221 225.149 56.4221C222.712 56.4221 220.735 57.7761 220.735 60.2131V65.9011C220.735 68.3381 222.712 69.6921 225.149 69.6921C227.586 69.6921 229.564 68.3381 229.564 65.9011ZM225.149 72.6721C219.949 72.6721 216.943 69.3411 216.943 63.0581C216.943 56.7751 219.95 53.4441 225.149 53.4441C230.348 53.4441 233.356 56.7751 233.356 63.0581C233.356 69.3411 230.348 72.6721 225.149 72.6721Z" fill="#D6D3CD"/>
<path d="M247.006 53.8491V67.8771H246.898L241.398 53.8491H236.117V72.2651H239.612V58.2091H239.72L245.22 72.2651H250.501V53.8491H247.006Z" fill="#D6D3CD"/>
<path d="M122.668 58.507C122.668 59.916 123.526 60.565 125.268 61.026L128.378 61.838C131.489 62.651 133.098 64.222 133.098 67.255C133.098 70.64 130.229 72.671 126.046 72.671C121.997 72.671 118.967 71.046 118.646 66.771H122.132C122.427 68.938 123.848 69.777 125.994 69.777C128.032 69.777 129.614 68.883 129.614 67.285C129.614 65.985 128.814 65.255 127.174 64.822L123.607 63.874C120.631 63.089 119.183 61.247 119.183 58.539C119.183 55.56 121.758 53.447 125.833 53.447C129.587 53.447 132.269 55.153 132.644 58.999H129.158C128.943 56.941 127.442 56.344 125.779 56.344C123.848 56.344 122.668 57.184 122.668 58.511" fill="#D6D3CD"/>
<path d="M105.818 58.507C105.818 59.916 106.676 60.565 108.418 61.026L111.528 61.838C114.639 62.651 116.248 64.222 116.248 67.255C116.248 70.64 113.379 72.671 109.196 72.671C105.147 72.671 102.117 71.046 101.796 66.771H105.278C105.573 68.938 106.994 69.777 109.14 69.777C111.178 69.777 112.76 68.883 112.76 67.285C112.76 65.985 111.96 65.255 110.32 64.822L106.753 63.874C103.777 63.089 102.329 61.247 102.329 58.539C102.329 55.56 104.904 53.447 108.979 53.447C112.733 53.447 115.414 55.153 115.79 58.999H112.308C112.093 56.941 110.592 56.344 108.929 56.344C106.998 56.344 105.818 57.184 105.818 58.511" fill="#D6D3CD"/>
</g>
<defs>
<clipPath id="clip0_1228_1876">
<rect width="220" height="45.171" fill="white" transform="translate(30.5 27.5)"/>
</clipPath>
</defs>
</svg>
