<svg width="281" height="101" viewBox="0 0 281 101" fill="none" xmlns="http://www.w3.org/2000/svg">
<path d="M37.1719 31.6238V69.3973H86.8973V58.5755H53.3703V55.8701H86.8973V45.0825H53.3703V42.3771H86.8973V31.6238H37.1719Z" fill="#D6D3CD"/>
<path d="M141.657 31.6238V69.3973H157.856V55.8701H191.383V45.0825H157.856V42.3771H191.383V31.6238H141.657Z" fill="#D6D3CD"/>
<path d="M194.088 31.6238V69.3973H210.286V55.8701H243.813V45.0825H210.286V42.3771H243.813V31.6238H194.088Z" fill="#D6D3CD"/>
<path d="M89.6035 31.6238H93.2336V33.2676H91.1788V36.11H92.6514V37.8566H91.1788V40.836H93.2336V42.4798H89.6035V31.6238Z" fill="#D6D3CD"/>
<path d="M94.0889 31.6238H95.6643V40.9387H97.7533V42.4113H94.0547L94.0889 31.6238Z" fill="#D6D3CD"/>
<path d="M98.6094 31.6238H102.239V33.2676H100.185V36.11H101.657V37.8566H100.185V40.836H102.239V42.4798H98.6094V31.6238Z" fill="#D6D3CD"/>
<path d="M107.309 38.7128V40.1853C107.309 40.6305 107.206 41.0073 107.035 41.3497C106.898 41.6579 106.693 41.9319 106.419 42.1374C106.11 42.3771 105.734 42.5141 105.186 42.5141C104.672 42.5141 104.261 42.3771 103.953 42.1374C103.645 41.9319 103.473 41.6237 103.336 41.3497C103.165 41.0073 103.097 40.6305 103.062 40.1853V33.8498C103.062 33.4389 103.165 33.0279 103.336 32.6854C103.473 32.3772 103.645 32.1032 103.953 31.8635C104.261 31.658 104.672 31.4868 105.186 31.4868C105.699 31.4868 106.11 31.6238 106.419 31.8635C106.727 32.069 106.932 32.3772 107.035 32.6854C107.206 33.0279 107.275 33.4046 107.309 33.8498V35.3224H105.836V33.8498C105.836 33.5416 105.768 33.3361 105.597 33.1649C105.528 33.0964 105.391 33.0621 105.22 33.0621C104.946 33.0621 104.809 33.2676 104.741 33.4731C104.706 33.5758 104.672 33.7128 104.672 33.884V40.2538C104.672 40.5621 104.775 40.7675 104.912 40.9388C104.98 41.0073 105.083 41.0415 105.22 41.0415C105.562 41.0415 105.699 40.8703 105.768 40.6305C105.802 40.5278 105.836 40.3908 105.836 40.2196V38.747L107.309 38.7128Z" fill="#D6D3CD"/>
<path d="M107.788 33.2676V31.6238H112.377V33.2676H110.87V42.4456H109.295V33.2676H107.788Z" fill="#D6D3CD"/>
<path d="M115.905 42.4456L115.083 37.8908H114.672V42.4456H113.097V31.6238H114.672C116.556 31.6238 117.377 32.6854 117.377 34.7402C117.377 35.8018 117.103 36.795 116.487 37.2059L117.514 42.4456H115.905ZM114.672 36.3498C114.877 36.3498 115.186 36.3155 115.425 36.11C115.665 35.9045 115.836 35.4936 115.836 34.7402C115.836 33.9868 115.631 33.5758 115.425 33.3703C115.186 33.1649 114.912 33.1649 114.672 33.1649V36.3498Z" fill="#D6D3CD"/>
<path d="M122.582 40.2196C122.582 40.6648 122.48 41.0415 122.308 41.384C122.172 41.6922 121.966 41.9662 121.692 42.1716C121.384 42.4114 121.007 42.5483 120.459 42.5483C119.946 42.5483 119.535 42.4114 119.226 42.1716C118.918 41.9662 118.747 41.6579 118.61 41.384C118.439 41.0415 118.37 40.6648 118.336 40.2196V33.8498C118.336 33.4389 118.439 33.0279 118.61 32.6854C118.747 32.3772 118.918 32.1032 119.226 31.8635C119.535 31.658 119.946 31.4868 120.459 31.4868C120.973 31.4868 121.384 31.6238 121.692 31.8635C122 32.069 122.206 32.3772 122.308 32.6854C122.48 33.0279 122.548 33.4046 122.582 33.8498V40.2196ZM121.007 33.8156C121.007 33.5073 120.939 33.3019 120.802 33.1306C120.733 33.0621 120.596 33.0279 120.493 33.0279C120.219 33.0279 120.082 33.2334 120.014 33.4389C119.98 33.5416 119.946 33.6786 119.946 33.8498V40.2196C119.946 40.5278 120.014 40.7333 120.151 40.9045C120.219 40.973 120.322 41.0073 120.459 41.0073C120.733 41.0073 120.87 40.836 120.939 40.5963C120.973 40.4936 121.007 40.3566 121.007 40.1853V33.8156Z" fill="#D6D3CD"/>
<path d="M125.424 36.7949L125.287 36.2813H125.184V42.4113H123.712V31.6238H125.116L126.657 37.2402L126.794 37.7538H126.897V31.6238H128.369V42.4456H126.965L125.424 36.7949Z" fill="#D6D3CD"/>
<path d="M129.603 31.6238H131.178V42.4456H129.603V31.6238Z" fill="#D6D3CD"/>
<path d="M136.589 38.7128V40.1853C136.589 40.6305 136.487 41.0073 136.315 41.3497C136.178 41.6579 135.973 41.9319 135.699 42.1374C135.391 42.3771 135.014 42.5141 134.466 42.5141C133.952 42.5141 133.541 42.3771 133.233 42.1374C132.925 41.9319 132.754 41.6237 132.617 41.3497C132.446 41.0073 132.377 40.6305 132.343 40.1853V33.8498C132.343 33.4389 132.446 33.0279 132.617 32.6854C132.754 32.3772 132.925 32.1032 133.233 31.8635C133.541 31.658 133.952 31.4868 134.466 31.4868C134.98 31.4868 135.391 31.6238 135.699 31.8635C136.007 32.069 136.213 32.3772 136.315 32.6854C136.487 33.0279 136.555 33.4046 136.589 33.8498V35.3224H135.117V33.8498C135.117 33.5416 135.048 33.3361 134.877 33.1649C134.808 33.0964 134.672 33.0621 134.5 33.0621C134.226 33.0621 134.089 33.2676 134.021 33.4731C133.987 33.5758 133.952 33.7128 133.952 33.884V40.2538C133.952 40.5621 134.055 40.7675 134.192 40.9388C134.261 41.0073 134.363 41.0415 134.5 41.0415C134.843 41.0415 134.98 40.8703 135.048 40.6305C135.082 40.5278 135.117 40.3908 135.117 40.2196V38.747L136.589 38.7128Z" fill="#D6D3CD"/>
<path d="M93.2336 46.7605H91.1788V49.6029H92.6514V51.2468H91.1788V55.9385H89.6035V45.1167H93.2336V46.7605Z" fill="#D6D3CD"/>
<path d="M96.9322 55.9385L96.1103 51.3837H95.6993V55.9385H94.124V45.1167H95.6993C97.5829 45.1167 98.4048 46.1783 98.4048 48.2331C98.4048 49.2947 98.1308 50.2879 97.5144 50.6988L98.5418 55.9385H96.9322ZM95.6993 49.8769C95.9048 49.8769 96.213 49.8427 96.4528 49.6372C96.6925 49.4317 96.8637 49.0208 96.8637 48.2673C96.8637 47.5139 96.6582 47.103 96.4528 46.8975C96.213 46.692 95.9391 46.692 95.6993 46.692V49.8769Z" fill="#D6D3CD"/>
<path d="M103.61 53.6783C103.61 54.1235 103.507 54.5002 103.336 54.8427C103.199 55.1509 102.993 55.4249 102.719 55.6304C102.411 55.8701 102.034 56.0071 101.487 56.0071C100.973 56.0071 100.562 55.8701 100.254 55.6304C99.9455 55.4249 99.7742 55.1167 99.6373 54.8427C99.466 54.5002 99.3975 54.1235 99.3633 53.6783V47.3085C99.3633 46.8976 99.466 46.4866 99.6373 46.1442C99.7742 45.836 99.9455 45.562 100.254 45.3223C100.562 45.1168 100.973 44.9456 101.487 44.9456C102 44.9456 102.411 45.0825 102.719 45.3223C103.028 45.5277 103.233 45.836 103.336 46.1442C103.507 46.4866 103.576 46.8633 103.61 47.3085V53.6783ZM102.034 47.3085C102.034 47.0003 101.966 46.7948 101.829 46.6236C101.761 46.5551 101.624 46.5209 101.521 46.5209C101.247 46.5209 101.11 46.7264 101.041 46.9318C101.007 47.0346 100.973 47.1716 100.973 47.3428V53.7126C100.973 54.0208 101.041 54.2263 101.178 54.3975C101.247 54.466 101.35 54.5002 101.487 54.5002C101.761 54.5002 101.897 54.329 101.966 54.0893C102 53.9865 102.034 53.8496 102.034 53.6783V47.3085Z" fill="#D6D3CD"/>
<path d="M106.453 50.2534L106.316 49.7398H106.213V55.8698H104.74V45.0823H106.144L107.685 50.6986L107.822 51.2123H107.925V45.0823H109.398V55.9041H107.994L106.453 50.2534Z" fill="#D6D3CD"/>
<path d="M110.083 46.7605V45.1167H114.672V46.7605H113.165V55.9385H111.59V46.7605H110.083Z" fill="#D6D3CD"/>
<path d="M115.356 45.0823H116.932V55.9041H115.356V45.0823Z" fill="#D6D3CD"/>
<path d="M118.199 45.0823H121.829V46.7261H119.775V49.5685H121.247V51.3151H119.775V54.2945H121.829V55.9383H118.199V45.0823Z" fill="#D6D3CD"/>
<path d="M125.631 55.9385L124.809 51.3837H124.398V55.9385H122.788V45.1167H124.363C126.247 45.1167 127.069 46.1783 127.069 48.2331C127.069 49.2947 126.795 50.2879 126.178 50.6988L127.206 55.9385H125.631ZM124.398 49.8769C124.603 49.8769 124.911 49.8427 125.151 49.6372C125.391 49.4317 125.562 49.0208 125.562 48.2673C125.562 47.5139 125.357 47.103 125.151 46.8975C124.911 46.692 124.637 46.692 124.398 46.692V49.8769Z" fill="#D6D3CD"/>
<path d="M93.2336 60.2534H91.1788V63.0959H92.6514V64.7397H91.1788V69.4314H89.6035V58.6096H93.2336V60.2534Z" fill="#D6D3CD"/>
<path d="M98.2329 67.1713C98.2329 67.6165 98.1301 67.9932 97.9589 68.3356C97.8219 68.6438 97.6164 68.9178 97.3425 69.1233C97.0342 69.363 96.6575 69.5 96.1096 69.5C95.5959 69.5 95.1849 69.363 94.8767 69.1233C94.5685 68.9178 94.3973 68.6096 94.2603 68.3356C94.0891 67.9932 94.0206 67.6165 93.9863 67.1713V60.8015C93.9863 60.3905 94.0891 59.9796 94.2603 59.6371C94.3973 59.3289 94.5685 59.0549 94.8767 58.8152C95.1849 58.6097 95.5959 58.4385 96.1096 58.4385C96.6233 58.4385 97.0342 58.5755 97.3425 58.8152C97.6507 59.0207 97.8561 59.3289 97.9589 59.6371C98.1301 59.9796 98.1986 60.3563 98.2329 60.8015V67.1713ZM96.6575 60.8015C96.6575 60.4932 96.589 60.2878 96.4521 60.1165C96.3836 60.048 96.2466 60.0138 96.1438 60.0138C95.8699 60.0138 95.7329 60.2193 95.6644 60.4248C95.6301 60.5275 95.5959 60.6645 95.5959 60.8357V67.2055C95.5959 67.5137 95.6644 67.7192 95.8014 67.8904C95.8699 67.9589 95.9726 67.9932 96.1096 67.9932C96.3836 67.9932 96.5205 67.8219 96.589 67.5822C96.6233 67.4795 96.6575 67.3425 96.6575 67.1713V60.8015Z" fill="#D6D3CD"/>
<path d="M103.61 58.5754V67.1712C103.61 67.6164 103.507 67.9931 103.336 68.3356C103.199 68.6438 102.993 68.9178 102.719 69.1233C102.411 69.363 102.034 69.5 101.487 69.5C100.973 69.5 100.562 69.363 100.254 69.1233C99.9455 68.9178 99.7742 68.6096 99.6373 68.3356C99.466 67.9931 99.3975 67.6164 99.3633 67.1712V58.5754H100.939V67.1712C100.939 67.4794 101.007 67.6849 101.144 67.8562C101.213 67.9246 101.315 67.9589 101.452 67.9589C101.726 67.9589 101.863 67.7877 101.932 67.5479C101.966 67.4452 102 67.3082 102 67.137V58.5754H103.61Z" fill="#D6D3CD"/>
<path d="M106.521 63.7466L106.384 63.2329H106.281V69.3972H104.809V58.5754H106.213L107.754 64.1918L107.891 64.7055H107.993V58.5754H109.466V69.3972H108.062L106.521 63.7466Z" fill="#D6D3CD"/>
<path d="M110.733 69.3972V58.5754H112.001C113.473 58.5754 114.261 58.8837 114.706 59.7056C115.117 60.5275 115.185 61.8973 115.185 63.9863C115.185 66.1096 115.117 67.4452 114.706 68.2671C114.295 69.089 113.473 69.3972 112.001 69.3972H110.733ZM112.309 67.8219C112.857 67.8219 113.165 67.7534 113.336 67.2397C113.405 67 113.473 66.6233 113.473 66.0753C113.473 65.5617 113.473 64.8767 113.473 63.9863C113.473 63.0959 113.473 62.411 113.473 61.8973C113.473 61.3836 113.405 61.0069 113.336 60.7329C113.165 60.2193 112.857 60.1508 112.309 60.1508V67.8219Z" fill="#D6D3CD"/>
<path d="M115.699 69.3972L117.343 58.5754H119.295L120.939 69.3972H119.364L119.055 67.2055H117.514L117.206 69.3972H115.699ZM118.405 62.137L118.37 61.8631H118.268L118.233 62.137L117.788 65.5617H118.884L118.405 62.137Z" fill="#D6D3CD"/>
<path d="M120.699 60.2534V58.6096H125.288V60.2534H123.781V69.4314H122.206V60.2534H120.699Z" fill="#D6D3CD"/>
<path d="M126.213 58.5754H127.788V69.3972H126.213V58.5754Z" fill="#D6D3CD"/>
<path d="M133.164 67.1713C133.164 67.6165 133.062 67.9932 132.891 68.3356C132.754 68.6438 132.548 68.9178 132.274 69.1233C131.966 69.363 131.589 69.5 131.041 69.5C130.528 69.5 130.117 69.363 129.808 69.1233C129.5 68.9178 129.329 68.6096 129.192 68.3356C129.021 67.9932 128.952 67.6165 128.918 67.1713V60.8015C128.918 60.3905 129.021 59.9796 129.192 59.6371C129.329 59.3289 129.5 59.0549 129.808 58.8152C130.117 58.6097 130.528 58.4385 131.041 58.4385C131.555 58.4385 131.966 58.5755 132.274 58.8152C132.582 59.0207 132.788 59.3289 132.891 59.6371C133.062 59.9796 133.13 60.3563 133.164 60.8015V67.1713ZM131.589 60.8015C131.589 60.4932 131.521 60.2878 131.384 60.1165C131.315 60.048 131.178 60.0138 131.075 60.0138C130.802 60.0138 130.665 60.2193 130.596 60.4248C130.562 60.5275 130.528 60.6645 130.528 60.8357V67.2055C130.528 67.5137 130.596 67.7192 130.733 67.8904C130.802 67.9589 130.904 67.9932 131.041 67.9932C131.315 67.9932 131.452 67.8219 131.521 67.5822C131.555 67.4795 131.589 67.3425 131.589 67.1713V60.8015Z" fill="#D6D3CD"/>
<path d="M136.006 63.7466L135.869 63.2329H135.767V69.3972H134.294V58.5754H135.698L137.239 64.1918L137.376 64.7055H137.479V58.5754H138.951V69.3972H137.547L136.006 63.7466Z" fill="#D6D3CD"/>
<rect x="0.5" y="0.5" width="280" height="100" stroke="#D6D3CD"/>
</svg>
