<svg width="281" height="101" viewBox="0 0 281 101" fill="none" xmlns="http://www.w3.org/2000/svg">
<rect x="0.5" y="0.5" width="280" height="100" stroke="#D6D3CD"/>
<path fill-rule="evenodd" clip-rule="evenodd" d="M81.0557 70.9838V73.1059H40.5L40.5004 70.9838H81.0557ZM79.4548 67.8006V70.4533H42.1009V67.8006H79.4548ZM46.0126 39.1523L46.4578 39.376L46.6807 42.9537L46.9035 48.767V54.3578L46.6807 61.3271L46.6436 66.0221L46.0126 66.2091H43.7854L43.1173 66.0221L42.8578 61.3271L42.6345 54.3951V48.8046L42.8578 42.9537L43.0615 39.3568L43.5259 39.1523H46.0126ZM78.0305 39.1523L78.4763 39.376L78.6987 42.9537L78.9212 48.767V54.3578L78.6987 61.3271L78.6621 66.0221L78.0305 66.2091H75.8033L75.135 66.0221L74.8746 61.3271L74.6522 54.3951V48.8046L74.8746 42.9537L75.0792 39.3568L75.5433 39.1523H78.0305ZM55.6178 39.1523L56.0631 39.376L56.286 42.9537L56.5088 48.767V54.3578L56.286 61.3271L56.2493 66.0221L55.6178 66.2091H53.3904L52.7218 66.0221L52.4623 61.3271L52.2398 54.3951V48.8046L52.4623 42.9537L52.6668 39.3568L53.1304 39.1523H55.6178ZM67.8912 39.1523L68.3365 39.376L68.5594 42.9537L68.7823 48.767V54.3578L68.5594 61.3271L68.5228 66.0221L67.8912 66.2091H65.6638L64.9956 66.0221L64.7357 61.3271L64.5133 54.3951V48.8046L64.7357 42.9537L64.9402 39.3568L65.4043 39.1523H67.8912ZM79.4548 34.3775V38.0912H42.1009V34.3775H79.4548ZM60.3936 27.4807L79.9885 31.9418L79.2029 33.3165H41.674L40.5 32.2016L60.3936 27.4807Z" fill="#D6D3CD"/>
<mask id="mask0_1230_2062" style="mask-type:luminance" maskUnits="userSpaceOnUse" x="40" y="27" width="42" height="47">
<path fill-rule="evenodd" clip-rule="evenodd" d="M81.0557 70.9838V73.1059H40.5L40.5004 70.9838H81.0557ZM79.4548 67.8006V70.4533H42.1009V67.8006H79.4548ZM46.0126 39.1523L46.4578 39.376L46.6807 42.9537L46.9035 48.767V54.3578L46.6807 61.3271L46.6436 66.0221L46.0126 66.2091H43.7854L43.1173 66.0221L42.8578 61.3271L42.6345 54.3951V48.8046L42.8578 42.9537L43.0615 39.3568L43.5259 39.1523H46.0126ZM78.0305 39.1523L78.4763 39.376L78.6987 42.9537L78.9212 48.767V54.3578L78.6987 61.3271L78.6621 66.0221L78.0305 66.2091H75.8033L75.135 66.0221L74.8746 61.3271L74.6522 54.3951V48.8046L74.8746 42.9537L75.0792 39.3568L75.5433 39.1523H78.0305ZM55.6178 39.1523L56.0631 39.376L56.286 42.9537L56.5088 48.767V54.3578L56.286 61.3271L56.2493 66.0221L55.6178 66.2091H53.3904L52.7218 66.0221L52.4623 61.3271L52.2398 54.3951V48.8046L52.4623 42.9537L52.6668 39.3568L53.1304 39.1523H55.6178ZM67.8912 39.1523L68.3365 39.376L68.5594 42.9537L68.7823 48.767V54.3578L68.5594 61.3271L68.5228 66.0221L67.8912 66.2091H65.6638L64.9956 66.0221L64.7357 61.3271L64.5133 54.3951V48.8046L64.7357 42.9537L64.9402 39.3568L65.4043 39.1523H67.8912ZM79.4548 34.3775V38.0912H42.1009V34.3775H79.4548ZM60.3936 27.4807L79.9885 31.9418L79.2029 33.3165H41.674L40.5 32.2016L60.3936 27.4807Z" fill="#D6D3CD"/>
</mask>
<g mask="url(#mask0_1230_2062)">
<path fill-rule="evenodd" clip-rule="evenodd" d="M40.5 27.4807H81.0557V73.1059H40.5V27.4807Z" fill="#D6D3CD"/>
</g>
<path fill-rule="evenodd" clip-rule="evenodd" d="M99.5718 57.295C99.7128 56.8099 99.9717 55.8126 99.9717 55.6125C99.9717 54.4726 99.1006 54.4443 98.1596 54.274V53.6477H102.584L108.326 72.8207H105.88L104.114 66.895H98.1122L96.3469 72.8207H94.8887L99.5718 57.295ZM98.5122 65.5558H103.713L101.031 57.2369L98.5122 65.5558Z" fill="#D6D3CD"/>
<path fill-rule="evenodd" clip-rule="evenodd" d="M115.082 57.5227C115.082 54.7018 115.034 54.7018 112.846 54.274V53.6477H118.635C120.401 53.6477 125.272 53.6477 125.272 58.7477C125.272 61.995 123.531 63.0781 121.672 63.4477L126.002 72.8207H123.297L119.131 63.9605H117.671V72.8207H115.082V57.5227ZM117.671 62.622H119.013C120.542 62.622 122.684 62.1099 122.684 58.9187C122.684 55.8409 121.225 54.9862 119.247 54.9862C117.671 54.9862 117.671 55.499 117.671 57.5511V62.622Z" fill="#D6D3CD"/>
<path fill-rule="evenodd" clip-rule="evenodd" d="M141.984 72.0228C141.185 72.4512 139.889 73.1059 137.466 73.1059C132.358 73.1059 130.522 69.3742 130.522 62.9641C130.522 57.7796 131.84 53.562 137.089 53.562C139.184 53.562 140.714 53.989 141.796 54.4167L141.937 59.1756H141.255C141.16 57.7215 139.866 54.9296 137.324 54.9296C133.865 54.9296 133.299 59.4019 133.299 62.9641C133.299 67.4647 134.595 71.5107 137.865 71.5107C140.101 71.5107 141.255 70.6559 141.984 70.058V72.0228Z" fill="#D6D3CD"/>
<path fill-rule="evenodd" clip-rule="evenodd" d="M148.858 57.4093C148.858 55.1565 148.717 54.9004 146.504 54.6167V53.989L151.447 53.335V62.166H157.848V53.6478H160.437V72.8207H157.848V63.5045H151.447V72.8207H148.858V57.4093Z" fill="#D6D3CD"/>
<path fill-rule="evenodd" clip-rule="evenodd" d="M164.956 72.1091C166.626 72.1091 166.956 71.6821 166.956 69.4598V57.2084C166.956 54.9861 166.626 54.5598 164.956 54.5598V53.8462H171.545V54.5598C169.897 54.5598 169.546 54.9861 169.546 57.2084V69.4598C169.546 71.6821 169.897 72.1091 171.545 72.1091V72.8205H164.956V72.1091Z" fill="#D6D3CD"/>
<path fill-rule="evenodd" clip-rule="evenodd" d="M178.914 57.295C178.161 54.7018 177.949 54.7018 176.066 54.274V53.6477H180.632L185.245 69.2599H185.292L189.788 53.6477H191.316L185.575 72.8207H183.528L178.914 57.295Z" fill="#D6D3CD"/>
<path fill-rule="evenodd" clip-rule="evenodd" d="M198.072 57.5227C198.072 54.7018 198.001 54.7018 195.836 54.274V53.6477H207.11L207.18 57.8639H206.521C206.521 55.5849 205.533 54.9862 203.979 54.9862H202.143C200.967 54.9862 200.661 55.0997 200.661 56.468V62.1376H203.509C205.132 62.1376 205.297 60.8849 205.439 59.9451H206.097V65.9268H205.439C205.439 64.3882 204.921 63.4761 203.509 63.4761H200.661V69.8294C200.661 71.4247 200.967 71.4822 202.143 71.4822H204.757C206.097 71.4822 206.732 70.9119 206.874 68.6903H207.533L207.462 72.8207H198.072V57.5227Z" fill="#D6D3CD"/>
<path fill-rule="evenodd" clip-rule="evenodd" d="M97.2569 42.5315V30.8699C97.2569 28.7552 96.866 28.3474 94.8887 28.3474V27.6702H102.691V28.3474C100.741 28.3474 100.323 28.7552 100.323 30.8699V42.5315C100.323 44.647 100.741 45.0521 102.691 45.0521V45.7306H94.8887V45.0521C96.866 45.0521 97.2569 44.647 97.2569 42.5315Z" fill="#D6D3CD"/>
<path fill-rule="evenodd" clip-rule="evenodd" d="M109.993 30.9512C109.993 28.4293 109.604 28.5384 107.207 28.0774V27.4807H113.087L121.865 42.233H121.92V27.4807H123.676V45.7308H121L111.805 30.302H111.749V45.7308H109.993V30.9512Z" fill="#D6D3CD"/>
<path fill-rule="evenodd" clip-rule="evenodd" d="M133.906 28.7553H131.983C129.782 28.7553 129.141 29.4332 128.973 31.4143H128.193L128.304 27.4807H142.572L142.684 31.4947H141.903C141.903 29.4066 141.011 28.7553 138.866 28.7553H136.972V45.7308H133.906V28.7553Z" fill="#D6D3CD"/>
<path fill-rule="evenodd" clip-rule="evenodd" d="M149.848 31.1688C149.848 28.4839 149.763 28.4839 147.199 28.0774V27.4807H160.547L160.631 31.4947H159.85C159.85 29.3247 158.681 28.7553 156.842 28.7553H154.668C153.274 28.7553 152.912 28.8644 152.912 30.1663V35.5627H156.284C158.206 35.5627 158.401 34.3686 158.569 33.4732H159.35V39.1689H158.569C158.569 37.7047 157.956 36.8372 156.284 36.8372H152.912V42.8842C152.912 44.403 153.274 44.4562 154.668 44.4562H157.761C159.35 44.4562 160.101 43.914 160.268 41.7992H161.049L160.965 45.7308H149.848V31.1688Z" fill="#D6D3CD"/>
<path fill-rule="evenodd" clip-rule="evenodd" d="M168.212 31.1688C168.212 28.4839 168.157 28.4839 165.566 28.0774V27.4807H172.42C174.511 27.4807 180.278 27.4807 180.278 32.3349C180.278 35.427 178.218 36.4574 176.015 36.81L181.143 45.7308H177.938L173.006 37.2969H171.278V45.7308H168.212V31.1688ZM171.278 36.0223H172.867C174.678 36.0223 177.214 35.5354 177.214 32.4986C177.214 29.5682 175.486 28.7553 173.145 28.7553C171.278 28.7553 171.278 29.2429 171.278 31.1974V36.0223Z" fill="#D6D3CD"/>
<path fill-rule="evenodd" clip-rule="evenodd" d="M188.446 30.9512C188.446 28.4293 188.055 28.5384 185.659 28.0774V27.4807H191.538L200.316 42.233H200.372V27.4807H202.128V45.7308H199.453L190.257 30.302H190.201V45.7308H188.446V30.9512Z" fill="#D6D3CD"/>
<path fill-rule="evenodd" clip-rule="evenodd" d="M209.292 31.1688C209.292 28.4839 209.209 28.4839 206.645 28.0774V27.4807H219.992L220.076 31.4947H219.296C219.296 29.3247 218.125 28.7553 216.286 28.7553H214.112C212.72 28.7553 212.357 28.8644 212.357 30.1663V35.5627H215.729C217.652 35.5627 217.845 34.3686 218.013 33.4732H218.794V39.1689H218.013C218.013 37.7047 217.401 36.8372 215.729 36.8372H212.357V42.8842C212.357 44.403 212.72 44.4562 214.112 44.4562H217.205C218.794 44.4562 219.546 43.914 219.714 41.7992H220.494L220.41 45.7308H209.292V31.1688Z" fill="#D6D3CD"/>
<path fill-rule="evenodd" clip-rule="evenodd" d="M230.722 28.7553H228.8C226.598 28.7553 225.957 29.4332 225.789 31.4143H225.01L225.122 27.4807H239.388L239.499 31.4947H238.72C238.72 29.4066 237.828 28.7553 235.682 28.7553H233.787V45.7308H230.722V28.7553Z" fill="#D6D3CD"/>
</svg>
