<svg width="281" height="101" viewBox="0 0 281 101" fill="none" xmlns="http://www.w3.org/2000/svg">
<rect x="0.5" y="0.5" width="280" height="100" stroke="#D6D3CD"/>
<g clip-path="url(#clip0_1230_2104)">
<path d="M26.6211 60.4539L45.5854 49.4158V71.4919L26.6211 60.4539Z" fill="#B8B4AC"/>
<path d="M64.5508 60.4539L45.5864 49.4158V71.4919L64.5508 60.4539Z" fill="#7C776F"/>
<path d="M31.6295 52.8003L40.6587 55.558L26.5423 60.5359L31.6295 52.8003Z" fill="#B8B4AC"/>
<path d="M59.4638 52.2385L50.1337 55.3249L64.5635 60.4133L59.4638 52.2385Z" fill="#7C776F"/>
<path d="M45.757 29.5L60.849 54.3293H30.665L45.757 29.5Z" fill="#B8B4AC"/>
<path d="M45.5854 71.2129L30.7215 54.329H60.3135L45.5854 71.2129Z" fill="#9A958C"/>
<path d="M45.5854 71.2129L30.7215 54.329H60.3135L45.5854 71.2129Z" fill="#9A958C"/>
<path d="M35.5705 46.2521L40.2008 54.3432L30.6515 54.1817L35.5705 46.2521Z" fill="#FBFAF9"/>
<path d="M61.8164 56.6465H62.1581V57.3086H61.8164V56.6465Z" fill="#7C776F"/>
<path d="M60.1084 54.3293H60.7918V55.3225H60.1084V54.3293Z" fill="#7C776F"/>
</g>
<path d="M85.0962 55.4321H80.6945V52.6166H85.0962C85.7764 52.6166 86.3301 52.5043 86.7572 52.2797C87.1843 52.0471 87.4967 51.7262 87.6945 51.3172C87.8922 50.9081 87.9911 50.4468 87.9911 49.9335C87.9911 49.4121 87.8922 48.9268 87.6945 48.4776C87.4967 48.0284 87.1843 47.6674 86.7572 47.3947C86.3301 47.122 85.7764 46.9856 85.0962 46.9856H81.9284V61.6767H78.3691V44.1581H85.0962C86.4487 44.1581 87.6075 44.4068 88.5724 44.9041C89.5453 45.3934 90.2888 46.0712 90.8029 46.9375C91.317 47.8038 91.5741 48.7944 91.5741 49.9094C91.5741 51.0404 91.317 52.019 90.8029 52.8452C90.2888 53.6714 89.5453 54.3091 88.5724 54.7583C87.6075 55.2075 86.4487 55.4321 85.0962 55.4321Z" fill="#D6D3CD"/>
<path d="M97.9623 51.4976V61.6767H94.5454V48.6581H97.7606L97.9623 51.4976ZM101.83 48.5739L101.771 51.7864C101.605 51.7623 101.403 51.7423 101.166 51.7262C100.936 51.7022 100.727 51.6901 100.537 51.6901C100.054 51.6901 99.6352 51.7543 99.2792 51.8827C98.9312 52.003 98.6386 52.1835 98.4013 52.4241C98.1719 52.6647 97.9979 52.9575 97.8793 53.3024C97.7685 53.6474 97.7052 54.0404 97.6894 54.4816L97.0013 54.265C97.0013 53.4228 97.0843 52.6487 97.2504 51.9428C97.4165 51.2289 97.6578 50.6073 97.9742 50.0779C98.2985 49.5485 98.6939 49.1394 99.1606 48.8506C99.6273 48.5618 100.161 48.4174 100.762 48.4174C100.952 48.4174 101.146 48.4335 101.344 48.4656C101.541 48.4896 101.704 48.5257 101.83 48.5739Z" fill="#D6D3CD"/>
<path d="M108.195 60.2088L111.6 48.6581H115.266L110.105 63.6379C109.994 63.9668 109.844 64.3197 109.654 64.6967C109.472 65.0737 109.223 65.4307 108.906 65.7676C108.598 66.1125 108.206 66.3932 107.732 66.6098C107.265 66.8264 106.692 66.9347 106.012 66.9347C105.687 66.9347 105.422 66.9146 105.217 66.8745C105.011 66.8344 104.766 66.7783 104.481 66.7061V64.1673C104.568 64.1673 104.659 64.1673 104.754 64.1673C104.849 64.1753 104.94 64.1794 105.027 64.1794C105.478 64.1794 105.845 64.1272 106.13 64.0229C106.415 63.9187 106.644 63.7582 106.818 63.5417C106.992 63.3331 107.131 63.0604 107.234 62.7235L108.195 60.2088ZM106.771 48.6581L109.559 58.0912L110.045 61.7609L107.72 62.0136L103.105 48.6581H106.771Z" fill="#D6D3CD"/>
<path d="M124.3 58.0791C124.3 57.8305 124.228 57.6059 124.086 57.4053C123.944 57.2048 123.679 57.0203 123.291 56.8519C122.911 56.6754 122.362 56.515 121.642 56.3706C120.993 56.2262 120.388 56.0457 119.827 55.8292C119.273 55.6046 118.791 55.3358 118.379 55.023C117.976 54.7102 117.66 54.3412 117.43 53.9161C117.201 53.4829 117.086 52.9896 117.086 52.4361C117.086 51.8907 117.201 51.3773 117.43 50.896C117.667 50.4148 118.004 49.9896 118.439 49.6206C118.882 49.2436 119.419 48.9509 120.052 48.7423C120.693 48.5257 121.413 48.4174 122.211 48.4174C123.327 48.4174 124.284 48.5979 125.083 48.9589C125.889 49.3198 126.506 49.8172 126.933 50.4509C127.368 51.0765 127.586 51.7904 127.586 52.5925H124.169C124.169 52.2557 124.098 51.9549 123.956 51.6901C123.821 51.4174 123.608 51.2049 123.315 51.0525C123.03 50.892 122.658 50.8118 122.2 50.8118C121.82 50.8118 121.492 50.88 121.215 51.0164C120.938 51.1447 120.724 51.3212 120.574 51.5458C120.432 51.7623 120.361 52.003 120.361 52.2677C120.361 52.4682 120.4 52.6487 120.479 52.8091C120.566 52.9615 120.705 53.1019 120.895 53.2302C121.084 53.3586 121.33 53.4789 121.63 53.5912C121.939 53.6955 122.318 53.7917 122.769 53.88C123.695 54.0725 124.521 54.3252 125.249 54.638C125.976 54.9428 126.554 55.3599 126.981 55.8893C127.408 56.4107 127.622 57.0965 127.622 57.9468C127.622 58.5243 127.495 59.0537 127.242 59.535C126.989 60.0163 126.625 60.4374 126.15 60.7984C125.676 61.1513 125.106 61.428 124.442 61.6286C123.785 61.8211 123.046 61.9173 122.223 61.9173C121.029 61.9173 120.017 61.7008 119.186 61.2676C118.363 60.8345 117.739 60.285 117.312 59.6192C116.892 58.9454 116.683 58.2556 116.683 57.5497H119.922C119.937 58.023 120.056 58.404 120.278 58.6928C120.507 58.9815 120.796 59.1901 121.144 59.3184C121.5 59.4468 121.883 59.5109 122.295 59.5109C122.737 59.5109 123.105 59.4508 123.398 59.3305C123.691 59.2021 123.912 59.0337 124.062 58.8251C124.221 58.6085 124.3 58.3599 124.3 58.0791Z" fill="#D6D3CD"/>
<path d="M133.986 51.3533V61.6767H130.557V48.6581H133.773L133.986 51.3533ZM133.512 54.7102H132.562C132.562 53.8038 132.669 52.9695 132.883 52.2075C133.104 51.4375 133.424 50.7717 133.844 50.2102C134.271 49.6407 134.797 49.1995 135.422 48.8867C136.047 48.5739 136.77 48.4174 137.593 48.4174C138.162 48.4174 138.684 48.5057 139.159 48.6821C139.633 48.8506 140.041 49.1193 140.381 49.4883C140.729 49.8493 140.998 50.3225 141.188 50.9081C141.378 51.4856 141.472 52.1794 141.472 52.9896V61.6767H138.056V53.3746C138.056 52.781 137.976 52.3238 137.818 52.003C137.66 51.6821 137.435 51.4575 137.142 51.3292C136.857 51.2008 136.513 51.1367 136.11 51.1367C135.667 51.1367 135.279 51.2289 134.947 51.4134C134.623 51.5979 134.354 51.8546 134.14 52.1835C133.927 52.5043 133.769 52.8813 133.666 53.3145C133.563 53.7476 133.512 54.2129 133.512 54.7102ZM141.152 54.3131L139.93 54.4695C139.93 53.6193 140.033 52.8292 140.239 52.0992C140.452 51.3693 140.765 50.7276 141.176 50.1741C141.595 49.6206 142.113 49.1915 142.73 48.8867C143.347 48.5739 144.059 48.4174 144.866 48.4174C145.483 48.4174 146.044 48.5097 146.55 48.6942C147.057 48.8706 147.488 49.1554 147.844 49.5485C148.207 49.9335 148.484 50.4388 148.674 51.0645C148.872 51.6901 148.971 52.4562 148.971 53.3626V61.6767H145.542V53.3626C145.542 52.761 145.463 52.3038 145.305 51.9909C145.154 51.6701 144.933 51.4495 144.64 51.3292C144.355 51.2008 144.015 51.1367 143.62 51.1367C143.209 51.1367 142.849 51.2209 142.54 51.3893C142.232 51.5498 141.975 51.7744 141.769 52.0631C141.563 52.3519 141.409 52.6888 141.306 53.0738C141.204 53.4508 141.152 53.8639 141.152 54.3131Z" fill="#D6D3CD"/>
<path d="M159.274 58.7409V52.9415C159.274 52.5244 159.207 52.1674 159.072 51.8706C158.938 51.5658 158.728 51.3292 158.444 51.1607C158.167 50.9923 157.807 50.9081 157.364 50.9081C156.984 50.9081 156.656 50.9762 156.379 51.1126C156.102 51.241 155.889 51.4295 155.739 51.6781C155.588 51.9188 155.513 52.2035 155.513 52.5324H152.096C152.096 51.9789 152.223 51.4535 152.476 50.9562C152.729 50.4589 153.097 50.0217 153.579 49.6447C154.062 49.2597 154.635 48.9589 155.3 48.7423C155.972 48.5257 156.723 48.4174 157.554 48.4174C158.55 48.4174 159.436 48.5859 160.211 48.9228C160.987 49.2597 161.596 49.765 162.038 50.4388C162.489 51.1126 162.715 51.9549 162.715 52.9655V58.5364C162.715 59.2502 162.758 59.8358 162.845 60.293C162.932 60.7422 163.059 61.1353 163.225 61.4722V61.6767H159.772C159.606 61.3238 159.48 60.8826 159.393 60.3532C159.314 59.8158 159.274 59.2783 159.274 58.7409ZM159.725 53.7476L159.749 55.7088H157.839C157.388 55.7088 156.996 55.761 156.664 55.8652C156.332 55.9695 156.059 56.1179 155.845 56.3104C155.632 56.4949 155.474 56.7115 155.371 56.9602C155.276 57.2088 155.228 57.4815 155.228 57.7783C155.228 58.0751 155.296 58.3438 155.43 58.5845C155.565 58.8171 155.758 59.0016 156.011 59.138C156.265 59.2663 156.561 59.3305 156.901 59.3305C157.415 59.3305 157.862 59.2262 158.242 59.0176C158.622 58.8091 158.914 58.5524 159.12 58.2476C159.333 57.9428 159.444 57.654 159.452 57.3813L160.354 58.8492C160.227 59.1781 160.053 59.519 159.832 59.8719C159.618 60.2248 159.345 60.5577 159.013 60.8706C158.681 61.1754 158.281 61.428 157.815 61.6286C157.348 61.8211 156.794 61.9173 156.154 61.9173C155.339 61.9173 154.6 61.7529 153.935 61.424C153.279 61.0871 152.757 60.6259 152.369 60.0404C151.989 59.4468 151.8 58.773 151.8 58.019C151.8 57.3372 151.926 56.7316 152.179 56.2021C152.432 55.6727 152.804 55.2276 153.295 54.8666C153.793 54.4976 154.414 54.2209 155.157 54.0364C155.901 53.8439 156.763 53.7476 157.744 53.7476H159.725Z" fill="#D6D3CD"/>
<path d="M171.637 48.6581V51.1126H164.162V48.6581H171.637ZM166.013 45.4455H169.43V57.7543C169.43 58.1313 169.477 58.42 169.572 58.6206C169.675 58.8211 169.825 58.9615 170.023 59.0417C170.221 59.1139 170.47 59.15 170.771 59.15C170.984 59.15 171.174 59.142 171.34 59.1259C171.514 59.1019 171.66 59.0778 171.779 59.0537L171.791 61.6045C171.498 61.7008 171.182 61.777 170.842 61.8331C170.502 61.8893 170.126 61.9173 169.715 61.9173C168.963 61.9173 168.307 61.793 167.745 61.5444C167.192 61.2877 166.764 60.8786 166.464 60.3171C166.163 59.7556 166.013 59.0176 166.013 58.1032V45.4455Z" fill="#D6D3CD"/>
<path d="M177.189 48.6581V61.6767H173.76V48.6581H177.189ZM173.547 45.2651C173.547 44.7597 173.721 44.3426 174.069 44.0137C174.417 43.6849 174.884 43.5204 175.469 43.5204C176.046 43.5204 176.509 43.6849 176.857 44.0137C177.213 44.3426 177.391 44.7597 177.391 45.2651C177.391 45.7704 177.213 46.1875 176.857 46.5164C176.509 46.8453 176.046 47.0097 175.469 47.0097C174.884 47.0097 174.417 46.8453 174.069 46.5164C173.721 46.1875 173.547 45.7704 173.547 45.2651Z" fill="#D6D3CD"/>
<path d="M185.316 59.2101C185.735 59.2101 186.107 59.1299 186.431 58.9695C186.756 58.8011 187.009 58.5684 187.191 58.2716C187.381 57.9668 187.479 57.6099 187.487 57.2008H190.703C190.695 58.1152 190.453 58.9294 189.979 59.6433C189.504 60.3492 188.868 60.9067 188.069 61.3157C187.27 61.7168 186.376 61.9173 185.387 61.9173C184.391 61.9173 183.521 61.7489 182.777 61.412C182.042 61.0751 181.429 60.6099 180.938 60.0163C180.448 59.4147 180.08 58.7168 179.835 57.9227C179.59 57.1206 179.467 56.2623 179.467 55.3479V54.9989C179.467 54.0765 179.59 53.2182 179.835 52.4241C180.08 51.622 180.448 50.9241 180.938 50.3305C181.429 49.7289 182.042 49.2597 182.777 48.9228C183.513 48.5859 184.375 48.4174 185.364 48.4174C186.416 48.4174 187.337 48.622 188.128 49.0311C188.927 49.4402 189.552 50.0257 190.003 50.7877C190.461 51.5418 190.695 52.4361 190.703 53.4709H187.487C187.479 53.0377 187.389 52.6447 187.215 52.2917C187.048 51.9388 186.803 51.6581 186.479 51.4495C186.163 51.2329 185.771 51.1246 185.304 51.1246C184.806 51.1246 184.399 51.2329 184.082 51.4495C183.766 51.6581 183.521 51.9468 183.347 52.3158C183.173 52.6768 183.05 53.0899 182.979 53.5551C182.916 54.0123 182.884 54.4936 182.884 54.9989V55.3479C182.884 55.8532 182.916 56.3385 182.979 56.8037C183.042 57.269 183.161 57.6821 183.335 58.043C183.517 58.404 183.766 58.6888 184.082 58.8973C184.399 59.1059 184.81 59.2101 185.316 59.2101Z" fill="#D6D3CD"/>
<path d="M210.782 58.8612V61.6767H202.086V58.8612H210.782ZM203.237 44.1581V61.6767H199.677V44.1581H203.237Z" fill="#D6D3CD"/>
<path d="M220.267 58.7409V52.9415C220.267 52.5244 220.2 52.1674 220.065 51.8706C219.931 51.5658 219.721 51.3292 219.436 51.1607C219.16 50.9923 218.8 50.9081 218.357 50.9081C217.977 50.9081 217.649 50.9762 217.372 51.1126C217.095 51.241 216.882 51.4295 216.731 51.6781C216.581 51.9188 216.506 52.2035 216.506 52.5324H213.089C213.089 51.9789 213.216 51.4535 213.469 50.9562C213.722 50.4589 214.09 50.0217 214.572 49.6447C215.055 49.2597 215.628 48.9589 216.292 48.7423C216.965 48.5257 217.716 48.4174 218.547 48.4174C219.543 48.4174 220.429 48.5859 221.204 48.9228C221.979 49.2597 222.588 49.765 223.031 50.4388C223.482 51.1126 223.708 51.9549 223.708 52.9655V58.5364C223.708 59.2502 223.751 59.8358 223.838 60.293C223.925 60.7422 224.052 61.1353 224.218 61.4722V61.6767H220.765C220.599 61.3238 220.473 60.8826 220.386 60.3532C220.307 59.8158 220.267 59.2783 220.267 58.7409ZM220.718 53.7476L220.742 55.7088H218.831C218.381 55.7088 217.989 55.761 217.657 55.8652C217.325 55.9695 217.052 56.1179 216.838 56.3104C216.625 56.4949 216.466 56.7115 216.364 56.9602C216.269 57.2088 216.221 57.4815 216.221 57.7783C216.221 58.0751 216.288 58.3438 216.423 58.5845C216.557 58.8171 216.751 59.0016 217.004 59.138C217.257 59.2663 217.554 59.3305 217.894 59.3305C218.408 59.3305 218.855 59.2262 219.235 59.0176C219.614 58.8091 219.907 58.5524 220.113 58.2476C220.326 57.9428 220.437 57.654 220.445 57.3813L221.347 58.8492C221.22 59.1781 221.046 59.519 220.825 59.8719C220.611 60.2248 220.338 60.5577 220.006 60.8706C219.674 61.1754 219.274 61.428 218.808 61.6286C218.341 61.8211 217.787 61.9173 217.147 61.9173C216.332 61.9173 215.592 61.7529 214.928 61.424C214.272 61.0871 213.75 60.6259 213.362 60.0404C212.982 59.4468 212.792 58.773 212.792 58.019C212.792 57.3372 212.919 56.7316 213.172 56.2021C213.425 55.6727 213.797 55.2276 214.287 54.8666C214.786 54.4976 215.407 54.2209 216.15 54.0364C216.894 53.8439 217.756 53.7476 218.736 53.7476H220.718Z" fill="#D6D3CD"/>
<path d="M228.042 43.1956H231.459V58.6928L231.115 61.6767H228.042V43.1956ZM239.586 55.035V55.2877C239.586 56.2583 239.483 57.1487 239.278 57.9588C239.08 58.769 238.772 59.4708 238.352 60.0644C237.933 60.65 237.411 61.1072 236.786 61.4361C236.169 61.7569 235.442 61.9173 234.603 61.9173C233.82 61.9173 233.14 61.7569 232.563 61.4361C231.993 61.1152 231.515 60.662 231.127 60.0764C230.74 59.4909 230.427 58.8051 230.19 58.019C229.953 57.2329 229.775 56.3746 229.656 55.4441V54.8907C229.775 53.9602 229.953 53.1019 230.19 52.3158C230.427 51.5297 230.74 50.8439 231.127 50.2583C231.515 49.6728 231.993 49.2196 232.563 48.8987C233.132 48.5779 233.804 48.4174 234.58 48.4174C235.426 48.4174 236.161 48.5819 236.786 48.9108C237.419 49.2316 237.941 49.6888 238.352 50.2824C238.772 50.868 239.08 51.5658 239.278 52.376C239.483 53.1781 239.586 54.0645 239.586 55.035ZM236.169 55.2877V55.035C236.169 54.5056 236.13 54.0083 236.051 53.5431C235.98 53.0698 235.853 52.6567 235.671 52.3038C235.489 51.9428 235.24 51.6581 234.924 51.4495C234.615 51.241 234.216 51.1367 233.725 51.1367C233.259 51.1367 232.863 51.2169 232.539 51.3773C232.215 51.5377 231.946 51.7623 231.732 52.0511C231.527 52.3399 231.372 52.6848 231.269 53.0859C231.167 53.4789 231.103 53.9121 231.08 54.3853V55.9615C231.103 56.5952 231.206 57.1567 231.388 57.646C231.578 58.1273 231.863 58.5083 232.242 58.789C232.63 59.0617 233.132 59.1981 233.749 59.1981C234.232 59.1981 234.631 59.1019 234.947 58.9093C235.264 58.7168 235.509 58.4441 235.683 58.0912C235.865 57.7382 235.991 57.3251 236.063 56.8519C236.134 56.3706 236.169 55.8492 236.169 55.2877Z" fill="#D6D3CD"/>
<path d="M250.352 58.0791C250.352 57.8305 250.28 57.6059 250.138 57.4053C249.996 57.2048 249.731 57.0203 249.343 56.8519C248.963 56.6754 248.414 56.515 247.694 56.3706C247.045 56.2262 246.44 56.0457 245.879 55.8292C245.325 55.6046 244.843 55.3358 244.431 55.023C244.028 54.7102 243.711 54.3412 243.482 53.9161C243.253 53.4829 243.138 52.9896 243.138 52.4361C243.138 51.8907 243.253 51.3773 243.482 50.896C243.719 50.4148 244.056 49.9896 244.491 49.6206C244.933 49.2436 245.471 48.9509 246.104 48.7423C246.745 48.5257 247.465 48.4174 248.263 48.4174C249.379 48.4174 250.336 48.5979 251.135 48.9589C251.941 49.3198 252.558 49.8172 252.985 50.4509C253.42 51.0765 253.638 51.7904 253.638 52.5925H250.221C250.221 52.2557 250.15 51.9549 250.007 51.6901C249.873 51.4174 249.659 51.2049 249.367 51.0525C249.082 50.892 248.71 50.8118 248.252 50.8118C247.872 50.8118 247.544 50.88 247.267 51.0164C246.99 51.1447 246.776 51.3212 246.626 51.5458C246.484 51.7623 246.413 52.003 246.413 52.2677C246.413 52.4682 246.452 52.6487 246.531 52.8091C246.618 52.9615 246.757 53.1019 246.946 53.2302C247.136 53.3586 247.381 53.4789 247.682 53.5912C247.99 53.6955 248.37 53.7917 248.821 53.88C249.746 54.0725 250.573 54.3252 251.301 54.638C252.028 54.9428 252.606 55.3599 253.033 55.8893C253.46 56.4107 253.673 57.0965 253.673 57.9468C253.673 58.5243 253.547 59.0537 253.294 59.535C253.041 60.0163 252.677 60.4374 252.202 60.7984C251.728 61.1513 251.158 61.428 250.494 61.6286C249.837 61.8211 249.098 61.9173 248.275 61.9173C247.081 61.9173 246.068 61.7008 245.238 61.2676C244.415 60.8345 243.791 60.285 243.363 59.6192C242.944 58.9454 242.735 58.2556 242.735 57.5497H245.974C245.989 58.023 246.108 58.404 246.329 58.6928C246.559 58.9815 246.848 59.1901 247.196 59.3184C247.552 59.4468 247.935 59.5109 248.346 59.5109C248.789 59.5109 249.157 59.4508 249.45 59.3305C249.742 59.2021 249.964 59.0337 250.114 58.8251C250.272 58.6085 250.352 58.3599 250.352 58.0791Z" fill="#D6D3CD"/>
<defs>
<clipPath id="clip0_1230_2104">
<rect width="38.3478" height="42" fill="white" transform="translate(26.3262 29.5)"/>
</clipPath>
</defs>
</svg>
