<svg width="281" height="101" viewBox="0 0 281 101" fill="none" xmlns="http://www.w3.org/2000/svg">
<rect x="0.5" y="0.5" width="280" height="100" stroke="#D6D3CD"/>
<path d="M148.053 20.6911L146.187 28.1033C148.83 22.8682 153.029 18.9288 157.85 15.4556C154.325 19.5505 151.111 23.6459 149.142 27.7408C152.459 23.0754 156.917 20.4838 161.945 18.7732C155.258 24.7344 149.95 31.1311 145.907 37.5587L142.693 36.1593C143.263 31.0274 145.202 25.7713 148.053 20.6911Z" fill="#D6D3CD"/>
<path d="M139.471 34.7966L145.588 37.3343C145.588 38.8897 145.462 43.6337 146.434 45.0331C156.607 58.1348 154.896 84.3974 144.373 85.0711C128.35 85.0711 122.239 74.186 122.239 64.1814C122.239 55.0582 133.176 48.9934 139.708 43.6026C141.367 42.1513 141.079 38.9436 139.471 34.7966Z" fill="#D6D3CD"/>
<path d="M145.59 37.2429L147.794 38.3675C147.587 39.8185 147.898 43.0329 149.349 43.8618C155.777 47.8531 161.841 52.2073 164.226 56.5615C172.727 71.9052 158.265 86.1079 145.772 84.7601C152.563 79.7319 154.533 69.4169 151.993 58.1682C150.956 53.762 149.349 49.7706 146.498 45.2608C145.263 43.0471 145.694 40.3017 145.59 37.2429Z" fill="#D6D3CD"/>
<path d="M144.528 36.8641L149.09 37.4862C147.742 41.944 151.734 45.054 153.029 45.7801C155.932 47.3871 158.731 49.0457 160.961 51.0672C165.16 54.903 167.544 60.2941 167.544 65.996C167.544 71.646 164.952 77.0887 160.598 80.7172C156.503 84.1385 150.853 85.5899 145.358 85.5899C141.937 85.5899 138.878 85.4347 135.561 84.3457C127.993 81.8058 122.343 75.3265 121.876 67.5507C121.462 61.4859 122.809 56.8724 127.527 52.0518C129.963 49.5118 134.887 46.609 138.257 44.2763C139.916 43.1358 141.678 39.9218 138.309 33.8573L138.983 33.3389L143.976 36.6835L139.76 34.9459C140.123 35.4643 141.108 37.7971 141.316 38.4708C141.782 40.3886 141.575 42.2552 141.16 43.0842C139.035 46.9203 135.407 47.9568 132.763 50.1339C128.098 53.9696 123.018 57.028 123.588 67.5507C123.847 72.7342 127.89 79.0582 133.955 82.013C137.376 83.672 141.316 84.3457 145.307 84.553C148.884 84.7086 155.726 82.5831 159.458 79.4731C163.45 76.1558 165.679 71.1275 165.679 65.996C165.679 60.8122 163.605 55.8879 159.718 52.4146C157.488 50.3932 153.808 47.9568 151.528 46.6607C149.247 45.3649 146.396 41.7364 147.329 38.2635L144.528 36.8641Z" fill="black"/>
<path d="M143.129 44.5359C142.663 46.9206 142.144 51.2228 140.071 52.8298C139.19 53.4515 138.308 54.074 137.375 54.6957C133.643 57.236 129.911 59.6199 128.2 65.7367C127.838 67.0329 128.149 68.4323 128.46 69.7281C129.393 73.4602 132.037 77.5035 134.11 79.8882C134.11 79.9919 134.525 80.2511 134.525 80.3547C136.236 82.3766 136.754 82.9466 143.233 84.3977L143.078 85.1237C139.19 84.0872 135.976 83.1543 133.954 80.8212C133.954 80.7696 133.592 80.4063 133.592 80.4063C131.415 77.918 128.771 73.7714 127.786 69.8837C127.423 68.3283 127.112 67.1365 127.527 65.5291C129.289 59.2055 133.125 56.7171 137.013 54.0736C137.894 53.5035 138.931 52.9847 139.76 52.311C141.367 51.1192 142.248 47.4903 143.129 44.5359Z" fill="black"/>
<path d="M144.786 54.3845C144.838 57.0801 144.575 58.4323 145.249 60.3506C145.663 61.4907 147.064 63.0459 147.479 64.5493C148.049 66.5712 148.67 68.7999 148.617 70.1477C148.617 71.7031 148.52 74.6045 147.846 77.7149C147.333 80.2849 146.149 82.4902 144.158 83.7403C142.118 83.3203 139.724 82.6035 138.31 81.3918C135.563 79.0075 133.13 75.0205 132.819 71.5473C132.56 68.6965 135.199 64.492 138.88 62.3669C141.99 60.5527 142.713 58.485 143.387 55.1673C142.454 58.0701 141.578 60.5035 138.571 62.0585C134.217 64.3392 131.983 68.1679 132.19 71.7963C132.501 76.4614 134.369 79.6225 138.049 82.1628C139.604 83.2513 142.509 84.4016 144.324 84.7129V84.4757C145.7 84.218 147.481 81.9582 148.368 78.901C149.146 76.1539 149.453 72.6377 149.4 70.4086C149.348 69.1128 148.777 66.3064 147.74 63.7665C147.17 62.3671 146.294 60.9678 145.723 59.9829C145.102 58.9972 145.097 56.8725 144.786 54.3845Z" fill="black"/>
<path d="M144.478 64.5491C144.529 66.3633 145.258 68.6879 145.569 71.0726C145.829 72.8352 145.716 74.6055 145.664 76.1609C145.613 77.9612 145.013 81.187 144.193 82.7556C143.42 82.4011 143.118 81.9968 142.616 81.3441C141.994 80.4628 141.572 79.5815 141.157 78.545C140.846 77.7673 140.482 76.8772 140.326 75.8407C140.119 74.2857 140.177 71.8529 141.94 69.3646C143.287 67.3948 143.596 67.2449 144.063 64.9642C143.44 66.9857 142.976 67.1918 141.524 68.9021C139.918 70.7683 139.65 73.5171 139.65 75.7458C139.65 76.6791 140.023 77.7146 140.386 78.6992C140.8 79.7361 141.156 80.7685 141.726 81.5458C142.583 82.8062 143.68 83.5229 144.217 83.657C144.22 83.6578 144.225 83.6563 144.229 83.657C144.24 83.6597 144.253 83.6667 144.264 83.6689V83.6096C145.27 82.4882 145.875 81.3743 146.079 80.2529C146.338 78.9051 146.398 77.5544 146.553 75.9474C146.709 74.5996 146.596 72.7842 146.233 70.9184C145.715 68.5857 144.841 66.2073 144.478 64.5491Z" fill="black"/>
<path d="M144.632 42.3589C144.684 45.0541 144.891 50.0827 145.617 52.0522C145.824 52.7259 147.742 55.6807 149.09 59.2572C150.023 61.7455 150.23 64.0262 150.386 64.6999C151.008 67.6547 150.23 72.631 149.193 77.348C148.675 79.888 146.913 83.05 144.891 84.2941L144.477 85.0198C145.617 84.9678 148.416 82.2207 149.401 78.7994C151.06 72.9938 151.734 70.2983 150.956 63.8706C150.853 63.2481 150.593 61.1234 149.608 58.8423C148.157 55.3691 146.084 52.0518 145.825 51.3777C145.358 50.2896 144.736 45.5725 144.632 42.3589Z" fill="black"/>
<path d="M145.604 38.6724C145.451 41.4424 145.409 42.4624 145.928 44.4839C146.498 46.713 149.401 49.9267 150.593 53.6071C152.874 60.6569 152.304 69.8837 150.645 77.0887C150.023 79.6283 147.068 83.3091 144.113 84.5009L146.29 85.0194C147.483 84.9674 150.541 82.1166 151.733 78.851C153.651 73.7191 154.014 67.6026 153.236 61.175C153.184 60.5529 152.147 55.0065 151.163 52.6738C149.763 49.201 147.275 46.0906 147.016 45.4172C146.55 44.2767 145.525 41.9088 145.604 38.6724Z" fill="black"/>
<path d="M144.165 36.7229H143.956V84.5533H144.165V36.7229Z" fill="black"/>
<path d="M85.5913 22.2461H127.216C128.77 22.2461 130.118 23.5419 130.118 25.1489V37.4338C130.118 39.0408 128.77 40.3369 127.216 40.3369H118.663C116.745 40.3369 115.915 41.4251 115.915 42.6693V82.8939C115.915 84.2417 114.827 85.2782 113.531 85.2782H99.3799C98.0838 85.2782 97.0472 84.2417 97.0472 82.8939V42.3068C97.0472 41.0626 95.9067 40.3373 95.0257 40.3373H85.5913C83.9843 40.3373 82.6885 39.0411 82.6885 37.4341V25.1489C82.6881 23.5419 83.9839 22.2461 85.5913 22.2461Z" fill="#D6D3CD"/>
<path d="M192.382 38.5225H196.062C197.41 38.5225 198.499 39.611 198.499 40.9068V54.0734C198.499 55.784 198.602 56.4577 196.529 56.4577C192.434 56.4577 190.568 58.6348 190.568 61.0191V83.2565C190.568 84.2934 189.583 85.1744 188.391 85.1744H175.172C173.98 85.1744 172.995 84.2934 172.995 83.2565V57.9087C172.981 57.463 172.99 56.8049 173.047 56.4577C173.773 47.0752 181.135 39.5686 190.464 38.6261C190.777 38.5945 191.883 38.5225 192.382 38.5225Z" fill="#D6D3CD"/>
</svg>
