<svg width="281" height="101" viewBox="0 0 281 101" fill="none" xmlns="http://www.w3.org/2000/svg">
<rect x="0.5" y="0.5" width="280" height="100" stroke="#D6D3CD"/>
<path fill-rule="evenodd" clip-rule="evenodd" d="M71.1774 33.97C75.1789 34.3123 78.9228 36.0841 81.7223 38.9604C84.5219 41.8368 86.1895 45.6249 86.4194 49.63C86.275 44.3506 84.4468 39.2552 81.2012 35.086C77.9555 30.9169 73.4619 27.8919 68.3751 26.4516C63.2882 25.0114 57.8739 25.2313 52.9209 27.0792C47.9678 28.9271 43.7349 32.3065 40.8387 36.725C41.1814 32.7279 42.9551 28.9882 45.8347 26.1918C48.7142 23.3953 52.5066 21.7296 56.5161 21.5C51.2803 21.7373 46.2521 23.6145 42.1439 26.8655C38.0357 30.1164 35.0558 34.5764 33.6266 39.6133C32.1973 44.6502 32.3911 50.0087 34.1806 54.9295C35.97 59.8502 39.2644 64.0837 43.5968 67.03C39.6213 66.6548 35.9121 64.8686 33.1422 61.9954C30.3724 59.1222 28.7254 55.3524 28.5 51.37C28.6293 56.6329 30.4323 61.7181 33.6478 65.8892C36.8633 70.0604 41.3245 73.1009 46.3853 74.5707C51.4461 76.0404 56.8438 75.863 61.797 74.0641C66.7501 72.2652 71.0015 68.9383 73.9355 64.565C73.5603 68.4976 71.7875 72.166 68.9383 74.9057C66.089 77.6454 62.3517 79.2752 58.4032 79.5C63.6764 79.3267 68.7571 77.4795 72.9082 74.2266C77.0592 70.9737 80.0647 66.4842 81.4885 61.4095C82.9122 56.3349 82.6802 50.9391 80.8262 46.0051C78.9721 41.0711 75.5924 36.8555 71.1774 33.97ZM57.3871 60.94C56.0341 60.9484 54.6935 60.683 53.446 60.1596C52.1986 59.6363 51.0702 58.8659 50.129 57.895C48.4494 56.2034 47.409 53.9823 47.1855 51.6102C46.9619 49.2381 47.5689 46.8621 48.9029 44.887C50.237 42.912 52.2156 41.4603 54.5013 40.7795C56.787 40.0986 59.2384 40.2308 61.4375 41.1534C63.6366 42.076 65.4473 43.7319 66.5609 45.8389C67.6744 47.9458 68.0219 50.3734 67.5441 52.7076C67.0662 55.0418 65.7927 57.1383 63.9405 58.6395C62.0883 60.1407 59.7723 60.9537 57.3871 60.94ZM110.516 46.875V57.605C110.516 59.49 111.242 59.925 113.129 59.925C114.02 59.9482 114.907 59.8006 115.742 59.49V63.695C114.638 64.1587 113.455 64.4048 112.258 64.42C107.903 64.42 105.29 61.665 105.29 57.17V46.875H101.661V42.38H105.29V35.855H110.516V42.38H115.742V46.875H110.516ZM140.274 53.255C140.274 60.505 136.645 64.42 130.113 64.42C123.581 64.42 119.806 60.505 119.806 53.255C119.806 46.005 123.435 42.09 130.113 42.09C136.79 42.09 140.274 46.005 140.274 53.255ZM135.048 53.255C135.048 47.455 133.161 46.295 130.113 46.295C127.065 46.295 125.032 47.455 125.032 53.255C125.032 59.055 126.919 60.07 130.113 60.07C133.306 60.07 135.048 58.91 135.048 53.255ZM156.242 41.945V46.585C154.376 46.5167 152.511 46.7618 150.726 47.31V64.13H145.5V44.265C148.904 42.8289 152.548 42.042 156.242 41.945ZM180.774 51.08V64.13H175.548V50.645C175.548 48.615 175.258 46.585 170.468 46.585C169.101 46.5702 167.736 46.7162 166.403 47.02V64.13H161.177V44.41C164.27 42.7988 167.705 41.9534 171.194 41.945C177.145 41.945 180.774 45.425 180.774 51.08ZM204.29 51.225V57.17C204.29 60.65 201.968 64.42 195.145 64.42C188.323 64.42 185.855 60.65 185.855 57.025C185.855 53.4 186.581 50.21 195.29 50.21C196.555 50.1568 197.822 50.2542 199.065 50.5C199.065 48.035 197.903 46.295 194.419 46.295C192.234 46.2488 190.062 46.6434 188.032 47.455V43.25C190.156 42.3983 192.421 41.9555 194.71 41.945C200.952 41.945 204.29 45.28 204.29 51.225ZM199.065 53.69H196.016C192.387 53.69 191.081 54.705 191.081 56.445C191.081 58.185 192.387 59.925 195.145 59.925C197.903 59.925 199.065 58.62 199.065 56.59V53.69ZM219.242 41.945L222.871 42.38V34.115H228.097V57.17C228.097 60.65 225.629 64.42 218.806 64.42C215.903 64.42 209.081 63.26 209.081 52.965C209.081 45.86 212.71 41.945 219.242 41.945ZM218.806 59.925C221.129 59.925 222.871 59.345 222.871 57.605V46.44L219.387 46.15C216.339 46.15 214.306 47.6 214.306 52.675C214.306 57.75 215.468 59.925 218.806 59.925ZM253.5 53.255C253.5 60.505 249.871 64.42 243.194 64.42C236.516 64.42 232.887 60.505 232.887 53.255C232.887 46.005 236.516 42.09 243.194 42.09C249.871 42.09 253.5 46.005 253.5 53.255ZM248.274 53.255C248.274 47.455 246.242 46.295 243.194 46.295C240.145 46.295 238.113 47.455 238.113 53.255C238.113 59.055 240.145 60.07 243.194 60.07C246.242 60.07 248.274 58.91 248.274 53.255Z" fill="#D6D3CD"/>
</svg>
