<svg width="281" height="101" viewBox="0 0 281 101" fill="none" xmlns="http://www.w3.org/2000/svg">
<rect x="0.5" y="0.5" width="280" height="100" stroke="#D6D3CD"/>
<g clip-path="url(#clip0_1227_2933)">
<path d="M217.215 28.5023C216.779 27.9765 216.169 27.7136 215.515 27.7136C213.946 27.7136 212.9 28.9842 212.9 30.6053C212.9 32.2263 213.902 33.3654 215.515 33.3654C216.256 33.3654 216.953 33.0149 217.346 32.4016L218.13 33.0149C217.476 33.8036 216.517 34.2855 215.471 34.2417C213.466 34.2417 211.854 32.6206 211.854 30.6053V30.5615C211.854 28.3708 213.336 26.7936 215.515 26.7936C216.474 26.7498 217.389 27.1441 217.999 27.8889L217.215 28.5023Z" fill="#D6D3CD"/>
<path d="M219.961 32.0074C220.004 32.8398 220.702 33.4532 221.53 33.4094H221.573C222.096 33.4094 222.576 33.1465 222.881 32.7084L223.578 33.2341C223.099 33.8913 222.314 34.2418 221.486 34.198C220.179 34.2418 219.089 33.2341 219.045 31.9197C219.045 31.8321 219.045 31.7883 219.045 31.7007C219.002 30.3863 220.048 29.2472 221.355 29.2034C221.399 29.2034 221.443 29.2034 221.486 29.2034C223.143 29.2034 223.796 30.4739 223.796 31.7007V32.0074H219.961ZM222.794 31.3064C222.837 30.6054 222.314 29.992 221.617 29.9482C221.573 29.9482 221.486 29.9482 221.443 29.9482C220.658 29.9044 220.004 30.5177 219.961 31.3064H222.794Z" fill="#D6D3CD"/>
<path d="M225.104 29.291H226.02V30.0358C226.325 29.4662 226.935 29.1595 227.589 29.2033C228.504 29.2033 229.289 29.7729 229.289 30.9997V34.0665H228.417V31.2187C228.417 30.3425 227.894 29.992 227.327 29.992C226.761 29.992 226.02 30.4739 226.02 31.5692V34.0227H225.104V29.291Z" fill="#D6D3CD"/>
<path d="M233.429 30.0796H232.165V32.2264C232.165 32.7521 232.165 33.3217 232.862 33.3217C233.08 33.3217 233.298 33.2779 233.473 33.1902V34.0227C233.211 34.1541 232.95 34.1979 232.688 34.1979C231.293 34.1979 231.293 33.3655 231.293 32.5769V30.0796H230.247V29.2909H231.293V27.9766H232.209V29.2909H233.473L233.429 30.0796Z" fill="#D6D3CD"/>
<path d="M234.693 29.291H235.565V30.0358C235.827 29.5101 236.393 29.2034 236.96 29.2034H237.352V30.1672L236.916 30.0796C236.045 30.0796 235.565 30.5616 235.565 31.6131V33.9789H234.693V29.291Z" fill="#D6D3CD"/>
<path d="M238.572 29.8604C239.095 29.3785 239.749 29.1594 240.447 29.1594C241.842 29.1594 242.408 29.9042 242.408 30.7367V33.1464C242.408 33.4969 242.408 33.7597 242.452 34.0226H241.667C241.667 33.8035 241.624 33.5407 241.624 33.3216C241.275 33.8912 240.621 34.1979 239.967 34.154C239.095 34.154 238.354 33.6721 238.354 32.752C238.354 31.832 239.531 31.131 240.97 31.131H241.624V30.9557C241.624 30.3862 241.188 29.948 240.621 29.948C240.577 29.948 240.534 29.948 240.49 29.948C240.011 29.948 239.488 30.1233 239.139 30.4738L238.572 29.8604ZM241.101 31.7444C240.272 31.7444 239.226 31.8758 239.226 32.6644C239.226 33.453 239.619 33.453 240.229 33.453C240.926 33.4969 241.536 32.9711 241.58 32.2701C241.58 32.1825 241.58 32.0949 241.58 32.051V31.7444H241.101Z" fill="#D6D3CD"/>
<path d="M244.021 26.4868H244.937V34.0226H244.021V26.4868Z" fill="#D6D3CD"/>
<path d="M212.289 40.2878H216.822V41.2079H213.204V43.3109H216.561V44.1872H213.204V46.4654H216.997V47.3416H212.289V40.2878Z" fill="#D6D3CD"/>
<path d="M218.043 42.6537H218.871V43.3985C219.176 42.8289 219.743 42.4784 220.397 42.5222C221.007 42.4784 221.617 42.8289 221.879 43.3985C222.184 42.8727 222.75 42.5222 223.361 42.5222C224.799 42.5222 225.148 43.5737 225.148 44.6252V47.3854H224.276V44.7567C224.276 44.0557 224.145 43.3547 223.274 43.3547C222.402 43.3547 222.053 43.9242 222.053 44.8005V47.3854H221.181V44.8881C221.181 43.968 221.051 43.3547 220.179 43.3547C219.307 43.3547 218.958 43.8366 218.958 44.9319V47.3854H218.087L218.043 42.6537Z" fill="#D6D3CD"/>
<path d="M227.153 45.3262C227.197 46.1586 227.894 46.772 228.722 46.7282H228.766C229.289 46.7282 229.768 46.4653 230.073 46.0272L230.771 46.553C230.291 47.2101 229.507 47.5606 228.679 47.5168C227.371 47.5606 226.281 46.553 226.238 45.2386C226.238 45.151 226.238 45.1072 226.238 45.0195C226.194 43.7052 227.24 42.566 228.548 42.5222C228.591 42.5222 228.635 42.5222 228.679 42.5222C230.335 42.5222 230.989 43.7928 230.989 45.0195V45.3262H227.153ZM229.986 44.6252C230.073 43.9242 229.55 43.3108 228.853 43.2232C228.766 43.2232 228.722 43.2232 228.635 43.2232C227.85 43.1794 227.197 43.8366 227.153 44.6252H229.986Z" fill="#D6D3CD"/>
<path d="M231.947 42.6538H232.863V43.3986C233.124 42.8728 233.691 42.5662 234.257 42.5662H234.65V43.53L234.214 43.4424C233.342 43.4424 232.863 43.9243 232.863 44.9758V47.3417H231.947V42.6538Z" fill="#D6D3CD"/>
<path d="M240.142 47.3416C240.142 48.7874 239.096 49.7951 237.57 49.7951C236.742 49.8389 235.87 49.5322 235.26 48.9626L235.87 48.2178C236.306 48.6998 236.916 49.0065 237.57 49.0065C238.921 49.0065 239.27 48.174 239.27 47.3854V46.5968H239.227C238.878 47.1225 238.268 47.4292 237.614 47.4292C236.263 47.4292 235.173 46.3339 235.173 44.9757C235.173 43.6175 236.263 42.5222 237.614 42.5222C238.268 42.5222 238.878 42.7851 239.27 43.3108H239.314V42.6537H240.229L240.142 47.3416ZM236.132 45.0195C236.001 45.8958 236.568 46.6844 237.439 46.8158C238.311 46.9473 239.096 46.3777 239.227 45.5015C239.27 45.3262 239.27 45.151 239.227 44.9757C239.357 44.0995 238.791 43.3108 237.919 43.1794C237.047 43.048 236.263 43.6175 236.132 44.4938C236.088 44.669 236.088 44.8443 236.132 45.0195Z" fill="#D6D3CD"/>
<path d="M242.103 45.3262C242.147 46.1586 242.844 46.772 243.673 46.7282C244.196 46.7282 244.675 46.4653 244.98 46.0272L245.634 46.553C245.155 47.2101 244.37 47.5606 243.542 47.5168C242.234 47.5606 241.145 46.553 241.101 45.2386C241.101 45.151 241.101 45.1072 241.101 45.0195C241.057 43.7052 242.103 42.566 243.411 42.5222C243.455 42.5222 243.498 42.5222 243.542 42.5222C245.198 42.5222 245.852 43.7928 245.852 45.0195V45.3262H242.103ZM244.937 44.6252C245.024 43.9242 244.501 43.3108 243.803 43.2232C243.716 43.2232 243.673 43.2232 243.585 43.2232C242.801 43.2232 242.191 43.8366 242.147 44.6252H244.937Z" fill="#D6D3CD"/>
<path d="M246.942 42.6538H247.814V43.3986C248.119 42.829 248.729 42.5223 249.383 42.5661C250.298 42.5661 251.083 43.1357 251.083 44.3625V47.4293H250.168V44.5815C250.168 43.7053 249.644 43.3548 249.078 43.3548C248.511 43.3548 247.77 43.8367 247.77 44.932V47.3855H246.898L246.942 42.6538Z" fill="#D6D3CD"/>
<path d="M255.746 43.9242C255.441 43.5737 255.005 43.3985 254.569 43.3985C253.61 43.3985 253.087 44.1871 253.087 45.0634C253.044 45.8958 253.697 46.6406 254.526 46.6844C254.569 46.6844 254.569 46.6844 254.613 46.6844C255.049 46.6844 255.485 46.5092 255.746 46.1587L256.4 46.8159C255.92 47.2978 255.267 47.6045 254.613 47.5607C253.305 47.6483 252.216 46.6406 252.128 45.3262C252.128 45.2386 252.128 45.1948 252.128 45.1072C252.041 43.7928 253.044 42.6975 254.351 42.6099C254.438 42.6099 254.526 42.6099 254.613 42.6099C255.31 42.5661 255.964 42.8727 256.444 43.3547L255.746 43.9242Z" fill="#D6D3CD"/>
<path d="M256.749 42.6538H257.795L259.19 46.3779L260.541 42.6538H261.5L259.277 48.4371C258.972 49.2695 258.667 49.8391 257.664 49.8391C257.403 49.8391 257.141 49.7952 256.88 49.7076L256.967 48.8752L257.49 48.9628C258.057 48.9628 258.231 48.6561 258.405 48.1742L258.71 47.4294L256.749 42.6538Z" fill="#D6D3CD"/>
<path d="M212.289 53.6506H214.774C216.561 53.6506 217.04 54.7459 217.04 55.6222C217.04 56.6299 216.299 57.4185 215.297 57.5061L217.302 60.7483H216.125L214.338 57.5938H213.292V60.7044H212.333L212.289 53.6506ZM213.248 56.7613H214.512C215.253 56.7613 216.038 56.5861 216.038 55.6222C216.038 54.6583 215.297 54.4831 214.512 54.4831H213.248V56.7613Z" fill="#D6D3CD"/>
<path d="M218.74 58.6891C218.827 59.4777 219.525 60.0911 220.309 60.0473C220.832 60.0473 221.312 59.7844 221.617 59.3463L222.271 59.8721C221.791 60.5292 221.007 60.8797 220.179 60.8359C218.871 60.8797 217.781 59.8721 217.738 58.5577C217.738 58.4701 217.738 58.4262 217.738 58.3386C217.694 57.0242 218.74 55.8851 220.048 55.8413C220.091 55.8413 220.135 55.8413 220.179 55.8413C221.835 55.8413 222.489 57.1119 222.489 58.3386V58.6453L218.74 58.6891ZM221.573 57.9443C221.617 57.2433 221.094 56.6299 220.397 56.5861C220.353 56.5861 220.266 56.5861 220.222 56.5861C219.438 56.5423 218.784 57.1557 218.74 57.9443H221.573Z" fill="#D6D3CD"/>
<path d="M226.063 57.1557C225.845 56.849 225.497 56.6737 225.104 56.6737C224.669 56.6737 224.32 56.849 224.32 57.1995C224.32 57.55 225.104 57.8567 225.54 57.9443C225.976 58.0319 226.935 58.4262 226.935 59.3463C226.935 60.2664 225.976 60.8359 225.017 60.8359C224.32 60.9235 223.622 60.573 223.187 60.0035L223.884 59.4339C224.145 59.7844 224.581 60.0035 225.017 60.0035C225.497 60.0035 225.976 59.8282 225.976 59.3901C225.976 58.952 225.235 58.7329 224.843 58.6453C224.451 58.5577 223.404 58.2072 223.404 57.2871C223.404 56.367 224.32 55.8413 225.192 55.8413C225.845 55.7975 226.456 56.1042 226.804 56.6299L226.063 57.1557Z" fill="#D6D3CD"/>
<path d="M227.98 55.9726H228.852V56.6736C229.245 56.1479 229.855 55.885 230.509 55.885C231.86 55.885 232.993 57.0241 232.993 58.3823C232.993 59.7405 231.86 60.8796 230.509 60.8796C229.855 60.9234 229.245 60.6168 228.852 60.091V63.596H227.98V55.9726ZM228.852 58.3385C228.896 59.2148 229.637 59.8719 230.509 59.8281C231.38 59.7843 232.034 59.0395 231.991 58.1633C231.947 57.3308 231.25 56.6736 230.421 56.6736C229.593 56.6298 228.896 57.3308 228.852 58.1633C228.852 58.2071 228.852 58.2947 228.852 58.3385Z" fill="#D6D3CD"/>
<path d="M236.306 55.885C237.658 55.9288 238.791 57.0679 238.747 58.4261C238.704 59.7843 237.57 60.9234 236.219 60.8796C234.868 60.8358 233.778 59.7405 233.778 58.3823C233.778 57.0241 234.912 55.885 236.263 55.885H236.306ZM236.306 60.0472C237.222 60.091 238.006 59.39 238.05 58.4699C238.094 57.5499 237.396 56.7613 236.481 56.7174C235.565 56.6736 234.781 57.3746 234.737 58.2947C234.737 58.3385 234.737 58.3385 234.737 58.3823C234.694 59.2148 235.347 59.9596 236.176 60.0034C236.219 60.0034 236.263 60.0034 236.306 60.0472Z" fill="#D6D3CD"/>
<path d="M239.924 55.9726H240.796V56.7174H240.839C241.144 56.1479 241.755 55.8412 242.408 55.885C243.324 55.885 244.108 56.4546 244.108 57.6813V60.7482H243.193V57.9442C243.193 57.0679 242.67 56.7174 242.103 56.7174C241.537 56.7174 240.796 57.1994 240.796 58.2947V60.7482H239.924V55.9726Z" fill="#D6D3CD"/>
<path d="M247.944 57.1557C247.726 56.849 247.378 56.6737 246.985 56.6737C246.549 56.6737 246.201 56.849 246.201 57.1995C246.201 57.55 246.985 57.8567 247.421 57.9443C247.857 58.0319 248.816 58.4262 248.816 59.3463C248.816 60.2664 247.857 60.8359 246.898 60.8359C246.201 60.8797 245.503 60.573 245.067 60.0035L245.765 59.4339C246.026 59.7844 246.462 60.0035 246.898 60.0035C247.378 60.0035 247.857 59.8282 247.857 59.3901C247.857 58.952 247.116 58.7329 246.724 58.6453C246.331 58.5577 245.285 58.2072 245.285 57.2871C245.285 56.367 246.201 55.8413 247.072 55.8413C247.726 55.7975 248.336 56.1042 248.685 56.6299L247.944 57.1557Z" fill="#D6D3CD"/>
<path d="M250.472 58.6891C250.56 59.5216 251.257 60.1349 252.085 60.0473C252.608 60.0473 253.088 59.7844 253.393 59.3463L254.09 59.8721C253.611 60.5292 252.826 60.8797 251.998 60.8359C250.69 60.8797 249.601 59.8721 249.557 58.5577C249.557 58.4701 249.557 58.4262 249.557 58.3386C249.513 57.0242 250.559 55.8851 251.867 55.8413C251.911 55.8413 251.954 55.8413 251.998 55.8413C253.654 55.8413 254.308 57.1119 254.308 58.3386V58.6453L250.472 58.6891ZM253.306 57.9443C253.349 57.2433 252.826 56.6299 252.129 56.5861C252.085 56.5861 251.998 56.5861 251.954 56.5861C251.17 56.5423 250.516 57.1557 250.472 57.9443H253.306Z" fill="#D6D3CD"/>
<path d="M212.289 66.9697H216.735V67.846H213.248V70.0804H216.474V71.0005H213.248V74.0673H212.289V66.9697Z" fill="#D6D3CD"/>
<path d="M221.966 74.0673H221.094V73.3225C220.789 73.8921 220.179 74.1987 219.525 74.1549C218.61 74.1549 217.825 73.5854 217.825 72.3586V69.2917H218.697V72.0957C218.697 72.972 219.22 73.3225 219.787 73.3225C220.353 73.3225 221.094 72.8406 221.094 71.7452V69.2917H221.966V74.0673Z" fill="#D6D3CD"/>
<path d="M223.578 69.3354H224.493V70.0802C224.799 69.5107 225.409 69.204 226.063 69.2478C226.978 69.2478 227.763 69.8173 227.763 71.0441V74.111H226.891V71.307C226.891 70.4307 226.368 70.0802 225.801 70.0802C225.234 70.0802 224.493 70.5622 224.493 71.6575V74.111H223.578V69.3354Z" fill="#D6D3CD"/>
<path d="M234.083 74.0672H233.168V73.3662H233.124C232.732 73.892 232.122 74.1548 231.468 74.1548C230.117 74.1548 228.983 73.0157 228.983 71.6575C228.983 70.2993 230.117 69.1602 231.468 69.1602C232.122 69.1164 232.732 69.4231 233.124 69.9488H233.168V66.4438H234.083V74.0672ZM233.168 71.7013C233.124 70.8251 232.383 70.1679 231.511 70.2117C230.64 70.2555 229.986 71.0003 230.03 71.8766C230.073 72.709 230.771 73.3662 231.599 73.3662C232.427 73.41 233.124 72.709 233.168 71.8766C233.168 71.8328 233.168 71.7452 233.168 71.7013Z" fill="#D6D3CD"/>
<path d="M98.6118 26.9688V32.752C98.6118 33.9349 99.1785 35.4246 100.966 35.4246C102.753 35.4246 103.319 33.8911 103.319 32.752V26.9688H104.583V32.9711C104.801 34.9864 103.363 36.8266 101.358 37.0456C99.3528 37.2647 97.5221 35.8189 97.3042 33.8035C97.2606 33.5406 97.2606 33.2777 97.3042 33.0149V26.9688H98.6118Z" fill="#D6D3CD"/>
<path d="M106.894 30.0796H108.07V31.0434H108.114C108.55 30.2986 109.334 29.9043 110.163 29.9481C111.383 29.9481 112.429 30.6929 112.429 32.3578V36.4324H111.252V32.6645C111.252 31.4816 110.555 31.0434 109.814 31.0434C109.073 31.0434 108.07 31.7006 108.07 33.1464V36.3886H106.894V30.0796Z" fill="#D6D3CD"/>
<path d="M115.262 26.925C115.742 26.925 116.134 27.3194 116.134 27.8013C116.134 28.2832 115.742 28.6775 115.262 28.6775C114.783 28.6775 114.391 28.2832 114.391 27.8013C114.391 27.3194 114.783 26.925 115.262 26.925ZM114.652 30.0795H115.829V36.4324H114.652V30.0795Z" fill="#D6D3CD"/>
<path d="M121.539 31.1311H119.839V33.979C119.839 34.68 119.839 35.4248 120.755 35.4248C121.06 35.4248 121.365 35.381 121.626 35.2495V36.3448C121.278 36.4763 120.929 36.5639 120.537 36.5639C118.706 36.5639 118.662 35.4248 118.662 34.4171V31.1311H117.268V30.0796H118.662V28.3271H119.839V30.1235H121.539V31.1311Z" fill="#D6D3CD"/>
<path d="M124.024 33.6722C124.024 34.7675 125.07 35.5123 126.16 35.5123C126.857 35.4685 127.467 35.118 127.86 34.5484L128.775 35.2494C128.121 36.1257 127.075 36.6076 125.985 36.5638C123.98 36.5638 122.76 35.118 122.76 33.234C122.673 31.4815 124.067 29.9919 125.811 29.9043C125.898 29.9043 125.942 29.9043 126.029 29.9043C128.252 29.9043 129.124 31.613 129.124 33.234V33.6722H124.024ZM127.772 32.7083C127.729 31.6568 127.162 30.8682 125.942 30.8682C124.896 30.8682 124.067 31.6568 123.98 32.7083H127.772Z" fill="#D6D3CD"/>
<path d="M137.187 36.4324H135.966V35.5124C135.443 36.2134 134.659 36.6077 133.787 36.6077C131.826 36.6077 130.562 35.1619 130.562 33.2779C130.562 31.394 131.826 29.9482 133.787 29.9482C134.659 29.9044 135.443 30.2987 135.966 30.9997V26.3118H137.187V36.4324ZM135.966 33.2779C135.966 32.0074 135.182 31.0873 133.918 31.0873C132.654 31.0873 131.869 32.0074 131.869 33.2779C131.869 34.5485 132.654 35.4686 133.918 35.4686C135.182 35.4686 135.966 34.5485 135.966 33.2779Z" fill="#D6D3CD"/>
<path d="M145.905 26.9688H147.562L152.749 34.7236H152.792V26.9688H154.056V36.4322H152.443L147.213 28.6336H147.169V36.4322H145.905V26.9688Z" fill="#D6D3CD"/>
<path d="M156.409 30.8681C157.107 30.2547 157.978 29.948 158.894 29.948C160.768 29.948 161.509 30.9557 161.509 32.051V35.2931C161.509 35.6874 161.509 36.0379 161.553 36.4322H160.507C160.463 36.1256 160.463 35.7751 160.463 35.4684H160.419C159.983 36.2132 159.112 36.6513 158.24 36.6075C157.063 36.6075 156.061 35.9503 156.061 34.7236C156.061 33.4968 157.63 32.5329 159.504 32.5329H160.376V32.2701C160.376 31.5252 159.722 30.9119 158.981 30.9557C158.937 30.9557 158.937 30.9557 158.894 30.9557C158.24 30.9557 157.586 31.2186 157.107 31.6567L156.409 30.8681ZM159.766 33.3654C158.632 33.3654 157.281 33.5844 157.281 34.5921C157.281 35.5998 157.804 35.5998 158.632 35.5998C159.591 35.6436 160.376 34.9426 160.419 33.9787C160.419 33.8911 160.419 33.8473 160.419 33.7597V33.3654H159.766Z" fill="#D6D3CD"/>
<path d="M167.089 31.1311H165.389V33.979C165.389 34.68 165.389 35.4248 166.304 35.4248C166.61 35.4248 166.915 35.381 167.176 35.2495V36.3448C166.827 36.4763 166.479 36.5639 166.086 36.5639C164.256 36.5639 164.212 35.4248 164.212 34.4171V31.1311H162.817V30.0796H164.212V28.3271H165.389V30.1235H167.089V31.1311Z" fill="#D6D3CD"/>
<path d="M169.399 26.925C169.879 26.925 170.271 27.3194 170.271 27.8013C170.271 28.2832 169.879 28.6775 169.399 28.6775C168.92 28.6775 168.527 28.2832 168.527 27.8013C168.527 27.3194 168.92 26.925 169.399 26.925ZM168.789 30.0795H169.966V36.4324H168.789V30.0795Z" fill="#D6D3CD"/>
<path d="M175.196 29.948C177.027 29.9918 178.509 31.4814 178.465 33.3216C178.422 35.1617 176.94 36.6513 175.109 36.6075C173.278 36.5637 171.84 35.1179 171.84 33.2777C171.84 31.4376 173.322 29.948 175.153 29.948H175.196ZM175.196 35.4684C176.46 35.4684 177.288 34.5483 177.288 33.2777C177.288 32.0072 176.504 31.0871 175.196 31.0871C173.888 31.0871 173.147 32.0072 173.147 33.2777C173.147 34.5483 173.932 35.4684 175.196 35.4684Z" fill="#D6D3CD"/>
<path d="M180.383 30.0796H181.603V31.0435H181.647C182.039 30.2987 182.867 29.8606 183.695 29.9044C184.916 29.9044 185.962 30.6492 185.962 32.3141V36.3886H184.785V32.6646C184.785 31.4816 184.088 31.0435 183.347 31.0435C182.606 31.0435 181.603 31.7007 181.603 33.1465V36.3886H180.383V30.0796Z" fill="#D6D3CD"/>
<path d="M191.455 31.6568C191.149 31.2625 190.67 31.0434 190.147 31.0434C189.58 31.0434 189.101 31.3063 189.101 31.7444C189.101 32.1826 190.19 32.6207 190.714 32.7083C191.237 32.7959 192.544 33.3655 192.544 34.5484C192.544 35.7314 191.237 36.52 190.016 36.52C189.057 36.6076 188.142 36.1695 187.575 35.3809L188.491 34.6361C188.883 35.0742 189.406 35.3809 190.016 35.3809C190.626 35.3809 191.28 35.118 191.28 34.5922C191.28 34.0665 190.278 33.7598 189.755 33.6284C189.232 33.4969 187.837 33.0588 187.837 31.8321C187.837 30.6053 189.057 29.9481 190.234 29.9481C191.062 29.9043 191.89 30.2986 192.37 30.9996L191.455 31.6568Z" fill="#D6D3CD"/>
<path d="M117.007 51.8543C115.35 49.7951 112.866 48.6122 110.207 48.6122C103.887 48.6122 99.7021 53.6944 99.7021 60.1348C99.7021 66.5753 103.625 71.1756 110.207 71.1756C113.127 71.2632 115.917 69.8174 117.573 67.3639L120.799 69.8174C119.97 70.9565 116.571 74.7682 110.12 74.7682C101.141 74.7682 95.6484 67.2324 95.6484 60.1348C95.6484 51.3285 101.664 45.0195 110.338 45.0195C114.043 45.0195 117.965 46.4215 120.232 49.4446L117.007 51.8543Z" fill="#D6D3CD"/>
<path d="M125.55 45.7207H143.726V49.3133H129.342V57.7691H142.723V61.3617H129.342V70.4309H144.423V74.0235H125.55V45.7207Z" fill="#D6D3CD"/>
<path d="M150.002 45.7207H159.94C167.132 45.7207 168.963 50.1019 168.963 53.6508C168.963 57.1996 166.304 60.6607 162.032 61.1427L170.009 74.0674H165.214L158.109 61.5808H153.838V74.0674H150.002V45.7207ZM153.838 58.2073H158.85C161.858 58.2073 164.909 57.5063 164.909 53.6508C164.909 49.7953 161.901 49.0943 158.85 49.0943H153.838V58.2073Z" fill="#D6D3CD"/>
<path d="M174.979 45.7207H192.675V49.3133H178.814V58.2073H191.76V61.7999H178.814V74.0674H174.979V45.7207Z" fill="#D6D3CD"/>
<path d="M202.962 27.0127H202.003V74.1111H202.962V27.0127Z" fill="#D6D3CD"/>
<path d="M57.7698 52.161C57.5954 52.0734 57.4211 52.1172 57.2903 52.2487L56.898 52.5553C56.898 52.5553 56.7673 52.6868 56.8545 52.7744C56.9416 52.862 57.1596 52.643 57.1596 52.643L57.5519 52.4239L57.7698 52.2925C57.7698 52.2925 58.0313 52.2048 57.7262 52.0734M67.8822 47.035C67.8386 47.6922 67.795 48.3493 67.6643 49.0065C67.7514 49.2256 68.1873 49.5323 68.2309 49.7513C68.2745 49.9704 67.8386 50.3209 67.7078 50.1018L67.4899 49.9266C66.8797 52.2925 65.7028 54.4393 64.0465 56.2356L65.2233 57.4185C65.2669 57.2871 65.2669 57.1995 65.2669 57.068C65.2233 56.6737 65.3541 56.5423 65.4413 56.5423C65.79 56.5423 66.0951 56.7175 66.2258 57.068C66.2694 57.2433 66.313 57.068 66.4002 57.3747C66.3566 57.55 66.4002 57.7252 66.4438 57.9005L66.5746 58.2071C66.5746 58.3386 66.5746 58.4262 66.531 58.5576C69.4514 55.447 71.1513 51.3724 71.3256 47.0788L67.8822 47.035ZM63.5234 61.055C64.2208 60.573 64.8746 60.0911 65.4849 59.5215L65.3977 59.4339C65.3105 59.4777 65.1797 59.4339 65.0926 59.3901C65.0054 59.2586 64.9618 59.1272 64.9182 58.9958L63.1311 57.1995C63.0004 57.3309 62.8696 57.4623 62.7388 57.5938V58.0319C63.8721 58.5576 64.1336 59.0396 64.09 59.2586C64.0465 59.4777 63.3055 60.1787 63.3055 60.354C63.3055 60.5292 63.6106 60.7483 63.567 60.9235L63.5234 61.055ZM53.9777 61.1426V64.2094C54.893 64.1656 55.8083 64.078 56.6801 63.9028C56.4186 63.6837 56.157 63.5085 55.8519 63.4208C55.5904 63.158 55.4161 62.8513 55.3289 62.5008C55.1545 62.0188 55.6776 61.975 55.5468 61.6245C55.4161 61.274 54.3264 61.4055 54.3264 61.4055C54.3264 61.4055 54.4571 61.6245 53.9777 61.1426ZM52.67 60.8797C49.4009 60.7483 46.219 59.5215 43.7345 57.3747L44.1268 57.769C44.8242 58.3824 44.9114 58.7329 44.8678 59.0396C44.8242 59.3463 43.3422 59.3025 43.3422 59.3025H43.2986C42.7756 59.5653 42.2525 59.653 41.6859 59.653C41.5551 59.6091 41.3808 59.5215 41.2936 59.4339L41.1628 59.5653C44.3447 62.4131 48.3984 64.078 52.67 64.2094V60.8797ZM38.8091 48.3055C38.7655 47.9112 38.7219 47.4731 38.6783 47.0788H35.2784C35.3656 48.6998 35.6271 50.3209 36.1502 51.8543H36.1938C36.3246 51.7667 36.1938 51.7229 36.281 51.5038C36.3681 51.2848 36.4989 51.5038 36.5425 51.3724C36.5861 51.241 36.4989 51.1972 36.4989 51.0657C36.4989 50.9343 36.6733 50.8905 36.6733 50.8028C36.6733 50.7152 36.5861 50.8905 36.5425 50.5838C36.5425 50.3647 36.5861 50.1457 36.6733 49.9266L36.9348 49.357C37.0655 49.0503 37.6758 48.8751 37.8501 48.656C38.0245 48.437 38.0245 48.2617 38.3732 48.1741C38.5475 48.1741 38.6783 48.2179 38.8091 48.3055ZM38.6783 45.7644C38.8527 42.3032 40.2475 39.0173 42.6012 36.52L40.2475 34.1103C37.1963 37.221 35.4528 41.3832 35.2784 45.7644H38.6783ZM43.5166 35.5999C46.0447 33.3217 49.2702 32.0073 52.67 31.8759V28.5461C48.3984 28.6776 44.3447 30.3424 41.1628 33.234L43.5166 35.5999ZM53.9777 31.8759C56.6365 32.0073 59.1646 32.8397 61.3876 34.2855L61.1697 33.8474C61.1261 33.7598 61.344 33.6722 61.344 33.6722C61.344 33.6722 60.8645 32.9274 60.9953 32.7959C61.1261 32.6645 61.5184 33.015 61.7363 33.3655C61.9542 33.716 62.2158 34.0227 62.3901 34.0665C62.5645 34.1103 62.9132 34.0665 63.0003 34.417C63.1311 34.6799 63.2183 34.9427 63.3055 35.2494V35.4247L64.308 34.4608C64.2208 34.1979 64.0029 33.9789 63.7413 33.8474L63.0439 34.0665C63.0439 34.0665 62.7824 34.1979 62.6952 34.0227C62.6516 33.8474 62.6516 33.6284 62.6516 33.4531C62.6516 33.4531 62.3901 33.2779 62.3901 33.1464C62.3901 33.015 62.5209 32.5331 62.4337 32.3578C62.3465 32.2264 62.2158 32.1387 62.085 32.0511C62.0414 31.7882 61.9542 31.4816 61.8671 31.2187C61.6491 30.9558 61.4312 30.6929 61.1697 30.4739V30.3424C58.9031 29.2471 56.4622 28.6337 53.9777 28.5461V31.8759ZM64.09 36.6076L64.3516 36.9143L65.0926 37.8344L65.4413 38.3163L65.79 38.0972C66.0079 37.9658 66.1387 38.0972 66.1823 38.3601C66.2259 38.623 65.7464 38.623 65.9207 38.8859C66.0951 39.1487 66.4002 38.842 66.4438 38.8859C66.531 39.0173 66.4874 39.1925 66.4002 39.2802C66.313 39.4116 66.1823 39.4554 66.1823 39.543L66.313 39.8059C66.4874 39.8935 66.8361 39.7183 66.8361 40.025C66.8361 40.3317 67.0976 40.6384 67.1412 40.945C67.1412 41.1203 67.0976 41.2955 67.0104 41.427C67.1412 41.7775 67.272 42.1718 67.3591 42.5223C67.4463 42.4347 67.5335 42.4347 67.6643 42.4347V42.4785C67.6643 42.6537 67.6643 42.7852 67.6643 42.9604C67.6643 43.1357 67.6207 43.3547 67.5771 43.53L67.6643 44.0557C67.7078 44.2748 67.7514 44.5377 67.795 44.7567H67.7514C67.795 45.0634 67.795 45.3263 67.795 45.633H71.1949C71.1077 43.4424 70.6282 41.2517 69.7565 39.2364H69.5821C69.4514 39.3678 69.277 39.4116 69.1027 39.4554C68.8847 39.4554 68.7539 39.1925 68.7539 39.1925C68.7539 39.1925 67.795 37.922 67.6643 37.8344C67.5335 37.7029 67.3156 37.6153 67.1412 37.6153C66.7489 37.5715 66.8361 37.3962 66.8361 37.3962L66.0515 37.0895L65.79 36.52C65.79 36.52 65.8336 36.3009 65.79 36.2571C65.572 36.2133 65.3105 36.1695 65.0926 36.1695L64.6567 35.8628L64.09 36.4324C64.1336 36.4762 64.1336 36.5638 64.09 36.6076ZM77.3408 46.3778C77.3408 59.5653 66.5746 70.2556 53.2367 70.2556C39.8988 70.2556 29.2197 59.5653 29.2197 46.3778C29.2197 33.1902 39.9859 22.5 53.2802 22.5C66.5746 22.5 77.3844 33.1902 77.3844 46.3778H77.3408ZM53.3674 42.347L52.4521 42.4347C52.5393 42.4785 52.5828 42.5223 52.5393 42.6099C52.4957 42.6975 52.67 43.3547 52.67 43.3547L51.188 44.1434C51.188 44.1434 51.1009 44.5377 50.7957 44.7129C50.5778 44.8005 50.447 44.9758 50.3163 45.151C50.1855 45.3263 50.2291 45.5015 50.1419 45.7644C50.0547 46.0273 50.2291 46.1149 50.1855 46.2463C50.1419 46.5092 50.0547 46.7283 49.9676 46.9912C49.8804 47.1226 49.6625 46.9473 49.5317 46.9035C49.4009 46.8597 49.3137 46.2025 49.2266 46.1149H49.183C49.183 46.2025 49.183 46.2902 49.183 46.3778C49.183 46.6407 49.2266 46.9473 49.2702 47.2102C49.4445 47.1664 49.4009 47.0788 49.4445 47.0788C49.4881 47.0788 49.6189 47.3417 49.7932 47.3417C49.9676 47.3417 50.0983 47.254 50.0983 46.9035C50.0983 46.6845 50.2727 46.5092 50.4906 46.5092C50.5342 46.5092 50.5342 46.5092 50.5778 46.5092C50.7086 46.5092 50.5778 46.7721 50.665 46.8597C50.7521 46.9473 50.8393 46.8597 50.8393 47.0788C50.8393 47.2978 50.4034 47.5607 50.3599 47.9112C50.3163 48.2617 50.2291 48.3493 50.0547 48.3493C49.8804 48.3493 49.8804 47.955 49.7932 48.1741C49.706 48.3932 50.0547 48.7437 50.0547 48.7437C50.2291 48.6122 50.3599 48.437 50.447 48.2179C50.5342 48.0427 50.7086 48.0865 50.8829 47.955C51.0573 47.8236 51.1009 47.2978 51.0573 47.1664C51.0137 47.035 51.2752 47.0788 52.147 47.035C53.0187 46.9912 52.9751 47.254 52.9315 47.5169C52.888 47.7798 53.0623 47.4731 53.0623 47.736C53.0623 47.9988 52.7136 48.2617 52.6264 48.5246C52.5393 48.7875 52.7572 48.7875 52.6264 48.8751C52.5393 48.9189 52.4957 49.0065 52.4521 49.0942C51.9726 49.6637 51.929 49.3132 51.6239 49.4447C51.406 49.5323 51.188 49.5761 50.9701 49.5323H50.8829C51.5803 50.058 52.4521 50.3209 53.3238 50.3209H53.9341C54.0212 49.839 54.1956 49.0942 54.5443 48.9189C54.893 48.7437 55.3725 49.0503 55.5468 48.9189C55.6776 48.8313 55.8083 48.6998 55.8519 48.5246C55.9391 48.3055 55.9827 48.0427 55.9391 47.7798C55.8519 47.5169 55.6776 47.6483 55.5904 47.4293C55.5032 47.2102 55.9391 47.254 55.7212 46.9912C55.5032 46.7283 55.4596 46.334 55.3725 46.2463C55.2853 46.1587 55.1981 46.2463 55.0674 46.1149C54.9366 45.9835 55.1109 45.8082 55.1545 45.633C55.1981 45.4577 55.4596 45.4139 55.4161 45.2387C55.3725 45.0634 55.1981 45.2387 55.1545 45.0196C55.1545 44.8443 55.1981 44.6691 55.2853 44.5377C55.2853 44.5377 54.8058 44.5377 54.7622 44.3624C54.5443 43.7052 53.8469 43.3547 53.1931 43.5738C53.1059 43.3109 52.7136 43.048 52.7136 43.048C52.7136 43.048 52.6264 42.6537 52.7572 42.4785C52.888 42.3032 53.2802 42.4785 53.3238 42.4347C53.3674 42.3909 53.3674 42.3909 53.3674 42.347ZM67.3591 33.234C68.1001 34.0227 68.7975 34.8989 69.4078 35.819C69.6257 35.9942 69.8001 36.2133 69.9308 36.4762V36.6952L70.1052 36.9581L70.1924 37.0457C70.4103 37.2648 70.5411 37.5277 70.6718 37.8344C70.759 37.9658 70.8026 38.141 70.8026 38.3163C71.8923 40.6384 72.5025 43.1795 72.5897 45.7644H76.0767C75.9024 40.1564 73.6794 34.8551 69.8001 30.8244L67.3591 33.234ZM54.5007 27.2756C57.2467 27.4508 59.9492 28.1956 62.3901 29.4662L63.0439 29.2033H63.1311L63.7413 29.3347C64.1336 29.4662 64.1336 29.3347 64.308 29.4224C64.4823 29.51 64.4823 29.7291 64.7003 29.9043C64.9182 30.0796 64.8746 29.9043 65.0926 30.0357C65.3541 30.211 65.572 30.4739 65.7464 30.7367C65.8336 30.912 65.9643 30.6491 66.1387 31.5254L66.6181 32.0511L68.7975 29.8605C64.7439 26.1364 59.4697 23.9896 53.9777 23.8144V26.6184H54.152C54.4135 26.7498 54.5007 26.7498 54.5007 27.0127C54.5007 27.1003 54.5007 27.1879 54.5007 27.2756ZM40.2039 32.2702C43.6473 29.1595 48.0497 27.3632 52.67 27.2317V23.8144C47.1344 23.9458 41.8602 26.0926 37.8065 29.8605L40.2039 32.2702ZM33.9708 45.7644C34.1452 41.0765 36.0194 36.5638 39.2885 33.1902L36.8476 30.7367C32.9247 34.7675 30.6581 40.1126 30.5274 45.7644H33.9708ZM39.2885 59.5653L38.1117 58.2071C37.763 58.0757 37.8065 57.9881 37.4578 57.6814C37.1091 57.3747 37.2835 57.068 37.1091 56.9804C36.9348 56.8928 37.022 57.1118 36.9784 57.1556C36.9348 57.1995 36.7604 57.2433 36.5425 57.1556C36.3681 57.068 36.1938 56.9366 36.1066 56.7613C35.7143 56.4985 35.7579 56.1041 35.7143 56.0165C35.6707 55.9289 35.4092 56.0165 35.2784 55.9727C35.1477 55.9289 35.1477 55.7098 35.0169 55.666C34.9297 55.6222 34.799 55.5784 34.6682 55.6222L34.1887 54.9212C34.1887 54.9212 34.1887 55.2717 33.8836 55.2717C33.5785 55.2717 33.1862 54.6145 33.0555 54.5707C32.9247 54.5269 32.8375 54.7021 32.6632 54.5707C32.4888 54.3078 32.3145 54.0011 32.2709 53.6945C32.2273 53.5192 32.1401 53.3878 32.0529 53.2125C32.0094 52.7744 32.0529 52.3801 32.1401 51.942C32.2273 51.7229 32.3145 51.942 32.4016 51.5915C32.4888 51.241 32.7068 51.241 32.8811 51.241C33.0119 51.1972 33.1426 51.2848 33.1862 51.4162C33.2734 51.5477 33.4913 51.4162 33.6221 51.3724C33.7529 51.3286 33.6221 51.1533 33.6221 51.0657C33.6221 50.9781 33.8836 51.0219 34.058 50.9343C34.2323 50.8467 34.4939 50.8028 34.5375 50.9343C34.2323 49.6637 34.0144 48.3493 33.9708 47.035H30.4838C30.6581 52.643 32.9247 57.9881 36.8476 62.0188L39.2885 59.5653ZM52.67 65.5238C48.0497 65.3924 43.6473 63.5961 40.2475 60.4854L37.8065 62.9389C41.8602 66.6629 47.1779 68.8098 52.67 68.9412V65.5238ZM66.4002 60.4416C65.3105 61.4493 64.1336 62.2817 62.8696 63.0265V63.1141C62.6081 63.6399 62.3029 64.1218 61.9542 64.56C61.8235 64.779 61.7363 64.6476 61.4748 64.8666C61.2132 65.0857 61.344 65.2609 61.0389 65.3924L60.5158 65.6115C60.0364 66.1372 59.2518 66.1372 58.7287 65.6553C58.6851 65.6115 58.6851 65.6115 58.6416 65.5676C58.4672 65.4362 58.1621 65.3924 57.9877 65.1733L57.857 65.0419C56.5929 65.3486 55.3289 65.5238 54.0648 65.5676V68.9412C59.5569 68.7659 64.831 66.6191 68.8847 62.8951L66.4002 60.4416ZM72.5897 47.035C72.4153 51.7229 70.5411 56.148 67.3155 59.5215L69.7565 61.975C73.6358 57.9881 75.9024 52.643 76.0767 47.035H72.5897ZM64.6131 45.7206H66.5746C66.531 45.1948 66.4874 44.6253 66.4002 44.0995C66.313 44.2748 66.2259 44.4062 66.0951 44.5377C65.8772 44.7567 65.6592 44.6253 65.4413 44.7567C65.2233 44.8882 65.3977 45.0634 65.3541 45.2387C65.3105 45.4139 65.572 45.3263 65.4413 45.5453C65.3105 45.7644 65.1362 45.633 65.0054 45.633C64.8746 45.633 64.7875 45.5453 64.6131 45.7206ZM60.6902 39.8497L61.2132 40.4631C61.2568 40.4193 61.3876 40.3755 61.6055 40.4193L62.9132 40.6384C63.3055 40.6822 63.3926 41.3832 63.6106 41.4708C63.8285 41.5584 63.7849 41.646 63.7849 41.8651C63.7849 42.0842 63.6106 41.9965 63.6542 42.1718C63.6978 42.347 63.8285 42.4785 63.9593 42.3032C64.1772 42.0404 64.4823 41.9527 64.7875 41.9965C65.4413 42.128 65.2233 42.4785 65.4849 42.5661C65.7464 42.6537 65.6592 42.6975 65.7464 42.829C65.8336 42.9604 65.7028 43.0919 65.572 43.1357C65.4413 43.1795 65.4413 43.3109 65.4413 43.3985C65.4413 43.4862 65.3105 43.6614 65.2669 43.749C65.2233 43.8367 65.1362 44.1434 65.2669 44.1434C65.3977 44.1434 65.5284 44.2748 65.6156 44.1434C65.7028 44.0119 66.2258 43.4862 66.2258 43.2233V43.1357C66.0951 42.6099 65.9207 42.0842 65.7028 41.5584L65.4849 41.2955C65.2233 41.1203 64.3952 40.6822 64.2644 40.4631C64.1336 40.244 64.308 40.2002 64.4388 40.025C64.6131 39.8497 64.6567 39.6307 64.6131 39.4116L64.3516 39.0611L63.567 37.9658L63.0875 37.44L60.6902 39.8497ZM53.9777 36.6076C56.1135 36.739 58.1621 37.6153 59.7748 39.0173L62.2158 36.5638C59.9492 34.5484 57.0724 33.3655 54.0212 33.1902L53.9777 36.6076ZM46.8292 38.9297C48.4856 37.5277 50.5342 36.6952 52.67 36.5638V33.1902C49.6189 33.3217 46.7421 34.5046 44.4319 36.52L46.8292 38.9297ZM45.2165 40.726L45.9139 39.8497L43.5166 37.44C41.4243 39.6745 40.1603 42.6099 40.0295 45.7206H41.5115C41.4243 45.5892 41.3808 45.4577 41.3808 45.2825C41.4243 45.1072 41.2936 44.4938 41.3372 44.4062C41.3807 44.3186 41.5115 44.1872 41.5987 44.0995C41.6859 44.0119 41.5987 43.8367 41.6423 43.749L41.9474 43.3547C42.0782 43.2233 42.0346 42.8728 42.3397 42.7414C42.6448 42.6099 42.732 42.7852 42.9499 42.7414C43.1679 42.6975 43.1679 42.4347 43.1679 42.4347C43.1679 42.4347 43.0807 42.347 43.2114 42.128C43.3422 41.9089 44.1268 41.7337 44.1268 41.7337C44.1268 41.7337 44.1268 41.5146 44.6063 41.1203C44.7806 40.945 44.9985 40.8136 45.2165 40.726ZM43.4294 45.7644C43.4294 45.633 43.4294 45.4577 43.473 45.3263L43.0807 45.2387C42.732 45.2387 42.3833 45.4577 42.4269 45.7644H43.4294ZM41.1192 47.0788H39.9859C40.0295 47.9112 40.1603 48.6998 40.3346 49.4885C40.509 49.4008 40.509 49.3132 40.509 49.1818C40.509 49.0503 40.6833 49.0942 40.7705 48.9627C40.8577 48.8313 40.8141 48.8313 40.7705 48.7875C40.6398 48.6998 40.5526 48.5684 40.509 48.3932C40.4654 48.1741 40.6398 48.0427 40.6833 47.7798C40.7269 47.5169 40.6833 47.4731 40.7705 47.2978C40.8577 47.1226 40.7705 47.2978 41.1192 47.0788ZM45.9139 52.9497C44.7806 51.6791 43.9524 50.1018 43.6037 48.437H43.5166C43.473 48.2617 43.2986 48.2179 43.1243 48.2617L43.0371 49.0065C43.0371 49.0503 42.9935 49.4008 42.8192 49.4008C42.732 49.357 42.6448 49.2694 42.6012 49.1818C42.6012 49.1818 42.3397 49.2256 42.2961 49.138C42.2525 49.0503 42.0346 48.8313 42.2525 48.6122C42.4704 48.3932 42.4704 48.8313 42.6448 48.6122C42.8192 48.3932 42.4269 47.4293 42.732 47.4293C43.0371 47.4293 43.2114 47.8674 43.255 47.8674L43.473 47.7798C43.4294 47.5607 43.4294 47.3417 43.4294 47.1226H41.9474C41.8602 47.2978 41.9038 47.8236 41.773 47.9112C41.6423 47.9988 41.0756 47.8236 41.032 48.1741C40.9885 48.5246 41.2064 48.437 41.2064 48.7875C41.2064 49.138 41.032 48.9189 41.1628 49.2694C41.2936 49.6199 41.8166 49.7075 41.9038 50.1018C41.9474 50.3209 42.0346 50.54 42.1653 50.759C42.2089 50.8467 41.9474 51.0657 42.1217 51.3286C42.2961 51.5915 42.4269 51.8982 42.4269 52.2048C42.3833 52.643 42.4269 53.0811 42.5576 53.5192C42.732 54.2202 42.732 53.7821 42.9935 54.2202C43.0807 54.4393 43.1243 54.6583 43.1243 54.9212L43.5166 55.3593L45.9139 52.9497ZM51.0573 55.9727C49.4881 55.6222 48.0497 54.9212 46.8292 53.8697L44.4755 56.2356C46.3498 57.9005 48.6599 58.9958 51.1444 59.3901L50.447 58.9958C50.3163 58.7329 50.1419 58.47 49.924 58.251C49.706 58.0757 49.6189 57.769 49.6189 57.5061C49.7496 57.4623 49.8804 57.3747 49.924 57.2433C50.0112 56.8928 50.1855 56.5423 50.447 56.2794L51.0573 55.9727ZM58.7287 54.5707L58.2929 54.8336H58.3364C58.598 54.9212 59.6441 55.0527 59.9492 55.3155C60.2107 55.4908 60.4722 55.6222 60.7774 55.666L61.5619 55.5784L61.1261 55.1403L60.5594 54.9212C60.1235 54.7021 60.2107 55.0088 59.8184 54.7898C59.4697 54.6583 59.121 54.5707 58.7287 54.5707ZM66.2694 49.357C66.4438 48.6122 66.5746 47.8236 66.6181 47.035H64.6131L65.0054 47.3417C65.2233 47.5607 65.1362 47.7798 65.1797 47.9988C65.2233 48.2179 65.3977 48.1741 65.7028 48.4808C66.0079 48.7875 66.0079 49.0942 66.1387 49.2694L66.2694 49.357ZM61.1261 52.3801L60.9081 52.643H60.9517C61.1261 52.5115 61.2568 52.7306 61.3876 52.5115C61.5184 52.2925 61.5184 52.1172 61.6491 51.9858C61.7799 51.8543 62.1286 51.7667 62.3465 51.8105C62.5645 51.8543 62.5645 51.7229 62.6952 52.1172C62.7824 52.3363 62.826 52.5992 62.7824 52.862C62.8696 52.9497 62.6081 53.2563 62.5645 53.8697C62.5209 54.4831 62.3901 54.0012 62.3901 54.4393V54.4831L62.6081 54.7021L62.6952 54.5269C62.826 54.1764 63.0439 54.0012 63.1747 54.1764C63.2619 54.4393 63.349 54.7021 63.3926 55.0088C64.6131 53.6068 65.5285 51.9858 66.0951 50.2333H66.0079L65.0054 50.4085H64.2208C64.2208 50.4085 64.0029 50.1895 63.9157 50.3209C63.8285 50.4523 63.7413 50.8467 63.3926 50.759C63.0439 50.6714 63.2183 50.3209 63.1311 50.2771C63.0439 50.2333 63.1311 50.4085 63.0003 50.6276L62.4773 51.46C62.4337 51.5915 61.7363 51.5915 61.6491 51.7667C61.5184 52.0296 61.344 52.2487 61.1261 52.3801ZM58.2493 50.4085L59.2082 51.3724C59.2082 51.1972 59.1646 50.9781 59.0774 50.8028L58.6416 50.5838L58.4672 50.4523L58.5544 50.2333H58.4236L58.2493 50.4085ZM57.6826 53.6945L58.1185 53.4316C57.9877 53.4316 57.857 53.4754 57.7698 53.6068L57.6826 53.6945ZM47.7882 52.9058C49.0086 53.9135 50.5342 54.5707 52.1034 54.7898C52.1034 54.8336 52.1034 54.8774 52.1034 54.965L52.3649 55.0527C52.6264 55.0965 52.8444 55.0088 53.0187 54.8336C53.2367 54.6145 53.1931 54.7898 53.3674 54.746L53.6725 54.264C53.8469 54.1764 53.8905 53.9573 53.9777 53.9573V54.8774C55.1109 54.7898 56.2006 54.4831 57.2032 53.9573C57.0288 53.9573 56.7673 53.6507 56.7237 53.6507C56.6801 53.6507 56.8109 54.0012 56.8109 54.0888C56.8109 54.1764 56.3314 54.3517 56.2442 54.264C56.157 54.1764 55.8083 53.9573 55.8083 54.0012C55.8083 54.045 55.5468 54.3516 55.5468 54.3516C55.5468 54.3516 54.9366 54.1326 54.7186 53.8697C54.5007 53.6068 54.3699 53.7383 54.3699 53.7383C54.3699 53.7383 54.0648 53.9135 53.9341 53.9573C53.8033 54.0012 53.7597 54.2202 53.629 54.264L53.3238 54.746C53.1495 54.7898 53.1931 54.6145 52.9751 54.8336C52.8008 55.0088 52.5828 55.0965 52.3213 55.0527L52.0598 54.965C52.0598 54.9212 52.0598 54.8336 52.0598 54.7898C52.0162 54.6583 52.0162 54.5707 52.0162 54.4393C52.0162 54.1326 52.0598 53.8697 52.1905 53.6068C52.2777 53.4754 52.4957 53.563 52.67 53.563V52.6868C52.67 52.643 52.67 52.5992 52.67 52.5553V51.6791C51.7111 51.5915 50.7957 51.1972 50.0112 50.6276L47.7882 52.9058ZM48.0061 47.4293V47.1664C47.9189 47.254 47.6138 47.2102 47.6574 47.3855C47.701 47.5607 47.7882 47.4293 48.0061 47.4293ZM44.955 48.5246C45.3037 49.7952 45.9575 50.9781 46.8292 51.9858L49.0958 49.7075L48.8343 49.357C48.6163 49.4447 48.7907 49.7513 48.6599 49.839C48.5292 49.9266 48.442 50.058 48.3984 50.1895C48.3548 50.3209 47.9625 50.6714 47.7882 50.4962C47.6138 50.3209 47.7446 49.4447 47.4831 49.4447C47.2215 49.4447 47.4395 49.5323 47.4831 49.839C47.5266 50.1457 47.3087 50.0142 47.2215 49.9704L46.7421 49.6199C46.4805 49.4008 46.6549 49.2256 46.6549 49.2256C46.6549 49.2256 46.4369 49.0503 46.3498 49.0503C46.2626 49.0503 46.3062 49.2256 46.1318 49.138C45.9575 49.0503 45.9575 48.7437 45.9575 48.7437C45.7395 48.7437 45.5216 48.6998 45.3037 48.6122L44.955 48.5246ZM52.67 37.922C50.8829 38.0534 49.1394 38.7106 47.7446 39.8935L49.0522 41.2079C49.2702 41.2517 49.2266 41.427 49.4881 41.5146C49.7496 41.6022 49.706 41.4708 49.924 41.427C50.1419 41.3832 50.0112 41.5584 50.0547 41.646C50.0983 41.7337 50.2727 41.5584 50.2727 41.5584C50.2727 41.5584 50.4034 41.646 50.665 41.5584C50.9265 41.4708 50.7957 41.2955 50.8829 41.1203C50.9701 40.945 50.9701 40.8574 50.9701 40.6822C50.9701 40.5069 51.2316 40.2879 51.3188 40.1564C51.406 40.025 51.5367 40.0688 51.6239 40.2002C51.7111 40.3317 51.5367 40.4193 51.5803 40.5507C51.6239 40.6822 52.0162 40.5069 52.6264 40.4193L52.67 37.922ZM58.6416 39.7621C57.2903 38.7106 55.6776 38.0534 53.9777 37.922V40.4193C54.2828 40.4631 54.5879 40.5507 54.8494 40.6822H54.9366C55.1109 40.3755 55.3725 40.2002 55.7212 40.1564C55.8519 40.0688 55.8083 39.9812 55.9391 39.8059C56.0699 39.6307 56.3314 39.8497 56.375 39.9812C56.4186 40.3755 56.3314 40.7698 56.1135 41.1203C55.9391 41.3394 55.7212 41.4708 55.4596 41.5584C55.8519 41.7337 56.2006 41.9527 56.5493 42.2156L56.8109 41.9965V41.8651L57.0724 41.6899L58.1621 40.5945H58.0749C57.9442 40.4631 57.5955 40.4631 58.2493 40.025L58.6416 39.7621ZM60.0364 41.0765L59.8184 40.8136L59.5569 41.0327C59.6877 41.2079 59.9056 41.427 59.862 41.3394C59.8184 41.2517 59.9492 41.2955 60.0364 41.0765ZM64.09 28.5023C64.2644 28.3709 64.308 28.5461 64.4823 28.5899C64.6567 28.6337 64.6567 28.4585 64.9182 28.5899C65.1362 28.6776 65.2669 28.8528 65.2669 29.0719C65.3105 29.2033 65.3541 29.3786 65.4413 29.51C65.4849 29.6414 65.1797 29.8167 64.9618 29.6852C64.7875 29.5538 64.6567 29.4224 64.5695 29.2471L64.0465 28.8528C64.0029 28.7214 64.0029 28.5899 64.09 28.5023ZM54.3264 26.3555C54.3264 26.3555 54.4571 26.1802 54.5879 26.2241H55.0238L55.7648 25.9612L56.375 25.6983L56.5929 25.5669C57.2032 25.4792 57.8134 25.6983 58.2929 26.0926L58.5108 26.2679L58.4236 26.4869C58.2057 26.6184 57.9442 26.7498 57.6826 26.8374C57.5083 26.8374 57.3339 26.8374 57.1596 26.7936L56.6801 26.706L55.7212 26.9689C55.5032 27.0127 55.2417 26.9689 55.0238 26.9251L54.8058 26.8374L54.3699 26.4869L54.3264 26.3555ZM64.3952 36.9143L65.0926 37.7467V37.8782L64.3952 36.9143Z" fill="#D6D3CD"/>
<path d="M65.7035 71.6137C65.8343 71.6137 67.5778 71.2632 70.2802 70.9565C72.9827 70.6498 74.116 70.7812 76.0774 70.2993C77.5594 69.9488 78.9106 69.1602 79.9132 67.9772C79.9132 67.9772 80.0439 67.9334 80.0003 68.0648C78.9542 69.9488 77.3851 71.4384 75.4672 72.3585C73.2006 73.41 70.6725 73.7605 68.188 73.3661C67.3598 73.1909 66.183 72.8404 64.9625 72.4899C63.8292 72.1394 62.6088 71.9641 61.4319 71.8765C61.4319 71.8765 61.3447 71.7451 61.6062 71.7013C62.6088 71.526 63.5677 71.2632 64.5266 70.8688C66.2266 70.0802 67.665 68.3715 68.7982 67.32C69.9315 66.2685 71.8058 64.3408 72.8955 63.8588C72.8955 63.8588 72.9827 63.8588 72.8955 63.9903C72.3725 64.6913 71.9366 65.4799 71.5879 66.2685C71.1956 67.4077 70.5854 68.4592 69.8008 69.3792C68.9726 70.2993 67.8829 71.0879 65.7035 71.5698C65.7035 71.5698 65.5727 71.6575 65.7035 71.6137ZM85.1001 59.6967C84.6642 62.0625 83.4438 64.2094 81.6131 65.7866C79.2593 67.9334 77.2979 68.722 76.1646 68.9849C75.0313 69.2478 73.898 69.3792 72.8955 69.5983C71.9366 69.7735 71.0212 70.0364 70.1059 70.3431C70.1059 70.3431 70.0187 70.3869 70.0623 70.2993C70.6725 69.8173 71.1956 69.2478 71.6315 68.5906C72.7212 67.1448 73.6801 63.7712 73.6801 63.7712C73.9852 62.8074 74.3775 61.7997 74.8134 60.8796C75.38 59.6967 77.2107 57.1117 77.5594 56.8489C77.9081 56.586 77.7338 56.7612 77.6902 56.8489C77.4286 57.4622 77.2107 58.1194 77.0364 58.7766C76.6441 60.6605 76.5569 62.5883 76.2954 63.3331C75.9902 64.516 75.4672 65.6113 74.7698 66.5752C74.2031 67.2762 73.5929 67.8896 72.8955 68.4592C72.7212 68.5468 72.9391 68.5468 72.9391 68.5468C73.4186 68.2401 73.898 67.9334 74.3775 67.5829C75.1621 66.9257 75.9467 66.3562 76.8184 65.8304C77.9953 65.1294 79.2158 64.8227 81.4823 63.5084C83.0515 62.6759 84.2719 61.3177 85.0129 59.6967C85.0129 59.6967 85.0565 59.4776 85.0565 59.6529L85.1001 59.6967ZM79.7388 49.9703C79.6516 50.5399 79.6516 51.1532 79.6952 51.7228C79.7824 52.4676 80.6106 55.5345 80.567 57.1555C80.567 58.7766 80.0439 60.3977 79.1286 61.712H79.2158C79.2158 61.712 80.9593 59.2585 81.7874 58.207C82.6156 57.1555 84.3591 55.5345 85.1873 54.5706C86.1898 53.3877 86.8436 51.9419 87.0616 50.4084H87.1052C87.3231 52.2485 87.1052 54.1325 86.4078 55.8412C85.7104 57.5499 84.6207 59.0395 83.2258 60.2224C81.831 61.3615 80.3054 62.413 78.7363 63.3331C77.9953 63.7712 77.2543 64.2532 76.6005 64.8227C76.6005 64.8227 76.5133 64.7789 76.5133 64.7351C76.9928 63.815 77.3851 62.8512 77.6902 61.8435C77.9517 60.4415 78.1261 59.0395 78.2132 57.6375C78.3004 56.2793 78.6927 51.4161 79.608 49.8827L79.7388 49.9703ZM79.3029 42.3469C79.2593 42.2593 79.1286 42.1279 79.1286 42.3469C79.1286 44.0556 79.3465 45.8081 79.7824 47.473C80.2183 49.2255 81.3516 52.9495 81.4823 53.4753C81.7003 54.6582 81.7003 55.9288 81.4823 57.1117C81.4823 57.1117 81.4823 57.3308 81.6131 57.1994C82.1797 56.2793 82.79 55.403 83.4438 54.5706C84.054 53.8696 85.536 52.0295 85.9283 51.0656C86.8 49.1817 87.2359 47.0787 87.1488 44.9757C87.1052 43.4861 86.8 41.9964 86.2334 40.6383C86.2334 40.6383 86.1026 40.5506 86.1462 40.6821C86.277 41.5145 86.277 42.3031 86.1898 43.1356C86.0155 44.2747 85.6668 45.3262 85.1437 46.3339C84.5335 47.6921 83.9232 49.2693 83.7489 49.7951C83.531 50.6713 83.3566 51.5476 83.2258 52.4676C83.1387 52.9934 82.9643 53.5191 82.7028 54.001L82.6156 53.9134C82.9207 53.1686 83.0515 52.4238 83.0515 51.6352C83.0951 50.1894 82.7028 48.7874 82.0054 47.5606C81.2644 46.3339 79.3901 43.5737 79.3029 42.3469ZM82.5284 31.9634C82.3977 31.8319 82.4413 32.0072 82.4413 32.0072C83.0951 33.1025 83.4002 34.3293 83.3566 35.5998C83.313 37.8781 82.9643 38.0095 82.9207 40.0249C82.9207 41.5145 83.0079 43.0479 83.1823 44.5376H83.0515C82.9643 43.5737 82.7464 42.6536 82.3541 41.7774C81.5695 40.0687 78.3876 37.4838 78.3876 37.4838C78.3876 37.4838 77.2979 36.4323 77.2107 35.8627C77.1235 35.2931 77.0364 35.8627 77.0364 35.8627C77.2979 37.1333 77.6902 38.36 78.2132 39.5429C79.1286 41.5583 81.1772 43.5737 81.7874 44.8004C82.3977 46.0272 82.7464 46.1148 83.2258 48.3931H83.313C83.4002 47.3416 83.6617 46.2901 84.054 45.3262C84.7514 43.2232 84.9258 43.4422 85.3181 41.4707C85.5796 40.0687 85.5796 38.5791 85.2745 37.1771C85.1437 36.7828 84.4463 34.0226 82.5284 31.9634ZM82.1361 40.2001C81.831 39.5868 81.4387 39.0172 80.9593 38.4914C80.3926 37.8343 79.7388 37.2209 79.085 36.6513C78.2132 35.9503 77.2543 35.3369 76.6441 34.7674C76.0338 34.1978 74.0724 31.5253 74.116 29.6413C74.5083 30.3423 74.9441 30.9995 75.5108 31.5691C76.2954 32.3577 78.3004 33.453 79.085 34.1978C80.0003 34.9864 80.7413 35.9941 81.1336 37.1333H81.2644C81.2644 37.1333 80.3926 34.8112 80.1747 33.9349C79.9567 32.7082 79.6516 31.4814 79.2593 30.2547C78.9542 29.2032 78.2568 28.2831 77.2979 27.6698L77.3851 27.5821C77.3851 27.5821 80.7849 28.1079 82.0926 32.6206C82.4848 33.9349 82.049 36.958 82.1361 38.1409C82.2233 39.3239 82.2669 40.1125 82.2669 40.1125L82.1361 40.2001ZM70.7161 24.5591L72.9391 25.3477C74.2467 25.7858 75.4236 26.5306 76.3825 27.4945C77.9517 29.247 78.3876 30.7804 78.7363 32.0948C78.8235 32.4891 78.9978 32.8834 79.2158 33.2339C79.2593 33.2339 79.1722 33.3216 79.1722 33.3216C79.1722 33.3216 76.2082 30.9557 75.2928 29.948C74.3775 28.9403 73.375 27.144 72.5904 26.3992L70.7161 24.5591ZM32.4459 73.8919C32.4459 73.8919 35.3663 77.2655 39.7251 77.3093C41.8173 77.3093 43.866 76.6521 45.5659 75.4253C46.7864 74.5491 48.0504 73.7166 49.358 72.9718C50.4477 72.4461 52.0605 72.8842 52.0605 72.8842C50.7964 73.3661 49.6196 74.0233 48.5299 74.812C47.0479 75.8196 45.6967 77.0026 44.4326 78.2731L45.9146 79.5437C46.8299 78.317 47.8761 77.2216 49.0529 76.2578C51.1016 74.5053 52.2784 73.8481 53.5425 73.3223C56.4629 74.812 59.0346 76.8711 61.0832 79.4561L62.5652 78.1855C62.5652 78.1855 59.1653 74.6805 54.9809 72.8404C54.9809 72.8404 55.3732 72.5775 57.1603 72.7966C57.9449 72.8842 58.6859 73.4976 59.5576 74.111C60.7345 74.9872 61.9549 75.732 63.2626 76.3892C64.5266 76.915 65.8343 77.1778 67.1855 77.2216C70.0187 77.1778 72.7212 75.9073 74.5518 73.7167C74.5518 73.7167 74.5518 73.629 74.4647 73.6728C72.8955 74.4615 72.0238 75.0748 69.4085 75.031C68.0137 74.9872 66.2266 74.5929 64.0036 73.5414C61.7806 72.4899 60.255 71.8327 57.5962 71.7889C54.9373 71.7451 53.7168 72.227 53.4553 72.3147C53.1938 72.4023 52.2348 71.7451 49.8811 71.7451C47.8761 71.7451 45.871 72.227 44.0403 73.1033C42.6891 73.7605 40.161 75.2063 37.197 75.1625C35.5407 75.1625 33.9715 74.6805 32.5767 73.8043C32.4895 73.8043 32.4459 73.8919 32.4459 73.8919ZM41.2943 71.7451C41.1635 71.7451 39.3764 71.3946 36.674 71.0879C33.9715 70.7812 32.7511 70.9565 30.7896 70.4745C29.3076 70.124 28 69.3354 26.9975 68.1963C26.9975 68.1963 26.8667 68.1087 26.9103 68.2401C27.9564 70.124 29.5256 71.6137 31.4434 72.5337C34.5817 74.111 38.0688 73.629 38.8969 73.4538C39.7251 73.2785 40.902 72.928 42.1225 72.5775C43.2993 72.227 44.4762 72.008 45.6967 71.9642C45.6967 71.9642 45.7838 71.7889 45.5223 71.7889C44.5198 71.7013 43.5173 71.4384 42.6019 70.9565C40.2046 69.7297 39.3764 68.5468 38.2431 67.4953C37.1098 66.4438 35.192 64.5598 34.1023 64.0779C34.1023 64.0779 34.0151 64.0779 34.1023 64.2093C34.6253 64.9103 35.0612 65.699 35.4099 66.4876C35.8458 67.6267 36.4124 68.6344 37.197 69.5545C38.0252 70.4745 39.2021 71.2632 41.3815 71.7451C41.2943 71.6575 41.425 71.7451 41.2943 71.7451ZM21.7233 59.9157C22.2028 62.2816 23.4232 64.4284 25.2539 66.0057C27.6077 68.1525 29.7435 68.9849 30.8768 69.204L34.1459 69.7735C35.0612 69.9488 35.9766 70.1678 36.8483 70.4745C36.8483 70.4745 36.9355 70.5183 36.8919 70.4307C36.3253 69.905 35.8022 69.3354 35.3663 68.6782C34.2766 67.2324 33.2741 63.8588 33.2741 63.8588C32.969 63.0264 32.6639 62.194 32.2716 61.3615C31.7049 60.1786 29.6999 57.287 29.3512 57.0241C29.0025 56.7612 29.1768 56.9365 29.2204 57.0241C29.482 57.6375 29.7435 58.2509 29.8743 58.908C30.0922 60.0472 30.4409 62.7197 30.7024 63.4645C31.0075 64.6475 31.5306 65.7866 32.2716 66.7943C32.7946 67.4953 33.4485 68.1525 34.1459 68.6782C34.3202 68.7658 34.1023 68.7658 34.1023 68.7658C33.5792 68.4592 33.0562 68.1087 32.5767 67.7582C31.9665 67.1886 31.2691 66.7067 30.5717 66.2685C29.3512 65.5675 27.782 65.0418 25.5155 63.6836C23.2489 62.3254 22.3335 60.8796 21.8541 59.8719C21.8541 59.9157 21.7233 59.6967 21.7233 59.9157ZM26.9103 50.2332C26.9975 50.8465 27.041 51.4161 26.9975 52.0295C26.9103 52.7743 26.1693 55.7974 26.2129 57.4184C26.2129 59.0395 26.7359 60.6605 27.6949 61.9749H27.6077C27.6077 61.9749 25.8642 59.5214 25.0796 58.4699C24.295 57.4184 22.4643 55.8412 21.6797 54.8335C20.6772 53.6944 19.9362 52.2924 19.6311 50.8027H19.5875C19.3696 52.599 19.6311 54.4392 20.3285 56.1479C21.0259 57.8565 22.1156 59.3462 23.554 60.5291C24.9488 61.6682 26.4744 62.7197 28.0436 63.6398C28.7846 64.0779 29.5256 64.5598 30.1794 65.1294C30.1794 65.1294 30.2665 65.1294 30.2665 65.0856C29.7871 64.1655 29.3948 63.2017 29.0897 62.194C28.8281 60.792 28.6538 59.39 28.5666 57.988C28.4794 56.6298 27.9564 51.7228 27.0846 50.1894L26.9103 50.2332ZM27.3026 42.4784C27.3462 42.3907 27.4769 42.2593 27.4769 42.4784C27.3897 44.1871 27.2154 45.8957 26.9103 47.6044C26.518 49.4007 25.3411 53.081 25.2104 53.6067C25.036 54.8335 25.036 56.0164 25.2104 57.2432C25.2104 57.2432 25.2104 57.4622 25.0796 57.3308C24.9488 57.1994 23.8591 55.4469 23.2489 54.7897C22.6387 54.1325 21.1131 52.2485 20.7208 51.2847C19.8055 49.1817 19.4132 46.9034 19.5439 44.6252C19.7619 41.6459 20.4157 40.9011 20.4157 40.9011C20.4157 40.9011 20.5464 40.8135 20.5029 40.9449C20.3721 41.7336 20.3721 42.5222 20.4593 43.3108C20.6336 44.5376 21.0695 45.7205 21.6797 46.8158C22.2028 47.8235 22.6387 48.9188 22.9874 50.0141C23.2489 50.8465 23.4232 51.679 23.554 52.5552C23.6412 53.081 23.8155 53.6067 24.0771 54.0887H24.1207C23.8155 53.3439 23.6848 52.5552 23.6848 51.7666C23.6412 50.3208 23.9899 48.9188 24.7309 47.6921C25.3847 46.4215 27.259 43.7051 27.3026 42.4784ZM23.9027 32.2263C23.9899 32.0948 24.0771 32.2263 24.0771 32.2263C24.0771 32.2263 23.1617 33.3654 23.2053 35.6436C23.2489 37.9219 23.6412 38.3162 23.6848 40.3754C23.6848 41.865 23.5976 43.3108 23.4232 44.8004H23.554C23.5976 43.7489 23.8591 42.7412 24.3386 41.8212C25.1668 40.1563 28.3051 37.5714 28.3051 37.5714C28.3051 37.5714 29.264 36.6075 29.3948 35.9941C29.5256 35.3808 29.5256 36.0379 29.5256 36.0379C29.3512 37.2647 29.0025 38.4476 28.4794 39.5429C27.5641 41.5583 25.6898 43.5299 25.036 44.7566C24.3822 45.9834 23.9027 46.3777 23.4668 48.6559H23.3361C23.2053 47.5606 22.9438 46.5091 22.5515 45.5014C21.8541 43.3984 21.6797 43.7051 21.2874 41.7774C21.0259 40.2878 21.0259 38.7105 21.331 37.2209C21.7669 35.3808 22.6387 33.6721 23.9027 32.2263ZM24.4258 40.463C24.7309 39.8058 25.1668 39.2363 25.6462 38.7105C26.2565 38.0533 26.8667 37.4399 27.5641 36.8704C28.3923 36.1694 29.3948 35.5122 30.005 34.9426C30.6152 34.3731 32.4024 31.7005 32.3588 29.8166C32.0536 30.5176 31.6178 31.1748 31.0947 31.7443C30.3101 32.5329 28.3051 33.7159 27.4769 34.4607C26.518 35.2493 25.8206 36.3008 25.3847 37.4399H25.3411C25.3411 37.4399 26.1693 35.0741 26.3872 34.1978C26.6052 32.9711 26.9103 31.7443 27.3026 30.5176C27.6077 29.4661 28.3051 28.546 29.2204 27.9765C29.264 27.9765 29.2204 27.8888 29.2204 27.8888C29.2204 27.8888 25.7334 28.4146 24.4694 32.9273C24.0771 34.2416 24.6001 37.3085 24.5129 38.4914C24.4258 39.6744 24.4258 40.4192 24.4258 40.463L24.5129 40.4192V40.3316M35.5843 24.7781L33.6228 25.4791C32.3152 25.9173 31.0947 26.6621 30.0922 27.6698C28.523 29.4223 28.0872 31.0433 27.7384 32.3577C27.3897 33.6721 27.3462 33.5844 27.3462 33.5844C27.3462 33.5844 30.3537 31.2186 31.2255 30.2109C32.0972 29.2032 33.1433 27.3193 33.8843 26.5745L35.5843 24.7781Z" fill="#D6D3CD"/>
</g>
<defs>
<clipPath id="clip0_1227_2933">
<rect width="242" height="57" fill="white" transform="translate(19.5 22.5)"/>
</clipPath>
</defs>
</svg>
