<svg width="281" height="101" viewBox="0 0 281 101" fill="none" xmlns="http://www.w3.org/2000/svg">
<rect x="0.5" y="0.5" width="280" height="100" stroke="#D6D3CD"/>
<path d="M209.862 36.1174C208.303 36.1174 206.994 36.369 205.938 36.8889C204.881 37.4088 203.976 38.13 203.221 39.0357L202.684 36.3522H197.535V57.8535H203.439V46.8513C203.439 44.9896 203.858 43.5305 204.697 42.5074C205.535 41.4843 206.726 40.9644 208.252 40.9644C211.154 40.9644 212.596 42.8261 212.596 46.5326V57.8702H218.5V46.1972C218.5 42.608 217.695 40.0252 216.068 38.4655C214.441 36.9057 212.361 36.1174 209.862 36.1174ZM194.231 36.369C192.638 36.369 191.38 36.6374 190.424 37.1908C189.468 37.7275 188.68 38.5325 188.043 39.5892L187.506 36.369H182.156V57.8702H188.059V47.3376C188.059 45.6102 188.445 44.2349 189.233 43.2454C190.022 42.2391 191.246 41.7359 192.906 41.7359H195.254V36.369H194.231ZM168.604 53.8618C167.631 53.8618 166.86 53.6438 166.29 53.1909C165.719 52.7381 165.434 52.1511 165.434 51.3964C165.434 50.5075 165.77 49.8198 166.457 49.3335C167.145 48.8471 168.101 48.5955 169.325 48.5955H173.636V49.0148C173.602 50.4907 173.149 51.6647 172.26 52.5536C171.355 53.4257 170.147 53.8618 168.604 53.8618ZM169.912 36.1174C167.011 36.1174 164.68 36.7212 162.935 37.9288C161.174 39.1363 160.202 40.847 160 43.0441H165.686C165.82 42.2391 166.256 41.6018 166.961 41.1154C167.665 40.6458 168.587 40.411 169.694 40.411C170.885 40.411 171.841 40.6961 172.562 41.2495C173.267 41.803 173.636 42.5745 173.636 43.5473V44.6542H169.409C166.172 44.6542 163.707 45.2747 162.03 46.4991C160.336 47.7234 159.497 49.4844 159.497 51.7654C159.497 53.7779 160.202 55.3377 161.61 56.4446C163.019 57.5683 164.914 58.1218 167.279 58.1218C168.722 58.1218 169.979 57.8702 171.019 57.3671C172.059 56.8639 172.998 56.126 173.803 55.1532L174.256 57.8702H179.439V43.8995C179.439 41.3669 178.617 39.4382 176.956 38.1133C175.296 36.7883 172.948 36.1174 169.912 36.1174ZM141.971 44.6206C142.139 43.3628 142.659 42.3732 143.547 41.6353C144.42 40.8973 145.51 40.5284 146.784 40.5284C148.126 40.5284 149.233 40.8806 150.105 41.6018C150.977 42.3062 151.514 43.3292 151.715 44.6374H141.971V44.6206ZM135.698 47.1699C135.698 49.367 136.168 51.2957 137.107 52.9561C138.046 54.6165 139.371 55.8912 141.116 56.7801C142.86 57.669 144.923 58.1218 147.321 58.1218C149.166 58.1218 150.793 57.7864 152.218 57.1323C153.644 56.4782 154.784 55.5725 155.64 54.432C156.512 53.2916 157.049 52.0002 157.267 50.5913H151.447C151.195 51.5976 150.675 52.3524 149.87 52.8723C149.082 53.3922 148.076 53.6438 146.885 53.6438C145.376 53.6438 144.201 53.1909 143.329 52.302C142.457 51.4131 141.971 50.1888 141.82 48.6291V48.4613H157.418C157.535 47.8743 157.585 47.2035 157.585 46.4487C157.552 44.3523 157.082 42.541 156.143 40.998C155.204 39.455 153.912 38.2474 152.252 37.4088C150.591 36.5535 148.68 36.1342 146.499 36.1342C144.352 36.1342 142.457 36.587 140.83 37.4927C139.204 38.3984 137.929 39.6898 137.023 41.3334C136.151 42.9938 135.698 44.9393 135.698 47.1699ZM113.157 36.369L121.442 57.9876L120.906 59.4132C120.604 60.1344 120.285 60.6208 119.95 60.8723C119.614 61.1239 119.078 61.2413 118.323 61.2413H115.052V66.2225H120.788C121.878 66.2225 122.767 66.038 123.438 65.6523C124.126 65.2833 124.679 64.713 125.132 63.9751C125.585 63.2371 126.055 62.2141 126.558 60.9059L136.101 36.3522H129.778L124.679 51.7821L119.447 36.3522H113.157V36.369Z" fill="#D6D3CD"/>
<path d="M96.6709 45.7443L91.2369 51.1783C91.5388 52.1678 91.6897 53.2244 91.6897 54.281C91.6897 57.149 90.566 59.8492 88.5534 61.8786C86.524 63.9079 83.8238 65.0149 80.9559 65.0149C78.0879 65.0149 75.3877 63.8912 73.3583 61.8786C71.329 59.8492 70.222 57.149 70.222 54.281C70.222 53.2076 70.373 52.1678 70.6749 51.1783L65.2241 45.7443C63.8488 48.2768 63.0605 51.195 63.0605 54.2978C63.0605 64.1763 71.0774 72.1931 80.9559 72.1931C90.8343 72.1931 98.8512 64.1763 98.8512 54.2978C98.8512 51.195 98.0629 48.2768 96.6709 45.7443Z" fill="#D6D3CD"/>
<path d="M77.3666 57.8535H84.5281V46.4824L96.7211 34.2894L91.656 29.2244L80.9558 39.9247L70.2555 29.2244L65.1904 34.2894L77.3666 46.4656V57.8535Z" fill="#D6D3CD"/>
</svg>
