<svg width="56" height="56" viewBox="0 0 56 56" fill="none" xmlns="http://www.w3.org/2000/svg">
<path d="M47.8353 23.8479H39.4122L36.1621 27.9301H43.3449C42.4197 31.6467 39.03 34.4117 34.9997 34.4117C34.0011 34.4117 33.0423 34.2401 32.15 33.9283C33.9309 31.7225 34.9997 28.928 34.9997 25.8892C34.9997 23.4548 34.3126 21.178 33.1239 19.2342C31.9631 19.5537 30.8841 20.1622 30.0239 21.0053C29.8158 21.207 29.6253 21.4226 29.4492 21.6479C30.177 22.8979 30.5957 24.3452 30.5957 25.8892C30.5957 26.0451 30.59 26.1998 30.5817 26.354C30.4248 29.5756 28.3285 32.5648 25.3039 33.7618C24.8616 33.9426 24.404 34.0841 23.9377 34.1902C23.8756 34.2044 23.8135 34.2187 23.7506 34.2316C23.7002 34.2418 23.6502 34.2514 23.5998 34.2608C23.5083 34.2779 23.4164 34.2938 23.3239 34.3081C23.29 34.3132 23.2561 34.3186 23.222 34.3234C23.1131 34.339 23.0034 34.352 22.8932 34.3636C22.8699 34.366 22.8469 34.369 22.8236 34.3711C22.7026 34.3826 22.5812 34.3918 22.4588 34.3982C22.4439 34.3991 22.429 34.4005 22.4138 34.4012C22.2776 34.4077 22.1408 34.4117 22.003 34.4117C22.0019 34.4117 22.0005 34.4117 21.9994 34.4117C17.2596 34.4117 13.4035 30.5885 13.4035 25.8892C13.4035 21.1898 17.2599 17.3667 21.9994 17.3667C22.998 17.3667 23.9568 17.5382 24.8492 17.85C23.0682 20.0559 21.9994 22.8503 21.9994 25.8892C21.9994 28.3235 22.6865 30.6003 23.8753 32.5441C25.036 32.2246 26.1151 31.6162 26.9752 30.7729C27.1835 30.5714 27.3738 30.3557 27.5499 30.1304C26.8221 28.8804 26.4034 27.4331 26.4034 25.8892C26.4034 25.7332 26.4091 25.5785 26.4176 25.4244C26.5743 22.2027 28.6706 19.2135 31.6952 18.0165C32.1369 17.8358 32.5944 17.6945 33.0603 17.5884C33.1231 17.5739 33.1859 17.5597 33.2493 17.5466C33.2992 17.5364 33.3487 17.527 33.3987 17.5176C33.4909 17.5001 33.5833 17.4843 33.6765 17.47C33.7098 17.4649 33.7434 17.4598 33.7766 17.455C33.8863 17.4394 33.9966 17.426 34.1073 17.4145C34.1297 17.412 34.1526 17.4094 34.1749 17.4072C34.2966 17.3957 34.4191 17.3865 34.5419 17.3801C34.5563 17.3793 34.5704 17.3779 34.5848 17.3774C34.7224 17.3707 34.8605 17.3667 34.9997 17.3667C38.4217 17.3667 41.3809 19.3604 42.7629 22.237H47.4648C45.8729 16.9032 40.8889 13 35 13C32.6328 13 30.4137 13.6334 28.4999 14.7341C26.5863 13.6337 24.3671 13 22 13C14.8316 13 9 18.782 9 25.8889V38.7777L13.121 42V35.2906C15.4466 37.451 18.5691 38.7777 22 38.7777C24.3671 38.7777 26.5863 38.1444 28.4999 37.0436C30.4137 38.1441 32.6328 38.7777 35 38.7777C38.4308 38.7777 41.5533 37.451 43.8789 35.2906V42L48 38.3696V23.8479H47.8353Z" fill="#EAE8E4"/>
</svg>
