<svg width="1200" height="630" viewBox="0 0 1200 630" xmlns="http://www.w3.org/2000/svg">
  <rect width="1200" height="630" fill="#000000"/>

  <!-- Foundation pillars (representing Ethereum Foundation) -->
  <g opacity="0.25">
    <rect x="850" y="300" width="40" height="150" rx="3" fill="none" stroke="#FFFFFF" stroke-width="2"/>
    <rect x="910" y="280" width="40" height="170" rx="3" fill="none" stroke="#FFFFFF" stroke-width="2"/>
    <rect x="970" y="290" width="40" height="160" rx="3" fill="none" stroke="#FFFFFF" stroke-width="2"/>
    <rect x="1030" y="300" width="40" height="150" rx="3" fill="none" stroke="#FFFFFF" stroke-width="2"/>
  </g>

  <!-- Supported projects constellation -->
  <g opacity="0.8">
    <circle cx="900" cy="180" r="4" fill="#FFFFFF"/>
    <circle cx="950" cy="160" r="4" fill="#FFFFFF"/>
    <circle cx="1000" cy="170" r="4" fill="#FFFFFF"/>
    <circle cx="1050" cy="190" r="4" fill="#FFFFFF"/>
    <circle cx="870" cy="220" r="3" fill="#FFFFFF"/>
    <circle cx="1080" cy="210" r="3" fill="#FFFFFF"/>
  </g>

  <!-- Radiating sun (continuous support) -->
  <g transform="translate(1100, 380)" opacity="0.3">
    <circle cx="0" cy="0" r="12" fill="#000000" stroke="#FFFFFF" stroke-width="2"/>
    <line x1="0" y1="-20" x2="0" y2="-25" stroke="#FFFFFF" stroke-width="2"/>
    <line x1="14" y1="-14" x2="18" y2="-18" stroke="#FFFFFF" stroke-width="2"/>
    <line x1="20" y1="0" x2="25" y2="0" stroke="#FFFFFF" stroke-width="2"/>
    <line x1="14" y1="14" x2="18" y2="18" stroke="#FFFFFF" stroke-width="2"/>
    <line x1="0" y1="20" x2="0" y2="25" stroke="#FFFFFF" stroke-width="2"/>
    <line x1="-14" y1="14" x2="-18" y2="18" stroke="#FFFFFF" stroke-width="2"/>
    <line x1="-20" y1="0" x2="-25" y2="0" stroke="#FFFFFF" stroke-width="2"/>
    <line x1="-14" y1="-14" x2="-18" y2="-18" stroke="#FFFFFF" stroke-width="2"/>
  </g>

  <!-- Horizon -->
  <line x1="0" y1="520" x2="750" y2="520" stroke="#FFFFFF" stroke-width="1" opacity="0.3"/>
  <path d="M 0 520 Q 150 500 300 520 T 600 520 L 600 630 L 0 630 Z" fill="#000000" stroke="#FFFFFF" stroke-width="2"/>
  <g opacity="0.5">
    <line x1="60" y1="520" x2="70" y2="630" stroke="#FFFFFF" stroke-width="1"/>
    <line x1="120" y1="505" x2="130" y2="630" stroke="#FFFFFF" stroke-width="1"/>
    <line x1="180" y1="512" x2="190" y2="630" stroke="#FFFFFF" stroke-width="1"/>
  </g>

  <text x="80" y="230" font-family="Arial, sans-serif" font-size="78" font-weight="bold" fill="#FFFFFF">ESP</text>
  <text x="80" y="300" font-family="Arial, sans-serif" font-size="34" font-weight="500" fill="#FFFFFF" opacity="0.85">Ethereum Foundation</text>
  <text x="80" y="370" font-family="Arial, sans-serif" font-size="26" fill="#FFFFFF" opacity="0.8">Ecosystem Support • Rolling</text>

  <g transform="translate(60, 260)">
    <line x1="0" y1="-8" x2="0" y2="8" stroke="#FFFFFF" stroke-width="1.5"/>
    <line x1="-8" y1="0" x2="8" y2="0" stroke="#FFFFFF" stroke-width="1.5"/>
  </g>
</svg>
